<svg width="21" height="20" viewBox="0 0 21 20" fill="none" xmlns="http://www.w3.org/2000/svg">
<path d="M2.66797 10.0003C2.66797 5.6848 6.18578 2.16699 10.5013 2.16699C14.8168 2.16699 18.3346 5.6848 18.3346 10.0003C18.3346 14.3159 14.8168 17.8337 10.5013 17.8337C6.18578 17.8337 2.66797 14.3159 2.66797 10.0003ZM11.6263 13.3337V11.1253H13.8346C14.4524 11.1253 14.9596 10.6181 14.9596 10.0003C14.9596 9.38252 14.4524 8.87533 13.8346 8.87533H11.6263V6.66699C11.6263 6.04918 11.1191 5.54199 10.5013 5.54199C9.88349 5.54199 9.3763 6.04918 9.3763 6.66699V8.87533H7.16797C6.55016 8.87533 6.04297 9.38252 6.04297 10.0003C6.04297 10.6181 6.55016 11.1253 7.16797 11.1253H9.3763V13.3337C9.3763 13.9515 9.88349 14.4587 10.5013 14.4587C11.1191 14.4587 11.6263 13.9515 11.6263 13.3337Z" fill="#E20B18" stroke="#E20B18"/>
</svg>
