<svg width="24" height="30" viewBox="0 0 24 30" fill="none" xmlns="http://www.w3.org/2000/svg">
<path d="M3.49959 29.1667C2.72043 29.1667 2.05341 28.8892 1.49855 28.3344C0.94369 27.7795 0.66626 27.1125 0.66626 26.3333V20.6667C0.66626 19.8875 0.94369 19.2205 1.49855 18.6656C2.05341 18.1108 2.72043 17.8333 3.49959 17.8333H20.4996C21.2788 17.8333 21.9458 18.1108 22.5006 18.6656C23.0555 19.2205 23.3329 19.8875 23.3329 20.6667V26.3333C23.3329 27.1125 23.0555 27.7795 22.5006 28.3344C21.9458 28.8892 21.2788 29.1667 20.4996 29.1667H3.49959ZM4.91626 23.5H19.0829C19.4843 23.5 19.8208 23.3642 20.0923 23.0927C20.3638 22.8212 20.4996 22.4847 20.4996 22.0833C20.4996 21.682 20.3638 21.3455 20.0923 21.074C19.8208 20.8024 19.4843 20.6667 19.0829 20.6667H4.91626C4.51487 20.6667 4.17841 20.8024 3.90688 21.074C3.63536 21.3455 3.49959 21.682 3.49959 22.0833C3.49959 22.4847 3.63536 22.8212 3.90688 23.0927C4.17841 23.3642 4.51487 23.5 4.91626 23.5ZM10.8308 16.2042L5.58918 8.87293C5.37668 8.56598 5.22911 8.22952 5.14647 7.86355C5.06383 7.49758 5.04612 7.12571 5.09334 6.74793C5.37668 5.02432 6.15584 3.60765 7.43084 2.49793C8.70584 1.3882 10.2288 0.833344 11.9996 0.833344C13.7704 0.833344 15.2933 1.3882 16.5683 2.49793C17.8433 3.60765 18.6225 5.02432 18.9058 6.74793C18.9531 7.12571 18.9354 7.49758 18.8527 7.86355C18.7701 8.22952 18.6225 8.56598 18.41 8.87293L13.1683 16.2042C12.885 16.6056 12.4954 16.8063 11.9996 16.8063C11.5038 16.8063 11.1142 16.6056 10.8308 16.2042Z" fill="#E20B18"/>
</svg>
