<svg width="63" height="80" viewBox="0 0 63 80" fill="none" xmlns="http://www.w3.org/2000/svg">
<path d="M52.5425 45.0687L44.495 42.9225C44.2791 42.8651 44.0826 42.7508 43.9259 42.5916C43.7691 42.4325 43.6579 42.2342 43.6037 42.0175L42.5225 37.6887C44.3763 35.505 45.775 32.8363 46.2775 29.86C49.035 29.145 50.25 25.64 50.25 23.75C50.25 22.1262 49.615 21.3037 49 20.8862V17.5C49 7.85 41.15 0 31.5 0C21.85 0 14 7.85 14 17.5V20.8862C13.385 21.3037 12.75 22.1262 12.75 23.75C12.75 25.6388 13.9625 29.1375 16.7125 29.86C17.2113 32.915 18.63 35.555 20.4762 37.6912L19.395 42.0175C19.3411 42.2345 19.2299 42.433 19.0732 42.5924C18.9164 42.7518 18.7198 42.8662 18.5037 42.9238L10.4563 45.07C7.53044 45.8526 4.94449 47.5785 3.09924 49.9802C1.25399 52.3818 0.252496 55.3251 0.25 58.3537V78.75C0.25 79.0815 0.381696 79.3995 0.616117 79.6339C0.850537 79.8683 1.16848 80 1.5 80C1.83152 80 2.14946 79.8683 2.38388 79.6339C2.6183 79.3995 2.75 79.0815 2.75 78.75V58.3537C2.75214 55.8755 3.57164 53.4671 5.08148 51.5019C6.59133 49.5367 8.70722 48.1244 11.1012 47.4837L11.4875 47.3812C13.46 50.9037 17.4237 59.665 12.94 66.8388C12.8158 67.0369 12.75 67.2661 12.75 67.5V78.75C12.75 79.0815 12.8817 79.3995 13.1161 79.6339C13.3505 79.8683 13.6685 80 14 80C14.3315 80 14.6495 79.8683 14.8839 79.6339C15.1183 79.3995 15.25 79.0815 15.25 78.75V67.85C19.9113 59.9975 16.2 50.8888 13.975 46.7163L18.1925 45.5912C20.5425 48.9437 25.0362 53.75 31.5 53.75C37.9637 53.75 42.4575 48.9437 44.8063 45.5912L49.0238 46.7163C46.8 50.89 43.0887 59.9987 47.75 67.85V78.75C47.75 79.0815 47.8817 79.3995 48.1161 79.6339C48.3505 79.8683 48.6685 80 49 80C49.3315 80 49.6495 79.8683 49.8839 79.6339C50.1183 79.3995 50.25 79.0815 50.25 78.75V67.5C50.25 67.265 50.1838 67.0363 50.06 66.8375C45.5762 59.6638 49.54 50.9037 51.5125 47.38L51.8988 47.4825C54.2929 48.1233 56.4088 49.5359 57.9186 51.5014C59.4285 53.4668 60.2479 55.8753 60.25 58.3537V78.75C60.25 79.0815 60.3817 79.3995 60.6161 79.6339C60.8505 79.8683 61.1685 80 61.5 80C61.8315 80 62.1495 79.8683 62.3839 79.6339C62.6183 79.3995 62.75 79.0815 62.75 78.75V58.3537C62.7477 55.3247 61.7462 52.381 59.9006 49.9791C58.0551 47.5772 55.4688 45.8512 52.5425 45.0687ZM46.5 26.8725V23.2225C47.11 22.9212 47.5025 22.9062 47.59 22.95C47.615 22.9625 47.75 23.1663 47.75 23.75C47.75 24.635 47.2825 26.0587 46.5 26.8725ZM31.5 2.5C39.7713 2.5 46.5 9.22875 46.5 17.5V20.565C46.3125 20.6125 46.125 20.6588 45.9312 20.7337C45.4125 19.4237 44.5588 17.5425 43.6338 16.6163C42.0575 15.04 38.3 14.69 32.3 14.3C28.29 14.0387 23.7463 13.745 22.1938 12.71C22.0055 12.5844 21.7867 12.5123 21.5606 12.5013C21.3346 12.4903 21.1098 12.5409 20.9103 12.6477C20.7108 12.7544 20.5439 12.9133 20.4277 13.1075C20.3114 13.3016 20.25 13.5237 20.25 13.75C20.25 16.9737 18.45 19.6787 17.4762 20.9087C17.1628 20.7611 16.8359 20.6439 16.5 20.5588V17.5C16.5 9.22875 23.2288 2.5 31.5 2.5ZM15.41 22.9487C15.4975 22.905 15.89 22.92 16.5 23.2212V26.8713C15.7175 26.0575 15.25 24.6338 15.25 23.7488C15.25 23.1663 15.385 22.9625 15.41 22.9487ZM19 22.9813C19.8563 22.01 22.0125 19.2675 22.6012 15.5925C24.9788 16.33 28.48 16.5562 32.1362 16.7938C35.81 17.0325 40.8413 17.3588 41.865 18.3825C42.59 19.1075 43.5275 21.3438 43.9987 22.7113V27.5C43.9987 34.6675 36.8625 41.25 31.4988 41.25C27.22 41.25 18.9988 35.4425 18.9988 27.5L19 22.9813ZM31.5 51.25C26.4025 51.25 22.6612 47.4712 20.5462 44.585C21.1562 44.0825 21.6225 43.4162 21.8213 42.6237L22.5413 39.7425C25.55 42.3063 29.0525 43.75 31.5 43.75C34.2125 43.75 37.595 42.2625 40.465 39.7675L41.1787 42.625C41.382 43.3984 41.8291 44.0857 42.4538 44.585C40.3387 47.4712 36.5975 51.25 31.5 51.25Z" fill="black"/>
<path d="M39 63.75C36.2425 63.75 34 65.9925 34 68.75C34 71.5075 36.2425 73.75 39 73.75C41.7575 73.75 44 71.5075 44 68.75C44 65.9925 41.7575 63.75 39 63.75ZM39 71.25C37.6212 71.25 36.5 70.1287 36.5 68.75C36.5 67.3712 37.6212 66.25 39 66.25C40.3787 66.25 41.5 67.3712 41.5 68.75C41.5 70.1287 40.3787 71.25 39 71.25Z" fill="black"/>
</svg>
