<svg width="25" height="24" viewBox="0 0 25 24" fill="none" xmlns="http://www.w3.org/2000/svg">
<path d="M8.83283 22H16.8328C20.8528 22 21.5728 20.39 21.7828 18.43L22.5328 10.43C22.8028 7.99 22.1028 6 17.8328 6H7.83283C3.56283 6 2.86283 7.99 3.13283 10.43L3.88283 18.43C4.09283 20.39 4.81283 22 8.83283 22Z" stroke="#828282" stroke-width="1.5" stroke-miterlimit="10" stroke-linecap="round" stroke-linejoin="round"/>
<path d="M8.83203 6V5.2C8.83203 3.43 8.83203 2 12.032 2H13.632C16.832 2 16.832 3.43 16.832 5.2V6" stroke="#828282" stroke-width="1.5" stroke-miterlimit="10" stroke-linecap="round" stroke-linejoin="round"/>
<path d="M14.832 13V14C14.832 14.01 14.832 14.01 14.832 14.02C14.832 15.11 14.822 16 12.832 16C10.852 16 10.832 15.12 10.832 14.03V13C10.832 12 10.832 12 11.832 12H13.832C14.832 12 14.832 12 14.832 13Z" stroke="#828282" stroke-width="1.5" stroke-miterlimit="10" stroke-linecap="round" stroke-linejoin="round"/>
<path d="M22.482 11C20.172 12.68 17.532 13.68 14.832 14.02" stroke="#828282" stroke-width="1.5" stroke-miterlimit="10" stroke-linecap="round" stroke-linejoin="round"/>
<path d="M3.45312 11.27C5.70312 12.81 8.24313 13.74 10.8331 14.03" stroke="#828282" stroke-width="1.5" stroke-miterlimit="10" stroke-linecap="round" stroke-linejoin="round"/>
</svg>
