<svg width="24" height="24" viewBox="0 0 24 24" fill="none" xmlns="http://www.w3.org/2000/svg">
<g id="vuesax/linear/calendar">
<g id="calendar">
<path id="Vector" d="M8 2V5" stroke="#333333" stroke-width="1.5" stroke-miterlimit="10" stroke-linecap="round" stroke-linejoin="round"/>
<path id="Vector_2" d="M16 2V5" stroke="#333333" stroke-width="1.5" stroke-miterlimit="10" stroke-linecap="round" stroke-linejoin="round"/>
<path id="Vector_3" d="M16 3.5C19.33 3.68 21 4.95 21 9.65V15.83C21 19.95 20 22.01 15 22.01H9C4 22.01 3 19.95 3 15.83V9.65C3 4.95 4.67 3.69 8 3.5H16Z" stroke="#333333" stroke-width="1.5" stroke-miterlimit="10" stroke-linecap="round" stroke-linejoin="round"/>
<path id="Vector_4" d="M20.75 17.5996H3.25" stroke="#333333" stroke-width="1.5" stroke-miterlimit="10" stroke-linecap="round" stroke-linejoin="round"/>
<g id="Vector_5">
<mask id="path-5-inside-1_6203_28549" fill="white">
<path d="M12 8.25C10.77 8.25 9.73 8.92 9.73 10.22C9.73 10.84 10.02 11.31 10.46 11.61C9.85 11.97 9.5 12.55 9.5 13.23C9.5 14.47 10.45 15.24 12 15.24C13.54 15.24 14.5 14.47 14.5 13.23C14.5 12.55 14.15 11.96 13.53 11.61C13.98 11.3 14.26 10.84 14.26 10.22C14.26 8.92 13.23 8.25 12 8.25ZM12 11.09C11.48 11.09 11.1 10.78 11.1 10.29C11.1 9.79 11.48 9.5 12 9.5C12.52 9.5 12.9 9.79 12.9 10.29C12.9 10.78 12.52 11.09 12 11.09ZM12 14C11.34 14 10.86 13.67 10.86 13.07C10.86 12.47 11.34 12.15 12 12.15C12.66 12.15 13.14 12.48 13.14 13.07C13.14 13.67 12.66 14 12 14Z"/>
</mask>
<path d="M12 8.25C10.77 8.25 9.73 8.92 9.73 10.22C9.73 10.84 10.02 11.31 10.46 11.61C9.85 11.97 9.5 12.55 9.5 13.23C9.5 14.47 10.45 15.24 12 15.24C13.54 15.24 14.5 14.47 14.5 13.23C14.5 12.55 14.15 11.96 13.53 11.61C13.98 11.3 14.26 10.84 14.26 10.22C14.26 8.92 13.23 8.25 12 8.25ZM12 11.09C11.48 11.09 11.1 10.78 11.1 10.29C11.1 9.79 11.48 9.5 12 9.5C12.52 9.5 12.9 9.79 12.9 10.29C12.9 10.78 12.52 11.09 12 11.09ZM12 14C11.34 14 10.86 13.67 10.86 13.07C10.86 12.47 11.34 12.15 12 12.15C12.66 12.15 13.14 12.48 13.14 13.07C13.14 13.67 12.66 14 12 14Z" fill="#292D32"/>
<path d="M10.46 11.61L11.2224 12.9018L13.2566 11.7013L11.305 10.3707L10.46 11.61ZM13.53 11.61L12.679 10.3747L10.7025 11.7363L12.7926 12.9162L13.53 11.61ZM12 6.75C11.1311 6.75 10.2081 6.9849 9.46844 7.57482C8.68893 8.19654 8.23 9.12507 8.23 10.22H11.23C11.23 10.0989 11.2532 10.0357 11.2665 10.0075C11.2799 9.97945 11.3 9.95132 11.3391 9.92018C11.4269 9.8501 11.6389 9.75 12 9.75V6.75ZM8.23 10.22C8.23 11.3704 8.79442 12.2899 9.61499 12.8493L11.305 10.3707C11.2608 10.3405 11.2481 10.3191 11.2452 10.3138C11.2431 10.3099 11.2401 10.3036 11.2372 10.292C11.2343 10.2802 11.23 10.2573 11.23 10.22H8.23ZM9.69762 10.3182C8.66728 10.9263 8 11.9779 8 13.23H11C11 13.1221 11.0327 13.0137 11.2224 12.9018L9.69762 10.3182ZM8 13.23C8 14.2687 8.41649 15.2144 9.22758 15.868C10.0012 16.4913 10.9944 16.74 12 16.74V13.74C11.4556 13.74 11.1988 13.6037 11.1099 13.532C11.0689 13.499 11.049 13.4699 11.0357 13.441C11.0215 13.4102 11 13.3462 11 13.23H8ZM12 16.74C13.0026 16.74 13.994 16.4904 14.767 15.8693C15.5772 15.2184 16 14.2738 16 13.23H13C13 13.3439 12.9787 13.4068 12.9646 13.4374C12.9511 13.4664 12.9305 13.4965 12.888 13.5307C12.796 13.6046 12.5374 13.74 12 13.74V16.74ZM16 13.23C16 11.986 15.3383 10.9083 14.2674 10.3038L12.7926 12.9162C12.9617 13.0117 13 13.114 13 13.23H16ZM14.381 12.8453C15.2072 12.2761 15.76 11.3689 15.76 10.22H12.76C12.76 10.2614 12.7554 10.2856 12.7527 10.2965C12.7501 10.307 12.7479 10.3112 12.7472 10.3125C12.7464 10.314 12.7434 10.3192 12.7348 10.3285C12.7258 10.3382 12.7086 10.3543 12.679 10.3747L14.381 12.8453ZM15.76 10.22C15.76 9.1303 15.3078 8.20166 14.53 7.57759C13.7917 6.98512 12.8692 6.75 12 6.75V9.75C12.3608 9.75 12.5683 9.84988 12.6525 9.91741C12.6899 9.94743 12.7096 9.97483 12.723 10.0033C12.7366 10.0321 12.76 10.0967 12.76 10.22H15.76ZM12 9.59C12.0308 9.59 12.1762 9.60044 12.3377 9.74051C12.5198 9.89838 12.6 10.1183 12.6 10.29H9.6C9.6 10.9517 9.87022 11.5716 10.3723 12.007C10.8538 12.4246 11.4492 12.59 12 12.59V9.59ZM12.6 10.29C12.6 10.3575 12.5865 10.4573 12.536 10.5697C12.4851 10.6832 12.4095 10.7804 12.3223 10.8539C12.1516 10.998 12.0065 11 12 11V8C11.4735 8 10.8784 8.14699 10.3877 8.56106C9.868 8.99955 9.6 9.62753 9.6 10.29H12.6ZM12 11C11.9935 11 11.8484 10.998 11.6777 10.8539C11.5905 10.7804 11.5149 10.6832 11.464 10.5697C11.4135 10.4573 11.4 10.3575 11.4 10.29H14.4C14.4 9.62753 14.132 8.99955 13.6123 8.56106C13.1216 8.14699 12.5265 8 12 8V11ZM11.4 10.29C11.4 10.1183 11.4802 9.89838 11.6623 9.74051C11.8238 9.60044 11.9692 9.59 12 9.59V12.59C12.5508 12.59 13.1462 12.4246 13.6277 12.007C14.1298 11.5716 14.4 10.9517 14.4 10.29H11.4ZM12 12.5C11.8999 12.5 11.9711 12.4731 12.1034 12.576C12.1749 12.6316 12.247 12.7138 12.2978 12.8197C12.3483 12.925 12.36 13.0164 12.36 13.07H9.36C9.36 13.8158 9.68042 14.492 10.2616 14.944C10.7989 15.3619 11.4401 15.5 12 15.5V12.5ZM12.36 13.07C12.36 13.1236 12.3482 13.2175 12.2957 13.3262C12.2428 13.4356 12.1678 13.5198 12.0942 13.5761C11.9597 13.6791 11.8902 13.65 12 13.65V10.65C11.4498 10.65 10.8103 10.7809 10.2708 11.1939C9.6829 11.6439 9.36 12.3217 9.36 13.07H12.36ZM12 13.65C12.0999 13.65 12.0316 13.6769 11.9012 13.5763C11.8305 13.5218 11.7575 13.44 11.7054 13.3326C11.6533 13.2253 11.64 13.1298 11.64 13.07H14.64C14.64 12.3207 14.3128 11.6479 13.7338 11.2012C13.1984 10.7881 12.5601 10.65 12 10.65V13.65ZM11.64 13.07C11.64 13.0164 11.6517 12.925 11.7022 12.8197C11.753 12.7138 11.8251 12.6316 11.8966 12.576C12.0289 12.4731 12.1001 12.5 12 12.5V15.5C12.5599 15.5 13.2011 15.3619 13.7384 14.944C14.3196 14.492 14.64 13.8158 14.64 13.07H11.64Z" fill="#333333" mask="url(#path-5-inside-1_6203_28549)"/>
</g>
</g>
</g>
</svg>
