<svg width="25" height="24" viewBox="0 0 25 24" fill="none" xmlns="http://www.w3.org/2000/svg">
<path d="M22.638 18.33C22.638 18.69 22.558 19.06 22.388 19.42C22.218 19.78 21.998 20.12 21.708 20.44C21.218 20.98 20.678 21.37 20.068 21.62C19.468 21.87 18.818 22 18.118 22C17.098 22 16.008 21.76 14.858 21.27C13.708 20.78 12.558 20.12 11.418 19.29C10.268 18.45 9.17797 17.52 8.13797 16.49C7.10797 15.45 6.17797 14.36 5.34797 13.22C4.52797 12.08 3.86797 10.94 3.38797 9.81C2.90797 8.67 2.66797 7.58 2.66797 6.54C2.66797 5.86 2.78797 5.21 3.02797 4.61C3.26797 4 3.64797 3.44 4.17797 2.94C4.81797 2.31 5.51797 2 6.25797 2C6.53797 2 6.81797 2.06 7.06797 2.18C7.32797 2.3 7.55797 2.48 7.73797 2.74L10.058 6.01C10.238 6.26 10.368 6.49 10.458 6.71C10.548 6.92 10.598 7.13 10.598 7.32C10.598 7.56 10.528 7.8 10.388 8.03C10.258 8.26 10.068 8.5 9.82797 8.74L9.06797 9.53C8.95797 9.64 8.90797 9.77 8.90797 9.93C8.90797 10.01 8.91797 10.08 8.93797 10.16C8.96797 10.24 8.99797 10.3 9.01797 10.36C9.19797 10.69 9.50797 11.12 9.94797 11.64C10.398 12.16 10.878 12.69 11.398 13.22C11.938 13.75 12.458 14.24 12.988 14.69C13.508 15.13 13.938 15.43 14.278 15.61C14.328 15.63 14.388 15.66 14.458 15.69C14.538 15.72 14.618 15.73 14.708 15.73C14.878 15.73 15.008 15.67 15.118 15.56L15.878 14.81C16.128 14.56 16.368 14.37 16.598 14.25C16.828 14.11 17.058 14.04 17.308 14.04C17.498 14.04 17.698 14.08 17.918 14.17C18.138 14.26 18.368 14.39 18.618 14.56L21.928 16.91C22.188 17.09 22.368 17.3 22.478 17.55C22.578 17.8 22.638 18.05 22.638 18.33Z" stroke="#828282" stroke-width="1.5" stroke-miterlimit="10"/>
</svg>
