<svg width="29" height="28" viewBox="0 0 29 28" fill="none" xmlns="http://www.w3.org/2000/svg">
<path d="M6.33305 23.5L3.07472 26.7583C2.6261 27.2069 2.11256 27.3073 1.53409 27.0594C0.955618 26.8114 0.666382 26.3687 0.666382 25.7312V3.66665C0.666382 2.88748 0.943812 2.22047 1.49867 1.6656C2.05353 1.11074 2.72055 0.833313 3.49972 0.833313H26.1664C26.9456 0.833313 27.6126 1.11074 28.1674 1.6656C28.7223 2.22047 28.9997 2.88748 28.9997 3.66665V20.6666C28.9997 21.4458 28.7223 22.1128 28.1674 22.6677C27.6126 23.2225 26.9456 23.5 26.1664 23.5H6.33305ZM7.74972 17.8333H16.2497C16.6511 17.8333 16.9876 17.6975 17.2591 17.426C17.5306 17.1545 17.6664 16.818 17.6664 16.4166C17.6664 16.0153 17.5306 15.6788 17.2591 15.4073C16.9876 15.1357 16.6511 15 16.2497 15H7.74972C7.34833 15 7.01187 15.1357 6.74034 15.4073C6.46881 15.6788 6.33305 16.0153 6.33305 16.4166C6.33305 16.818 6.46881 17.1545 6.74034 17.426C7.01187 17.6975 7.34833 17.8333 7.74972 17.8333ZM7.74972 13.5833H21.9164C22.3178 13.5833 22.6542 13.4475 22.9258 13.176C23.1973 12.9045 23.333 12.568 23.333 12.1666C23.333 11.7653 23.1973 11.4288 22.9258 11.1573C22.6542 10.8857 22.3178 10.75 21.9164 10.75H7.74972C7.34833 10.75 7.01187 10.8857 6.74034 11.1573C6.46881 11.4288 6.33305 11.7653 6.33305 12.1666C6.33305 12.568 6.46881 12.9045 6.74034 13.176C7.01187 13.4475 7.34833 13.5833 7.74972 13.5833ZM7.74972 9.33331H21.9164C22.3178 9.33331 22.6542 9.19755 22.9258 8.92602C23.1973 8.65449 23.333 8.31804 23.333 7.91665C23.333 7.51526 23.1973 7.1788 22.9258 6.90727C22.6542 6.63574 22.3178 6.49998 21.9164 6.49998H7.74972C7.34833 6.49998 7.01187 6.63574 6.74034 6.90727C6.46881 7.1788 6.33305 7.51526 6.33305 7.91665C6.33305 8.31804 6.46881 8.65449 6.74034 8.92602C7.01187 9.19755 7.34833 9.33331 7.74972 9.33331Z" fill="#E20B18"/>
</svg>
