<svg width="20" height="21" viewBox="0 0 20 21" fill="none" xmlns="http://www.w3.org/2000/svg">
<path d="M13.4917 2.16602H6.50841C3.47508 2.16602 1.66675 3.97435 1.66675 7.00768V13.9827C1.66675 17.0244 3.47508 18.8327 6.50841 18.8327H13.4834C16.5167 18.8327 18.3251 17.0244 18.3251 13.991V7.00768C18.3334 3.97435 16.5251 2.16602 13.4917 2.16602ZM12.8001 12.416C13.0417 12.6577 13.0417 13.0577 12.8001 13.2993C12.6751 13.4243 12.5167 13.4827 12.3584 13.4827C12.2001 13.4827 12.0417 13.4243 11.9167 13.2993L10.0001 11.3827L8.08341 13.2993C7.95841 13.4243 7.80008 13.4827 7.64175 13.4827C7.48341 13.4827 7.32508 13.4243 7.20008 13.2993C6.95842 13.0577 6.95842 12.6577 7.20008 12.416L9.11675 10.4993L7.20008 8.58268C6.95842 8.34102 6.95842 7.94102 7.20008 7.69935C7.44175 7.45768 7.84175 7.45768 8.08341 7.69935L10.0001 9.61602L11.9167 7.69935C12.1584 7.45768 12.5584 7.45768 12.8001 7.69935C13.0417 7.94102 13.0417 8.34102 12.8001 8.58268L10.8834 10.4993L12.8001 12.416Z" fill="#E20B18"/>
</svg>
