<svg width="75" height="76" viewBox="0 0 75 76" fill="none" xmlns="http://www.w3.org/2000/svg">
<path d="M16.4361 71.6482C16.7407 72.6485 17.3582 73.5248 18.1976 74.1483C19.0371 74.7718 20.0544 75.1096 21.1001 75.1122C21.5739 75.1125 22.0453 75.0452 22.5001 74.9122L54.1961 65.3682L59.9001 64.6242C60.5344 64.5423 61.1463 64.3362 61.7008 64.0175C62.2553 63.6989 62.7415 63.274 63.1316 62.7672C63.5217 62.2605 63.8081 61.6817 63.9743 61.0642C64.1404 60.4466 64.1832 59.8023 64.1001 59.1682L61.0921 36.2082L70.5641 21.6802L72.9001 18.1522L74.0201 16.4002C74.8062 15.1972 75.0822 13.7312 74.7874 12.3246C74.4926 10.9181 73.6511 9.6863 72.4481 8.9002C71.2451 8.1141 69.7791 7.83809 68.3725 8.1329C66.966 8.42771 65.7342 9.26918 64.9481 10.4722L63.7961 12.2402L61.4921 15.7602L58.9081 19.7122L56.9801 5.0322C56.8973 4.39864 56.6904 3.78761 56.3713 3.23401C56.0523 2.68042 55.6273 2.19511 55.1206 1.80582C54.6139 1.41653 54.0355 1.13089 53.4184 0.965201C52.8013 0.799516 52.1576 0.75704 51.5241 0.840201L17.8601 5.2642C16.6355 5.42235 15.5173 6.04186 14.7338 6.9963C13.9503 7.95075 13.5606 9.1682 13.6441 10.4002L3.96411 13.3122C2.72958 13.684 1.69317 14.5307 1.08263 15.6663C0.47209 16.8018 0.337384 18.1334 0.708112 19.3682L16.4361 71.6482ZM65.1481 14.5522L67.6761 16.2002L70.1961 17.8482L69.2041 19.3682L64.1561 16.0722L65.1481 14.5522ZM66.9561 11.7762C67.3942 11.1057 68.0808 10.6368 68.8647 10.4725C69.6486 10.3082 70.4656 10.4621 71.1361 10.9002C71.8066 11.3383 72.2755 12.0249 72.4398 12.8088C72.6041 13.5927 72.4502 14.4097 72.0121 15.0802L71.5161 15.8402L66.5001 12.5362L66.9561 11.7762ZM62.8441 18.0802L65.3721 19.7282L67.8921 21.3762L52.4921 44.9602L49.9641 43.3122L47.4441 41.6642L62.8441 18.0802ZM44.4441 50.3282L44.9241 48.7922C45.7287 49.0003 46.4426 49.4668 46.9561 50.1202L45.7401 51.1762C45.609 51.2954 45.442 51.3677 45.2653 51.3817C45.0886 51.3957 44.9123 51.3506 44.764 51.2536C44.6157 51.1566 44.5039 51.0131 44.446 50.8456C44.3881 50.6781 44.3874 50.4961 44.4441 50.3282ZM48.7641 48.5442C47.9585 47.5506 46.8618 46.8344 45.6281 46.4962L46.4281 43.8802L50.8201 46.7522L48.7641 48.5442ZM16.5321 8.5842C16.7301 8.32686 16.9768 8.11104 17.2582 7.94906C17.5396 7.78709 17.8502 7.68214 18.1721 7.6402L51.8361 3.2242C51.9453 3.21627 52.0549 3.21627 52.1641 3.2242C52.7542 3.23619 53.3206 3.45894 53.7608 3.85217C54.201 4.2454 54.4859 4.78316 54.5641 5.3682L56.9001 22.8002L50.7721 32.1682L38.7241 33.7682C38.5665 33.7782 38.4124 33.8191 38.2707 33.8886C38.1289 33.9582 38.0022 34.0549 37.8978 34.1734C37.6871 34.4127 37.58 34.7259 37.6001 35.0442C37.6203 35.3625 37.766 35.6597 38.0053 35.8705C38.2446 36.0813 38.5579 36.1884 38.8761 36.1682H39.0361L49.0441 34.8002L44.7801 41.3362C44.7787 41.3628 44.7787 41.3896 44.7801 41.4162C44.7495 41.4663 44.7253 41.5201 44.7081 41.5762L43.9641 43.9762L26.9081 46.2722C26.5899 46.2934 26.2931 46.4402 26.083 46.6802C25.873 46.9203 25.7669 47.2339 25.7881 47.5522C25.8093 47.8705 25.9561 48.1673 26.1962 48.3773C26.4362 48.5873 26.7499 48.6934 27.0681 48.6722H27.2201L43.1161 46.5922L42.1721 49.6482C41.9665 50.3119 41.9826 51.0245 42.2179 51.6783C42.4531 52.3321 42.8948 52.8916 43.4761 53.2722C43.9963 53.615 44.6052 53.7985 45.2281 53.8002C46.0004 53.7952 46.7449 53.5111 47.3241 53.0002L53.6281 47.5442L53.6921 47.4722C53.7409 47.427 53.7839 47.376 53.8201 47.3202L59.0361 39.3202L61.7001 59.4802C61.7431 59.8014 61.7222 60.1279 61.6384 60.441C61.5546 60.754 61.4098 61.0474 61.2121 61.3042C61.0208 61.5585 60.7808 61.7722 60.5061 61.9329C60.2314 62.0936 59.9275 62.1981 59.6121 62.2402L25.9161 66.6642C25.5952 66.7057 25.2692 66.6836 24.9567 66.5992C24.6443 66.5147 24.3516 66.3695 24.0953 66.1719C23.839 65.9743 23.6241 65.7281 23.463 65.4475C23.3018 65.1668 23.1976 64.8572 23.1561 64.5362L16.0441 10.4082C15.959 9.75958 16.1345 9.10368 16.5321 8.5842ZM4.66011 15.6002L13.9401 12.8082L20.7721 64.8482C20.9266 66.0142 21.4977 67.0849 22.3799 67.8627C23.2621 68.6406 24.396 69.073 25.5721 69.0802C25.7863 69.0801 26.0003 69.0641 26.2121 69.0322L39.3961 67.3042L21.7961 72.6002C21.1734 72.787 20.502 72.7192 19.9292 72.4118C19.3563 72.1044 18.9287 71.5824 18.7401 70.9602L3.00411 18.6802C2.91051 18.3692 2.8791 18.0429 2.91168 17.7198C2.94425 17.3966 3.04017 17.0831 3.19396 16.7971C3.34775 16.5111 3.55638 16.2581 3.80795 16.0528C4.05952 15.8474 4.34909 15.6936 4.66011 15.6002ZM28.8521 14.3202C28.8112 14.0052 28.8969 13.6869 29.0904 13.4349C29.2838 13.183 29.5692 13.018 29.8841 12.9762L49.0841 10.4482C49.4024 10.4068 49.724 10.4936 49.9783 10.6894C50.2326 10.8852 50.3987 11.1739 50.4401 11.4922C50.4815 11.8105 50.3947 12.1321 50.1989 12.3864C50.0032 12.6407 49.7144 12.8068 49.3961 12.8482L30.1961 15.3682H30.0441C29.7524 15.3669 29.471 15.2601 29.2518 15.0674C29.0327 14.8748 28.8908 14.6094 28.8521 14.3202ZM23.0441 26.0482C23.024 25.8904 23.0355 25.7302 23.0779 25.577C23.1202 25.4237 23.1927 25.2803 23.2909 25.1553C23.3892 25.0302 23.5113 24.9259 23.6502 24.8485C23.7892 24.7711 23.9421 24.722 24.1001 24.7042L50.5001 21.2002C50.8184 21.1588 51.14 21.2456 51.3943 21.4414C51.6486 21.6371 51.8147 21.9259 51.8561 22.2442C51.8975 22.5625 51.8107 22.8841 51.615 23.1384C51.4192 23.3927 51.1304 23.5588 50.8121 23.6002L24.3881 27.0882H24.2361C23.9456 27.0872 23.6651 26.9815 23.4462 26.7905C23.2273 26.5994 23.0845 26.3359 23.0441 26.0482ZM32.0121 35.8402C32.0346 35.9974 32.0257 36.1575 31.9859 36.3112C31.9461 36.465 31.8762 36.6092 31.7802 36.7358C31.6842 36.8623 31.564 36.9684 31.4267 37.0482C31.2894 37.1279 31.1376 37.1796 30.9801 37.2002L25.8041 37.8802H25.6521C25.3339 37.9014 25.0202 37.7953 24.7802 37.5853C24.5401 37.3753 24.3933 37.0785 24.3721 36.7602C24.3509 36.4419 24.457 36.1283 24.667 35.8882C24.8771 35.6482 25.1739 35.5014 25.4921 35.4802L30.6681 34.8002C30.8247 34.78 30.9837 34.7909 31.136 34.8323C31.2884 34.8737 31.4311 34.9447 31.5559 35.0413C31.6808 35.1379 31.7853 35.2582 31.8636 35.3953C31.9419 35.5324 31.9924 35.6836 32.0121 35.8402ZM27.3001 58.4002C27.2592 58.0852 27.3449 57.7669 27.5384 57.5149C27.7318 57.263 28.0172 57.098 28.3321 57.0562L37.5401 55.8482C37.6977 55.8272 37.8579 55.8374 38.0115 55.8783C38.1651 55.9192 38.3092 55.99 38.4355 56.0865C38.5618 56.1831 38.6678 56.3036 38.7475 56.4412C38.8273 56.5787 38.8791 56.7306 38.9001 56.8882C38.9211 57.0458 38.9109 57.206 38.87 57.3596C38.8291 57.5132 38.7584 57.6573 38.6618 57.7836C38.5652 57.9099 38.4447 58.0159 38.3072 58.0956C38.1696 58.1753 38.0177 58.2272 37.8601 58.2482L28.6361 59.4322H28.4841C28.1957 59.4312 27.9173 59.3263 27.6998 59.1368C27.4824 58.9473 27.3405 58.6858 27.3001 58.4002Z" fill="black"/>
</svg>
