<svg width="18" height="18" viewBox="0 0 18 18" fill="none" xmlns="http://www.w3.org/2000/svg">
<path d="M14.8275 9.8125H11.7975C11.1114 9.8125 10.7012 9.65299 10.4604 9.42251C10.2239 9.19617 10.0625 8.81656 10.0625 8.175V3.075C10.0625 2.43477 10.225 2.05481 10.4627 1.82793C10.705 1.59672 11.1157 1.4375 11.7975 1.4375H14.8275C15.5136 1.4375 15.9238 1.59701 16.1646 1.82749C16.4011 2.05383 16.5625 2.43344 16.5625 3.075V8.175C16.5625 8.81523 16.4 9.19519 16.1623 9.42207C15.92 9.65328 15.5093 9.8125 14.8275 9.8125ZM11.7975 1.5625C11.3227 1.5625 10.8485 1.61435 10.5318 1.93113C10.2112 2.25167 10.1875 2.71001 10.1875 3.075V8.175C10.1875 8.53998 10.2112 8.99833 10.5318 9.31887C10.8485 9.63565 11.3227 9.6875 11.7975 9.6875H14.8275C15.3023 9.6875 15.7765 9.63565 16.0932 9.31887C16.4138 8.99833 16.4375 8.53999 16.4375 8.175V3.075C16.4375 2.71001 16.4138 2.25167 16.0932 1.93113C15.7765 1.61435 15.3023 1.5625 14.8275 1.5625H11.7975Z" fill="white" stroke="white"/>
<path d="M14.8275 16.5625H11.7975C11.1114 16.5625 10.7012 16.403 10.4604 16.1725C10.2239 15.9462 10.0625 15.5666 10.0625 14.925V13.575C10.0625 12.9348 10.225 12.5548 10.4627 12.3279C10.705 12.0967 11.1157 11.9375 11.7975 11.9375H14.8275C15.5136 11.9375 15.9238 12.097 16.1646 12.3275C16.4011 12.5538 16.5625 12.9334 16.5625 13.575V14.925C16.5625 15.5652 16.4 15.9452 16.1623 16.1721C15.92 16.4033 15.5093 16.5625 14.8275 16.5625ZM11.7975 12.0625C11.3227 12.0625 10.8485 12.1144 10.5318 12.4311C10.2112 12.7517 10.1875 13.21 10.1875 13.575V14.925C10.1875 15.29 10.2112 15.7483 10.5318 16.0689C10.8485 16.3856 11.3227 16.4375 11.7975 16.4375H14.8275C15.3023 16.4375 15.7765 16.3856 16.0932 16.0689C16.4138 15.7483 16.4375 15.29 16.4375 14.925V13.575C16.4375 13.21 16.4138 12.7517 16.0932 12.4311C15.7765 12.1144 15.3023 12.0625 14.8275 12.0625H11.7975Z" fill="white" stroke="white"/>
<path d="M6.2025 16.5625H3.1725C2.48635 16.5625 2.07623 16.403 1.83538 16.1725C1.59887 15.9462 1.4375 15.5666 1.4375 14.925V9.825C1.4375 9.18477 1.60005 8.80481 1.83774 8.57793C2.07996 8.34672 2.49073 8.1875 3.1725 8.1875H6.2025C6.88865 8.1875 7.29877 8.34701 7.53962 8.57749C7.77613 8.80383 7.9375 9.18344 7.9375 9.825V14.925C7.9375 15.5652 7.77495 15.9452 7.53726 16.1721C7.29504 16.4033 6.88427 16.5625 6.2025 16.5625ZM3.1725 8.3125C2.69772 8.3125 2.22354 8.36435 1.90676 8.68113C1.58623 9.00167 1.5625 9.46002 1.5625 9.825V14.925C1.5625 15.29 1.58623 15.7483 1.90676 16.0689C2.22354 16.3856 2.69772 16.4375 3.1725 16.4375H6.2025C6.67728 16.4375 7.15146 16.3856 7.46824 16.0689C7.78877 15.7483 7.8125 15.29 7.8125 14.925V9.825C7.8125 9.46002 7.78877 9.00167 7.46824 8.68113C7.15146 8.36435 6.67728 8.3125 6.2025 8.3125H3.1725Z" fill="white" stroke="white"/>
<path d="M6.2025 6.5625H3.1725C1.665 6.5625 0.9375 5.865 0.9375 4.425V3.075C0.9375 1.635 1.6725 0.9375 3.1725 0.9375H6.2025C7.71 0.9375 8.4375 1.635 8.4375 3.075V4.425C8.4375 5.865 7.7025 6.5625 6.2025 6.5625ZM3.1725 2.0625C2.22 2.0625 2.0625 2.3175 2.0625 3.075V4.425C2.0625 5.1825 2.22 5.4375 3.1725 5.4375H6.2025C7.155 5.4375 7.3125 5.1825 7.3125 4.425V3.075C7.3125 2.3175 7.155 2.0625 6.2025 2.0625H3.1725Z" fill="white"/>
</svg>
