<svg width="33" height="32" viewBox="0 0 33 32" fill="none" xmlns="http://www.w3.org/2000/svg">
<rect x="0.5" width="32" height="32" rx="8" fill="#E20B18"/>
<path d="M24 10.9833C21.225 10.7083 18.4333 10.5667 15.65 10.5667C14 10.5667 12.35 10.65 10.7 10.8167L9 10.9833" stroke="white" stroke-width="1.5" stroke-linecap="round" stroke-linejoin="round"/>
<path d="M13.5833 10.1417L13.7666 9.05008C13.8999 8.25841 13.9999 7.66675 15.4083 7.66675H17.5916C18.9999 7.66675 19.1083 8.29175 19.2333 9.05841L19.4166 10.1417" stroke="white" stroke-width="1.5" stroke-linecap="round" stroke-linejoin="round"/>
<path d="M22.2084 13.6167L21.6667 22.0084C21.5751 23.3167 21.5001 24.3334 19.1751 24.3334H13.8251C11.5001 24.3334 11.4251 23.3167 11.3334 22.0084L10.7917 13.6167" stroke="white" stroke-width="1.5" stroke-linecap="round" stroke-linejoin="round"/>
<path d="M15.1084 19.75H17.8834" stroke="white" stroke-width="1.5" stroke-linecap="round" stroke-linejoin="round"/>
<path d="M14.4167 16.4167H18.5834" stroke="white" stroke-width="1.5" stroke-linecap="round" stroke-linejoin="round"/>
</svg>
