<svg width="20" height="21" viewBox="0 0 20 21" fill="none" xmlns="http://www.w3.org/2000/svg">
<path fill-rule="evenodd" clip-rule="evenodd" d="M5.02705 1.09358C4.71256 0.824018 4.24763 0.867524 3.98861 1.19076C3.72959 1.51399 3.77456 1.99455 4.08905 2.26412L6.39605 4.24155C6.03847 4.85633 5.83368 5.57095 5.83368 6.33339C5.83368 8.63458 7.69916 10.5001 10.0004 10.5001C10.9921 10.5001 11.903 10.1536 12.6184 9.575L15.7557 12.2641C16.0702 12.5337 16.5351 12.4902 16.7942 12.1669C17.0532 11.8437 17.0082 11.3632 16.6937 11.0936L13.5966 8.43895C13.9592 7.82109 14.167 7.10152 14.167 6.33339C14.167 4.03221 12.3015 2.16673 10.0004 2.16673C9.00287 2.16673 8.08726 2.51723 7.36996 3.10179L5.02705 1.09358ZM7.36996 3.10179C6.98073 3.41899 6.64989 3.80511 6.39605 4.24155L12.6184 9.575C13.0089 9.25924 13.3412 8.87435 13.5966 8.43895L7.36996 3.10179Z" fill="#E20B18"/>
<path d="M9.9998 12.5833C5.8248 12.5833 2.4248 15.3833 2.4248 18.8333C2.4248 19.0666 2.60814 19.2499 2.84147 19.2499H17.1581C17.3915 19.2499 17.5748 19.0666 17.5748 18.8333C17.5748 15.3833 14.1748 12.5833 9.9998 12.5833Z" fill="#E20B18"/>
</svg>
