<svg width="11" height="16" viewBox="0 0 11 16" fill="none" xmlns="http://www.w3.org/2000/svg">
<path d="M2.5 16C1.95 16 1.47917 15.8042 1.0875 15.4125C0.695833 15.0208 0.5 14.55 0.5 14C0.5 13.45 0.695833 12.9792 1.0875 12.5875C1.47917 12.1958 1.95 12 2.5 12C3.05 12 3.52083 12.1958 3.9125 12.5875C4.30417 12.9792 4.5 13.45 4.5 14C4.5 14.55 4.30417 15.0208 3.9125 15.4125C3.52083 15.8042 3.05 16 2.5 16ZM8.5 16C7.95 16 7.47917 15.8042 7.0875 15.4125C6.69583 15.0208 6.5 14.55 6.5 14C6.5 13.45 6.69583 12.9792 7.0875 12.5875C7.47917 12.1958 7.95 12 8.5 12C9.05 12 9.52083 12.1958 9.9125 12.5875C10.3042 12.9792 10.5 13.45 10.5 14C10.5 14.55 10.3042 15.0208 9.9125 15.4125C9.52083 15.8042 9.05 16 8.5 16ZM2.5 10C1.95 10 1.47917 9.80417 1.0875 9.4125C0.695833 9.02083 0.5 8.55 0.5 8C0.5 7.45 0.695833 6.97917 1.0875 6.5875C1.47917 6.19583 1.95 6 2.5 6C3.05 6 3.52083 6.19583 3.9125 6.5875C4.30417 6.97917 4.5 7.45 4.5 8C4.5 8.55 4.30417 9.02083 3.9125 9.4125C3.52083 9.80417 3.05 10 2.5 10ZM8.5 10C7.95 10 7.47917 9.80417 7.0875 9.4125C6.69583 9.02083 6.5 8.55 6.5 8C6.5 7.45 6.69583 6.97917 7.0875 6.5875C7.47917 6.19583 7.95 6 8.5 6C9.05 6 9.52083 6.19583 9.9125 6.5875C10.3042 6.97917 10.5 7.45 10.5 8C10.5 8.55 10.3042 9.02083 9.9125 9.4125C9.52083 9.80417 9.05 10 8.5 10ZM2.5 4C1.95 4 1.47917 3.80417 1.0875 3.4125C0.695833 3.02083 0.5 2.55 0.5 2C0.5 1.45 0.695833 0.979167 1.0875 0.5875C1.47917 0.195833 1.95 0 2.5 0C3.05 0 3.52083 0.195833 3.9125 0.5875C4.30417 0.979167 4.5 1.45 4.5 2C4.5 2.55 4.30417 3.02083 3.9125 3.4125C3.52083 3.80417 3.05 4 2.5 4ZM8.5 4C7.95 4 7.47917 3.80417 7.0875 3.4125C6.69583 3.02083 6.5 2.55 6.5 2C6.5 1.45 6.69583 0.979167 7.0875 0.5875C7.47917 0.195833 7.95 0 8.5 0C9.05 0 9.52083 0.195833 9.9125 0.5875C10.3042 0.979167 10.5 1.45 10.5 2C10.5 2.55 10.3042 3.02083 9.9125 3.4125C9.52083 3.80417 9.05 4 8.5 4Z" fill="#fff"/>
</svg>
