<svg width="17" height="16" viewBox="0 0 17 16" fill="none" xmlns="http://www.w3.org/2000/svg">
<path d="M7.44446 1.33398H6.11112C2.77779 1.33398 1.44446 2.66732 1.44446 6.00065V10.0007C1.44446 13.334 2.77779 14.6673 6.11112 14.6673H10.1111C13.4445 14.6673 14.7778 13.334 14.7778 10.0007V8.66732" stroke="#219653" stroke-width="1.5" stroke-linecap="round" stroke-linejoin="round"/>
<path d="M10.8045 2.0135L5.55113 7.26684C5.35113 7.46684 5.15113 7.86017 5.11113 8.14684L4.82446 10.1535C4.71779 10.8802 5.23113 11.3868 5.95779 11.2868L7.96446 11.0002C8.24446 10.9602 8.63779 10.7602 8.84446 10.5602L14.0978 5.30684C15.0045 4.40017 15.4311 3.34684 14.0978 2.0135C12.7645 0.680168 11.7111 1.10684 10.8045 2.0135Z" stroke="#219653" stroke-width="1.5" stroke-miterlimit="10" stroke-linecap="round" stroke-linejoin="round"/>
<path d="M10.0511 2.76758C10.4978 4.36091 11.7445 5.60758 13.3445 6.06091" stroke="#219653" stroke-width="1.5" stroke-miterlimit="10" stroke-linecap="round" stroke-linejoin="round"/>
</svg>
