<svg width="24" height="24" viewBox="0 0 24 24" fill="none" xmlns="http://www.w3.org/2000/svg">
<g id="vuesax/linear/eye">
<g id="eye">
<path id="Vector" d="M15.5819 11.9999C15.5819 13.9799 13.9819 15.5799 12.0019 15.5799C10.0219 15.5799 8.42188 13.9799 8.42188 11.9999C8.42188 10.0199 10.0219 8.41992 12.0019 8.41992C13.9819 8.41992 15.5819 10.0199 15.5819 11.9999Z" stroke="#333333" stroke-width="1.5" stroke-linecap="round" stroke-linejoin="round"/>
<path id="Vector_2" d="M12.0037 20.2697C15.5337 20.2697 18.8238 18.1897 21.1138 14.5897C22.0138 13.1797 22.0138 10.8097 21.1138 9.39973C18.8238 5.79973 15.5337 3.71973 12.0037 3.71973C8.47375 3.71973 5.18375 5.79973 2.89375 9.39973C1.99375 10.8097 1.99375 13.1797 2.89375 14.5897C5.18375 18.1897 8.47375 20.2697 12.0037 20.2697Z" stroke="#333333" stroke-width="1.5" stroke-linecap="round" stroke-linejoin="round"/>
</g>
</g>
</svg>
