<svg width="20" height="21" viewBox="0 0 20 21" fill="none" xmlns="http://www.w3.org/2000/svg">
<path d="M17.725 8.14992C17.4834 7.76659 17.225 7.40825 16.9584 7.07492C16.65 6.68325 16.0667 6.64992 15.7167 6.99992L13.2167 9.49992C13.4 10.0499 13.4334 10.6833 13.2667 11.3416C12.975 12.5166 12.025 13.4666 10.85 13.7583C10.1917 13.9249 9.55837 13.8916 9.00837 13.7083C9.00837 13.7083 7.81671 14.8999 6.95837 15.7583C6.54171 16.1749 6.67504 16.9083 7.23337 17.1249C8.12504 17.4666 9.05004 17.6416 10 17.6416C11.4834 17.6416 12.925 17.2083 14.2417 16.3999C15.5834 15.5666 16.7917 14.3416 17.7667 12.7833C18.5584 11.5249 18.5167 9.40825 17.725 8.14992Z" fill="#E20B18"/>
<path d="M11.6834 8.81719L8.3167 12.1839C7.8917 11.7505 7.6167 11.1505 7.6167 10.5005C7.6167 9.19219 8.68337 8.11719 10 8.11719C10.65 8.11719 11.25 8.39219 11.6834 8.81719Z" fill="#E20B18"/>
<path d="M15.2084 5.29076L12.3834 8.11576C11.7751 7.49909 10.9334 7.13242 10.0001 7.13242C8.13341 7.13242 6.63341 8.64075 6.63341 10.4991C6.63341 11.4324 7.00841 12.2741 7.61675 12.8824L4.80008 15.7074H4.79175C3.86675 14.9574 3.01675 13.9991 2.29175 12.8658C1.45841 11.5574 1.45841 9.43242 2.29175 8.12409C3.25841 6.60742 4.44175 5.41576 5.75841 4.59909C7.07508 3.79909 8.51675 3.35742 10.0001 3.35742C11.8584 3.35742 13.6584 4.04076 15.2084 5.29076Z" fill="#E20B18"/>
<path d="M12.3834 10.4991C12.3834 11.8074 11.3167 12.8824 10.0001 12.8824C9.95007 12.8824 9.9084 12.8824 9.8584 12.8658L12.3667 10.3574C12.3834 10.4074 12.3834 10.4491 12.3834 10.4991Z" fill="#E20B18"/>
<path d="M18.1417 2.35742C17.8917 2.10742 17.4834 2.10742 17.2334 2.35742L1.8584 17.7408C1.6084 17.9908 1.6084 18.3991 1.8584 18.6491C1.9834 18.7658 2.14173 18.8324 2.3084 18.8324C2.47507 18.8324 2.6334 18.7658 2.7584 18.6408L18.1417 3.25742C18.4001 3.00742 18.4001 2.60742 18.1417 2.35742Z" fill="#E20B18"/>
</svg>
