<svg width="60" height="41" viewBox="0 0 60 41" fill="none" xmlns="http://www.w3.org/2000/svg">
<path d="M57.853 -1.00829C57.8912 -1.30557 57.7674 -1.58809 57.5231 -1.76166C57.3464 -1.90877 52.3006 -4.97402 45.3979 -7.28223C36.1402 -10.3549 27.9313 -10.52 21.5276 -7.71586C15.1239 -4.91174 9.67791 1.2327 5.65736 10.1198C2.6721 16.7579 1.50257 22.5448 1.49088 22.7744C1.45271 23.0717 1.57642 23.3542 1.82077 23.5278C1.99742 23.6749 5.5919 25.8606 10.9405 27.9515C11.8884 28.322 12.904 28.7191 13.946 29.0484C14.0814 29.1013 14.2168 29.1542 14.3522 29.2072C14.3935 29.3013 14.5289 29.3543 14.6643 29.4072C14.7997 29.4601 14.9616 29.4454 15.1235 29.4306C23.8924 32.1561 31.7628 32.1889 37.884 29.5085C44.2876 26.7043 49.7337 20.5599 53.7542 11.6728C56.6718 5.0082 57.7736 -0.805172 57.853 -1.00829ZM2.88006 22.615C3.20629 21.1815 4.2644 16.6779 6.47903 11.6118L13.4069 27.4327C8.20838 25.5566 4.15474 23.3475 2.88006 22.615ZM37.2125 28.2313C30.1496 31.3241 21.9462 30.1465 15.2878 28.0119L7.32905 9.83672C10.3439 3.52237 15.042 -3.30468 22.0372 -6.42393C29.0059 -9.47547 37.0739 -8.35085 43.6911 -6.31039C43.6646 -6.24268 43.7323 -6.21621 43.7058 -6.14851L49.2316 6.47051C49.3141 6.65886 49.423 6.7795 49.6261 6.8589C49.8292 6.9383 49.9911 6.92354 50.1795 6.84106C50.5562 6.67611 50.715 6.26989 50.55 5.8932L45.4101 -5.71641C50.8382 -3.8286 55.0272 -1.56659 56.3432 -0.739954C56.0169 0.693537 54.8794 5.40024 52.5177 10.643L51.6105 8.57124C51.4455 8.19455 51.0393 8.03575 50.6626 8.2007C50.2859 8.36565 50.1271 8.77188 50.2921 9.14856L51.6941 12.3504C48.7587 18.4616 44.1135 25.1533 37.2125 28.2313Z" fill="white" fill-opacity="0.8"/>
<path d="M35.3348 7.67425L33.263 8.58146L32.562 6.98054C32.3971 6.60386 31.9908 6.44505 31.6141 6.60999C31.2374 6.77494 31.0786 7.18117 31.2436 7.55786L31.9446 9.15878L29.967 10.0248L29.266 8.42384C29.101 8.04716 28.6948 7.88835 28.3181 8.05329C27.9414 8.21824 27.7826 8.62447 27.9476 9.00116L28.6486 10.6021L26.671 11.4681L25.97 9.86714C25.805 9.49046 25.3988 9.33164 25.0221 9.49659C24.6454 9.66154 24.4866 10.0678 24.6516 10.4445L25.3526 12.0454L23.2808 12.9526C22.9041 13.1175 22.7453 13.5238 22.9103 13.9005C22.9927 14.0888 23.1017 14.2094 23.3048 14.2888C23.5079 14.3682 23.6698 14.3535 23.8581 14.271L25.9299 13.3638L26.631 14.9647C26.7134 15.153 26.8224 15.2737 27.0255 15.3531C27.1609 15.406 27.3905 15.4177 27.5788 15.3352C27.9555 15.1703 28.1143 14.7641 27.9494 14.3874L27.2483 12.7865L29.2259 11.9205L29.927 13.5214C30.0094 13.7097 30.1184 13.8304 30.3215 13.9098C30.4569 13.9627 30.6865 13.9744 30.8748 13.8919C31.2515 13.727 31.4103 13.3208 31.2454 12.9441L30.5443 11.3432L32.5219 10.4772L33.223 12.0781C33.3055 12.2665 33.4144 12.3871 33.6175 12.4665C33.8206 12.5459 33.9825 12.5311 34.1708 12.4486C34.5475 12.2837 34.7063 11.8775 34.5414 11.5008L33.8403 9.89986L35.9121 8.99265C36.2888 8.8277 36.4476 8.42148 36.2827 8.04479C36.1177 7.6681 35.7115 7.5093 35.3348 7.67425Z" fill="white" fill-opacity="0.8"/>
</svg>
