<svg width="20" height="21" viewBox="0 0 20 21" fill="none" xmlns="http://www.w3.org/2000/svg">
<path d="M17.0167 7.99909C16.9 7.99076 16.75 7.98242 16.5833 7.98242C16.2583 7.98242 16 8.24076 16 8.56576V12.4408C16 12.7658 16.2583 13.0241 16.5833 13.0241C16.75 13.0241 16.8917 13.0158 17.0333 13.0074C18.3333 12.8574 18.3333 11.9408 18.3333 11.2741V9.72409C18.3333 9.05742 18.3333 8.14076 17.0167 7.99909Z" fill="#E20B18"/>
<path d="M15.2333 8.94977V12.0498C15.2333 14.5081 13.2333 16.5081 10.7749 16.5081H7.71659C7.05826 16.5081 6.65826 15.7831 7.00826 15.2331L13.0583 5.66643C13.3583 5.19143 14.0333 5.14977 14.4083 5.57477C15.0083 6.26643 15.2333 7.34143 15.2333 8.94977Z" fill="#E20B18"/>
<path d="M13.6667 2.05798C13.3751 1.87465 12.9917 1.95798 12.8084 2.24965L11.3834 4.50798C11.1917 4.49965 10.9917 4.49132 10.7751 4.49132H6.12508C2.70841 4.49132 1.66675 5.53298 1.66675 8.94965V12.0496C1.66675 14.5913 2.25008 15.808 3.95008 16.2663L2.80841 18.083C2.62508 18.3746 2.70841 18.758 3.00008 18.9413C3.10008 19.008 3.21675 19.0413 3.33341 19.0413C3.54175 19.0413 3.74175 18.9413 3.85841 18.7496L13.8584 2.91632C14.0501 2.62465 13.9584 2.24132 13.6667 2.05798Z" fill="#E20B18"/>
</svg>
