<svg width="30" height="24" viewBox="0 0 30 24" fill="none" xmlns="http://www.w3.org/2000/svg">
<path d="M22.0828 16.2493C21.0911 16.2493 20.2529 15.907 19.5682 15.2223C18.8835 14.5375 18.5411 13.6993 18.5411 12.7077C18.5411 11.716 18.8835 10.8778 19.5682 10.1931C20.2529 9.50838 21.0911 9.16602 22.0828 9.16602C23.0744 9.16602 23.9126 9.50838 24.5973 10.1931C25.2821 10.8778 25.6244 11.716 25.6244 12.7077C25.6244 13.6993 25.2821 14.5375 24.5973 15.2223C23.9126 15.907 23.0744 16.2493 22.0828 16.2493ZM16.4161 23.3327C16.0147 23.3327 15.6783 23.1969 15.4067 22.9254C15.1352 22.6539 14.9994 22.3174 14.9994 21.916V21.3493C14.9994 20.7827 15.147 20.2573 15.4421 19.7733C15.7373 19.2893 16.1564 18.941 16.6994 18.7285C17.5494 18.3743 18.4289 18.1087 19.338 17.9316C20.247 17.7546 21.1619 17.666 22.0828 17.666C23.0036 17.666 23.9185 17.7546 24.8276 17.9316C25.7366 18.1087 26.6161 18.3743 27.4661 18.7285C28.0092 18.941 28.4283 19.2893 28.7234 19.7733C29.0185 20.2573 29.1661 20.7827 29.1661 21.3493V21.916C29.1661 22.3174 29.0303 22.6539 28.7588 22.9254C28.4873 23.1969 28.1508 23.3327 27.7494 23.3327H16.4161ZM12.1661 11.9993C10.6078 11.9993 9.27374 11.4445 8.16401 10.3348C7.05429 9.22504 6.49943 7.89102 6.49943 6.33268C6.49943 4.77435 7.05429 3.44032 8.16401 2.3306C9.27374 1.22088 10.6078 0.666016 12.1661 0.666016C13.7244 0.666016 15.0585 1.22088 16.1682 2.3306C17.2779 3.44032 17.8328 4.77435 17.8328 6.33268C17.8328 7.89102 17.2779 9.22504 16.1682 10.3348C15.0585 11.4445 13.7244 11.9993 12.1661 11.9993ZM0.832764 19.366C0.832764 18.5632 1.03346 17.8254 1.43485 17.1525C1.83624 16.4796 2.3911 15.966 3.09943 15.6118C4.5161 14.9035 5.98589 14.3605 7.50881 13.9827C9.03172 13.6049 10.5842 13.416 12.1661 13.416C12.9925 13.416 13.8189 13.4868 14.6453 13.6285C15.4717 13.7702 16.298 13.9355 17.1244 14.1243L14.7161 16.5327C14.1258 17.123 13.5533 17.725 12.9984 18.3389C12.4435 18.9528 12.1661 19.673 12.1661 20.4993V21.8806C12.1661 22.1639 12.2192 22.4296 12.3255 22.6775C12.4317 22.9254 12.6029 23.1438 12.839 23.3327H3.6661C2.88693 23.3327 2.21992 23.0553 1.66506 22.5004C1.11019 21.9455 0.832764 21.2785 0.832764 20.4993V19.366Z" fill="#E20B18"/>
</svg>
