<svg width="47" height="46" viewBox="0 0 47 46" fill="none" xmlns="http://www.w3.org/2000/svg">
<path d="M45.9724 14.0771C46.0028 13.8404 45.9043 13.6155 45.7098 13.4774C45.5692 13.3603 41.5527 10.9203 36.0579 9.08287C28.6886 6.63695 22.1542 6.50556 17.0567 8.73769C11.9593 10.9698 7.62412 15.8609 4.42368 22.9353C2.04735 28.2193 1.11639 32.8258 1.10708 33.0086C1.0767 33.2452 1.17518 33.4701 1.36968 33.6083C1.5103 33.7254 4.37157 35.4652 8.62921 37.1296C9.38372 37.4246 10.1921 37.7406 11.0216 38.0027C11.1294 38.0449 11.2372 38.087 11.345 38.1292C11.3778 38.2041 11.4856 38.2463 11.5934 38.2884C11.7012 38.3305 11.83 38.3188 11.9589 38.307C18.9392 40.4766 25.2041 40.5027 30.0767 38.369C35.1742 36.1369 39.5093 31.2458 42.7097 24.1714C45.0322 18.8663 45.9092 14.2387 45.9724 14.0771ZM2.21289 32.8817C2.47258 31.7406 3.31485 28.1557 5.07775 24.1229L10.5924 36.7166C6.45434 35.2232 3.22757 33.4647 2.21289 32.8817ZM29.5422 37.3523C23.92 39.8143 17.39 38.8769 12.0897 37.1777L5.75438 22.7099C8.15422 17.6835 11.8941 12.2491 17.4624 9.7661C23.0096 7.33701 29.4318 8.23223 34.6993 9.85648C34.6782 9.91038 34.7321 9.93145 34.711 9.98534L39.1096 20.0303C39.1753 20.1803 39.262 20.2763 39.4237 20.3395C39.5854 20.4027 39.7142 20.3909 39.8642 20.3253C40.164 20.194 40.2904 19.8706 40.1591 19.5708L36.0677 10.3293C40.3885 11.832 43.7231 13.6326 44.7706 14.2907C44.5109 15.4317 43.6054 19.1784 41.7254 23.3517L41.0033 21.7026C40.872 21.4027 40.5486 21.2763 40.2488 21.4076C39.9489 21.5389 39.8225 21.8623 39.9538 22.1621L41.0699 24.7108C38.7332 29.5755 35.0355 34.9022 29.5422 37.3523Z" fill="white" fill-opacity="0.8"/>
<path d="M28.0477 20.9881L26.3985 21.7102L25.8405 20.4359C25.7092 20.136 25.3858 20.0096 25.086 20.1409C24.7861 20.2722 24.6597 20.5956 24.791 20.8954L25.3491 22.1698L23.7748 22.8591L23.2168 21.5848C23.0855 21.2849 22.7621 21.1585 22.4623 21.2898C22.1624 21.4211 22.036 21.7445 22.1673 22.0443L22.7254 23.3187L21.1511 24.008L20.5931 22.7337C20.4618 22.4338 20.1384 22.3074 19.8386 22.4387C19.5387 22.57 19.4123 22.8934 19.5436 23.1932L20.1017 24.4676L18.4525 25.1897C18.1526 25.321 18.0262 25.6444 18.1575 25.9443C18.2232 26.0942 18.3099 26.1902 18.4716 26.2534C18.6333 26.3166 18.7621 26.3049 18.9121 26.2392L20.5612 25.5171L21.1193 26.7914C21.1849 26.9413 21.2716 27.0374 21.4333 27.1006C21.5411 27.1427 21.7239 27.152 21.8738 27.0864C22.1736 26.9551 22.3 26.6317 22.1687 26.3319L21.6107 25.0575L23.1849 24.3682L23.743 25.6425C23.8086 25.7925 23.8953 25.8885 24.057 25.9517C24.1648 25.9938 24.3475 26.0031 24.4975 25.9375C24.7973 25.8062 24.9237 25.4828 24.7924 25.183L24.2344 23.9086L25.8086 23.2193L26.3666 24.4936C26.4323 24.6436 26.519 24.7396 26.6807 24.8028C26.8424 24.866 26.9712 24.8542 27.1212 24.7886C27.421 24.6573 27.5474 24.3339 27.4161 24.0341L26.8581 22.7597L28.5073 22.0375C28.8071 21.9062 28.9335 21.5829 28.8022 21.283C28.6709 20.9832 28.3476 20.8568 28.0477 20.9881Z" fill="white" fill-opacity="0.8"/>
</svg>
