<svg width="21" height="20" viewBox="0 0 21 20" fill="none" xmlns="http://www.w3.org/2000/svg">
<path d="M10.4998 18.3346C15.1022 18.3346 18.8332 14.6037 18.8332 10.0013C18.8332 5.39893 15.1022 1.66797 10.4998 1.66797C5.89746 1.66797 2.1665 5.39893 2.1665 10.0013C2.1665 14.6037 5.89746 18.3346 10.4998 18.3346Z" stroke="#292D32" stroke-width="1.5" stroke-linecap="round" stroke-linejoin="round"/>
<path d="M7.16667 2.5H8C6.375 7.36667 6.375 12.6333 8 17.5H7.16667" stroke="#292D32" stroke-width="1.5" stroke-linecap="round" stroke-linejoin="round"/>
<path d="M13 2.5C14.625 7.36667 14.625 12.6333 13 17.5" stroke="#292D32" stroke-width="1.5" stroke-linecap="round" stroke-linejoin="round"/>
<path d="M3 13.3333V12.5C7.86667 14.125 13.1333 14.125 18 12.5V13.3333" stroke="#292D32" stroke-width="1.5" stroke-linecap="round" stroke-linejoin="round"/>
<path d="M3 7.5C7.86667 5.875 13.1333 5.875 18 7.5" stroke="#292D32" stroke-width="1.5" stroke-linecap="round" stroke-linejoin="round"/>
</svg>
