<svg width="80" height="80" viewBox="0 0 80 80" fill="none" xmlns="http://www.w3.org/2000/svg">
<path fill-rule="evenodd" clip-rule="evenodd" d="M40 0C17.9375 0 0 17.9375 0 40C0 62.0625 17.9375 80 40 80C62.0625 80 80 62.0625 80 40C80 17.9375 62.0625 0 40 0Z" fill="#219653"/>
<path fill-rule="evenodd" clip-rule="evenodd" d="M59.3437 26.5156C60.3125 27.4844 60.3125 29.0781 59.3437 30.0469L35.9063 53.4844C35.4219 53.9687 34.7813 54.2187 34.1406 54.2187C33.5 54.2187 32.8594 53.9687 32.375 53.4844L20.6562 41.7656C19.6875 40.7969 19.6875 39.2031 20.6562 38.2344C21.625 37.2656 23.2188 37.2656 24.1875 38.2344L34.1406 48.1875L55.8125 26.5156C56.7812 25.5313 58.375 25.5313 59.3437 26.5156Z" fill="white"/>
</svg>
