<svg width="22" height="22" viewBox="0 0 22 22" fill="none" xmlns="http://www.w3.org/2000/svg">
<path d="M18.1232 3.87763C17.0845 2.8441 15.832 2.05065 14.4537 1.55309C13.0755 1.05553 11.605 0.865936 10.1456 0.997634C9.82878 0.997634 9.51198 1.06483 9.18558 1.12243C7.17202 1.49265 5.31832 2.46554 3.86979 3.91235C2.42126 5.35917 1.44618 7.21171 1.07358 9.22483C1.01598 9.54163 0.977582 9.86803 0.948782 10.1848C0.837493 11.5728 1.0147 12.9688 1.46925 14.2849C1.9238 15.6011 2.64586 16.8089 3.58998 17.8324C4.5341 18.8558 5.67984 19.6728 6.95511 20.2319C8.23037 20.7909 9.60755 21.08 11 21.0808C11.2846 21.0952 11.5698 21.0952 11.8544 21.0808C12.1712 21.0808 12.488 21.0136 12.8144 20.956C13.4945 20.8317 14.1603 20.6387 14.8016 20.38C16.3704 19.7376 17.753 18.7121 18.823 17.3972C19.893 16.0824 20.6162 14.5202 20.9264 12.8536C20.984 12.5368 21.0224 12.2104 21.0512 11.8936C21.1825 10.4244 20.9881 8.94431 20.4821 7.55876C19.976 6.17322 19.1705 4.91633 18.1232 3.87763ZM4.54878 17.452C3.60447 16.5101 2.87658 15.3738 2.41571 14.1221C1.95483 12.8705 1.77202 11.5335 1.87998 10.204C4.42331 10.4567 6.79932 11.587 8.59998 13.4008C10.4086 15.202 11.5294 17.5795 11.768 20.1208C10.4432 20.2245 9.11178 20.0396 7.86543 19.5789C6.61909 19.1181 5.48752 18.3925 4.54878 17.452ZM17.4512 17.452C16.1642 18.7323 14.5277 19.604 12.7472 19.9576C12.4797 17.2106 11.2606 14.6434 9.30078 12.7C7.35314 10.7462 4.78824 9.52822 2.04318 9.25363C2.39686 7.47308 3.26852 5.83664 4.54878 4.54963C5.83196 3.2642 7.47008 2.39166 9.25278 2.04403C9.52031 4.79105 10.7394 7.35822 12.6992 9.30163C14.6478 11.2541 17.2122 12.4719 19.9568 12.748C19.6031 14.5286 18.7314 16.165 17.4512 17.452ZM13.4 8.60083C11.5914 6.7997 10.4705 4.42214 10.232 1.88083H11.0288C12.2954 1.87841 13.5487 2.14015 14.7085 2.64933C15.8683 3.15851 16.9092 3.90394 17.7647 4.83804C18.6202 5.77213 19.2715 6.87436 19.677 8.07434C20.0826 9.27431 20.2334 10.5457 20.12 11.8072C17.5769 11.5465 15.2025 10.4136 13.4 8.60083Z" fill="#828282"/>
</svg>
