<svg width="32" height="32" viewBox="0 0 32 32" fill="none" xmlns="http://www.w3.org/2000/svg">
<rect x="0.5" y="0.5" width="31" height="31" rx="15.5" stroke="#FF0000"/>
<path d="M22.9925 12.8561V12.8575V19.1425C22.9925 20.4081 22.6172 21.3582 21.9839 21.9914C21.3507 22.6247 20.4006 23 19.135 23H12.8575C11.5919 23 10.642 22.6247 10.0088 21.9907C9.37552 21.3567 9 20.4047 9 19.135V12.8575C9 11.5919 9.3753 10.6418 10.0086 10.0086C10.6418 9.3753 11.5919 9 12.8575 9H19.1425C20.4082 9 21.3581 9.37535 21.9903 10.0083C22.6224 10.6412 22.996 11.5909 22.9925 12.8561ZM20.9015 12.3523L20.44 12.16L20.9015 12.3523C20.9603 12.2112 21 12.0484 21 11.875C21 11.7042 20.9615 11.5437 20.9041 11.404C20.8388 11.2368 20.7481 11.1124 20.6541 11.008L20.6268 10.9776L20.5948 10.9521C20.5928 10.9505 20.589 10.9473 20.5809 10.9403L20.5501 10.9137C20.5295 10.8962 20.4895 10.8626 20.4391 10.831C20.374 10.7884 20.3033 10.7512 20.2271 10.7227C20.1523 10.6884 20.0717 10.6625 19.982 10.6479C19.5734 10.565 19.1474 10.7055 18.8639 10.9889L18.8546 10.9982L18.8459 11.008C18.7519 11.1124 18.6612 11.2368 18.5959 11.404C18.5385 11.5437 18.5 11.7042 18.5 11.875C18.5 12.0484 18.5397 12.2112 18.5985 12.3523L19.06 12.16L18.5985 12.3523C18.6584 12.4962 18.7419 12.6265 18.8459 12.742L18.8546 12.7518L18.8639 12.7611C19.1037 13.0008 19.4199 13.125 19.75 13.125C19.9234 13.125 20.0862 13.0853 20.2273 13.0265C20.3712 12.9666 20.5015 12.8831 20.617 12.7791L20.6365 12.7615L20.6541 12.742C20.7581 12.6265 20.8416 12.4962 20.9015 12.3523ZM12.59 16C12.59 17.8811 14.1189 19.41 16 19.41C17.8811 19.41 19.41 17.8811 19.41 16C19.41 14.1189 17.8811 12.59 16 12.59C14.1189 12.59 12.59 14.1189 12.59 16Z" fill="#FF0000" stroke="#FF0000"/>
</svg>
