<svg width="21" height="20" viewBox="0 0 21 20" fill="none" xmlns="http://www.w3.org/2000/svg">
<path d="M13.0432 16.2859L13.0432 16.2857L13.0301 16.2847C12.6293 16.2539 12.1652 16.1759 11.6778 16.0561L11.6742 16.0552L10.2742 15.7219L10.2734 15.7217C8.40875 15.2808 7.28651 14.5922 6.70528 13.6543C6.12418 12.7165 6.00842 11.4077 6.44516 9.54755L6.44525 9.54714L7.26192 6.05547L7.26217 6.0544C7.43974 5.28764 7.64516 4.68611 7.88894 4.19854L7.88897 4.19856L7.89169 4.19294C8.5406 2.85363 9.45707 2.27845 10.4187 2.06515C11.4134 1.84453 12.4954 2.00341 13.4523 2.22833L13.453 2.2285L14.844 2.55333C14.8441 2.55336 14.8442 2.55339 14.8443 2.55341C16.7335 2.99749 17.8167 3.67438 18.4085 4.62182C18.9926 5.57011 19.1236 6.83993 18.68 8.72719L18.6799 8.72747L17.8633 12.2106C17.8633 12.2106 17.8633 12.2107 17.8633 12.2108C17.5168 13.6851 16.9973 14.7046 16.3221 15.3542C15.66 15.9913 14.8024 16.3166 13.6751 16.3166C13.4716 16.3166 13.2642 16.3088 13.0432 16.2859ZM7.50532 6.10912L7.50532 6.10912L7.50487 6.11106L6.68837 9.60201C6.68835 9.60209 6.68833 9.60218 6.68831 9.60226C6.30945 11.2115 6.29999 12.5115 6.92412 13.5177C7.54785 14.5232 8.71757 15.0951 10.3259 15.478L11.7247 15.811C11.725 15.8111 11.7252 15.8112 11.7255 15.8112C12.198 15.9249 12.6463 15.9955 13.0537 16.0311C14.265 16.1509 15.2694 15.9532 16.0534 15.2708C16.8168 14.6062 17.2875 13.5513 17.612 12.1552C17.612 12.1551 17.612 12.1549 17.6121 12.1548L18.4285 8.6724L18.4287 8.6718C18.8124 7.0259 18.7988 5.73458 18.192 4.75357C17.585 3.77237 16.4366 3.18056 14.78 2.79626C14.7799 2.79624 14.7798 2.79622 14.7797 2.7962L13.3922 2.47218C13.3916 2.47204 13.391 2.4719 13.3905 2.47176C12.6727 2.29891 12.016 2.20826 11.4334 2.20826C10.6676 2.20826 9.99957 2.36714 9.43186 2.72795C8.86473 3.08839 8.44096 3.62288 8.11606 4.30004C7.87983 4.79076 7.67775 5.38492 7.50532 6.10912Z" fill="white" stroke="white"/>
<path d="M3.534 14.3963L3.53386 14.3958L2.46738 11.1048C2.46734 11.1046 2.46731 11.1045 2.46727 11.1044C1.89327 9.32565 1.9014 8.0476 2.38693 7.09597C2.87233 6.14457 3.90031 5.3913 5.67044 4.81737C5.67054 4.81734 5.67064 4.81731 5.67075 4.81728L6.98352 4.39353C7.41494 4.26083 7.71167 4.17835 7.96769 4.13446L7.97613 4.13301L7.98452 4.13128C8.01337 4.12531 8.03492 4.12876 8.05048 4.13472C8.06628 4.14076 8.08292 4.15205 8.09779 4.17218C8.12957 4.21517 8.13627 4.26932 8.11413 4.3203C7.87778 4.80388 7.67624 5.39826 7.51261 6.12121L6.69652 9.61039C6.69647 9.6106 6.69642 9.61082 6.69637 9.61103C6.69637 9.61106 6.69636 9.61108 6.69635 9.61111C6.31761 11.2201 6.3082 12.52 6.93228 13.526C7.556 14.5316 8.72572 15.1034 10.3341 15.4864L11.7329 15.8194C11.7331 15.8195 11.7334 15.8196 11.7337 15.8196C12.2064 15.9334 12.655 16.004 13.0626 16.0396C13.1167 16.045 13.1634 16.0787 13.184 16.1402C13.195 16.1931 13.1745 16.2422 13.1329 16.2716C12.6351 16.6106 11.9916 16.9088 11.1458 17.1826L11.1436 17.1834L9.83039 17.6156C8.90507 17.905 8.12498 18.0416 7.44155 18.0416C6.48172 18.0416 5.72948 17.7586 5.11289 17.193C4.48246 16.6146 3.95752 15.7072 3.534 14.3963ZM7.45923 5.33632L7.75857 4.40504L6.82842 4.70788L5.75491 5.0574C5.75464 5.05748 5.75438 5.05757 5.75412 5.05765C4.23322 5.54768 3.14785 6.19153 2.62516 7.21787C2.10292 8.24334 2.21753 9.50363 2.70717 11.0279L2.70756 11.0291L3.77423 14.3208L3.77435 14.3212C4.26856 15.8421 4.91452 16.9287 5.93981 17.4534C6.96527 17.9782 8.22366 17.8659 9.74485 17.3759L9.74486 17.3759L9.74786 17.3749L11.0645 16.9416L11.0663 16.941C11.0978 16.9305 11.1261 16.9202 11.1481 16.9122L11.1499 16.9115C11.1735 16.903 11.1903 16.8969 11.208 16.891L12.8784 16.3342L11.1647 15.93L10.2816 15.7217C10.2815 15.7217 10.2814 15.7217 10.2813 15.7217C8.4168 15.2808 7.29464 14.5922 6.71343 13.6543C6.13234 12.7166 6.01657 11.4078 6.45331 9.5476L6.45341 9.54719L7.27007 6.05552L7.27012 6.05553L7.27166 6.0485C7.32761 5.79276 7.39037 5.55054 7.45923 5.33632Z" fill="white" stroke="white"/>
<path d="M10.9978 7.23207L10.9978 7.23207L10.9962 7.23165C10.9368 7.21682 10.8921 7.15125 10.91 7.07966C10.9248 7.02049 10.99 6.97578 11.0614 6.99333C11.0616 6.99338 11.0618 6.99342 11.062 6.99346L15.102 8.01805L15.1036 8.01846C15.1629 8.03329 15.2077 8.09886 15.1898 8.17045L15.189 8.17393C15.1846 8.19205 15.1725 8.21322 15.1487 8.23144C15.1244 8.25009 15.0972 8.25827 15.0754 8.25839C15.0745 8.25835 15.0697 8.2581 15.0584 8.25675C15.0509 8.25584 15.0418 8.25462 15.0296 8.25287L15.0141 8.25062L10.9978 7.23207Z" fill="white" stroke="white"/>
<path d="M12.6333 11.5749C12.5833 11.5749 12.5333 11.5666 12.4749 11.5582L10.0499 10.9416C9.71661 10.8582 9.51661 10.5166 9.59994 10.1832C9.68328 9.84991 10.0249 9.64991 10.3583 9.73325L12.7833 10.3499C13.1166 10.4332 13.3166 10.7749 13.2333 11.1082C13.1666 11.3916 12.9166 11.5749 12.6333 11.5749Z" fill="white"/>
</svg>
