<svg width="32" height="33" viewBox="0 0 32 33" fill="none" xmlns="http://www.w3.org/2000/svg">
<path d="M0 16.5C0 7.66344 7.16344 0.5 16 0.5C24.8366 0.5 32 7.66344 32 16.5C32 25.3366 24.8366 32.5 16 32.5C7.16344 32.5 0 25.3366 0 16.5Z" fill="#068AC2"/>
<path d="M0 16.5C0 7.66344 7.16344 0.5 16 0.5C24.8366 0.5 32 7.66344 32 16.5C32 25.3366 24.8366 32.5 16 32.5C7.16344 32.5 0 25.3366 0 16.5Z" fill="white" fill-opacity="0.82"/>
<path d="M23 17.5002V16.5002H20V21.5002H21V19.5002H22.5V18.5002H21V17.5002H23Z" fill="#121F24"/>
<path d="M17.5 21.5002H15.5V16.5002H17.5C17.8977 16.5006 18.279 16.6588 18.5602 16.94C18.8414 17.2212 18.9996 17.6025 19 18.0002V20.0002C18.9996 20.3979 18.8414 20.7791 18.5602 21.0603C18.279 21.3416 17.8977 21.4997 17.5 21.5002ZM16.5 20.5002H17.5C17.6326 20.5 17.7597 20.4473 17.8534 20.3536C17.9471 20.2598 17.9999 20.1327 18 20.0002V18.0002C17.9999 17.8676 17.9471 17.7405 17.8534 17.6468C17.7597 17.553 17.6326 17.5003 17.5 17.5002H16.5V20.5002Z" fill="#121F24"/>
<path d="M13.5 16.5002H11V21.5002H12V20.0002H13.5C13.7651 19.9998 14.0193 19.8943 14.2067 19.7069C14.3942 19.5194 14.4996 19.2653 14.5 19.0002V17.5002C14.4997 17.235 14.3942 16.9809 14.2068 16.7934C14.0193 16.6059 13.7651 16.5005 13.5 16.5002ZM12 19.0002V17.5002H13.5L13.5005 19.0002H12Z" fill="#121F24"/>
<path d="M19 15.5002V13.5002C19.0018 13.4345 18.9893 13.3691 18.9634 13.3087C18.9375 13.2483 18.8988 13.1942 18.85 13.1502L15.35 9.65017C15.306 9.60134 15.2519 9.56263 15.1915 9.53674C15.131 9.51084 15.0657 9.49836 15 9.50017H10C9.73502 9.50095 9.48112 9.60656 9.29375 9.79392C9.10638 9.98129 9.00078 10.2352 9 10.5002V22.5002C9 22.7654 9.10536 23.0197 9.29289 23.2073C9.48043 23.3948 9.73478 23.5002 10 23.5002H18V22.5002H10V10.5002H14V13.5002C14.0008 13.7651 14.1064 14.0191 14.2938 14.2064C14.4811 14.3938 14.735 14.4994 15 14.5002H18V15.5002H19ZM15 13.5002V10.7002L17.8 13.5002H15Z" fill="#121F24"/>
</svg>
