<svg width="33" height="32" viewBox="0 0 33 32" fill="none" xmlns="http://www.w3.org/2000/svg">
<path d="M24.2162 9.547C24.1362 9.53366 24.0429 9.53366 23.9629 9.547C22.1229 9.48033 20.6562 7.97366 20.6562 6.10699C20.6562 4.20033 22.1896 2.66699 24.0962 2.66699C26.0029 2.66699 27.5362 4.21366 27.5362 6.10699C27.5229 7.97366 26.0562 9.48033 24.2162 9.547Z" stroke="white" stroke-width="2" stroke-linecap="round" stroke-linejoin="round"/>
<path d="M22.8447 19.2539C24.6714 19.5605 26.6847 19.2405 28.098 18.2939C29.978 17.0405 29.978 14.9872 28.098 13.7339C26.6714 12.7872 24.6314 12.4672 22.8047 12.7872" stroke="white" stroke-width="2" stroke-linecap="round" stroke-linejoin="round"/>
<path d="M8.17547 9.547C8.25547 9.53366 8.3488 9.53366 8.4288 9.547C10.2688 9.48033 11.7355 7.97366 11.7355 6.10699C11.7355 4.20033 10.2021 2.66699 8.29547 2.66699C6.3888 2.66699 4.85547 4.21366 4.85547 6.10699C4.8688 7.97366 6.33547 9.48033 8.17547 9.547Z" stroke="white" stroke-width="2" stroke-linecap="round" stroke-linejoin="round"/>
<path d="M9.55005 19.2539C7.72338 19.5605 5.71005 19.2405 4.29672 18.2939C2.41672 17.0405 2.41672 14.9872 4.29672 13.7339C5.72339 12.7872 7.76338 12.4672 9.59005 12.7872" stroke="white" stroke-width="2" stroke-linecap="round" stroke-linejoin="round"/>
<path d="M16.2162 19.507C16.1362 19.4936 16.0429 19.4936 15.9629 19.507C14.1229 19.4403 12.6562 17.9336 12.6562 16.067C12.6562 14.1603 14.1896 12.627 16.0962 12.627C18.0029 12.627 19.5362 14.1736 19.5362 16.067C19.5229 17.9336 18.0562 19.4536 16.2162 19.507Z" stroke="white" stroke-width="2" stroke-linecap="round" stroke-linejoin="round"/>
<path d="M12.3358 23.7065C10.4558 24.9598 10.4558 27.0131 12.3358 28.2665C14.4691 29.6931 17.9624 29.6931 20.0958 28.2665C21.9758 27.0131 21.9758 24.9598 20.0958 23.7065C17.9758 22.2932 14.4691 22.2932 12.3358 23.7065Z" stroke="white" stroke-width="2" stroke-linecap="round" stroke-linejoin="round"/>
</svg>
