<svg width="26" height="27" viewBox="0 0 26 27" fill="none" xmlns="http://www.w3.org/2000/svg">
<path d="M3.08333 26.25C2.30417 26.25 1.63715 25.9726 1.08229 25.4177C0.527431 24.8628 0.25 24.1958 0.25 23.4167V3.58333C0.25 2.80417 0.527431 2.13715 1.08229 1.58229C1.63715 1.02743 2.30417 0.75 3.08333 0.75H22.9167C23.6958 0.75 24.3628 1.02743 24.9177 1.58229C25.4726 2.13715 25.75 2.80417 25.75 3.58333V23.4167C25.75 24.1958 25.4726 24.8628 24.9177 25.4177C24.3628 25.9726 23.6958 26.25 22.9167 26.25H3.08333ZM5.91667 20.5833H20.0833C20.3667 20.5833 20.5792 20.4535 20.7208 20.1938C20.8625 19.934 20.8389 19.6861 20.65 19.45L16.7542 14.2438C16.6125 14.0549 16.4236 13.9604 16.1875 13.9604C15.9514 13.9604 15.7625 14.0549 15.6208 14.2438L11.9375 19.1667L9.31667 15.6604C9.175 15.4715 8.98611 15.3771 8.75 15.3771C8.51389 15.3771 8.325 15.4715 8.18333 15.6604L5.35 19.45C5.16111 19.6861 5.1375 19.934 5.27917 20.1938C5.42083 20.4535 5.63333 20.5833 5.91667 20.5833Z" fill="#E20B18"/>
</svg>
