<svg width="20" height="21" viewBox="0 0 20 21" fill="none" xmlns="http://www.w3.org/2000/svg">
<path d="M15.8914 12.3666C15.6497 12.6083 15.2664 12.6083 15.0331 12.3666C14.7914 12.1249 14.7914 11.7416 15.0331 11.5083C16.6997 9.84159 16.6997 7.13325 15.0331 5.47492C13.3664 3.81659 10.6581 3.80825 8.99974 5.47492C7.34141 7.14159 7.33307 9.84992 8.99974 11.5083C9.24141 11.7499 9.24141 12.1333 8.99974 12.3666C8.75807 12.6083 8.37474 12.6083 8.14141 12.3666C5.99974 10.2249 5.99974 6.74159 8.14141 4.60825C10.2831 2.47492 13.7664 2.46659 15.8997 4.60825C18.0331 6.74992 18.0331 10.2249 15.8914 12.3666Z" fill="#E20B18"/>
<path d="M4.10827 8.6334C4.34994 8.39173 4.73327 8.39173 4.9666 8.6334C5.20827 8.87507 5.20827 9.2584 4.9666 9.49173C3.29994 11.1584 3.29994 13.8667 4.9666 15.5251C6.63327 17.1834 9.3416 17.1917 10.9999 15.5251C12.6583 13.8584 12.6666 11.1501 10.9999 9.49173C10.7583 9.25006 10.7583 8.86673 10.9999 8.6334C11.2416 8.39173 11.6249 8.39173 11.8583 8.6334C13.9999 10.7751 13.9999 14.2584 11.8583 16.3917C9.7166 18.5251 6.23327 18.5334 4.09994 16.3917C1.9666 14.2501 1.9666 10.7751 4.10827 8.6334Z" fill="#E20B18"/>
</svg>
