<svg width="19" height="18" viewBox="0 0 19 18" fill="none" xmlns="http://www.w3.org/2000/svg">
<path d="M9.5 11.3125C8.22364 11.3125 7.1875 10.2764 7.1875 9C7.1875 7.72364 8.22364 6.6875 9.5 6.6875C10.7764 6.6875 11.8125 7.72364 11.8125 9C11.8125 10.2764 10.7764 11.3125 9.5 11.3125ZM9.5 6.8125C8.29386 6.8125 7.3125 7.79386 7.3125 9C7.3125 10.2061 8.29386 11.1875 9.5 11.1875C10.7061 11.1875 11.6875 10.2061 11.6875 9C11.6875 7.79386 10.7061 6.8125 9.5 6.8125Z" fill="white" stroke="white"/>
<path d="M4.3175 11.9925C4.445 12.21 4.385 12.555 4.1675 12.9375C3.905 13.395 3.8375 13.9275 3.9725 14.445L4.45631 14.3188C4.45602 14.3177 4.45574 14.3166 4.45546 14.3155M4.3175 11.9925L4.74885 11.7396C4.48133 11.2832 3.91565 11.1475 3.425 11.1475C2.60614 11.1475 1.9375 10.4788 1.9375 9.65997V8.33997C1.9375 7.52111 2.60614 6.85247 3.425 6.85247C3.91565 6.85247 4.48133 6.71669 4.74885 6.26033C5.01982 5.79808 4.84759 5.2336 4.6 4.81157C4.40525 4.47088 4.35408 4.0674 4.45586 3.68292L4.45631 3.68118C4.55702 3.29512 4.80089 2.979 5.1483 2.78288L5.1483 2.78289L5.15084 2.78144L6.44834 2.03894L6.44837 2.03899L6.455 2.03505C7.05958 1.67659 7.87219 1.88213 8.24461 2.51196L8.2446 2.51197L8.24625 2.51472L8.33431 2.66148C8.59143 3.10432 8.98579 3.48122 9.51125 3.48122C10.0382 3.48122 10.4332 3.10224 10.6903 2.65782L10.7713 2.51783C10.7716 2.51748 10.7718 2.51713 10.772 2.51679C11.1444 1.88275 11.9545 1.67689 12.5664 2.04188L12.5663 2.04193L12.5731 2.04581L13.8631 2.78832L13.8637 2.78865C14.2041 2.98401 14.4511 3.30119 14.5595 3.69194C14.6612 4.08504 14.6088 4.48123 14.4138 4.82113L14.4129 4.82282C14.284 5.04941 14.188 5.28805 14.1496 5.52401C14.1115 5.75808 14.1251 6.02714 14.2662 6.26783C14.5337 6.72419 15.0993 6.85997 15.59 6.85997C16.4089 6.85997 17.0775 7.52861 17.0775 8.34747V9.66747C17.0775 10.4863 16.4089 11.155 15.59 11.155C15.0993 11.155 14.5337 11.2908 14.2662 11.7471C13.9952 12.2093 14.1674 12.7738 14.415 13.1958C14.6123 13.541 14.6659 13.9425 14.5609 14.3179L14.5609 14.3179L14.5587 14.3263C14.458 14.7123 14.2141 15.0284 13.8667 15.2246L13.8667 15.2245L13.8642 15.226L12.5701 15.9665C12.3558 16.0844 12.1321 16.1425 11.9075 16.1425C11.7999 16.1425 11.6847 16.1274 11.5593 16.0981C11.2198 16.0029 10.94 15.7907 10.7612 15.4927L10.6732 15.3459C10.4161 14.9031 10.0217 14.5262 9.49625 14.5262C8.96934 14.5262 8.57425 14.9052 8.31719 15.3496L8.23673 15.4886C8.23644 15.4891 8.23614 15.4896 8.23585 15.4901C8.05314 15.7993 7.77131 16.0128 7.44006 16.0983L7.44005 16.0983L7.43474 16.0997C7.09185 16.1923 6.74442 16.143 6.44975 15.9662L6.44979 15.9662L6.44192 15.9616L5.15192 15.2191L5.15134 15.2188C4.81086 15.0234 4.56394 14.7062 4.45546 14.3155M4.3175 11.9925C4.19 11.775 3.8675 11.6475 3.425 11.6475C2.33 11.6475 1.4375 10.755 1.4375 9.65997V8.33997C1.4375 7.24497 2.33 6.35247 3.425 6.35247C3.8675 6.35247 4.19 6.22497 4.3175 6.00747C4.445 5.78997 4.3925 5.44497 4.1675 5.06247M4.3175 11.9925L4.1675 5.06247M4.3175 11.9925L4.74885 11.7396C4.88994 11.9803 4.90348 12.2494 4.86538 12.4834C4.82697 12.7194 4.73099 12.958 4.60214 13.1846L4.60119 13.1863C4.40616 13.5262 4.35377 13.9224 4.45546 14.3155M4.3175 11.9925L4.45546 14.3155M4.1675 5.06247C3.905 4.60497 3.8375 4.06497 3.9725 3.55497M4.1675 5.06247L3.9725 3.55497M3.9725 3.55497C4.1075 3.03747 4.4375 2.60997 4.9025 2.34747M3.9725 3.55497L4.9025 2.34747M4.9025 2.34747L6.2 1.60497M4.9025 2.34747L6.2 1.60497M6.2 1.60497C7.0475 1.10247 8.165 1.39497 8.675 2.25747L6.2 1.60497ZM10.7842 15.2795L10.7848 15.2805L10.8659 15.4205C10.8662 15.421 10.8664 15.4215 10.8667 15.422C11.0261 15.7001 11.2904 15.8955 11.5987 15.9725L11.72 15.4875L11.5987 15.9725C11.8931 16.0461 12.2096 16.0138 12.4833 15.8511L13.7774 15.1031C13.7774 15.103 13.7775 15.103 13.7776 15.1029C13.7776 15.1029 13.7777 15.1029 13.7777 15.1029C14.0828 14.9267 14.32 14.6324 14.4156 14.2738C14.5088 13.9244 14.4635 13.5553 14.2831 13.2426L14.2822 13.2411C13.9167 12.6127 13.9169 12.0506 14.1341 11.6705C14.3486 11.2952 14.8313 11.015 15.5675 11.015C16.3236 11.015 16.93 10.4086 16.93 9.65247V8.33247C16.93 7.58666 16.3265 6.96997 15.5675 6.96997C14.8313 6.96997 14.3486 6.68979 14.1341 6.3144C13.9169 5.93433 13.9167 5.37225 14.2822 4.74386L14.2831 4.74233C14.4635 4.42966 14.5088 4.06058 14.4156 3.71114C14.3201 3.35312 14.0925 3.07094 13.797 2.88914L13.7903 2.88496L13.7833 2.881L12.4904 2.1411C11.9227 1.80227 11.1926 2.00619 10.862 2.56561L10.862 2.5656L10.8598 2.56945L10.7773 2.71195L10.7767 2.71299C10.4097 3.35032 9.93026 3.62497 9.4925 3.62497C9.05567 3.62497 8.57731 3.35149 8.21066 2.71706L8.13061 2.57151L8.1265 2.56405L8.12215 2.55673C7.79542 2.00783 7.07272 1.81425 6.51189 2.13981C6.51165 2.13995 6.51142 2.14008 6.51119 2.14022L5.21514 2.88938C5.21503 2.88944 5.21493 2.8895 5.21483 2.88956C5.21481 2.88957 5.21479 2.88958 5.21478 2.88959C4.90973 3.0657 4.6725 3.36007 4.57688 3.71864C4.4837 4.06808 4.52902 4.43715 4.70941 4.74983L4.7094 4.74983L4.71029 4.75136C5.07579 5.37975 5.07556 5.94183 4.85838 6.3219C4.64387 6.69729 4.1612 6.97747 3.425 6.97747C2.66886 6.97747 2.0625 7.58383 2.0625 8.33997V9.65997C2.0625 10.4058 2.66603 11.0225 3.425 11.0225C4.1612 11.0225 4.64387 11.3027 4.85838 11.678C5.07556 12.0581 5.07579 12.6202 4.71029 13.2486L4.70941 13.2501C4.52902 13.5628 4.4837 13.9319 4.57688 14.2813C4.67235 14.6393 4.90003 14.9215 5.19545 15.1033L5.20224 15.1075L5.20916 15.1114L6.50024 15.8503C6.77878 16.0194 7.10361 16.0551 7.39623 15.9794C7.71702 15.8985 7.96849 15.6887 8.12513 15.4356L8.12902 15.4294L8.13271 15.423L8.21471 15.2814C8.21482 15.2812 8.21492 15.281 8.21503 15.2808C8.58376 14.6472 9.06444 14.3675 9.5 14.3675C9.93776 14.3675 10.4172 14.6421 10.7842 15.2795Z" fill="white" stroke="white"/>
</svg>
