<svg width="27" height="30" viewBox="0 0 27 30" fill="none" xmlns="http://www.w3.org/2000/svg">
<path d="M21.9164 29.1666C20.7358 29.1666 19.7324 28.7535 18.906 27.9271C18.0796 27.1007 17.6664 26.0972 17.6664 24.9166C17.6664 24.775 17.7018 24.4444 17.7726 23.925L7.82055 18.1166C7.44277 18.4708 7.00596 18.7482 6.51013 18.9489C6.0143 19.1496 5.48305 19.25 4.91638 19.25C3.73583 19.25 2.73235 18.8368 1.90597 18.0104C1.07958 17.184 0.666382 16.1805 0.666382 15C0.666382 13.8194 1.07958 12.816 1.90597 11.9896C2.73235 11.1632 3.73583 10.75 4.91638 10.75C5.48305 10.75 6.0143 10.8503 6.51013 11.051C7.00596 11.2517 7.44277 11.5291 7.82055 11.8833L17.7726 6.07498C17.7254 5.9097 17.6959 5.75033 17.6841 5.59685C17.6723 5.44338 17.6664 5.2722 17.6664 5.08331C17.6664 3.90276 18.0796 2.89929 18.906 2.0729C19.7324 1.24651 20.7358 0.833313 21.9164 0.833313C23.0969 0.833313 24.1004 1.24651 24.9268 2.0729C25.7532 2.89929 26.1664 3.90276 26.1664 5.08331C26.1664 6.26387 25.7532 7.26734 24.9268 8.09373C24.1004 8.92012 23.0969 9.33331 21.9164 9.33331C21.3497 9.33331 20.8185 9.23297 20.3226 9.03227C19.8268 8.83158 19.39 8.55415 19.0122 8.19998L9.06013 14.0083C9.10735 14.1736 9.13687 14.333 9.14867 14.4864C9.16048 14.6399 9.16638 14.8111 9.16638 15C9.16638 15.1889 9.16048 15.3601 9.14867 15.5135C9.13687 15.667 9.10735 15.8264 9.06013 15.9916L19.0122 21.8C19.39 21.4458 19.8268 21.1684 20.3226 20.9677C20.8185 20.767 21.3497 20.6666 21.9164 20.6666C23.0969 20.6666 24.1004 21.0798 24.9268 21.9062C25.7532 22.7326 26.1664 23.7361 26.1664 24.9166C26.1664 26.0972 25.7532 27.1007 24.9268 27.9271C24.1004 28.7535 23.0969 29.1666 21.9164 29.1666Z" fill="#E20B18"/>
</svg>
