<svg width="14" height="18" viewBox="0 0 14 18" fill="none" xmlns="http://www.w3.org/2000/svg">
<mask id="path-1-inside-1_16736_38728" fill="white">
<path d="M1.37487 7.12487H12.6249C12.7485 7.12484 12.8693 7.08817 12.972 7.01949C13.0748 6.95081 13.1549 6.85321 13.2022 6.73903C13.2495 6.62484 13.2618 6.49919 13.2377 6.37797C13.2136 6.25675 13.1541 6.1454 13.0667 6.05799L7.44174 0.432991C7.32454 0.315822 7.16559 0.25 6.99987 0.25C6.83414 0.25 6.6752 0.315822 6.55799 0.432991L0.932992 6.05799C0.845611 6.1454 0.786107 6.25675 0.762002 6.37797C0.737897 6.49919 0.750274 6.62484 0.797568 6.73903C0.844862 6.85321 0.924949 6.95081 1.02771 7.01949C1.13046 7.08817 1.25127 7.12484 1.37487 7.12487ZM12.6249 10.8749H1.37487C1.25127 10.8749 1.13046 10.9116 1.02771 10.9802C0.924949 11.0489 0.844862 11.1465 0.797568 11.2607C0.750274 11.3749 0.737897 11.5005 0.762002 11.6218C0.786107 11.743 0.845611 11.8543 0.932992 11.9417L6.55799 17.5667C6.6752 17.6839 6.83414 17.7497 6.99987 17.7497C7.16559 17.7497 7.32454 17.6839 7.44174 17.5667L13.0667 11.9417C13.1541 11.8543 13.2136 11.743 13.2377 11.6218C13.2618 11.5005 13.2495 11.3749 13.2022 11.2607C13.1549 11.1465 13.0748 11.0489 12.972 10.9802C12.8693 10.9116 12.7485 10.8749 12.6249 10.8749Z"/>
</mask>
<path d="M1.37487 7.12487H12.6249C12.7485 7.12484 12.8693 7.08817 12.972 7.01949C13.0748 6.95081 13.1549 6.85321 13.2022 6.73903C13.2495 6.62484 13.2618 6.49919 13.2377 6.37797C13.2136 6.25675 13.1541 6.1454 13.0667 6.05799L7.44174 0.432991C7.32454 0.315822 7.16559 0.25 6.99987 0.25C6.83414 0.25 6.6752 0.315822 6.55799 0.432991L0.932992 6.05799C0.845611 6.1454 0.786107 6.25675 0.762002 6.37797C0.737897 6.49919 0.750274 6.62484 0.797568 6.73903C0.844862 6.85321 0.924949 6.95081 1.02771 7.01949C1.13046 7.08817 1.25127 7.12484 1.37487 7.12487ZM12.6249 10.8749H1.37487C1.25127 10.8749 1.13046 10.9116 1.02771 10.9802C0.924949 11.0489 0.844862 11.1465 0.797568 11.2607C0.750274 11.3749 0.737897 11.5005 0.762002 11.6218C0.786107 11.743 0.845611 11.8543 0.932992 11.9417L6.55799 17.5667C6.6752 17.6839 6.83414 17.7497 6.99987 17.7497C7.16559 17.7497 7.32454 17.6839 7.44174 17.5667L13.0667 11.9417C13.1541 11.8543 13.2136 11.743 13.2377 11.6218C13.2618 11.5005 13.2495 11.3749 13.2022 11.2607C13.1549 11.1465 13.0748 11.0489 12.972 10.9802C12.8693 10.9116 12.7485 10.8749 12.6249 10.8749Z" fill="black"/>
<path d="M1.37487 7.12487L1.37145 23.1249H1.37487V7.12487ZM12.6249 7.12487V23.1249H12.6283L12.6249 7.12487ZM13.0667 6.05799L24.3822 -5.25401L24.3805 -5.25572L13.0667 6.05799ZM7.44174 0.432991L18.7555 -10.8807L18.7537 -10.8824L7.44174 0.432991ZM6.55799 0.432991L-4.75401 -10.8824L-4.75572 -10.8807L6.55799 0.432991ZM0.932992 6.05799L-10.3807 -5.25572L-10.3824 -5.25401L0.932992 6.05799ZM12.6249 10.8749L12.6283 -5.12513H12.6249V10.8749ZM1.37487 10.8749L1.37487 -5.12513L1.37145 -5.12513L1.37487 10.8749ZM0.932992 11.9417L-10.3824 23.2537L-10.3807 23.2555L0.932992 11.9417ZM6.55799 17.5667L-4.75572 28.8805L-4.75401 28.8822L6.55799 17.5667ZM7.44174 17.5667L18.7537 28.8822L18.7555 28.8804L7.44174 17.5667ZM13.0667 11.9417L24.3805 23.2554L24.3822 23.2537L13.0667 11.9417ZM1.37487 23.1249H12.6249V-8.87513H1.37487V23.1249ZM12.6283 23.1249C15.9159 23.1242 19.1295 22.1487 21.8628 20.3219L4.08128 -6.28293C6.60908 -7.97241 9.58104 -8.87448 12.6215 -8.87513L12.6283 23.1249ZM21.8628 20.3219C24.5961 18.4951 26.7264 15.8989 27.9844 12.8615L-1.5801 0.616553C-0.416682 -2.19243 1.55345 -4.59345 4.08128 -6.28293L21.8628 20.3219ZM27.9844 12.8615C29.2424 9.82413 29.5717 6.48195 28.9305 3.25747L-2.45502 9.49848C-3.048 6.51643 -2.74352 3.42554 -1.5801 0.616553L27.9844 12.8615ZM28.9305 3.25747C28.2893 0.0330527 26.7065 -2.92894 24.3822 -5.25401L1.75133 17.37C-0.398283 15.2197 -1.86205 12.4805 -2.45502 9.49848L28.9305 3.25747ZM24.3805 -5.25572L18.7555 -10.8807L-3.87197 11.7467L1.75303 17.3717L24.3805 -5.25572ZM18.7537 -10.8824C15.6361 -13.9991 11.4082 -15.75 6.99987 -15.75V16.25C2.92298 16.25 -0.987008 14.6308 -3.87026 11.7484L18.7537 -10.8824ZM6.99987 -15.75C2.59151 -15.75 -1.63636 -13.9991 -4.75401 -10.8824L17.87 11.7484C14.9868 14.6308 11.0768 16.25 6.99987 16.25V-15.75ZM-4.75572 -10.8807L-10.3807 -5.25572L12.2467 17.3717L17.8717 11.7467L-4.75572 -10.8807ZM-10.3824 -5.25401C-12.7067 -2.92899 -14.2896 0.032982 -14.9307 3.25747L16.4548 9.49848C15.8618 12.4805 14.398 15.2198 12.2484 17.37L-10.3824 -5.25401ZM-14.9307 3.25747C-15.5719 6.48195 -15.2427 9.82413 -13.9847 12.8615L15.5798 0.616553C16.7433 3.42554 17.0477 6.51643 16.4548 9.49848L-14.9307 3.25747ZM-13.9847 12.8615C-12.7267 15.8989 -10.5964 18.4951 -7.86305 20.3219L9.91846 -6.28293C12.4463 -4.59345 14.4164 -2.19243 15.5798 0.616553L-13.9847 12.8615ZM-7.86305 20.3219C-5.12972 22.1488 -1.91614 23.1242 1.37145 23.1249L1.37828 -8.87513C4.41868 -8.87448 7.39065 -7.97241 9.91846 -6.28293L-7.86305 20.3219ZM12.6249 -5.12513H1.37487V26.8749H12.6249V-5.12513ZM1.37145 -5.12513C-1.91614 -5.12443 -5.12972 -4.14902 -7.86305 -2.32219L9.91846 24.2827C7.39065 25.9721 4.41868 26.8742 1.37828 26.8749L1.37145 -5.12513ZM-7.86305 -2.32219C-10.5964 -0.495345 -12.7267 2.10087 -13.9847 5.13824L15.5798 17.3832C14.4164 20.1922 12.4463 22.5932 9.91846 24.2827L-7.86305 -2.32219ZM-13.9847 5.13824C-15.2427 8.1756 -15.5719 11.5178 -14.9307 14.7423L16.4548 8.50126C17.0477 11.4833 16.7433 14.5742 15.5798 17.3832L-13.9847 5.13824ZM-14.9307 14.7423C-14.2896 17.9668 -12.7067 20.9287 -10.3824 23.2537L12.2484 0.629742C14.398 2.77995 15.8618 5.51921 16.4548 8.50126L-14.9307 14.7423ZM-10.3807 23.2555L-4.75572 28.8805L17.8717 6.25303L12.2467 0.628033L-10.3807 23.2555ZM-4.75401 28.8822C-1.63634 31.9989 2.59154 33.7497 6.99987 33.7497V1.74973C11.0767 1.74973 14.9867 3.36894 17.87 6.25133L-4.75401 28.8822ZM6.99987 33.7497C11.4082 33.7497 15.6361 31.9989 18.7537 28.8822L-3.87026 6.25133C-0.986987 3.36893 2.92301 1.74973 6.99987 1.74973V33.7497ZM18.7555 28.8804L24.3805 23.2554L1.75303 0.628034L-3.87197 6.25303L18.7555 28.8804ZM24.3822 23.2537C26.7065 20.9287 28.2893 17.9667 28.9305 14.7423L-2.45502 8.50126C-1.86205 5.51928 -0.398283 2.78 1.75133 0.629742L24.3822 23.2537ZM28.9305 14.7423C29.5717 11.5178 29.2424 8.1756 27.9844 5.13824L-1.5801 17.3832C-2.74352 14.5742 -3.048 11.4833 -2.45502 8.50126L28.9305 14.7423ZM27.9844 5.13824C26.7264 2.10087 24.5961 -0.495345 21.8628 -2.32219L4.08128 24.2827C1.55345 22.5932 -0.416682 20.1922 -1.5801 17.3832L27.9844 5.13824ZM21.8628 -2.32219C19.1295 -4.14901 15.9159 -5.12443 12.6283 -5.12513L12.6215 26.8749C9.58104 26.8742 6.60908 25.9721 4.08128 24.2827L21.8628 -2.32219Z" fill="#111111" mask="url(#path-1-inside-1_16736_38728)"/>
</svg>
