<svg width="81" height="80" viewBox="0 0 81 80" fill="none" xmlns="http://www.w3.org/2000/svg">
<g clip-path="url(#clip0_1701_21542)">
<path fill-rule="evenodd" clip-rule="evenodd" d="M40.5 0C18.4375 0 0.5 17.9375 0.5 40C0.5 62.0625 18.4375 80 40.5 80C62.5625 80 80.5 62.0625 80.5 40C80.5 17.9375 62.5625 0 40.5 0Z" fill="#219653"/>
<path fill-rule="evenodd" clip-rule="evenodd" d="M59.8437 26.5156C60.8125 27.4844 60.8125 29.0781 59.8437 30.0469L36.4063 53.4844C35.9219 53.9687 35.2813 54.2187 34.6406 54.2187C34 54.2187 33.3594 53.9687 32.875 53.4844L21.1562 41.7656C20.1875 40.7969 20.1875 39.2031 21.1562 38.2344C22.125 37.2656 23.7188 37.2656 24.6875 38.2344L34.6406 48.1875L56.3125 26.5156C57.2812 25.5313 58.875 25.5313 59.8437 26.5156Z" fill="white"/>
</g>
<defs>
<clipPath id="clip0_1701_21542">
<rect width="80" height="80" fill="white" transform="translate(0.5)"/>
</clipPath>
</defs>
</svg>
