<svg width="20" height="20" viewBox="0 0 20 20" fill="none" xmlns="http://www.w3.org/2000/svg">
<g clip-path="url(#clip0_18429_13149)">
<path d="M9.99967 6.66665C10.9163 6.66665 11.6663 5.91665 11.6663 4.99998C11.6663 4.08331 10.9163 3.33331 9.99967 3.33331C9.08301 3.33331 8.33301 4.08331 8.33301 4.99998C8.33301 5.91665 9.08301 6.66665 9.99967 6.66665ZM9.99967 8.33331C9.08301 8.33331 8.33301 9.08331 8.33301 9.99998C8.33301 10.9166 9.08301 11.6666 9.99967 11.6666C10.9163 11.6666 11.6663 10.9166 11.6663 9.99998C11.6663 9.08331 10.9163 8.33331 9.99967 8.33331ZM9.99967 13.3333C9.08301 13.3333 8.33301 14.0833 8.33301 15C8.33301 15.9166 9.08301 16.6666 9.99967 16.6666C10.9163 16.6666 11.6663 15.9166 11.6663 15C11.6663 14.0833 10.9163 13.3333 9.99967 13.3333Z" fill="white"/>
</g>
<defs>
<clipPath id="clip0_18429_13149">
<rect width="20" height="20" fill="white"/>
</clipPath>
</defs>
</svg>
