<svg width="24" height="25" viewBox="0 0 24 25" fill="none" xmlns="http://www.w3.org/2000/svg">
<path d="M10.475 22.2266C10.0083 22.2266 9.57082 22.1266 9.16249 21.9266C8.75415 21.7266 8.40832 21.4432 8.12499 21.0766L2.67499 14.1516L3.14999 13.6516C3.48332 13.3016 3.88332 13.0932 4.34999 13.0266C4.81665 12.9599 5.24999 13.0516 5.64999 13.3016L7.49999 14.4266V6.22656C7.49999 5.94323 7.59582 5.70573 7.78749 5.51406C7.97915 5.3224 8.21665 5.22656 8.49999 5.22656C8.78332 5.22656 9.02499 5.3224 9.22499 5.51406C9.42499 5.70573 9.52499 5.94323 9.52499 6.22656V18.0266L7.09999 16.5266L9.69999 19.8516C9.79999 19.9682 9.91665 20.0599 10.05 20.1266C10.1833 20.1932 10.325 20.2266 10.475 20.2266H16C16.55 20.2266 17.0208 20.0307 17.4125 19.6391C17.8042 19.2474 18 18.7766 18 18.2266V14.2266C18 13.9432 17.9042 13.7057 17.7125 13.5141C17.5208 13.3224 17.2833 13.2266 17 13.2266H11.525V11.2266H17C17.8333 11.2266 18.5417 11.5182 19.125 12.1016C19.7083 12.6849 20 13.3932 20 14.2266V18.2266C20 19.3266 19.6083 20.2682 18.825 21.0516C18.0417 21.8349 17.1 22.2266 16 22.2266H10.475ZM4.17499 8.72656C3.95832 8.3599 3.79165 7.96406 3.67499 7.53906C3.55832 7.11406 3.49999 6.67656 3.49999 6.22656C3.49999 4.84323 3.98749 3.66406 4.96249 2.68906C5.93749 1.71406 7.11665 1.22656 8.49999 1.22656C9.88332 1.22656 11.0625 1.71406 12.0375 2.68906C13.0125 3.66406 13.5 4.84323 13.5 6.22656C13.5 6.67656 13.4417 7.11406 13.325 7.53906C13.2083 7.96406 13.0417 8.3599 12.825 8.72656L11.1 7.72656C11.2333 7.49323 11.3333 7.25573 11.4 7.01406C11.4667 6.7724 11.5 6.5099 11.5 6.22656C11.5 5.39323 11.2083 4.6849 10.625 4.10156C10.0417 3.51823 9.33332 3.22656 8.49999 3.22656C7.66665 3.22656 6.95832 3.51823 6.37499 4.10156C5.79165 4.6849 5.49999 5.39323 5.49999 6.22656C5.49999 6.5099 5.53332 6.7724 5.59999 7.01406C5.66665 7.25573 5.76665 7.49323 5.89999 7.72656L4.17499 8.72656Z" fill="#E20B18"/>
</svg>
