<svg width="49" height="50" viewBox="0 0 49 50" fill="none" xmlns="http://www.w3.org/2000/svg">
<g id="Frame" clip-path="url(#clip0_6203_18403)">
<g id="Group">
<path id="Vector" d="M27.3057 16.1614C27.1034 16.1919 26.8973 16.1408 26.7327 16.0193C26.5681 15.8978 26.4584 15.716 26.4279 15.5137C26.3451 14.9959 26.1993 14.4902 25.9938 14.0078C24.4418 10.276 20.1425 8.50246 16.4107 10.0545C12.679 11.6065 10.9054 15.9058 12.4574 19.6376C13.1991 21.4208 14.5838 22.8154 16.3571 23.5629C16.4968 23.6225 16.6159 23.7219 16.6994 23.8487C16.783 23.9755 16.8273 24.1242 16.8269 24.276C16.8265 24.4279 16.7814 24.5763 16.6972 24.7027C16.613 24.8291 16.4935 24.9279 16.3535 24.9867C16.1696 25.0632 15.9555 25.0687 15.7572 24.9857C13.6161 24.0866 11.9176 22.3771 11.0325 20.2302C9.15367 15.7126 11.3005 10.5085 15.8181 8.62961C20.3357 6.75075 25.5398 8.89762 27.4187 13.4152C27.6827 14.05 27.8621 14.6782 27.9534 15.2837C27.9839 15.486 27.9327 15.6921 27.8113 15.8567C27.6898 16.0213 27.5079 16.1309 27.3057 16.1614Z" fill="white"/>
<path id="Vector_2" d="M13.8824 19.0455C12.6569 16.0988 14.0568 12.7054 17.0035 11.4799C19.9501 10.2544 23.3436 11.6543 24.5691 14.6009C24.6476 14.7899 24.648 15.0023 24.5699 15.1915C24.4919 15.3807 24.3419 15.5311 24.1529 15.6097C23.964 15.6883 23.7515 15.6886 23.5624 15.6105C23.3732 15.5325 23.2228 15.3825 23.1442 15.1935C22.2455 13.0327 19.7569 12.0061 17.5961 12.9048C15.4352 13.8034 14.4086 16.292 15.3073 18.4529C15.3859 18.6418 15.3862 18.8542 15.3082 19.0434C15.2301 19.2326 15.0801 19.383 14.8912 19.4616C14.7022 19.5402 14.4898 19.5405 14.3006 19.4625C14.1114 19.3844 13.961 19.2344 13.8824 19.0455Z" fill="white"/>
<path id="Vector_3" d="M15.2484 33.4425L20.2786 37.0297C21.4878 37.8928 22.835 38.5439 24.2625 38.9553L26.2677 39.5328C26.4935 39.5977 26.6759 39.7609 26.7659 39.9774L27.3701 41.4301C27.8602 42.6085 29.218 43.1686 30.3963 42.6785L38.2332 39.4192C39.4116 38.9291 39.9717 37.5713 39.4816 36.393L38.7927 34.7365C38.665 34.4295 38.6056 34.1057 38.6165 33.7744L38.7613 29.2158C38.8128 27.6372 38.5268 26.0658 37.9224 24.6066C37.9162 24.5916 37.9106 24.5781 37.9032 24.5645L37.8866 24.5204L35.5902 18.999C35.0183 17.624 33.4346 16.9706 32.0596 17.5425C31.521 17.7665 31.093 18.1459 30.8059 18.6071C30.5058 18.3932 30.165 18.2431 29.8047 18.1659C29.4443 18.0886 29.072 18.0859 28.7105 18.158C28.3491 18.23 28.0062 18.3753 27.703 18.5848C27.3998 18.7942 27.1427 19.0636 26.9474 19.3761C26.4077 18.9914 25.7454 18.8185 25.0865 18.8904C24.4276 18.9623 23.8181 19.2739 23.3741 19.7659L21.7183 15.7848C21.1465 14.4097 19.5627 13.7564 18.1877 14.3283C16.8127 14.9001 16.1594 16.4839 16.7312 17.8589L22.2996 31.2478L18.4529 29.2985C17.8522 29.001 17.1697 28.9113 16.5125 29.0435C15.8553 29.1758 15.2605 29.5224 14.8216 30.0291C14.61 30.2745 14.4522 30.5615 14.3584 30.8717C14.2645 31.1818 14.2367 31.5081 14.2767 31.8297C14.3168 32.1512 14.4237 32.4608 14.5908 32.7384C14.7578 33.0161 14.9811 33.2556 15.2464 33.4417L15.2484 33.4425ZM15.8084 31.6402C15.7945 31.5329 15.8035 31.4239 15.835 31.3203C15.8664 31.2168 15.9194 31.1211 15.9906 31.0396C16.2049 30.7922 16.4951 30.6227 16.816 30.5576C17.1368 30.4925 17.4701 30.5355 17.7639 30.6798L23.4659 33.5698C23.6066 33.6408 23.7656 33.6671 23.9216 33.6451C24.0776 33.623 24.2231 33.5538 24.3386 33.4466C24.4541 33.3394 24.534 33.1995 24.5676 33.0455C24.6012 32.8916 24.5868 32.7311 24.5265 32.5855L18.156 17.268C17.9109 16.6788 18.191 15.9999 18.7802 15.7549C19.3694 15.5098 20.0483 15.7899 20.2933 16.3791L24.5897 26.7095C24.6683 26.8985 24.8187 27.0484 25.0079 27.1265C25.1971 27.2045 25.4095 27.2042 25.5985 27.1256C25.7874 27.0471 25.9374 26.8966 26.0154 26.7075C26.0935 26.5183 26.0932 26.3058 26.0146 26.1169L24.3108 22.0204C24.0658 21.4312 24.3459 20.7523 24.9351 20.5072C25.5242 20.2622 26.2031 20.5423 26.4482 21.1314L28.1519 25.228C28.2305 25.4169 28.3809 25.5669 28.5701 25.645C28.7593 25.723 28.9717 25.7227 29.1607 25.6441C29.3496 25.5655 29.4996 25.4151 29.5777 25.2259C29.6557 25.0368 29.6554 24.8243 29.5768 24.6354L28.1694 21.2513C27.9243 20.6621 28.2044 19.9832 28.7936 19.7382C29.3828 19.4931 30.0616 19.7732 30.3067 20.3624L31.7141 23.7465C31.7927 23.9354 31.9431 24.0854 32.1323 24.1635C32.3215 24.2415 32.5339 24.2412 32.7229 24.1626C32.9118 24.084 33.0618 23.9336 33.1399 23.7444C33.2179 23.5552 33.2176 23.3428 33.139 23.1539L32.0279 20.4822C31.7828 19.893 32.0629 19.2141 32.6521 18.9691C33.2413 18.724 33.9202 19.0041 34.1652 19.5933L36.4616 25.1147C36.4678 25.1297 36.4734 25.1432 36.4811 25.1576L36.4974 25.2009C37.0159 26.4477 37.2653 27.8189 37.2189 29.1661L37.074 33.7265C37.0558 34.2759 37.1558 34.8228 37.3674 35.3301L38.0563 36.9866C38.2199 37.3798 38.0327 37.8321 37.6402 37.9953L29.8033 41.2547C29.4108 41.4179 28.9581 41.2318 28.7946 40.8385L28.1904 39.3858C27.9193 38.734 27.3742 38.247 26.695 38.0506L24.6888 37.4727C23.4292 37.1101 22.2405 36.5357 21.1737 35.7741L16.1376 32.1827C16.0471 32.1211 15.9709 32.0408 15.914 31.9473C15.8571 31.8538 15.8208 31.7492 15.8077 31.6405L15.8084 31.6402Z" fill="white"/>
</g>
</g>
<defs>
<clipPath id="clip0_6203_18403">
<rect width="37.0369" height="37.0369" fill="white" transform="translate(0.5 15) rotate(-22.5823)"/>
</clipPath>
</defs>
</svg>
