<svg width="32" height="32" viewBox="0 0 32 32" fill="none" xmlns="http://www.w3.org/2000/svg">
<rect x="0.5" y="0.5" width="31" height="31" rx="15.5" stroke="#F2F2F2"/>
<rect x="0.5" y="0.5" width="31" height="31" rx="15.5" stroke="#E20B18"/>
<g clip-path="url(#clip0_8782_58571)">
<path d="M25 10.4189C24.3306 10.7125 23.6174 10.9071 22.8737 11.0016C23.6388 10.5449 24.2226 9.82712 24.4971 8.962C23.7839 9.38725 22.9964 9.68763 22.1571 9.85525C21.4799 9.13413 20.5146 8.6875 19.4616 8.6875C17.4186 8.6875 15.7739 10.3458 15.7739 12.3786C15.7739 12.6711 15.7986 12.9524 15.8594 13.2201C12.7915 13.0705 10.0769 11.6001 8.25325 9.36025C7.93487 9.91263 7.74813 10.5449 7.74813 11.2255C7.74813 12.5035 8.40625 13.6364 9.38725 14.2922C8.79437 14.281 8.21275 14.1089 7.72 13.8377V13.8782C7.72 15.6715 8.99912 17.161 10.6765 17.5041C10.3761 17.5863 10.0487 17.6256 9.709 17.6256C9.47275 17.6256 9.23425 17.6121 9.01038 17.5626C9.4885 19.024 10.8453 20.0984 12.4585 20.1332C11.203 21.1154 9.60888 21.7071 7.88313 21.7071C7.5805 21.7071 7.29025 21.6936 7 21.6565C8.63462 22.7106 10.5719 23.3125 12.661 23.3125C19.4515 23.3125 23.164 17.6875 23.164 12.8117C23.164 12.6486 23.1584 12.4911 23.1505 12.3348C23.8829 11.815 24.4982 11.1659 25 10.4189Z" fill="#E20B18"/>
</g>
<defs>
<clipPath id="clip0_8782_58571">
<rect width="18" height="18" fill="white" transform="translate(7 7)"/>
</clipPath>
</defs>
</svg>
