<svg width="18" height="18" viewBox="0 0 18 18" fill="none" xmlns="http://www.w3.org/2000/svg">
<path d="M4.48225 14.3444C4.46244 14.3268 4.44196 14.3096 4.4225 14.2937V14.2863L4.26187 14.1378C2.87349 12.8546 2 11.0279 2 9C2 5.14364 5.14364 2 9 2C12.8564 2 16 5.14364 16 9C16 11.0277 15.1267 12.854 13.7316 14.137L13.4992 14.3506C13.4785 14.3668 13.4609 14.3817 13.4469 14.3938C13.4307 14.4078 13.4215 14.416 13.4143 14.4223C13.4061 14.4296 13.4005 14.4345 13.3899 14.4434L4.48225 14.3444ZM4.48225 14.3444C4.49563 14.3557 4.50765 14.3662 4.51742 14.3747L4.54556 14.3994C4.55553 14.408 4.55995 14.4114 4.56091 14.4122L4.58207 14.4263L4.60259 14.4434C4.69302 14.5187 4.78818 14.5881 4.89662 14.667C4.93084 14.692 4.96638 14.7179 5.00351 14.7452C5.02527 14.7607 5.04596 14.775 5.0696 14.7914L5.07063 14.7921C5.09325 14.8078 5.11867 14.8254 5.14623 14.845C5.27094 14.9301 5.4028 15.0092 5.542 15.0821L5.55012 15.0863L5.55807 15.0909C5.58896 15.1085 5.62093 15.1277 5.6476 15.1437L5.64975 15.145C5.67732 15.1615 5.69973 15.175 5.71965 15.1864C5.85116 15.2586 5.99013 15.3247 6.13682 15.3847L6.15425 15.3919L6.1711 15.4003C6.23585 15.4327 6.27201 15.4502 6.30306 15.4618L6.30998 15.4644L6.31681 15.4672C6.4698 15.5298 6.62222 15.5852 6.7741 15.6335L6.78619 15.6374L6.79806 15.6418C6.86325 15.6663 6.89624 15.678 6.92377 15.6849L6.93318 15.6873L6.9425 15.69C7.11165 15.7393 7.28227 15.7821 7.46377 15.8274L7.47185 15.8294L7.47986 15.8317C7.53576 15.8477 7.55312 15.8518 7.56952 15.8539L7.59105 15.8566L7.61226 15.8611C7.79501 15.9003 7.98126 15.9275 8.18028 15.9485C8.23466 15.9514 8.28336 15.9604 8.31624 15.9677C8.54894 15.9875 8.77615 16 9 16C9.23588 16 9.47517 15.9861 9.71223 15.9646L9.72074 15.9638L9.72624 15.9624L9.76071 15.9538L9.79605 15.9502C10.0012 15.9289 10.1925 15.9013 10.3802 15.8611L10.3972 15.8575L10.4065 15.8561C10.4106 15.8551 10.4157 15.8537 10.4268 15.8506L10.4317 15.8493L10.4342 15.8486C10.4568 15.8423 10.4999 15.8304 10.5519 15.8217C10.6058 15.8084 10.655 15.7967 10.7009 15.7859C10.8226 15.7571 10.9208 15.7339 11.0204 15.6996L11.0223 15.6989C11.0715 15.6804 11.1432 15.6535 11.2209 15.6322C11.2871 15.6084 11.3449 15.5886 11.398 15.5705C11.4966 15.5368 11.5789 15.5086 11.668 15.4704L11.6786 15.4659L11.6894 15.4618C11.7205 15.4502 11.7566 15.4327 11.8214 15.4003L11.8345 15.3937L11.848 15.3879C11.9932 15.3257 12.139 15.2563 12.2855 15.1796L12.2939 15.1752L12.2939 15.1753C12.3028 15.1709 12.3151 15.1638 12.3391 15.1489C12.3425 15.1469 12.3466 15.1443 12.3514 15.1413C12.3709 15.1291 12.4008 15.1103 12.4292 15.0939C12.4895 15.0578 12.5435 15.0263 12.5944 14.9966C12.6872 14.9426 12.7695 14.8946 12.86 14.8358L12.872 14.828L12.8844 14.8209C12.8869 14.8195 12.894 14.8152 12.9125 14.8016L12.9455 14.7771C12.9584 14.7675 12.9744 14.7556 12.9919 14.7431L12.9958 14.7404L12.9958 14.7404C13.1399 14.6395 13.2699 14.5434 13.3899 14.4434L4.48225 14.3444ZM12.4262 13.1426L12.4262 13.1426L12.4298 13.145C12.7177 13.3347 12.9544 13.5537 13.1365 13.7859L13.4869 14.233L13.8859 13.8287C15.1137 12.5848 15.875 10.8778 15.875 9C15.875 5.20636 12.7936 2.125 9 2.125C5.20636 2.125 2.125 5.20636 2.125 9C2.125 10.8778 2.88632 12.5848 4.11414 13.8287L4.50656 14.2263L4.85838 13.7924C5.05391 13.5512 5.28649 13.3319 5.57016 13.145L5.57235 13.1435C6.49731 12.5269 7.73971 12.2037 9.00563 12.2037C10.2717 12.2037 11.5095 12.5269 12.4262 13.1426Z" fill="white" stroke="white"/>
<path d="M6.6875 8.01001C6.6875 6.73365 7.72364 5.69751 9 5.69751C10.276 5.69751 11.3118 6.733 11.3125 8.0088C11.3057 9.26061 10.3297 10.2677 9.08843 10.315H9.08842H9.08838H9.08834H9.08829H9.08825H9.08821H9.08817H9.08813H9.08809H9.08805H9.08801H9.08797H9.08793H9.08788H9.08784H9.0878H9.08776H9.08772H9.08768H9.08764H9.08759H9.08755H9.08751H9.08747H9.08743H9.08738H9.08734H9.0873H9.08726H9.08722H9.08718H9.08713H9.08709H9.08705H9.08701H9.08697H9.08692H9.08688H9.08684H9.0868H9.08675H9.08671H9.08667H9.08663H9.08658H9.08654H9.0865H9.08646H9.08641H9.08637H9.08633H9.08629H9.08624H9.0862H9.08616H9.08612H9.08607H9.08603H9.08599H9.08594H9.0859H9.08586H9.08581H9.08577H9.08573H9.08569H9.08564H9.0856H9.08556H9.08551H9.08547H9.08543H9.08538H9.08534H9.0853H9.08525H9.08521H9.08517H9.08512H9.08508H9.08504H9.08499H9.08495H9.08491H9.08486H9.08482H9.08478H9.08473H9.08469H9.08465H9.0846H9.08456H9.08452H9.08447H9.08443H9.08438H9.08434H9.0843H9.08425H9.08421H9.08417H9.08412H9.08408H9.08404H9.08399H9.08395H9.0839H9.08386H9.08382H9.08377H9.08373H9.08369H9.08364H9.0836H9.08355H9.08351H9.08347H9.08342H9.08338H9.08333H9.08329H9.08325H9.0832H9.08316H9.08311H9.08307H9.08303H9.08298H9.08294H9.0829H9.08285H9.08281H9.08276H9.08272H9.08268H9.08263H9.08259H9.08254H9.0825H9.08241H9.08232H9.08224H9.08215H9.08206H9.08197H9.08188H9.08179H9.0817H9.08161H9.08152H9.08143H9.08134H9.08125H9.08116H9.08107H9.08098H9.08089H9.0808H9.08071H9.08062H9.08053H9.08043H9.08034H9.08025H9.08016H9.08007H9.07997H9.07988H9.07979H9.0797H9.0796H9.07951H9.07942H9.07932H9.07923H9.07914H9.07904H9.07895H9.07885H9.07876H9.07867H9.07857H9.07848H9.07838H9.07829H9.07819H9.0781H9.078H9.0779H9.07781H9.07771H9.07762H9.07752H9.07742H9.07733H9.07723H9.07714H9.07704H9.07694H9.07684H9.07675H9.07665H9.07655H9.07645H9.07636H9.07626H9.07616H9.07606H9.07597H9.07587H9.07577H9.07567H9.07557H9.07547H9.07537H9.07527H9.07518H9.07508H9.07498H9.07488H9.07478H9.07468H9.07458H9.07448H9.07438H9.07428H9.07418H9.07408H9.07398H9.07388H9.07377H9.07367H9.07357H9.07347H9.07337H9.07327H9.07317H9.07307H9.07296H9.07286H9.07276H9.07266H9.07256H9.07245H9.07235H9.07225H9.07215H9.07204H9.07194H9.07184H9.07174H9.07163H9.07153H9.07143H9.07132H9.07122H9.07112H9.07101H9.07091H9.07081H9.0707H9.0706H9.07049H9.07039H9.07029H9.07018H9.07008H9.06997H9.06987H9.06976H9.06966H9.06956H9.06945H9.06935H9.06924H9.06914H9.06903H9.06892H9.06882H9.06871H9.06861H9.0685H9.0684H9.06829H9.06819H9.06808H9.06797H9.06787H9.06776H9.06766H9.06755H9.06744H9.06734H9.06723H9.06712H9.06702H9.06691H9.0668H9.0667H9.06659H9.06648H9.06638H9.06627H9.06616H9.06606H9.06595H9.06584H9.06573H9.06563H9.06552H9.06541H9.0653H9.0652H9.06509H9.06498H9.06487H9.06477H9.06466H9.06455H9.06444H9.06433H9.06423H9.06412H9.06401H9.0639H9.06379H9.06369H9.06358H9.06347H9.06336H9.06325H9.06314H9.06303H9.06293H9.06282H9.06271H9.0626H9.06249H9.06238H9.06227H9.06216H9.06206H9.06195H9.06184H9.06173H9.06162H9.06151H9.0614H9.06129H9.06118H9.06107H9.06097H9.06086H9.06075H9.06064H9.06053H9.06042H9.06031H9.0602H9.06009H9.05998H9.05987H9.05976H9.05965H9.05954H9.05943H9.05932H9.05921H9.0591H9.05899H9.05889H9.05878H9.05867H9.05856H9.05845H9.05834H9.05823H9.05812H9.05801H9.0579H9.05779H9.05768H9.05757H9.05746H9.05735H9.05724H9.05713H9.05702H9.05691H9.0568H9.05669H9.05658H9.05647H9.05636H9.05625H9.05614H9.05603H9.05592H9.05581H9.0557H9.05559H9.05548H9.05537H9.05526H9.05515H9.05504H9.05493H9.05482H9.05471H9.0546H9.05449H9.05438H9.05427H9.05416H9.05405H9.05394H9.05383H9.05372H9.05361H9.0535H9.0534H9.05329H9.05318H9.05307H9.05296H9.05285H9.05274H9.05263H9.05252H9.05241H9.0523H9.05219H9.05208H9.05197H9.05186H9.05175H9.05164H9.05153H9.05143H9.05132H9.05121H9.0511H9.05099H9.05088H9.05077H9.05066H9.05055H9.05044H9.05033H9.05023H9.05012H9.05001H9.0499H9.04979H9.04968H9.04957H9.04946H9.04936H9.04925H9.04914H9.04903H9.04892H9.04881H9.04871H9.0486H9.04849H9.04838H9.04827H9.04817H9.04806H9.04795H9.04784H9.04773H9.04763H9.04752H9.04741H9.0473H9.0472H9.04709H9.04698H9.04687H9.04677H9.04666H9.04655H9.04644H9.04634H9.04623H9.04612H9.04602H9.04591H9.0458H9.0457H9.04559H9.04548H9.04538H9.04527H9.04516H9.04506H9.04495H9.04484H9.04474H9.04463H9.04453H9.04442H9.04431H9.04421H9.0441H9.044H9.04389H9.04379H9.04368H9.04358H9.04347H9.04336H9.04326H9.04315H9.04305H9.04294H9.04284H9.04274H9.04263H9.04253H9.04242H9.04232H9.04221H9.04211H9.04201H9.0419H9.0418H9.04169H9.04159H9.04149H9.04138H9.04128H9.04118H9.04107H9.04097H9.04087H9.04076H9.04066H9.04056H9.04046H9.04035H9.04025H9.04015H9.04005H9.03994H9.03984H9.03974H9.03964H9.03954H9.03943H9.03933H9.03923H9.03913H9.03903H9.03893H9.03883H9.03873H9.03862H9.03852H9.03842H9.03832H9.03822H9.03812H9.03802H9.03792H9.03782H9.03772H9.03762H9.03752H9.03742H9.03732H9.03723H9.03713H9.03703H9.03693H9.03683H9.03673H9.03663H9.03653H9.03644H9.03634H9.03624H9.03614H9.03604H9.03595H9.03585H9.03575H9.03566H9.03556H9.03546H9.03536H9.03527H9.03517H9.03507H9.03498H9.03488H9.03479H9.03469H9.0346H9.0345H9.0344H9.03431H9.03421H9.03412H9.03402H9.03393H9.03383H9.03374H9.03365H9.03355H9.03346H9.03336H9.03327H9.03318H9.03308H9.03299H9.0329H9.0328H9.03271H9.03262H9.03253H9.03243H9.03234H9.03225H9.03216H9.03207H9.03197H9.03188H9.03179H9.0317H9.03161H9.03152H9.03143H9.03134H9.03125H9.03116H9.03107H9.03098H9.03089H9.0308H9.03071H9.03062H9.03053H9.03044H9.03035H9.03026H9.03018H9.03009H9.03H9.02991H9.02982H9.02973H9.02965H9.02956H9.02947H9.02938H9.02929H9.0292H9.0291H9.02901H9.02892H9.02883H9.02874H9.02864H9.02855H9.02846H9.02836H9.02827H9.02817H9.02808H9.02799H9.02789H9.02779H9.0277H9.0276H9.02751H9.02741H9.02731H9.02721H9.02712H9.02702H9.02692H9.02682H9.02672H9.02662H9.02652H9.02642H9.02632H9.02622H9.02612H9.02602H9.02592H9.02581H9.02571H9.02561H9.02551H9.0254H9.0253H9.0252H9.02509H9.02499H9.02488H9.02478H9.02467H9.02457H9.02446H9.02436H9.02425H9.02414H9.02404H9.02393H9.02382H9.02372H9.02361H9.0235H9.02339H9.02328H9.02317H9.02306H9.02295H9.02284H9.02273H9.02262H9.02251H9.0224H9.02229H9.02218H9.02207H9.02196H9.02184H9.02173H9.02162H9.02151H9.02139H9.02128H9.02116H9.02105H9.02094H9.02082H9.02071H9.02059H9.02048H9.02036H9.02024H9.02013H9.02001H9.0199H9.01978H9.01966H9.01954H9.01943H9.01931H9.01919H9.01907H9.01895H9.01884H9.01872H9.0186H9.01848H9.01836H9.01824H9.01812H9.018H9.01788H9.01776H9.01764H9.01751H9.01739H9.01727H9.01715H9.01703H9.0169H9.01678H9.01666H9.01654H9.01641H9.01629H9.01617H9.01604H9.01592H9.01579H9.01567H9.01554H9.01542H9.01529H9.01517H9.01504H9.01492H9.01479H9.01466H9.01454H9.01441H9.01428H9.01416H9.01403H9.0139H9.01378H9.01365H9.01352H9.01339H9.01326H9.01313H9.01301H9.01288H9.01275H9.01262H9.01249H9.01236H9.01223H9.0121H9.01197H9.01184H9.01171H9.01158H9.01145H9.01132H9.01118H9.01105H9.01092H9.01079H9.01066H9.01053H9.01039H9.01026H9.01013H9.00999H9.00986H9.00973H9.0096H9.00946H9.00933H9.00919H9.00906H9.00893H9.00879H9.00866H9.00852H9.00839H9.00825H9.00812H9.00798H9.00785H9.00771H9.00758H9.00744H9.00731H9.00717H9.00703H9.0069H9.00676H9.00662H9.00649H9.00635H9.00621H9.00608H9.00594H9.0058H9.00566H9.00553H9.00539H9.00525H9.00511H9.00497H9.00483H9.0047H9.00456H9.00442H9.00428H9.00414H9.004H9.00386H9.00372H9.00358H9.00344H9.0033H9.00316H9.00302H9.00288H9.00274H9.0026H9.00246H9.00232H9.00218H9.00204H9.0019H9.00176H9.00162H9.00148H9.00134H9.00119H9.00105H9.00091H9.00077H9.00063H9.00049H9.00034H9.0002H9.00006H8.99992H8.99978H8.99963H8.99949H8.99935H8.99921H8.99906H8.99892H8.99878H8.99863H8.99849H8.99835H8.9982H8.99806H8.99792H8.99777H8.99763H8.99749H8.99734H8.9972H8.99705H8.99691H8.99677H8.99662H8.99648H8.99633H8.99619H8.99605H8.9959H8.99576H8.99561H8.99547H8.99532H8.99518H8.99503H8.99489H8.99474H8.9946H8.99445H8.99431H8.99416H8.99402H8.99387H8.99373H8.99358H8.99344H8.99329H8.99315H8.993H8.99286H8.99271H8.99256H8.99242H8.99227H8.99213H8.99198H8.99183H8.99169H8.99154H8.9914H8.99125H8.99111H8.99096H8.99081H8.99067H8.99052H8.99037H8.99023H8.99008H8.98994H8.98979H8.98964H8.9895H8.98935H8.9892H8.98906H8.98891H8.98877H8.98862H8.98847H8.98833H8.98818H8.98803H8.98789H8.98774H8.98759H8.98745H8.9873H8.98715H8.98701H8.98686H8.98672H8.98657H8.98642H8.98628H8.98613H8.98598H8.98584H8.98569H8.98554H8.9854H8.98525H8.9851H8.98496H8.98481H8.98466H8.98452H8.98437H8.98423H8.98408H8.98393H8.98379H8.98364H8.98349H8.98335H8.9832H8.98306H8.98291H8.98276H8.98262H8.98247H8.98233H8.98218H8.98203H8.98189H8.98174H8.9816H8.98145H8.9813H8.98116H8.98101H8.98087H8.98072H8.98058H8.98043H8.98028H8.98014H8.97999H8.97985H8.9797H8.97956H8.97941H8.97927H8.97912H8.97898H8.97883H8.97869H8.97854H8.9784H8.97825H8.97811H8.97796H8.97782H8.97767H8.97753H8.97738H8.97724H8.97709H8.97695H8.97681H8.97666H8.97652H8.97637H8.97623H8.97609H8.97594H8.9758H8.97566H8.97551H8.97537H8.97522H8.97508H8.97494H8.97479H8.97465H8.97451H8.97437H8.97422H8.97408H8.97394H8.9738H8.97365H8.97351H8.97337H8.97323H8.97308H8.97294H8.9728H8.97266H8.97252H8.97237H8.97223H8.97209H8.97195H8.97181H8.97167H8.97153H8.97139H8.97125H8.9711H8.97096H8.97082H8.97068H8.97054H8.9704H8.97026H8.97012H8.96998H8.96991C7.65684 10.2743 6.6875 9.25526 6.6875 8.01001Z" fill="white" stroke="white"/>
</svg>
