<svg width="20" height="20" viewBox="0 0 20 20" fill="none" xmlns="http://www.w3.org/2000/svg">
<path d="M7.9628 3.55957L7.96288 3.55967L7.97145 3.55219L9.27621 2.41364C9.67486 2.08039 10.3398 2.08406 10.7255 2.41331C10.7257 2.41348 10.7259 2.41364 10.7261 2.41381L12.0402 3.54497C12.0405 3.54519 12.0408 3.54541 12.041 3.54563C12.2252 3.70499 12.4645 3.82893 12.6904 3.91289C12.9166 3.99695 13.1775 4.05879 13.4177 4.05879H14.8344C15.4416 4.05879 15.9427 4.55993 15.9427 5.16712V6.58379C15.9427 6.82748 16.0042 7.08833 16.0889 7.31504C16.1735 7.54142 16.2976 7.77765 16.4559 7.96054C16.4561 7.96078 16.4563 7.96102 16.4565 7.96125L17.5877 9.2754C17.5878 9.27558 17.588 9.27575 17.5881 9.27593C17.919 9.6635 17.9199 10.3378 17.595 10.7268L16.4649 12.0397C16.4647 12.0399 16.4645 12.0401 16.4643 12.0403C16.3049 12.2245 16.1809 12.4638 16.0969 12.6898C16.0129 12.9161 15.951 13.1769 15.951 13.4171V14.8338C15.951 15.441 15.4499 15.9421 14.8427 15.9421H13.426C13.1824 15.9421 12.9215 16.0036 12.6948 16.0883C12.4684 16.1729 12.2322 16.297 12.0493 16.4553C12.049 16.4555 12.0488 16.4557 12.0486 16.4559L10.7354 17.5863C10.3368 17.9205 9.67093 17.9172 9.28485 17.5876C9.28467 17.5874 9.2845 17.5873 9.28432 17.5871L7.97017 16.4559C7.96997 16.4558 7.96977 16.4556 7.96957 16.4554C7.7854 16.296 7.54603 16.172 7.31999 16.088C7.09378 16.004 6.83291 15.9421 6.59271 15.9421H5.15104C4.54385 15.9421 4.04271 15.441 4.04271 14.8338V13.4088C4.04271 13.1683 3.9807 12.9095 3.89807 12.6863C3.81519 12.4623 3.69454 12.2283 3.54349 12.047L3.5435 12.047L3.54052 12.0435L2.41712 10.7204C2.41689 10.7201 2.41666 10.7199 2.41643 10.7196C2.09037 10.3308 2.09036 9.67023 2.41639 9.28138C2.41663 9.28109 2.41688 9.2808 2.41712 9.28051L3.54052 7.9574L3.54054 7.95742L3.54349 7.95388C3.69454 7.77261 3.81519 7.53857 3.89807 7.31465C3.9807 7.09143 4.04271 6.83265 4.04271 6.59212V5.16712C4.04271 4.55993 4.54385 4.05879 5.15104 4.05879H6.59271C6.83267 4.05879 7.09303 3.99704 7.31773 3.91477C7.54281 3.83237 7.78014 3.71178 7.9628 3.55957ZM9.79626 12.804L13.8213 8.77901C14.2582 8.34208 14.2582 7.6255 13.8213 7.18857C13.3843 6.75164 12.6678 6.75164 12.2308 7.18857L9.00104 10.4183L7.77959 9.1969C7.34267 8.75997 6.62608 8.75997 6.18916 9.1969L6.54271 9.55046L6.18915 9.1969C5.75223 9.63383 5.75223 10.3504 6.18916 10.7873L8.20582 12.804C8.41519 13.0134 8.70026 13.1338 9.00104 13.1338C9.30182 13.1338 9.5869 13.0134 9.79626 12.804Z" fill="white" stroke="white"/>
</svg>
