<svg width="32" height="22" viewBox="0 0 32 22" fill="none" xmlns="http://www.w3.org/2000/svg">
<path d="M15.9997 17.6667C17.7705 17.6667 19.2757 17.0469 20.5153 15.8073C21.7549 14.5677 22.3747 13.0625 22.3747 11.2917C22.3747 9.52082 21.7549 8.01561 20.5153 6.77603C19.2757 5.53645 17.7705 4.91666 15.9997 4.91666C14.2288 4.91666 12.7236 5.53645 11.484 6.77603C10.2444 8.01561 9.62466 9.52082 9.62466 11.2917C9.62466 13.0625 10.2444 14.5677 11.484 15.8073C12.7236 17.0469 14.2288 17.6667 15.9997 17.6667ZM15.9997 15.1167C14.9372 15.1167 14.034 14.7448 13.2903 14.001C12.5465 13.2573 12.1747 12.3542 12.1747 11.2917C12.1747 10.2292 12.5465 9.32603 13.2903 8.58228C14.034 7.83853 14.9372 7.46666 15.9997 7.46666C17.0622 7.46666 17.9653 7.83853 18.709 8.58228C19.4528 9.32603 19.8247 10.2292 19.8247 11.2917C19.8247 12.3542 19.4528 13.2573 18.709 14.001C17.9653 14.7448 17.0622 15.1167 15.9997 15.1167ZM15.9997 21.9167C12.8358 21.9167 9.94931 21.0667 7.34028 19.3667C4.73126 17.6667 2.67119 15.4236 1.16007 12.6375C1.04202 12.425 0.953478 12.2066 0.89445 11.9823C0.835422 11.758 0.805908 11.5278 0.805908 11.2917C0.805908 11.0555 0.835422 10.8253 0.89445 10.601C0.953478 10.3767 1.04202 10.1583 1.16007 9.94582C2.67119 7.15971 4.73126 4.91666 7.34028 3.21666C9.94931 1.51666 12.8358 0.666656 15.9997 0.666656C19.1635 0.666656 22.05 1.51666 24.659 3.21666C27.2681 4.91666 29.3281 7.15971 30.8392 9.94582C30.9573 10.1583 31.0458 10.3767 31.1049 10.601C31.1639 10.8253 31.1934 11.0555 31.1934 11.2917C31.1934 11.5278 31.1639 11.758 31.1049 11.9823C31.0458 12.2066 30.9573 12.425 30.8392 12.6375C29.3281 15.4236 27.2681 17.6667 24.659 19.3667C22.05 21.0667 19.1635 21.9167 15.9997 21.9167Z" fill="#E20B18"/>
</svg>
