<svg width="46" height="46" viewBox="0 0 46 46" fill="none" xmlns="http://www.w3.org/2000/svg">
<path d="M33.5534 27.4217L33.5361 27.5654C29.3214 25.4648 28.8806 25.1849 28.3362 26.0014C27.9586 26.5668 26.8585 27.8491 26.5269 28.2286C26.1915 28.6023 25.858 28.6311 25.2887 28.3723C24.7137 28.0848 22.868 27.4811 20.683 25.5261C18.981 24.0023 17.8386 22.1336 17.5013 21.5586C16.9397 20.5888 18.1146 20.4508 19.1841 18.4268C19.3758 18.0243 19.2781 17.708 19.1362 17.4224C18.9925 17.1349 17.8482 14.3174 17.3691 13.1943C16.9091 12.0749 16.4356 12.2168 16.0811 12.2168C14.9771 12.1209 14.1701 12.1363 13.4591 12.8761C10.3656 16.2763 11.1456 19.7838 13.7926 23.5136C18.9944 30.3216 21.7659 31.5751 26.8336 33.3154C28.2021 33.7505 29.4498 33.6892 30.4369 33.5473C31.5371 33.3729 33.8236 32.1654 34.3009 30.8142C34.7896 29.4629 34.7896 28.3417 34.6459 28.0829C34.5041 27.8242 34.1284 27.6804 33.5534 27.4217Z" fill="#E20B18"/>
<path d="M39.33 6.61044C24.5928 -7.63615 0.203167 2.6966 0.193583 22.7948C0.193583 26.8121 1.24583 30.7298 3.25067 34.1894L0 45.9999L12.1421 42.8335C27.2933 51.0177 45.9923 40.1502 46 22.8063C46 16.7189 43.6233 10.99 39.3012 6.68519L39.33 6.61044ZM42.1705 22.743C42.159 37.3729 26.0992 46.5097 13.3975 39.0424L12.7075 38.6322L5.52 40.5009L7.44625 33.5147L6.98817 32.7959C-0.916167 20.213 8.165 3.76802 23.138 3.76802C25.6384 3.76173 28.1153 4.25145 30.4251 5.20883C32.735 6.16621 34.8321 7.57224 36.5949 9.34552C38.3674 11.0965 39.7733 13.1831 40.7305 15.4833C41.6878 17.7836 42.1773 20.2515 42.1705 22.743Z" fill="#E20B18"/>
</svg>
