<svg width="18" height="18" viewBox="0 0 18 18" fill="none" xmlns="http://www.w3.org/2000/svg">
<path d="M1.16669 8.99996C1.16669 4.68443 4.6845 1.16663 9.00002 1.16663C13.3155 1.16663 16.8334 4.68443 16.8334 8.99996C16.8334 13.3155 13.3155 16.8333 9.00002 16.8333C4.6845 16.8333 1.16669 13.3155 1.16669 8.99996ZM10.125 12.3333V10.125H12.3334C12.9512 10.125 13.4584 9.61777 13.4584 8.99996C13.4584 8.38215 12.9512 7.87496 12.3334 7.87496H10.125V5.66663C10.125 5.04882 9.61783 4.54163 9.00002 4.54163C8.38221 4.54163 7.87502 5.04882 7.87502 5.66663V7.87496H5.66669C5.04888 7.87496 4.54169 8.38215 4.54169 8.99996C4.54169 9.61777 5.04888 10.125 5.66669 10.125H7.87502V12.3333C7.87502 12.9511 8.38221 13.4583 9.00002 13.4583C9.61783 13.4583 10.125 12.9511 10.125 12.3333Z" fill="#E20B18" stroke="#E20B18"/>
</svg>
