<svg width="72" height="84" viewBox="0 0 72 84" fill="none" xmlns="http://www.w3.org/2000/svg">
<path d="M59.775 12.3127C43.338 -4.10423 16.7648 -4.10423 0.32776 12.3127C-16.1093 28.7296 -16.1093 55.2704 0.32776 71.6873C8.54627 79.8958 19.2303 84 30.0514 84C40.8724 84 51.5565 79.8958 59.775 71.6873C76.075 55.2704 76.075 28.7296 59.775 12.3127ZM69.3632 38.3062C65.391 38.9902 61.4187 41.4528 58.4052 45.2834C55.8027 48.7036 54.022 52.5342 52.3783 56.3648C52.1044 57.0489 51.8304 57.7329 51.5565 58.2801C49.6388 62.5212 47.4472 66.899 43.8858 69.772C37.9959 74.6971 30.0514 74.5603 25.8051 74.013C14.8471 72.645 4.98492 66.0782 0.738689 57.0489C-3.91846 47.3355 -1.58989 35.0228 6.08072 28.5928C12.5186 23.1205 21.5589 22.1629 30.3253 21.2052C32.5169 20.9316 34.9825 20.658 37.1741 20.3844C40.4615 19.8371 43.8859 19.1531 46.7623 17.2378C49.5018 15.4593 51.4195 12.0391 51.6934 8.89251C53.885 10.3974 56.0766 12.0391 57.9943 14.0912C64.7061 20.9316 68.5414 29.5505 69.3632 38.3062ZM57.9943 69.9088C42.6531 85.2313 17.5866 85.2313 2.24541 69.9088C-13.0958 54.5863 -13.0958 29.5505 2.24541 14.228C9.91602 6.56678 20.0522 2.73616 30.1883 2.73616C36.7631 2.73616 43.3379 4.37786 49.2279 7.66125C49.2279 7.79805 49.2279 7.79805 49.2279 7.93486C49.5018 10.5342 47.8581 13.8176 45.3926 15.4593C42.927 17.101 39.7766 17.785 36.7631 18.1954C34.5715 18.4691 32.243 18.7427 30.0514 19.0163C21.011 19.9739 11.5597 21.0684 4.43701 26.9511C-4.19242 34.0651 -6.79494 47.6091 -1.58988 58.4169C3.20425 68.2671 13.4774 75.3811 25.5312 76.886C26.764 77.0228 28.1337 77.1596 29.7774 77.1596C34.4346 77.1596 40.5984 76.202 45.6665 71.9609C49.6388 68.6775 51.9674 64.026 54.022 59.5114C54.296 58.8274 54.5699 58.1433 54.8439 57.5961C56.4876 53.9023 58.1313 50.2085 60.5968 47.0619C63.1993 43.7785 66.3498 41.7264 69.6372 41.1792C69.7741 51.4397 65.9388 61.9739 57.9943 69.9088Z" fill="#EAEAEA" fill-opacity="0.5"/>
</svg>
