<svg width="72" height="84" viewBox="0 0 72 84" fill="none" xmlns="http://www.w3.org/2000/svg">
<path d="M25.6667 23.1664L38.3695 28.2204C38.5005 28.2204 38.6314 28.35 38.8933 28.35C39.2862 28.35 39.6791 28.2204 39.941 27.9612L47.5365 19.2787C47.9294 18.8899 47.9294 18.242 47.6675 17.7236L40.5958 5.93097C40.3339 5.41261 39.6791 5.15343 39.0243 5.28302L26.0596 9.17072C25.5357 9.30031 25.1429 9.81867 25.1429 10.337L24.75 21.8705C24.75 22.5185 25.1429 22.9072 25.6667 23.1664ZM27.762 11.3737L38.8933 8.134L44.7864 18.242L38.5005 25.499L27.6311 21.093L27.762 11.3737Z" fill="#EAEAEA" fill-opacity="0.5"/>
<path d="M41.3061 47.0922L36.4039 59.328C36.1459 59.8379 36.4039 60.4751 36.7909 60.7301L45.6924 67.9951C45.9504 68.25 46.2084 68.25 46.4664 68.25C46.7244 68.25 46.8534 68.25 47.1115 68.1226L58.7221 61.4948C59.2381 61.2399 59.4961 60.7301 59.3671 60.0928L57.174 49.1315C57.045 48.6217 56.658 48.2393 56.142 48.1119L42.5962 46.2C42.0802 46.2 41.4351 46.4549 41.3061 47.0922ZM54.8519 50.5335L56.658 59.8379L46.5954 65.5734L39.113 59.4555L43.2412 49.004L54.8519 50.5335Z" fill="#EAEAEA" fill-opacity="0.5"/>
<path d="M24.5086 29.708C24.1156 29.322 23.3296 29.322 22.9366 29.5793L11.6712 37.2984C11.1472 37.5557 11.0163 38.1989 11.1472 38.7136L14.4221 49.6489C14.5531 50.1635 15.077 50.5494 15.601 50.5494L29.3553 51.45H29.4863C30.0103 51.45 30.5342 51.1927 30.6652 50.6781L35.119 40.2574C35.381 39.7428 35.25 39.2282 34.726 38.8422L24.5086 29.708ZM28.5693 48.877L16.78 48.1051L14.0291 38.8422L23.4606 32.281L27.8489 36.1405L32.2372 40.0001L28.5693 48.877Z" fill="#EAEAEA" fill-opacity="0.5"/>
<path d="M71.4742 36.0566C71.2113 34.4717 70.9483 32.8868 70.554 31.434C69.6338 28.1321 68.4507 24.9623 66.8732 22.0566C65.6901 19.9434 64.507 17.9623 63.061 16.1132C55.3052 6.33962 43.3427 0 29.9343 0C18.3662 0 7.71831 4.75472 0.0938959 12.5472C-0.694837 13.3396 -1.35211 14.1321 -2.00939 14.9245C-5.03286 18.4906 -7.53052 22.5849 -9.23944 27.0755C-9.6338 28 -9.89671 28.7925 -10.1596 29.717C-11.3427 33.6792 -12 37.7736 -12 42.1321C-12 47.4151 -11.0798 52.434 -9.23944 57.0566C-8.58216 58.9057 -7.66197 60.7547 -6.74178 62.3396C-5.8216 64.0566 -4.76995 65.6415 -3.71831 67.0943C-2.53521 68.6792 -1.35211 70.1321 -0.0375576 71.4528C4.95775 76.6038 11.1362 80.434 18.2347 82.4151C19.1549 82.6793 20.0751 82.9434 20.9953 83.0755C23.8873 83.7359 26.9108 84 29.9343 84C30.4601 84 30.9859 84 31.6432 84C32.6948 84 33.7465 83.8679 34.7981 83.7359C55.6995 81.3585 72 63.5283 72 41.8679C71.8685 40.0189 71.7371 38.0377 71.4742 36.0566ZM68.7136 35.7925L68.5822 36.1887L56.7512 35.3962L53.9906 25.8868L62.4037 19.9434C65.5587 24.566 67.7934 29.9811 68.7136 35.7925ZM1.14554 15.3208L4.30047 15.717L6.14084 25.3585L-4.11268 31.3019L-7.00469 28.7925C-5.29577 23.7736 -2.40376 19.1509 1.14554 15.3208ZM1.53991 69.3396C-1.87793 65.6415 -4.6385 61.4151 -6.61033 56.6604V56L4.56338 52.6981L10.4789 63L4.16901 70.3962L1.53991 69.3396ZM33.0892 81.4906C32.0376 81.6226 30.9859 81.6227 29.9343 81.6227C26.6479 81.6227 23.493 81.2264 20.6009 80.434L19.2864 72.3774L27.831 67.3585L36.507 75.0189L33.0892 81.4906ZM36.2441 81.0943L39.2676 75.5472C39.5305 75.0189 39.3991 74.3585 39.0047 73.9623L28.7512 64.9811C28.3568 64.5849 27.6995 64.5849 27.1737 64.8491L17.0516 70.7924C16.5258 71.0566 16.2629 71.5849 16.3944 72.1132L17.7089 79.7736C13.108 78.3208 9.03286 75.9434 5.35211 73.0377C5.35211 73.0377 5.35211 73.0377 5.48357 73.0377L13.108 64.1887C13.5023 63.7925 13.5023 63.1321 13.2394 62.6038L6.2723 50.4528C6.00939 49.9245 5.35211 49.6604 4.69484 49.7925L-7.79343 53.6226C-8.71362 49.9245 -9.37089 46.0943 -9.37089 42.1321C-9.37089 38.434 -8.84507 34.8679 -7.92488 31.566L-5.16432 33.9434C-4.90141 34.2076 -4.6385 34.2076 -4.37559 34.2076C-4.11268 34.2076 -3.98122 34.2075 -3.71831 34.0755L8.11268 27.2075C8.6385 26.9434 8.90141 26.4151 8.76995 25.7547L6.53521 14.2642C6.40376 13.7359 6.00939 13.3396 5.48357 13.2075L3.38028 12.9434C10.4789 6.60377 19.6808 2.64151 29.9343 2.64151C42.4225 2.64151 53.5962 8.5849 60.8263 17.6981L51.6244 24.1698C51.0986 24.434 50.9671 25.0943 51.0986 25.6226L54.385 36.8491C54.5164 37.3774 55.0423 37.7736 55.5681 37.7736L68.9765 38.6981C69.108 39.7547 69.108 40.9434 69.108 42.1321C69.2394 61.8113 54.9108 78.0566 36.2441 81.0943Z" fill="#EAEAEA" fill-opacity="0.5"/>
</svg>
