<svg width="35" height="35" viewBox="0 0 35 35" fill="none" xmlns="http://www.w3.org/2000/svg">
<path d="M17.0161 1.59951C16.9105 1.63848 16.7939 1.7775 16.7828 1.87754L15.2355 7.17507L8.12609 5.52882C8.07607 5.52329 8.02604 5.51776 7.97602 5.51224L7.926 5.50671C7.87597 5.50118 7.82042 5.54568 7.76487 5.59018C7.76487 5.59018 7.76487 5.59018 7.75935 5.6402C7.7038 5.6847 7.69827 5.73472 7.64272 5.77921L7.63719 5.82924C7.63167 5.87926 7.62614 5.92929 7.62061 5.97931C7.62061 5.97931 7.62061 5.97931 7.61509 6.02933L7.84181 13.1431L2.33427 13.4967C2.1842 13.4801 2.0731 13.5691 2.01202 13.6636C1.95094 13.7582 1.88434 13.9027 1.91778 14.0583L2.46449 17.3593C2.49794 17.5149 2.58693 17.626 2.68145 17.6871L20.9012 28.7635L21.7466 29.819L24.0604 32.7076C25.4398 34.4297 27.941 34.706 29.613 33.3211L30.2796 32.7871C31.1129 32.1197 31.6236 31.1634 31.7397 30.1129C31.8502 29.1124 31.5606 28.0678 30.8986 27.1845L28.5848 24.2959C28.5848 24.2959 28.5348 24.2903 28.5403 24.2403L27.6949 23.1849C27.6504 23.1293 27.6504 23.1293 27.6003 23.1238L20.8519 3.08662C20.8185 2.93102 20.7239 2.86994 20.5794 2.80334L17.4774 1.5492C17.2717 1.57712 17.1717 1.56607 17.0161 1.59951ZM21.8766 15.352C22.0211 15.4186 22.1267 15.3796 22.2378 15.2906C22.3489 15.2017 22.46 15.1127 22.471 15.0126L23.0144 12.8447L24.9186 18.5236L22.7522 20.259L19.7698 14.7142L21.8766 15.352ZM26.6057 23.419L25.1058 24.6204L23.2195 21.0701L25.2749 19.4238L26.6057 23.419ZM17.5479 25.6588L19.5477 24.0569L22.6005 26.6728L21.1007 27.8742L17.5479 25.6588ZM12.1826 22.4331L13.4164 22.2656C13.622 22.2377 13.7942 22.0541 13.8163 21.854L14.0926 19.3529L18.8081 23.4182L16.6417 25.1536L12.1826 22.4331ZM17.9162 19.1171C18.1663 19.1447 18.3885 18.9667 18.4162 18.7166L18.9976 15.2871L21.98 20.8319L19.5914 22.7453L15.1539 18.9132L17.9162 19.1171ZM23.3782 26.0498L20.3254 23.434L22.4363 21.7431L24.3226 25.2934L23.3782 26.0498ZM22.1073 28.8462L21.8403 28.5129L27.1731 24.2412L27.4401 24.5745L22.1073 28.8462ZM18.2854 13.9426L17.571 18.1169L13.9972 17.9246L8.77567 13.3982L8.56638 7.50156L13.1495 13.2232C13.3275 13.4454 13.6277 13.4786 13.7998 13.2951C13.9109 13.2061 13.972 13.1116 13.9886 12.9615C13.9997 12.8614 13.9662 12.7058 13.8772 12.5947L9.24956 6.81753L15.225 8.18659L18.2854 13.9426ZM3.26459 16.992L2.92434 15.0303L7.57822 18.2787C7.81176 18.4564 8.07293 18.384 8.25063 18.1505C8.30618 18.106 8.31724 18.0059 8.32829 17.9059C8.34487 17.7558 8.26693 17.5446 8.12239 17.478L3.70205 14.4073L8.08696 14.1323L13.2195 18.5475L12.9653 20.8486L10.958 19.3104C10.7245 19.1326 10.4633 19.2051 10.2911 19.3886C10.1134 19.6221 10.1858 19.8833 10.3693 20.0555L12.1931 21.4215L10.8594 21.578L3.26459 16.992ZM30.0709 27.8019C31.0943 29.0796 30.8843 30.9805 29.6067 32.0039L28.94 32.5378C27.6624 33.5613 25.7615 33.3513 24.7381 32.0736L22.7357 29.5738L28.0686 25.3022L30.0709 27.8019ZM22.4464 11.1111C22.4409 11.1611 22.4409 11.1611 22.4464 11.1111L21.9141 13.1789L21.0623 10.8062C20.9899 10.5451 20.7008 10.4119 20.4341 10.5343C20.173 10.6067 20.0397 10.8958 20.1622 11.1625L21.2533 14.1186L19.1521 13.4307L16.0862 7.72476L17.3063 3.55567L19.4607 9.26217C19.5331 9.52334 19.8222 9.65656 20.0889 9.53412C20.25 9.45065 20.3667 9.31163 20.3888 9.11154C20.3943 9.06151 20.4054 8.96147 20.3609 8.90592L18.0896 2.88269L19.9797 3.64849L22.4464 11.1111Z" fill="#F2F2F2"/>
<path d="M14.2179 14.5573L14.8853 15.3906C15.0633 15.6128 15.3635 15.6459 15.5356 15.4624C15.6467 15.3734 15.7078 15.2789 15.7244 15.1288C15.7355 15.0288 15.702 14.8732 15.613 14.7621L14.9456 13.9288C14.7676 13.7066 14.4674 13.6735 14.2953 13.857C14.1176 14.0905 14.0844 14.3907 14.2179 14.5573Z" fill="#F2F2F2"/>
</svg>
