<svg width="60" height="41" viewBox="0 0 60 41" fill="none" xmlns="http://www.w3.org/2000/svg">
<path d="M57.8559 -0.706528C57.8941 -1.00381 57.7704 -1.28633 57.526 -1.45991C57.3494 -1.60701 52.3036 -4.67226 45.4008 -6.98047C36.1431 -10.0532 27.9342 -10.2182 21.5305 -7.4141C15.1269 -4.60998 9.68084 1.53446 5.66029 10.4216C2.67503 17.0597 1.5055 22.8466 1.49381 23.0762C1.45564 23.3735 1.57935 23.656 1.8237 23.8295C2.00035 23.9767 5.59483 26.1623 10.9435 28.2533C11.8913 28.6238 12.9069 29.0208 13.9489 29.3501C14.0843 29.403 14.2198 29.456 14.3552 29.5089C14.3964 29.6031 14.5318 29.656 14.6672 29.709C14.8026 29.7619 14.9645 29.7471 15.1264 29.7324C23.8954 32.4579 31.7657 32.4906 37.8869 29.8102C44.2906 27.0061 49.7366 20.8617 53.7572 11.9745C56.6747 5.30995 57.7765 -0.503414 57.8559 -0.706528ZM2.88299 22.9168C3.20922 21.4833 4.26733 16.9797 6.48196 11.9136L13.4098 27.7344C8.21131 25.8583 4.15767 23.6492 2.88299 22.9168ZM37.2154 28.533C30.1525 31.6258 21.9492 30.4483 15.2907 28.3136L7.33198 10.1385C10.3468 3.82412 15.045 -3.00292 22.0402 -6.12217C29.0089 -9.17372 37.0768 -8.04909 43.694 -6.00863C43.6675 -5.94092 43.7352 -5.91445 43.7088 -5.84675L49.2345 6.77227C49.317 6.96061 49.4259 7.08126 49.6291 7.16066C49.8322 7.24006 49.9941 7.22529 50.1824 7.14282C50.5591 6.97787 50.7179 6.57164 50.5529 6.19496L45.4131 -5.41465C50.8411 -3.52684 55.0302 -1.26483 56.3461 -0.438196C56.0199 0.995295 54.8824 5.702 52.5206 10.9448L51.6134 8.873C51.4485 8.49631 51.0422 8.33751 50.6655 8.50246C50.2889 8.66741 50.1301 9.07363 50.295 9.45032L51.6971 12.6522C48.7617 18.7634 44.1164 25.455 37.2154 28.533Z" fill="white" fill-opacity="0.8"/>
<path d="M35.3407 7.97503L33.2689 8.88224L32.5679 7.28133C32.4029 6.90464 31.9967 6.74583 31.62 6.91078C31.2433 7.07572 31.0845 7.48195 31.2494 7.85864L31.9505 9.45956L29.9729 10.3255L29.2719 8.72462C29.1069 8.34794 28.7007 8.18913 28.324 8.35407C27.9473 8.51902 27.7885 8.92525 27.9534 9.30194L28.6545 10.9029L26.6769 11.7688L25.9758 10.1679C25.8109 9.79124 25.4047 9.63243 25.028 9.79737C24.6513 9.96232 24.4925 10.3685 24.6574 10.7452L25.3585 12.3462L23.2867 13.2534C22.91 13.4183 22.7512 13.8245 22.9161 14.2012C22.9986 14.3896 23.1076 14.5102 23.3107 14.5896C23.5138 14.669 23.6757 14.6543 23.864 14.5718L25.9358 13.6646L26.6368 15.2655C26.7193 15.4538 26.8282 15.5745 27.0313 15.6539C27.1667 15.7068 27.3963 15.7185 27.5847 15.636C27.9614 15.4711 28.1202 15.0649 27.9552 14.6882L27.2542 13.0872L29.2318 12.2213L29.9328 13.8222C30.0153 14.0105 30.1242 14.1312 30.3273 14.2106C30.4628 14.2635 30.6923 14.2752 30.8807 14.1927C31.2574 14.0278 31.4162 13.6216 31.2512 13.2449L30.5502 11.6439L32.5278 10.778L33.2288 12.3789C33.3113 12.5672 33.4202 12.6879 33.6234 12.7673C33.8265 12.8467 33.9884 12.8319 34.1767 12.7494C34.5534 12.5845 34.7122 12.1783 34.5472 11.8016L33.8462 10.2006L35.918 9.29343C36.2947 9.12848 36.4535 8.72226 36.2885 8.34557C36.1236 7.96888 35.7174 7.81008 35.3407 7.97503Z" fill="white" fill-opacity="0.8"/>
</svg>
