<svg width="47" height="46" viewBox="0 0 47 46" fill="none" xmlns="http://www.w3.org/2000/svg">
<path d="M45.9744 14.0771C46.0048 13.8404 45.9063 13.6155 45.7118 13.4774C45.5712 13.3603 41.5546 10.9203 36.0599 9.08287C28.6906 6.63695 22.1561 6.50556 17.0587 8.73769C11.9612 10.9698 7.62607 15.8609 4.42563 22.9353C2.04931 28.2193 1.11834 32.8258 1.10903 33.0086C1.07865 33.2452 1.17713 33.4701 1.37164 33.6083C1.51225 33.7254 4.37353 35.4652 8.63116 37.1296C9.38568 37.4246 10.1941 37.7406 11.0236 38.0027C11.1314 38.0449 11.2391 38.087 11.3469 38.1292C11.3798 38.2041 11.4875 38.2463 11.5953 38.2884C11.7031 38.3305 11.832 38.3188 11.9608 38.307C18.9411 40.4766 25.2061 40.5027 30.0786 38.369C35.1761 36.1369 39.5113 31.2458 42.7117 24.1714C45.0341 18.8663 45.9112 14.2387 45.9744 14.0771ZM2.21485 32.8817C2.47453 31.7406 3.31681 28.1557 5.0797 24.1229L10.5944 36.7166C6.4563 35.2232 3.22952 33.4647 2.21485 32.8817ZM29.5441 37.3523C23.9219 39.8143 17.3919 38.8769 12.0917 37.1777L5.75634 22.7099C8.15617 17.6835 11.896 12.2491 17.4643 9.7661C23.0116 7.33701 29.4338 8.23223 34.7012 9.85648C34.6801 9.91038 34.734 9.93145 34.713 9.98534L39.1116 20.0303C39.1772 20.1803 39.264 20.2763 39.4257 20.3395C39.5873 20.4027 39.7162 20.3909 39.8661 20.3253C40.166 20.194 40.2924 19.8706 40.1611 19.5708L36.0696 10.3293C40.3905 11.832 43.725 13.6326 44.7725 14.2907C44.5129 15.4317 43.6074 19.1784 41.7274 23.3517L41.0052 21.7026C40.8739 21.4027 40.5506 21.2763 40.2507 21.4076C39.9509 21.5389 39.8244 21.8623 39.9558 22.1621L41.0718 24.7108C38.7352 29.5755 35.0375 34.9022 29.5441 37.3523Z" fill="white" fill-opacity="0.8"/>
<path d="M28.0516 20.9881L26.4024 21.7102L25.8444 20.4359C25.7131 20.136 25.3897 20.0096 25.0899 20.1409C24.79 20.2722 24.6636 20.5956 24.7949 20.8954L25.353 22.1698L23.7787 22.8591L23.2207 21.5848C23.0894 21.2849 22.766 21.1585 22.4662 21.2898C22.1663 21.4211 22.0399 21.7445 22.1712 22.0443L22.7293 23.3187L21.155 24.008L20.597 22.7337C20.4657 22.4338 20.1423 22.3074 19.8425 22.4387C19.5426 22.57 19.4162 22.8934 19.5475 23.1932L20.1056 24.4676L18.4564 25.1897C18.1565 25.321 18.0301 25.6444 18.1614 25.9443C18.2271 26.0942 18.3138 26.1902 18.4755 26.2534C18.6372 26.3166 18.766 26.3049 18.916 26.2392L20.5651 25.5171L21.1232 26.7914C21.1888 26.9413 21.2755 27.0374 21.4372 27.1006C21.545 27.1427 21.7278 27.152 21.8777 27.0864C22.1775 26.9551 22.3039 26.6317 22.1726 26.3319L21.6146 25.0575L23.1888 24.3682L23.7469 25.6425C23.8125 25.7925 23.8992 25.8885 24.0609 25.9517C24.1687 25.9938 24.3515 26.0031 24.5014 25.9375C24.8012 25.8062 24.9276 25.4828 24.7963 25.183L24.2383 23.9086L25.8125 23.2193L26.3706 24.4936C26.4362 24.6436 26.5229 24.7396 26.6846 24.8028C26.8463 24.866 26.9751 24.8542 27.1251 24.7886C27.4249 24.6573 27.5513 24.3339 27.42 24.0341L26.862 22.7597L28.5112 22.0375C28.811 21.9062 28.9374 21.5829 28.8061 21.283C28.6748 20.9832 28.3515 20.8568 28.0516 20.9881Z" fill="white" fill-opacity="0.8"/>
</svg>
