<svg width="78" height="90" viewBox="0 0 78 90" fill="none" xmlns="http://www.w3.org/2000/svg">
<path d="M77.3287 37.0598C77.3287 36.9171 77.3287 36.7744 77.3287 36.6317C75.7595 27.9273 71.6224 19.6509 64.9174 13.0869C58.2124 6.38021 49.9382 2.24203 41.236 0.672377C41.0934 0.672377 40.9507 0.672377 40.808 0.672377C26.8275 -1.75345 11.8483 2.38473 1.14889 13.0869C-9.69318 23.9318 -13.8303 38.9149 -11.2624 53.0418C-11.2624 53.0418 -11.2624 53.0418 -11.2624 53.1845C-9.69318 61.8889 -5.55608 70.1653 1.14889 76.872C9.99374 85.7191 21.4064 90 32.9618 90C44.5172 90 56.0725 85.5764 64.7747 76.872C75.6168 66.0271 79.7539 51.044 77.3287 37.0598ZM41.5213 3.52629C48.9396 5.09595 55.9299 8.52065 61.7789 14.0858L45.3731 30.4958C38.8108 23.0756 37.3842 12.5161 41.5213 3.52629ZM63.7761 15.9408C69.3398 21.7914 72.7636 28.7835 74.3329 36.2037C65.3454 40.4845 54.7886 38.9149 47.3703 32.3509L63.7761 15.9408ZM38.8108 3.09821C34.3884 12.9442 36.243 24.3599 43.6612 32.4936L33.1045 43.0531L4.00207 14.0858C12.1336 6.52291 22.5477 2.67012 32.9618 2.67012C34.959 2.67012 36.8136 2.81281 38.8108 3.09821ZM2.14751 15.9408L31.1072 44.9081L20.2652 55.753C12.2763 48.4755 1.00623 46.6205 -8.69457 50.7586C-10.6918 38.6295 -6.98266 25.6442 2.14751 15.9408ZM24.2596 86.2899C16.984 84.7203 9.99373 81.2956 4.14472 75.7304L20.2652 59.6058C26.6848 67.026 28.2541 77.3001 24.2596 86.2899ZM-8.40925 53.6126C0.435599 49.4744 10.707 51.044 18.1253 57.7507L2.14751 73.8754C-3.41619 68.0248 -6.84 61.0327 -8.40925 53.6126ZM26.9701 86.718C31.1072 76.872 29.2527 65.599 21.9771 57.7507L32.8192 46.9058L61.7789 75.8731C52.2208 84.8629 39.2388 88.573 26.9701 86.718ZM63.7761 73.8754L34.8164 44.9081L45.3731 34.3486C50.5088 39.0576 57.0711 41.4834 63.6334 41.4834C67.3426 41.4834 71.0517 40.7699 74.6182 39.2003C76.4728 51.3294 72.9063 64.1721 63.7761 73.8754Z" fill="#EAEAEA" fill-opacity="0.5"/>
</svg>
