<svg width="16" height="16" viewBox="0 0 16 16" fill="none" xmlns="http://www.w3.org/2000/svg">
<path d="M5.33203 1.33301V3.33301" stroke="#111111" stroke-width="1.5" stroke-miterlimit="10" stroke-linecap="round" stroke-linejoin="round"/>
<path d="M10.668 1.33301V3.33301" stroke="#111111" stroke-width="1.5" stroke-miterlimit="10" stroke-linecap="round" stroke-linejoin="round"/>
<path d="M10.6667 2.33301C12.8867 2.45301 14 3.29967 14 6.43301V10.553C14 13.2997 13.3333 14.673 10 14.673H6C2.66667 14.673 2 13.2997 2 10.553V6.43301C2 3.29967 3.11333 2.45967 5.33333 2.33301H10.6667Z" stroke="#111111" stroke-width="1.5" stroke-miterlimit="10" stroke-linecap="round" stroke-linejoin="round"/>
<path d="M13.8346 11.7334H2.16797" stroke="#111111" stroke-width="1.5" stroke-miterlimit="10" stroke-linecap="round" stroke-linejoin="round"/>
<path d="M7.9987 5.5C7.1787 5.5 6.48536 5.94667 6.48536 6.81333C6.48536 7.22667 6.6787 7.54 6.97203 7.74C6.56536 7.98 6.33203 8.36667 6.33203 8.82C6.33203 9.64667 6.96536 10.16 7.9987 10.16C9.02536 10.16 9.66536 9.64667 9.66536 8.82C9.66536 8.36667 9.43203 7.97333 9.0187 7.74C9.3187 7.53333 9.50536 7.22667 9.50536 6.81333C9.50536 5.94667 8.8187 5.5 7.9987 5.5ZM7.9987 7.39333C7.65203 7.39333 7.3987 7.18667 7.3987 6.86C7.3987 6.52667 7.65203 6.33333 7.9987 6.33333C8.34536 6.33333 8.5987 6.52667 8.5987 6.86C8.5987 7.18667 8.34536 7.39333 7.9987 7.39333ZM7.9987 9.33333C7.5587 9.33333 7.2387 9.11333 7.2387 8.71333C7.2387 8.31333 7.5587 8.1 7.9987 8.1C8.4387 8.1 8.7587 8.32 8.7587 8.71333C8.7587 9.11333 8.4387 9.33333 7.9987 9.33333Z" fill="#111111"/>
</svg>
