<svg width="73" height="72" viewBox="0 0 73 72" fill="none" xmlns="http://www.w3.org/2000/svg">
<g filter="url(#filter0_d_18814_18247)">
<rect x="16.0908" y="16" width="40" height="40" rx="20" fill="white" shape-rendering="crispEdges"/>
<path d="M30.851 46H41.331C44.091 46 45.191 44.31 45.321 42.25L45.841 33.99C45.981 31.83 44.261 30 42.091 30C41.481 30 40.921 29.65 40.641 29.11L39.921 27.66C39.461 26.75 38.261 26 37.241 26H34.951C33.921 26 32.721 26.75 32.261 27.66L31.541 29.11C31.261 29.65 30.701 30 30.091 30C27.921 30 26.201 31.83 26.341 33.99L26.861 42.25C26.981 44.31 28.091 46 30.851 46Z" stroke="#292D32" stroke-width="1.5" stroke-linecap="round" stroke-linejoin="round"/>
<path d="M34.5908 32H37.5908" stroke="#292D32" stroke-width="1.5" stroke-linecap="round" stroke-linejoin="round"/>
<path d="M36.0908 42C37.8808 42 39.3408 40.54 39.3408 38.75C39.3408 36.96 37.8808 35.5 36.0908 35.5C34.3008 35.5 32.8408 36.96 32.8408 38.75C32.8408 40.54 34.3008 42 36.0908 42Z" stroke="#292D32" stroke-width="1.5" stroke-linecap="round" stroke-linejoin="round"/>
</g>
<defs>
<filter id="filter0_d_18814_18247" x="0.0908203" y="0" width="72" height="72" filterUnits="userSpaceOnUse" color-interpolation-filters="sRGB">
<feFlood flood-opacity="0" result="BackgroundImageFix"/>
<feColorMatrix in="SourceAlpha" type="matrix" values="0 0 0 0 0 0 0 0 0 0 0 0 0 0 0 0 0 0 127 0" result="hardAlpha"/>
<feOffset/>
<feGaussianBlur stdDeviation="8"/>
<feComposite in2="hardAlpha" operator="out"/>
<feColorMatrix type="matrix" values="0 0 0 0 0 0 0 0 0 0 0 0 0 0 0 0 0 0 0.08 0"/>
<feBlend mode="normal" in2="BackgroundImageFix" result="effect1_dropShadow_18814_18247"/>
<feBlend mode="normal" in="SourceGraphic" in2="effect1_dropShadow_18814_18247" result="shape"/>
</filter>
</defs>
</svg>
