<svg width="30" height="29" viewBox="0 0 30 29" fill="none" xmlns="http://www.w3.org/2000/svg">
<path d="M12.1666 28.6666C11.3874 28.6666 10.7204 28.3892 10.1655 27.8344C9.61068 27.2795 9.33325 26.6125 9.33325 25.8333V20.1666H3.66659C2.88742 20.1666 2.2204 19.8892 1.66554 19.3344C1.11068 18.7795 0.833252 18.1125 0.833252 17.3333V3.16665C0.833252 2.38748 1.11068 1.72047 1.66554 1.1656C2.2204 0.610744 2.88742 0.333313 3.66659 0.333313H17.8333C18.6124 0.333313 19.2794 0.610744 19.8343 1.1656C20.3892 1.72047 20.6666 2.38748 20.6666 3.16665V8.83331H26.3333C27.1124 8.83331 27.7794 9.11074 28.3343 9.66561C28.8892 10.2205 29.1666 10.8875 29.1666 11.6666V25.8333C29.1666 26.6125 28.8892 27.2795 28.3343 27.8344C27.7794 28.3892 27.1124 28.6666 26.3333 28.6666H12.1666Z" fill="#FFFFFF"/>
</svg>
