<svg width="21" height="20" viewBox="0 0 21 20" fill="none" xmlns="http://www.w3.org/2000/svg">
<path d="M13.0001 18.4584H8.00008C5.79498 18.4584 4.34042 17.9854 3.42759 17.0726C2.51476 16.1597 2.04175 14.7052 2.04175 12.5001V7.50008C2.04175 5.29498 2.51476 3.84042 3.42759 2.92759C4.34042 2.01476 5.79498 1.54175 8.00008 1.54175H13.0001C15.2052 1.54175 16.6597 2.01476 17.5726 2.92759C18.4854 3.84042 18.9584 5.29498 18.9584 7.50008V12.5001C18.9584 14.7052 18.4854 16.1597 17.5726 17.0726C16.6597 17.9854 15.2052 18.4584 13.0001 18.4584ZM8.00008 1.79175C6.04397 1.79175 4.56899 2.13449 3.60174 3.10174C2.63449 4.06899 2.29175 5.54397 2.29175 7.50008V12.5001C2.29175 14.4562 2.63449 15.9312 3.60174 16.8984C4.56899 17.8657 6.04397 18.2084 8.00008 18.2084H13.0001C14.9562 18.2084 16.4312 17.8657 17.3984 16.8984C18.3657 15.9312 18.7084 14.4562 18.7084 12.5001V7.50008C18.7084 5.54397 18.3657 4.06899 17.3984 3.10174C16.4312 2.13449 14.9562 1.79175 13.0001 1.79175H8.00008Z" fill="white" stroke="white"/>
<path d="M14.6466 10.4865L15.375 10.8606V10.0417V6.45841C15.375 5.60727 14.6845 4.91675 13.8333 4.91675H7.16667C6.31552 4.91675 5.625 5.60727 5.625 6.45841V10.0417V10.8606L6.3534 10.4865C6.5924 10.3638 6.87259 10.2917 7.16667 10.2917H13.8333C14.1274 10.2917 14.4076 10.3638 14.6466 10.4865ZM15.5 12.2084C15.4699 12.2084 15.4386 12.1961 15.4129 12.1705C15.3873 12.1448 15.375 12.1136 15.375 12.0834C15.375 11.2323 14.6845 10.5417 13.8333 10.5417H7.16667C6.31552 10.5417 5.625 11.2323 5.625 12.0834C5.625 12.1136 5.61272 12.1448 5.58707 12.1705C5.56143 12.1961 5.53015 12.2084 5.5 12.2084C5.46985 12.2084 5.43857 12.1961 5.41293 12.1705C5.38728 12.1448 5.375 12.1136 5.375 12.0834V6.45841C5.375 5.46789 6.17614 4.66675 7.16667 4.66675H13.8333C14.8239 4.66675 15.625 5.46789 15.625 6.45841V12.0834C15.625 12.1136 15.6127 12.1448 15.5871 12.1705C15.5614 12.1961 15.5301 12.2084 15.5 12.2084Z" fill="white" stroke="white"/>
<path d="M16.3333 13.25H15.5C15.4699 13.25 15.4386 13.2377 15.4129 13.2121C15.3873 13.1864 15.375 13.1551 15.375 13.125C15.375 13.0949 15.3873 13.0636 15.4129 13.0379C15.4386 13.0123 15.4699 13 15.5 13H16.3333C16.3635 13 16.3948 13.0123 16.4204 13.0379C16.446 13.0636 16.4583 13.0949 16.4583 13.125C16.4583 13.1551 16.446 13.1864 16.4204 13.2121C16.3948 13.2377 16.3635 13.25 16.3333 13.25Z" fill="white" stroke="white"/>
<path d="M5.50008 13.75H4.66675C4.32508 13.75 4.04175 13.4667 4.04175 13.125C4.04175 12.7833 4.32508 12.5 4.66675 12.5H5.50008C5.84175 12.5 6.12508 12.7833 6.12508 13.125C6.12508 13.4667 5.84175 13.75 5.50008 13.75Z" fill="white"/>
<path d="M15.5 12.2917C15.1583 12.2917 14.875 12.0083 14.875 11.6667V9.16667C14.875 8.59167 14.4083 8.125 13.8333 8.125H7.16667C6.59167 8.125 6.125 8.59167 6.125 9.16667V11.6667C6.125 12.0083 5.84167 12.2917 5.5 12.2917C5.15833 12.2917 4.875 12.0083 4.875 11.6667V9.16667C4.875 7.9 5.9 6.875 7.16667 6.875H13.8333C15.1 6.875 16.125 7.9 16.125 9.16667V11.6667C16.125 12.0083 15.8417 12.2917 15.5 12.2917Z" fill="white"/>
<path d="M10.5 15.8334C9.225 15.8334 8.15002 14.9417 7.86669 13.7501H5.5C5.15833 13.7501 4.875 13.4667 4.875 13.1251V12.0834C4.875 10.8167 5.9 9.79175 7.16667 9.79175H13.8333C15.1 9.79175 16.125 10.8167 16.125 12.0834V13.1251C16.125 13.4667 15.8417 13.7501 15.5 13.7501H13.1333C12.85 14.9417 11.775 15.8334 10.5 15.8334ZM6.125 12.5001H8.41667C8.75833 12.5001 9.04167 12.7834 9.04167 13.1251C9.04167 13.9251 9.7 14.5834 10.5 14.5834C11.3 14.5834 11.9583 13.9251 11.9583 13.1251C11.9583 12.7834 12.2417 12.5001 12.5833 12.5001H14.875V12.0834C14.875 11.5084 14.4083 11.0417 13.8333 11.0417H7.16667C6.59167 11.0417 6.125 11.5084 6.125 12.0834V12.5001Z" fill="white"/>
</svg>
