<svg width="18" height="18" viewBox="0 0 18 18" fill="none" xmlns="http://www.w3.org/2000/svg">
<path d="M11.25 16.5625H6.75C4.77115 16.5625 3.47805 16.1378 2.67012 15.3299C1.86218 14.522 1.4375 13.2289 1.4375 11.25V6.75C1.4375 4.77115 1.86218 3.47805 2.67012 2.67012C3.47805 1.86218 4.77115 1.4375 6.75 1.4375H11.25C13.2289 1.4375 14.522 1.86218 15.3299 2.67012C16.1378 3.47805 16.5625 4.77115 16.5625 6.75V11.25C16.5625 13.2289 16.1378 14.522 15.3299 15.3299C14.522 16.1378 13.2289 16.5625 11.25 16.5625ZM6.75 1.5625C4.98597 1.5625 3.6412 1.87107 2.75613 2.75613C1.87107 3.6412 1.5625 4.98597 1.5625 6.75V11.25C1.5625 13.014 1.87107 14.3588 2.75613 15.2439C3.6412 16.1289 4.98597 16.4375 6.75 16.4375H11.25C13.014 16.4375 14.3588 16.1289 15.2439 15.2439C16.1289 14.3588 16.4375 13.014 16.4375 11.25V6.75C16.4375 4.98597 16.1289 3.6412 15.2439 2.75613C14.3588 1.87107 13.014 1.5625 11.25 1.5625H6.75Z" fill="white" stroke="white"/>
<path d="M12.7091 9.48229L13.4375 9.85633V9.0375V5.8125C13.4375 5.01886 12.7936 4.375 12 4.375H6C5.20636 4.375 4.5625 5.01886 4.5625 5.8125V9.0375V9.85633L5.2909 9.48229C5.49907 9.37539 5.74342 9.3125 6 9.3125H12C12.2566 9.3125 12.5009 9.37539 12.7091 9.48229ZM13.5 10.9375C13.4869 10.9375 13.4713 10.9323 13.457 10.918C13.4427 10.9037 13.4375 10.8881 13.4375 10.875C13.4375 10.0814 12.7936 9.4375 12 9.4375H6C5.20636 9.4375 4.5625 10.0814 4.5625 10.875C4.5625 10.8881 4.5573 10.9037 4.54301 10.918C4.52872 10.9323 4.51306 10.9375 4.5 10.9375C4.48694 10.9375 4.47128 10.9323 4.45699 10.918C4.4427 10.9037 4.4375 10.8881 4.4375 10.875V5.8125C4.4375 4.94864 5.13614 4.25 6 4.25H12C12.8639 4.25 13.5625 4.94864 13.5625 5.8125V10.875C13.5625 10.8881 13.5573 10.9037 13.543 10.918C13.5287 10.9323 13.5131 10.9375 13.5 10.9375Z" fill="white" stroke="white"/>
<path d="M14.25 11.875H13.5C13.4869 11.875 13.4713 11.8698 13.457 11.8555C13.4427 11.8412 13.4375 11.8256 13.4375 11.8125C13.4375 11.7994 13.4427 11.7838 13.457 11.7695C13.4713 11.7552 13.4869 11.75 13.5 11.75H14.25C14.2631 11.75 14.2787 11.7552 14.293 11.7695C14.3073 11.7838 14.3125 11.7994 14.3125 11.8125C14.3125 11.8256 14.3073 11.8412 14.293 11.8555C14.2787 11.8698 14.2631 11.875 14.25 11.875Z" fill="white" stroke="white"/>
<path d="M4.5 12.375H3.75C3.4425 12.375 3.1875 12.12 3.1875 11.8125C3.1875 11.505 3.4425 11.25 3.75 11.25H4.5C4.8075 11.25 5.0625 11.505 5.0625 11.8125C5.0625 12.12 4.8075 12.375 4.5 12.375Z" fill="white"/>
<path d="M13.5 11.0625C13.1925 11.0625 12.9375 10.8075 12.9375 10.5V8.25C12.9375 7.7325 12.5175 7.3125 12 7.3125H6C5.4825 7.3125 5.0625 7.7325 5.0625 8.25V10.5C5.0625 10.8075 4.8075 11.0625 4.5 11.0625C4.1925 11.0625 3.9375 10.8075 3.9375 10.5V8.25C3.9375 7.11 4.86 6.1875 6 6.1875H12C13.14 6.1875 14.0625 7.11 14.0625 8.25V10.5C14.0625 10.8075 13.8075 11.0625 13.5 11.0625Z" fill="white"/>
<path d="M9 14.25C7.8525 14.25 6.88502 13.4475 6.63002 12.375H4.5C4.1925 12.375 3.9375 12.12 3.9375 11.8125V10.875C3.9375 9.735 4.86 8.8125 6 8.8125H12C13.14 8.8125 14.0625 9.735 14.0625 10.875V11.8125C14.0625 12.12 13.8075 12.375 13.5 12.375H11.37C11.115 13.4475 10.1475 14.25 9 14.25ZM5.0625 11.25H7.125C7.4325 11.25 7.6875 11.505 7.6875 11.8125C7.6875 12.5325 8.28 13.125 9 13.125C9.72 13.125 10.3125 12.5325 10.3125 11.8125C10.3125 11.505 10.5675 11.25 10.875 11.25H12.9375V10.875C12.9375 10.3575 12.5175 9.9375 12 9.9375H6C5.4825 9.9375 5.0625 10.3575 5.0625 10.875V11.25Z" fill="white"/>
</svg>
