<svg width="30" height="28" viewBox="0 0 30 28" fill="none" xmlns="http://www.w3.org/2000/svg">
<path d="M6.49919 23.5007L3.24085 26.759C2.79224 27.2076 2.2787 27.3079 1.70023 27.06C1.12176 26.8121 0.83252 26.3694 0.83252 25.7319V3.66732C0.83252 2.88815 1.10995 2.22114 1.66481 1.66628C2.21967 1.11141 2.88669 0.833984 3.66585 0.833984H26.3325C27.1117 0.833984 27.7787 1.11141 28.3336 1.66628C28.8884 2.22114 29.1659 2.88815 29.1659 3.66732V20.6673C29.1659 21.4465 28.8884 22.1135 28.3336 22.6684C27.7787 23.2232 27.1117 23.5007 26.3325 23.5007H6.49919ZM7.91585 17.834H16.4159C16.8172 17.834 17.1537 17.6982 17.4252 17.4267C17.6968 17.1552 17.8325 16.8187 17.8325 16.4173C17.8325 16.0159 17.6968 15.6795 17.4252 15.4079C17.1537 15.1364 16.8172 15.0007 16.4159 15.0007H7.91585C7.51446 15.0007 7.17801 15.1364 6.90648 15.4079C6.63495 15.6795 6.49919 16.0159 6.49919 16.4173C6.49919 16.8187 6.63495 17.1552 6.90648 17.4267C7.17801 17.6982 7.51446 17.834 7.91585 17.834ZM7.91585 13.584H22.0825C22.4839 13.584 22.8204 13.4482 23.0919 13.1767C23.3634 12.9052 23.4992 12.5687 23.4992 12.1673C23.4992 11.7659 23.3634 11.4295 23.0919 11.1579C22.8204 10.8864 22.4839 10.7507 22.0825 10.7507H7.91585C7.51446 10.7507 7.17801 10.8864 6.90648 11.1579C6.63495 11.4295 6.49919 11.7659 6.49919 12.1673C6.49919 12.5687 6.63495 12.9052 6.90648 13.1767C7.17801 13.4482 7.51446 13.584 7.91585 13.584ZM7.91585 9.33398H22.0825C22.4839 9.33398 22.8204 9.19822 23.0919 8.92669C23.3634 8.65516 23.4992 8.31871 23.4992 7.91732C23.4992 7.51593 23.3634 7.17947 23.0919 6.90794C22.8204 6.63641 22.4839 6.50065 22.0825 6.50065H7.91585C7.51446 6.50065 7.17801 6.63641 6.90648 6.90794C6.63495 7.17947 6.49919 7.51593 6.49919 7.91732C6.49919 8.31871 6.63495 8.65516 6.90648 8.92669C7.17801 9.19822 7.51446 9.33398 7.91585 9.33398Z" fill="#E20B18"/>
</svg>
