<svg width="17" height="16" viewBox="0 0 17 16" fill="none" xmlns="http://www.w3.org/2000/svg">
<path d="M11.1667 8.60065V11.4007C11.1667 13.734 10.2334 14.6673 7.90004 14.6673H5.10004C2.76671 14.6673 1.83337 13.734 1.83337 11.4007V8.60065C1.83337 6.26732 2.76671 5.33398 5.10004 5.33398H7.90004C10.2334 5.33398 11.1667 6.26732 11.1667 8.60065Z" stroke="#E20B18" stroke-width="1.5" stroke-linecap="round" stroke-linejoin="round"/>
<path d="M15.1667 4.60065V7.40065C15.1667 9.73398 14.2334 10.6673 11.9 10.6673H11.1667V8.60065C11.1667 6.26732 10.2334 5.33398 7.90004 5.33398H5.83337V4.60065C5.83337 2.26732 6.76671 1.33398 9.10004 1.33398H11.9C14.2334 1.33398 15.1667 2.26732 15.1667 4.60065Z" stroke="#E20B18" stroke-width="1.5" stroke-linecap="round" stroke-linejoin="round"/>
</svg>
