<svg width="72" height="84" viewBox="0 0 72 84" fill="none" xmlns="http://www.w3.org/2000/svg">
<path d="M30 0C21.6932 0 13.5729 2.46326 6.66607 7.07828C-0.240794 11.6933 -5.62404 18.2528 -8.80292 25.9273C-11.9818 33.6018 -12.8135 42.0466 -11.193 50.1938C-9.57238 58.341 -5.57227 65.8247 0.301535 71.6985C6.17534 77.5723 13.659 81.5724 21.8062 83.193C29.9534 84.8136 38.3982 83.9818 46.0727 80.8029C53.7472 77.6241 60.3067 72.2408 64.9218 65.334C69.5368 58.4271 72 50.3068 72 42C71.9874 30.8648 67.5584 20.1892 59.6846 12.3154C51.8108 4.44163 41.1352 0.0125985 30 0ZM-0.51158 66.5728C-6.58262 59.0485 -9.65664 49.5449 -9.14218 39.8905C-8.62772 30.2361 -4.56112 21.113 2.27518 14.2765C9.11148 7.44002 18.2345 3.37319 27.8889 2.85848C37.5433 2.34377 47.047 5.41755 54.5714 11.4884L-0.51158 66.5728ZM1.32802 68.6924L56.6924 13.328C57.3756 13.9636 58.0355 14.6235 58.672 15.3076L3.30762 70.672C2.62255 70.0373 1.96269 69.3775 1.32802 68.6924ZM69.2 42C69.2053 49.3953 67.1171 56.641 63.1768 62.8992C59.2366 69.1573 53.6053 74.1723 46.9342 77.364C40.2632 80.5557 32.8249 81.7938 25.4796 80.9351C18.1343 80.0764 11.1822 77.156 5.42722 72.5116L60.5116 17.4272C66.139 24.3799 69.2065 33.0553 69.2 42Z" fill="#EAEAEA" fill-opacity="0.5"/>
<path d="M24.0612 34.0802L22.0802 36.0598C21.8175 36.3223 21.6698 36.6784 21.6697 37.0498C21.6696 37.4212 21.817 37.7774 22.0795 38.0401C22.342 38.3028 22.6981 38.4505 23.0695 38.4506C23.4409 38.4507 23.7971 38.3033 24.0598 38.0408L26.0408 36.0612C26.1709 35.9312 26.2741 35.7769 26.3445 35.607C26.4149 35.4372 26.4512 35.2551 26.4513 35.0712C26.4513 34.8873 26.4152 34.7052 26.3449 34.5353C26.2746 34.3654 26.1715 34.211 26.0415 34.0809C25.9115 33.9508 25.7572 33.8476 25.5873 33.7772C25.4175 33.7068 25.2354 33.6705 25.0515 33.6704C24.8676 33.6704 24.6855 33.7065 24.5156 33.7768C24.3457 33.8471 24.1913 33.9502 24.0612 34.0802ZM30 28.14L28.0204 30.1196C27.8903 30.2496 27.7871 30.4039 27.7167 30.5738C27.6463 30.7436 27.61 30.9257 27.6099 31.1096C27.6098 31.2935 27.646 31.4756 27.7163 31.6455C27.7866 31.8154 27.8897 31.9698 28.0197 32.0999C28.1497 32.23 28.304 32.3332 28.4739 32.4036C28.6437 32.474 28.8258 32.5103 29.0097 32.5104C29.1936 32.5104 29.3757 32.4743 29.5456 32.404C29.7155 32.3337 29.8699 32.2306 30 32.1006L31.9796 30.121C32.2423 29.8585 32.3899 29.5024 32.3901 29.131C32.3902 28.7596 32.2428 28.4034 31.9803 28.1407C31.7178 27.878 31.3617 27.7303 30.9903 27.7302C30.6189 27.7301 30.2627 27.8775 30 28.14ZM35.9402 22.1998L33.9592 24.1794C33.6963 24.4419 33.5485 24.7981 33.5482 25.1696C33.548 25.5411 33.6953 25.8975 33.9578 26.1604C34.2203 26.4233 34.5765 26.5711 34.948 26.5714C35.3195 26.5716 35.6759 26.4243 35.9388 26.1618L37.9198 24.1808C38.1825 23.9183 38.3302 23.5622 38.3303 23.1908C38.3304 22.8194 38.183 22.4632 37.9205 22.2005C37.658 21.9378 37.3019 21.7901 36.9305 21.79C36.5591 21.7899 36.2029 21.9373 35.9402 22.1998ZM41.879 16.261L39.8994 18.2406C39.7657 18.3697 39.659 18.5242 39.5857 18.695C39.5123 18.8658 39.4737 19.0495 39.472 19.2354C39.4704 19.4213 39.5059 19.6057 39.5763 19.7777C39.6466 19.9498 39.7506 20.1061 39.882 20.2376C40.0135 20.369 40.1698 20.473 40.3419 20.5433C40.5139 20.6137 40.6983 20.6492 40.8842 20.6475C41.0701 20.6459 41.2538 20.6073 41.4246 20.5339C41.5954 20.4606 41.7499 20.3539 41.879 20.2202L43.86 18.2406C43.9937 18.1115 44.1004 17.957 44.1737 17.7862C44.2471 17.6154 44.2857 17.4317 44.2873 17.2458C44.289 17.0599 44.2535 16.8755 44.1832 16.7035C44.1128 16.5314 44.0088 16.3751 43.8774 16.2436C43.7459 16.1122 43.5896 16.0082 43.4175 15.9378C43.2455 15.8675 43.0611 15.832 42.8752 15.8336C42.6893 15.8353 42.5056 15.8739 42.3348 15.9473C42.164 16.0206 42.0081 16.1273 41.879 16.261ZM49.7988 10.3222C49.5363 10.0597 49.1802 9.9123 48.809 9.9123C48.4378 9.9123 48.0817 10.0597 47.8192 10.3222L45.8382 12.3018C45.5834 12.566 45.4425 12.9198 45.4459 13.2868C45.4494 13.6539 45.5969 14.005 45.8566 14.2643C46.1164 14.5237 46.4676 14.6707 46.8347 14.6737C47.2018 14.6766 47.5553 14.5352 47.8192 14.28L49.7988 12.3004C50.0608 12.0379 50.208 11.6822 50.208 11.3113C50.208 10.9404 50.0608 10.5847 49.7988 10.3222ZM0.301798 57.8382L-1.6778 59.8192C-1.81152 59.9483 -1.91817 60.1028 -1.99154 60.2736C-2.06492 60.4444 -2.10354 60.6281 -2.10515 60.814C-2.10677 60.9999 -2.07134 61.1843 -2.00095 61.3563C-1.93056 61.5284 -1.8266 61.6847 -1.69515 61.8162C-1.5637 61.9476 -1.40739 62.0516 -1.23534 62.122C-1.06328 62.1923 -0.878931 62.2278 -0.69304 62.2262C-0.507149 62.2245 -0.323441 62.1859 -0.152635 62.1125C0.0181704 62.0392 0.172653 61.9325 0.301798 61.7988L2.28 59.8192C2.41007 59.6892 2.51327 59.5349 2.5837 59.365C2.65413 59.1952 2.69042 59.0131 2.69048 58.8292C2.69055 58.6453 2.65439 58.4632 2.58408 58.2933C2.51377 58.1234 2.41068 57.969 2.2807 57.8389C2.15072 57.7088 1.99639 57.6056 1.82652 57.5352C1.65666 57.4648 1.47458 57.4285 1.29069 57.4284C1.10681 57.4284 0.924706 57.4645 0.754791 57.5348C0.584876 57.6051 0.431872 57.7082 0.301798 57.8382ZM6.2406 51.8994L4.261 53.879C4.13092 54.009 4.02773 54.1633 3.95729 54.3332C3.88686 54.503 3.85058 54.6851 3.85052 54.869C3.85045 55.0529 3.8866 55.235 3.95691 55.4049C4.02723 55.5748 4.13032 55.7292 4.2603 55.8593C4.39028 55.9894 4.54461 56.0926 4.71448 56.163C4.88434 56.2334 5.06642 56.2697 5.2503 56.2698C5.43419 56.2699 5.61629 56.2337 5.78621 56.1634C5.95612 56.0931 6.11053 55.99 6.2406 55.86L8.2202 53.8804C8.35391 53.7513 8.46057 53.5968 8.53394 53.426C8.60731 53.2552 8.64593 53.0715 8.64755 52.8856C8.64916 52.6997 8.61374 52.5153 8.54335 52.3433C8.47296 52.1712 8.369 52.0149 8.23755 51.8834C8.1061 51.752 7.94979 51.648 7.77773 51.5777C7.60568 51.5073 7.42133 51.4718 7.23544 51.4735C7.04955 51.4751 6.86584 51.5137 6.69503 51.5871C6.52423 51.6604 6.36975 51.7657 6.2406 51.8994ZM12.1808 45.9592L10.2012 47.9402C10.0675 48.0693 9.96083 48.2238 9.88746 48.3946C9.81408 48.5654 9.77546 48.7491 9.77385 48.935C9.77223 49.1209 9.80766 49.3053 9.87805 49.4773C9.94844 49.6494 10.0524 49.8057 10.1838 49.9372C10.3153 50.0686 10.4716 50.1726 10.6437 50.243C10.8157 50.3133 11.0001 50.3488 11.186 50.3471C11.3719 50.3455 11.5556 50.3069 11.7264 50.2335C11.8972 50.1602 12.0517 50.0535 12.1808 49.9198L14.1618 47.9388C14.2918 47.8087 14.3949 47.6543 14.4652 47.4844C14.5355 47.3145 14.5716 47.1324 14.5716 46.9485C14.5715 46.7646 14.5352 46.5825 14.4648 46.4127C14.3944 46.2428 14.2912 46.0885 14.1611 45.9585C14.031 45.8285 13.8766 45.7254 13.7067 45.6551C13.5368 45.5848 13.3547 45.5487 13.1708 45.5487C12.9869 45.5488 12.8048 45.5851 12.635 45.6555C12.4651 45.7259 12.3108 45.8291 12.1808 45.9592ZM18.121 40.0204L16.14 42C16.0063 42.1291 15.8996 42.2836 15.8263 42.4544C15.7529 42.6252 15.7143 42.8089 15.7126 42.9948C15.711 43.1807 15.7465 43.3651 15.8168 43.5371C15.8872 43.7092 15.9912 43.8655 16.1226 43.997C16.2541 44.1284 16.4104 44.2324 16.5825 44.3027C16.7545 44.3731 16.9389 44.4086 17.1248 44.407C17.3107 44.4053 17.4944 44.3667 17.6652 44.2933C17.836 44.22 17.9905 44.1133 18.1196 43.9796L20.1006 42C20.2343 41.8709 20.341 41.7164 20.4143 41.5456C20.4877 41.3748 20.5263 41.1911 20.528 41.0052C20.5296 40.8193 20.4941 40.6349 20.4238 40.4629C20.3534 40.2908 20.2494 40.1345 20.118 40.003C19.9865 39.8716 19.8302 39.7676 19.6581 39.6973C19.4861 39.6269 19.3017 39.5914 19.1158 39.5931C18.9299 39.5947 18.7462 39.6333 18.5754 39.7067C18.4046 39.78 18.2501 39.8867 18.121 40.0204ZM34.949 50.33C35.1329 50.3305 35.3151 50.2945 35.485 50.2241C35.6549 50.1537 35.8092 50.0503 35.9388 49.9198L37.9198 47.9388C38.0535 47.8097 38.1602 47.6552 38.2335 47.4844C38.3069 47.3136 38.3455 47.1299 38.3471 46.944C38.3488 46.7581 38.3133 46.5737 38.2429 46.4017C38.1726 46.2296 38.0686 46.0733 37.9372 45.9418C37.8057 45.8104 37.6494 45.7064 37.4773 45.6361C37.3053 45.5657 37.1209 45.5302 36.935 45.5319C36.7491 45.5335 36.5654 45.5721 36.3946 45.6455C36.2238 45.7188 36.0693 45.8255 35.9402 45.9592L33.9592 47.9402C33.7635 48.136 33.6302 48.3854 33.5762 48.657C33.5222 48.9285 33.5499 49.2099 33.6558 49.4657C33.7618 49.7215 33.9412 49.9401 34.1714 50.094C34.4015 50.2478 34.6721 50.3299 34.949 50.33ZM40.8892 44.3898C41.2605 44.3897 41.6165 44.2422 41.879 43.9796L43.86 42C44.115 41.736 44.2561 41.3823 44.2529 41.0152C44.2498 40.6482 44.1025 40.297 43.8429 40.0375C43.5834 39.7779 43.2322 39.6306 42.8652 39.6275C42.4981 39.6243 42.1444 39.7654 41.8804 40.0204L39.8994 42C39.7037 42.1958 39.5704 42.4452 39.5164 42.7168C39.4624 42.9883 39.4901 43.2697 39.596 43.5255C39.702 43.7813 39.8814 43.9999 40.1116 44.1538C40.3417 44.3076 40.6124 44.3897 40.8892 44.3898ZM46.8294 38.4496C47.2007 38.4495 47.5567 38.302 47.8192 38.0394L49.7988 36.0598C50.0538 35.7958 50.1949 35.4421 50.1917 35.075C50.1886 34.708 50.0413 34.3568 49.7817 34.0973C49.5222 33.8377 49.171 33.6904 48.804 33.6873C48.4369 33.6841 48.0832 33.8252 47.8192 34.0802L45.8382 36.0598C45.6424 36.2557 45.5091 36.5052 45.4551 36.7769C45.4012 37.0486 45.429 37.3301 45.5351 37.586C45.6412 37.8418 45.8208 38.0604 46.0512 38.2141C46.2816 38.3679 46.5524 38.4498 46.8294 38.4496ZM52.7696 32.5108C53.1409 32.5107 53.4969 32.3632 53.7594 32.1006L55.739 30.121C56.0017 29.8585 56.1494 29.5024 56.1495 29.131C56.1496 28.7596 56.0022 28.4034 55.7397 28.1407C55.4772 27.878 55.1211 27.7303 54.7497 27.7302C54.3783 27.7301 54.0221 27.8775 53.7594 28.14L51.7798 30.1196C51.5841 30.3154 51.4508 30.5648 51.3968 30.8364C51.3428 31.1079 51.3705 31.3893 51.4765 31.6451C51.5824 31.9009 51.7618 32.1195 51.992 32.2734C52.2221 32.4272 52.4927 32.5107 52.7696 32.5108ZM58.7084 26.5706C59.0797 26.5705 59.4357 26.423 59.6982 26.1604L61.6778 24.1808C61.8115 24.0517 61.9182 23.8972 61.9915 23.7264C62.0649 23.5556 62.1035 23.3719 62.1051 23.186C62.1068 23.0001 62.0714 22.8157 62.001 22.6437C61.9306 22.4716 61.8266 22.3153 61.6952 22.1838C61.5637 22.0524 61.4074 21.9484 61.2353 21.878C61.0633 21.8077 60.8789 21.7722 60.693 21.7738C60.5071 21.7755 60.3234 21.8141 60.1526 21.8875C59.9818 21.9608 59.8273 22.0675 59.6982 22.2012L57.72 24.1808C57.5243 24.3766 57.391 24.626 57.337 24.8976C57.283 25.1691 57.3107 25.4505 57.4166 25.7063C57.5226 25.9621 57.702 26.1807 57.9322 26.3346C58.1623 26.4884 58.4315 26.5705 58.7084 26.5706ZM10.2012 73.6778C10.4637 73.9403 10.8198 74.0877 11.191 74.0877C11.5622 74.0877 11.9183 73.9403 12.1808 73.6778L14.1618 71.6982C14.2954 71.569 14.402 71.4144 14.4752 71.2435C14.5485 71.0727 14.5869 70.889 14.5884 70.7031C14.5899 70.5172 14.5544 70.3329 14.4838 70.1609C14.4133 69.9888 14.3093 69.8326 14.1777 69.7012C14.0462 69.5699 13.8898 69.4661 13.7177 69.3958C13.5456 69.3255 13.3612 69.2902 13.1753 69.292C12.9894 69.2937 12.8058 69.3325 12.635 69.406C12.4643 69.4794 12.3098 69.5862 12.1808 69.72L10.2012 71.6996C9.93917 71.9621 9.792 72.3178 9.792 72.6887C9.792 73.0596 9.93917 73.4153 10.2012 73.6778ZM17.1312 68.1492C17.5025 68.1491 17.8585 68.0016 18.121 67.739L20.1006 65.7594C20.2343 65.6302 20.341 65.4758 20.4143 65.305C20.4877 65.1342 20.5263 64.9505 20.528 64.7646C20.5296 64.5787 20.4941 64.3943 20.4238 64.2223C20.3534 64.0502 20.2494 63.8939 20.118 63.7625C19.9865 63.631 19.8302 63.527 19.6581 63.4566C19.4861 63.3863 19.3017 63.3508 19.1158 63.3525C18.9299 63.3541 18.7462 63.3927 18.5754 63.4661C18.4046 63.5394 18.2501 63.6461 18.121 63.7798L16.14 65.7594C15.9443 65.9552 15.811 66.2046 15.757 66.4762C15.703 66.7477 15.7307 67.0291 15.8366 67.2849C15.9426 67.5407 16.122 67.7593 16.3522 67.9132C16.5823 68.067 16.8529 68.1491 17.1298 68.1492H17.1312ZM23.07 62.209C23.4413 62.2089 23.7973 62.0614 24.0598 61.7988L26.0408 59.8192C26.1709 59.6892 26.2741 59.5349 26.3445 59.365C26.4149 59.1952 26.4512 59.0131 26.4513 58.8292C26.4513 58.6453 26.4152 58.4632 26.3449 58.2933C26.2746 58.1234 26.1715 57.969 26.0415 57.8389C25.9115 57.7088 25.7572 57.6056 25.5873 57.5352C25.4175 57.4648 25.2354 57.4285 25.0515 57.4284C24.8676 57.4284 24.6855 57.4645 24.5156 57.5348C24.3457 57.6051 24.1913 57.7082 24.0612 57.8382L22.0802 59.8192C21.8845 60.015 21.7512 60.2644 21.6972 60.5359C21.6432 60.8075 21.6709 61.0889 21.7769 61.3447C21.8828 61.6005 22.0622 61.8191 22.2924 61.973C22.5225 62.1268 22.7931 62.2089 23.07 62.209ZM29.0102 56.2688C29.194 56.2695 29.3761 56.2337 29.546 56.1635C29.7159 56.0934 29.8702 55.9902 30 55.86L31.9796 53.8804C32.2423 53.6179 32.3899 53.2618 32.3901 52.8904C32.3902 52.519 32.2428 52.1628 31.9803 51.9001C31.7178 51.6374 31.3617 51.4897 30.9903 51.4896C30.6189 51.4895 30.2627 51.6369 30 51.8994L28.0204 53.879C27.8247 54.0748 27.6914 54.3242 27.6374 54.5958C27.5834 54.8673 27.6111 55.1487 27.717 55.4045C27.823 55.6603 28.0024 55.8789 28.2326 56.0328C28.4627 56.1866 28.7333 56.2687 29.0102 56.2688Z" fill="#EAEAEA" fill-opacity="0.5"/>
</svg>
