<svg width="24" height="25" viewBox="0 0 24 25" fill="none" xmlns="http://www.w3.org/2000/svg">
<path d="M12 22.8939C17.891 22.8939 22.6666 18.1183 22.6666 12.2272C22.6666 6.33618 17.891 1.56055 12 1.56055C6.10894 1.56055 1.33331 6.33618 1.33331 12.2272C1.33331 18.1183 6.10894 22.8939 12 22.8939Z" fill="#F45170"/>
<path d="M3.19995 18.2947C3.19995 18.3613 3.26662 18.428 3.33328 18.4947C3.59995 18.828 3.86662 19.228 4.19995 19.4947C4.59995 19.9613 5.06662 20.3613 5.53328 20.6947C5.86662 20.9613 6.19995 21.1613 6.53328 21.3613C6.66662 21.428 6.79995 21.5613 6.99995 21.628C8.53328 22.428 10.2 22.8947 12.0666 22.8947C17.9333 22.8947 22.7333 18.0947 22.7333 12.228C22.7333 10.428 22.2666 8.69466 21.4666 7.16133C21.4 7.02799 21.3333 6.89466 21.2 6.69466C21 6.36133 20.8 6.02799 20.5333 5.69466C19.8 4.76133 19.0666 4.09466 18.3333 3.49466C18.2666 3.42799 18.2 3.42799 18.1333 3.36133C19.1333 4.89466 20 7.16133 20 9.56133C20 15.428 15.2 20.228 9.33328 20.228C7.53328 20.228 5.79995 19.7613 4.26662 18.9613C4.13328 18.8947 3.93328 18.7613 3.79995 18.6947L3.19995 18.2947Z" fill="#E93565"/>
<path d="M3.79999 19.094C5.59999 21.294 8.59999 22.894 12 22.894C17.8667 22.894 22.6667 18.094 22.6667 12.2273C22.6667 8.89401 21.1333 5.89401 18.8667 4.02734C20.3333 5.69401 21.4 8.22734 21.4 10.894C21.4 16.7607 16.6 21.5607 10.7333 21.5607C8.26665 21.6273 5.79999 20.7607 3.79999 19.094Z" fill="#DF3260"/>
<path d="M9.79998 22.4936C9.73331 22.427 9.59998 22.2936 9.33331 21.9603C9.26665 21.8936 9.26665 21.827 9.33331 21.7603C9.39998 21.6936 9.46665 21.6936 9.53331 21.7603L9.99998 22.227C10.0666 22.2936 10.0666 22.3603 9.99998 22.427C9.93331 22.4936 9.86665 22.4936 9.79998 22.4936ZM8.59998 20.9603C8.46665 20.7603 8.33331 20.5603 8.26665 20.3603C8.19998 20.2936 8.26665 20.227 8.33331 20.1603C8.39998 20.0936 8.46665 20.1603 8.53331 20.227C8.66665 20.427 8.73331 20.627 8.86665 20.827C8.93331 20.8936 8.86665 20.9603 8.79998 21.027C8.73331 21.0936 8.66665 21.027 8.59998 20.9603ZM7.73331 19.2936C7.66665 19.0936 7.59998 18.8936 7.53331 18.627C7.53331 18.5603 7.53331 18.4936 7.59998 18.4936C7.66665 18.4936 7.73331 18.4936 7.73331 18.5603C7.79998 18.7603 7.86665 18.9603 7.93331 19.227C7.93331 19.2936 7.93331 19.3603 7.86665 19.427C7.86665 19.3603 7.79998 19.3603 7.73331 19.2936ZM7.26665 17.427C7.26665 17.227 7.19998 16.9603 7.19998 16.7603C7.19998 16.6936 7.26665 16.627 7.33331 16.627C7.39998 16.627 7.46665 16.6936 7.46665 16.7603C7.46665 16.9603 7.46665 17.227 7.53331 17.427C7.59998 17.5603 7.33331 17.5603 7.26665 17.427ZM7.26665 15.4936C7.26665 15.2936 7.33331 15.027 7.33331 14.827C7.33331 14.7603 7.39998 14.6936 7.46665 14.6936C7.53331 14.6936 7.59998 14.7603 7.59998 14.827C7.53331 15.027 7.53331 15.2936 7.53331 15.4936C7.46665 15.6936 7.19998 15.627 7.26665 15.4936ZM7.66665 13.7603C7.59998 13.7603 7.53331 13.6936 7.59998 13.5603C7.66665 13.3603 7.73331 13.0936 7.79998 12.8936C7.79998 12.827 7.93331 12.7603 7.99998 12.827C8.06665 12.827 8.13331 12.9603 8.06665 13.027L7.86665 13.627C7.86665 13.7603 7.79998 13.7603 7.66665 13.7603ZM8.39998 12.027C8.33331 11.9603 8.33331 11.8936 8.33331 11.827C8.46665 11.627 8.59998 11.427 8.66665 11.227C8.73331 11.1603 8.79998 11.1603 8.86665 11.1603C8.93331 11.227 8.93331 11.2936 8.93331 11.3603C8.79998 11.5603 8.66665 11.7603 8.59998 11.8936C8.59998 12.027 8.46665 12.027 8.39998 12.027ZM9.53331 10.4936C9.46665 10.427 9.46665 10.3603 9.53331 10.2936L9.99998 9.82695C10.0666 9.76029 10.1333 9.76029 10.2 9.82695C10.2666 9.89362 10.2666 9.96029 10.2 10.027C10.0666 10.1603 9.86665 10.2936 9.73331 10.4936H9.53331ZM22 10.227L21.5333 9.76029C21.4666 9.69362 21.4666 9.62695 21.5333 9.56029C21.6 9.49362 21.6666 9.49362 21.7333 9.56029C21.9333 9.69362 22.0666 9.89362 22.2666 10.027C22.3333 10.0936 22.3333 10.1603 22.2666 10.227H22ZM10.9333 9.22695C10.8666 9.16029 10.9333 9.09362 10.9333 9.02695L11.5333 8.62695C11.6 8.56029 11.6666 8.62695 11.7333 8.69362C11.8 8.76029 11.7333 8.82695 11.6666 8.89362C11.4666 9.02695 11.2666 9.09362 11.1333 9.22695C11.0666 9.29362 11 9.29362 10.9333 9.22695ZM20.5333 9.02695C20.3333 8.89362 20.1333 8.82695 19.9333 8.69362C19.8666 8.62695 19.8666 8.56029 19.8666 8.49362C19.9333 8.42695 20 8.42695 20.0666 8.42695C20.2666 8.56029 20.4666 8.62695 20.6666 8.76029C20.7333 8.82695 20.7333 8.89362 20.7333 8.96029C20.7333 9.02695 20.6 9.09362 20.5333 9.02695ZM12.6 8.29362C12.6 8.22695 12.6 8.16029 12.6666 8.09362C12.8666 8.02695 13.0666 7.96029 13.3333 7.82695C13.4 7.82695 13.4666 7.82695 13.5333 7.89362C13.5333 7.96029 13.5333 8.02695 13.4666 8.09362L12.8666 8.29362C12.6666 8.36029 12.6 8.36029 12.6 8.29362ZM18.8666 8.22695C18.6666 8.16029 18.4666 8.09362 18.2 8.02695C18.1333 8.02695 18.0666 7.96029 18.1333 7.89362C18.1333 7.82695 18.2 7.76029 18.2666 7.82695C18.4666 7.89362 18.7333 7.96029 18.9333 8.02695C19 8.02695 19.0666 8.16029 19 8.22695H18.8666ZM14.4 7.69362C14.4 7.62695 14.4666 7.56029 14.5333 7.56029C14.7333 7.49362 15 7.49362 15.2 7.49362C15.2666 7.49362 15.3333 7.56029 15.3333 7.62695C15.3333 7.69362 15.2666 7.76029 15.2 7.76029C15 7.76029 14.7333 7.82695 14.5333 7.82695C14.4666 7.82695 14.4 7.82695 14.4 7.69362ZM16.4 7.69362C16.3333 7.69362 16.2666 7.62695 16.2666 7.56029C16.2666 7.49362 16.3333 7.42695 16.4 7.42695C16.4666 7.42695 16.8 7.42695 17.0666 7.49362C17.1333 7.49362 17.2 7.56029 17.2 7.62695C17.2 7.69362 17.1333 7.76029 17.0666 7.76029C16.9333 7.76029 16.7333 7.76029 16.4 7.69362ZM1.99998 10.8936C1.93331 10.8936 1.86665 10.7603 1.93331 10.6936C1.99998 10.4936 2.13331 10.2936 2.19998 10.0936C2.19998 10.027 2.33331 10.027 2.39998 10.027C2.46665 10.027 2.46665 10.1603 2.46665 10.227C2.39998 10.427 2.26665 10.627 2.19998 10.827C2.13331 10.827 2.06665 10.8936 1.99998 10.8936ZM2.73331 9.16029C2.66665 9.16029 2.66665 9.02695 2.73331 8.96029C2.86665 8.76029 2.93331 8.56029 3.06665 8.36029C3.13331 8.29362 3.19998 8.29362 3.26665 8.29362C3.33331 8.36029 3.33331 8.42695 3.33331 8.49362C3.19998 8.69362 3.13331 8.89362 2.99998 9.09362C2.93331 9.16029 2.79998 9.22695 2.73331 9.16029ZM3.73331 7.56029C3.66665 7.49362 3.66665 7.42695 3.73331 7.36029C3.86665 7.16029 3.99998 7.02695 4.13331 6.82695C4.19998 6.76029 4.26665 6.76029 4.33331 6.82695C4.39998 6.89362 4.39998 6.96029 4.33331 7.02695C4.19998 7.22695 4.06665 7.36029 3.93331 7.56029C3.86665 7.62695 3.79998 7.62695 3.73331 7.56029ZM4.93331 6.16029C4.86665 6.09362 4.86665 6.02695 4.93331 5.96029L5.33331 5.56029L5.39998 5.49362C5.46665 5.42695 5.53331 5.42695 5.59998 5.49362C5.66665 5.56029 5.66665 5.62695 5.59998 5.69362H5.46665L5.06665 6.09362C5.06665 6.16029 4.93331 6.16029 4.93331 6.16029ZM6.26665 4.82695C6.19998 4.76029 6.19998 4.69362 6.26665 4.62695C6.39998 4.49362 6.59998 4.36029 6.79998 4.22695C6.86665 4.16029 6.93331 4.16029 6.99998 4.22695C7.06665 4.29362 7.06665 4.36029 6.99998 4.42695C6.79998 4.56029 6.66665 4.69362 6.46665 4.82695C6.39998 4.89362 6.26665 4.89362 6.26665 4.82695ZM7.73331 3.69362C7.66665 3.62695 7.73331 3.56029 7.79998 3.49362C7.99998 3.36029 8.19998 3.22695 8.39998 3.16029C8.46665 3.09362 8.53331 3.16029 8.59998 3.22695C8.66665 3.29362 8.59998 3.36029 8.53331 3.42695C8.33331 3.56029 8.13331 3.62695 7.99998 3.76029C7.86665 3.76029 7.79998 3.76029 7.73331 3.69362ZM9.33331 2.76029C9.33331 2.69362 9.33331 2.62695 9.39998 2.56029C9.59998 2.49362 9.79998 2.36029 9.99998 2.29362C10.0666 2.29362 10.1333 2.29362 10.2 2.36029C10.2 2.42695 10.2 2.49362 10.1333 2.56029C9.93331 2.62695 9.73331 2.76029 9.53331 2.82695C9.46665 2.89362 9.39998 2.82695 9.33331 2.76029ZM11.0666 2.02695C11.0666 1.96029 11.0666 1.89362 11.1333 1.82695C11.3333 1.76029 11.5333 1.69362 11.8 1.62695C11.8666 1.62695 11.9333 1.62695 11.9333 1.69362C11.9333 1.76029 11.9333 1.82695 11.8666 1.82695L11.2666 2.02695C11.1333 2.16029 11.0666 2.09362 11.0666 2.02695ZM1.33331 12.4936V12.627C1.39998 12.7603 1.53331 12.7603 1.59998 12.627L1.79998 12.027C1.79998 11.9603 1.79998 11.8936 1.73331 11.827C1.66665 11.827 1.59998 11.827 1.53331 11.8936C1.46665 12.027 1.39998 12.227 1.33331 12.4936ZM8.13331 21.827C7.99998 21.627 7.86665 21.427 7.73331 21.2936C7.66665 21.227 7.73331 21.1603 7.79998 21.0936C7.86665 21.027 7.93331 21.0936 7.99998 21.1603C8.13331 21.3603 8.26665 21.5603 8.33331 21.6936C8.39998 21.7603 8.33331 21.827 8.33331 21.8936C8.26665 21.8936 8.13331 21.8936 8.13331 21.827ZM7.19998 20.1603C7.13331 19.9603 6.99998 19.7603 6.93331 19.5603C6.93331 19.4936 6.93331 19.427 6.99998 19.3603C7.06665 19.3603 7.13331 19.3603 7.19998 19.427C7.26665 19.627 7.33331 19.827 7.46665 20.027C7.46665 20.0936 7.46665 20.1603 7.39998 20.227C7.26665 20.227 7.19998 20.227 7.19998 20.1603ZM6.59998 18.3603C6.53331 18.1603 6.53331 17.8936 6.46665 17.6936C6.46665 17.627 6.53331 17.5603 6.59998 17.5603C6.66665 17.5603 6.73331 17.627 6.73331 17.6936C6.73331 17.8936 6.79998 18.0936 6.86665 18.3603C6.86665 18.427 6.86665 18.4936 6.73331 18.4936C6.66665 18.4936 6.59998 18.427 6.59998 18.3603ZM6.33331 16.4936V15.827C6.33331 15.7603 6.39998 15.6936 6.46665 15.6936C6.53331 15.6936 6.59998 15.7603 6.59998 15.827V16.4936C6.59998 16.5603 6.53331 16.627 6.46665 16.627C6.39998 16.627 6.33331 16.5603 6.33331 16.4936ZM6.59998 14.7603C6.53331 14.7603 6.46665 14.6936 6.46665 14.627C6.53331 14.427 6.53331 14.1603 6.59998 13.9603C6.59998 13.8936 6.66665 13.827 6.73331 13.8936C6.79998 13.8936 6.86665 13.9603 6.79998 14.027C6.73331 14.227 6.73331 14.427 6.66665 14.6936C6.73331 14.6936 6.66665 14.7603 6.59998 14.7603ZM7.06665 12.9603C6.99998 12.9603 6.93331 12.827 6.99998 12.7603C7.06665 12.5603 7.19998 12.3603 7.26665 12.1603C7.26665 12.0936 7.39998 12.0936 7.46665 12.0936C7.53331 12.0936 7.53331 12.227 7.53331 12.2936C7.46665 12.4936 7.33331 12.6936 7.26665 12.8936C7.19998 12.9603 7.13331 12.9603 7.06665 12.9603ZM7.86665 11.2936C7.79998 11.227 7.79998 11.1603 7.79998 11.0936C7.93331 10.8936 8.06665 10.6936 8.19998 10.5603C8.26665 10.4936 8.33331 10.4936 8.39998 10.5603C8.46665 10.627 8.46665 10.6936 8.39998 10.7603C8.26665 10.9603 8.13331 11.0936 7.99998 11.2936H7.86665ZM8.99998 9.76029C8.93331 9.69362 8.93331 9.62695 8.99998 9.56029L9.46665 9.09362C9.53331 9.02695 9.59998 9.02695 9.66665 9.09362C9.73331 9.16029 9.73331 9.22695 9.66665 9.29362C9.46665 9.42695 9.33331 9.62695 9.19998 9.76029C9.13331 9.82695 9.06665 9.82695 8.99998 9.76029ZM21.5333 8.62695C21.3333 8.49362 21.2 8.36029 21 8.22695C20.9333 8.16029 20.9333 8.09362 20.9333 8.02695C21 7.96029 21.0666 7.96029 21.1333 7.96029C21.3333 8.09362 21.5333 8.22695 21.6666 8.36029C21.7333 8.42695 21.7333 8.49362 21.6666 8.56029C21.6666 8.69362 21.6 8.69362 21.5333 8.62695ZM10.4 8.56029C10.3333 8.49362 10.4 8.42695 10.4 8.36029C10.6 8.22695 10.8 8.09362 10.9333 7.96029C11 7.89362 11.0666 7.96029 11.1333 8.02695C11.2 8.09362 11.1333 8.16029 11.0666 8.22695C10.8666 8.36029 10.6666 8.49362 10.5333 8.56029C10.5333 8.62695 10.4 8.56029 10.4 8.56029ZM19.9333 7.69362C19.7333 7.62695 19.5333 7.49362 19.3333 7.42695C19.2666 7.42695 19.2 7.29362 19.2666 7.22695C19.2666 7.16029 19.4 7.09362 19.4666 7.16029C19.6666 7.22695 19.8666 7.36029 20.0666 7.42695C20.1333 7.42695 20.1333 7.56029 20.1333 7.62695C20.0666 7.69362 20 7.76029 19.9333 7.69362ZM12 7.56029C12 7.49362 12 7.42695 12.0666 7.36029C12.2666 7.29362 12.4666 7.16029 12.6666 7.09362C12.7333 7.09362 12.8 7.09362 12.8666 7.16029C12.8666 7.22695 12.8666 7.29362 12.8 7.36029C12.6 7.42695 12.4 7.49362 12.2 7.62695C12.0666 7.69362 12 7.62695 12 7.56029ZM18.2 7.09362C18 7.02695 17.8 7.02695 17.5333 6.96029C17.4666 6.96029 17.4 6.89362 17.4 6.82695C17.4 6.76029 17.4666 6.69362 17.5333 6.69362C17.7333 6.76029 18 6.76029 18.2 6.82695C18.2666 6.82695 18.3333 6.89362 18.2666 6.96029C18.3333 7.09362 18.2666 7.09362 18.2 7.09362ZM13.7333 6.96029C13.7333 6.89362 13.7333 6.82695 13.8666 6.82695C14.0666 6.76029 14.3333 6.76029 14.5333 6.69362C14.6 6.69362 14.6666 6.76029 14.6666 6.82695C14.6666 6.89362 14.6 6.96029 14.5333 6.96029C14.3333 7.02695 14.0666 7.02695 13.8666 7.09362C13.8 7.09362 13.7333 7.02695 13.7333 6.96029ZM16.4 6.82695H15.7333C15.6666 6.82695 15.6 6.76029 15.6 6.69362C15.6 6.62695 15.6666 6.56029 15.7333 6.56029H16.4C16.4666 6.56029 16.5333 6.62695 16.5333 6.69362C16.5333 6.82695 16.4666 6.82695 16.4 6.82695ZM1.99998 14.227C1.93331 14.227 1.86665 14.1603 1.86665 14.0936C1.86665 13.8936 1.93331 13.627 1.99998 13.427C1.99998 13.3603 2.06665 13.2936 2.13331 13.2936C2.19998 13.2936 2.26665 13.3603 2.26665 13.427C2.19998 13.627 2.19998 13.827 2.13331 14.0936C2.13331 14.1603 2.06665 14.227 1.99998 14.227ZM2.39998 12.427C2.33331 12.427 2.26665 12.3603 2.33331 12.2936C2.39998 12.0936 2.46665 11.8936 2.53331 11.627C2.53331 11.5603 2.59998 11.4936 2.73331 11.5603C2.79998 11.5603 2.86665 11.627 2.79998 11.7603L2.59998 12.3603C2.53331 12.3603 2.46665 12.427 2.39998 12.427ZM2.99998 10.6936C2.93331 10.6936 2.93331 10.5603 2.93331 10.4936C2.99998 10.2936 3.13331 10.0936 3.19998 9.89362C3.19998 9.82695 3.33331 9.82695 3.39998 9.82695C3.46665 9.82695 3.46665 9.96029 3.46665 10.027C3.33331 10.227 3.26665 10.427 3.19998 10.627C3.13331 10.6936 3.06665 10.6936 2.99998 10.6936ZM3.86665 9.02695C3.79998 8.96029 3.79998 8.89362 3.79998 8.82695C3.93331 8.62695 4.06665 8.42695 4.13331 8.29362C4.19998 8.22695 4.26665 8.22695 4.33331 8.22695C4.39998 8.29362 4.39998 8.36029 4.39998 8.42695C4.26665 8.62695 4.13331 8.76029 4.06665 8.96029C3.99998 9.02695 3.86665 9.09362 3.86665 9.02695ZM4.86665 7.49362C4.79998 7.42695 4.79998 7.36029 4.86665 7.29362C4.99998 7.09362 5.13331 6.96029 5.26665 6.76029C5.33331 6.69362 5.39998 6.69362 5.46665 6.76029C5.53331 6.82695 5.53331 6.89362 5.46665 6.96029C5.33331 7.09362 5.19998 7.29362 5.06665 7.42695C4.99998 7.56029 4.93331 7.56029 4.86665 7.49362ZM6.13331 6.16029C6.06665 6.09362 6.06665 6.02695 6.13331 5.96029L6.59998 5.49362C6.66665 5.42695 6.73331 5.42695 6.79998 5.49362C6.86665 5.56029 6.86665 5.62695 6.79998 5.69362C6.59998 5.82695 6.46665 5.96029 6.26665 6.16029H6.13331ZM7.53331 4.96029C7.46665 4.89362 7.53331 4.82695 7.53331 4.76029C7.73331 4.62695 7.86665 4.49362 8.06665 4.36029C8.13331 4.29362 8.19998 4.36029 8.26665 4.42695C8.33331 4.49362 8.26665 4.56029 8.19998 4.62695C7.99998 4.76029 7.86665 4.89362 7.66665 5.02695L7.53331 4.96029ZM9.06665 3.89362C8.99998 3.82695 9.06665 3.76029 9.13331 3.69362C9.33331 3.56029 9.53331 3.49362 9.73331 3.36029C9.79998 3.36029 9.86665 3.36029 9.93331 3.42695C9.93331 3.49362 9.93331 3.56029 9.86665 3.62695C9.66665 3.69362 9.46665 3.82695 9.26665 3.96029C9.19998 4.02695 9.06665 3.96029 9.06665 3.89362ZM10.7333 3.09362C10.7333 3.02695 10.7333 2.96029 10.8 2.89362L11.4 2.69362C11.4666 2.69362 11.5333 2.69362 11.6 2.76029C11.6 2.82695 11.6 2.89362 11.5333 2.96029L10.9333 3.16029C10.8 3.22695 10.7333 3.16029 10.7333 3.09362ZM12.4666 2.56029C12.4666 2.49362 12.4666 2.42695 12.5333 2.42695C12.7333 2.36029 12.9333 2.29362 13.2 2.29362C13.2666 2.29362 13.3333 2.29362 13.3333 2.42695C13.3333 2.49362 13.3333 2.56029 13.2 2.56029C12.6 2.69362 12.6 2.69362 12.5333 2.69362C12.5333 2.62695 12.4666 2.62695 12.4666 2.56029ZM14.2666 2.22695C14.2666 2.16029 14.3333 2.09362 14.4 2.09362C14.6 2.09362 14.8666 2.02695 15.0666 2.02695C15.1333 2.02695 15.2 2.09362 15.2 2.16029C15.2 2.22695 15.1333 2.29362 15.0666 2.29362C14.7333 2.29362 14.6 2.36029 14.4 2.36029C14.3333 2.29362 14.2666 2.29362 14.2666 2.22695ZM1.73331 15.227C1.79998 15.4936 1.86665 15.6936 1.93331 15.9603V15.227C1.93331 15.1603 1.86665 15.0936 1.79998 15.0936C1.86665 15.0936 1.79998 15.1603 1.73331 15.227Z" fill="white"/>
<path d="M2.86664 16.2271C2.86664 16.8271 2.9333 17.4271 2.99997 17.9604C3.1333 18.1604 3.19997 18.2937 3.3333 18.4937C3.19997 17.7604 3.1333 17.0271 3.1333 16.2271C3.1333 12.7604 4.46664 9.56042 6.86664 7.16042C9.3333 4.69375 12.5333 3.36042 16 3.36042C16.8 3.36042 17.5333 3.42708 18.2666 3.56042C18.0666 3.42708 17.9333 3.29375 17.7333 3.22708C17.1333 3.16042 16.5333 3.09375 16 3.09375C12.4666 3.09375 9.19997 4.42708 6.7333 6.89375C4.26664 9.42708 2.86664 12.6938 2.86664 16.2271ZM6.5333 21.3604C6.66664 21.4271 6.79997 21.5604 6.99997 21.6271C4.5333 17.5604 5.06664 12.2271 8.53331 8.76042C12 5.29375 17.3333 4.76042 21.4 7.16042C21.3333 7.02708 21.2666 6.89375 21.1333 6.69375C17.0666 4.42708 11.8 5.09375 8.3333 8.56042C4.86664 12.0271 4.26664 17.2938 6.5333 21.3604Z" fill="#CC104A"/>
<path d="M4.20001 19.494C4.60001 19.9606 5.06668 20.3606 5.53334 20.694C3.73334 16.5606 4.53334 11.5606 7.93334 8.16064C11.3333 4.76064 16.3333 3.96064 20.4667 5.76064C20.0667 5.29397 19.6667 4.82731 19.2667 4.42731C15.1333 3.29397 10.5333 4.36064 7.33334 7.56064C4.06668 10.7606 3.06668 15.3606 4.20001 19.494Z" fill="white"/>
<path d="M3.19995 18.2944C3.19995 18.3611 3.26662 18.4277 3.33328 18.4944C5.19995 21.0944 8.39995 22.8944 12 22.8944C17.8666 22.8944 22.6666 18.0944 22.6666 12.2277C22.6666 8.62773 20.8666 5.4944 18.2666 3.56107C18.2 3.4944 18.1333 3.4944 18.0666 3.42773C19.1333 4.8944 20 7.16107 20 9.56107C20 15.4277 15.2 20.2277 9.33328 20.2277C7.19995 20.2277 4.99995 19.5611 3.19995 18.2944Z" fill="#CC104A" fill-opacity="0.12549"/>
<path d="M4.99996 10.8943C5.79996 11.6277 6.93329 11.8943 8.13329 11.6943C9.59996 11.4277 10.5333 10.561 10.6 10.561C12.4666 9.02767 13.0666 6.42767 11.7333 4.761C10.9333 3.761 9.59996 3.42767 8.33329 3.62767C7.39996 3.89433 6.59996 4.29433 5.86663 4.89433C4.99996 5.561 4.46663 6.42767 4.19996 7.361C3.79996 8.69433 4.06663 10.0277 4.99996 10.8943Z" fill="white" fill-opacity="0.188235"/>
<path d="M18 12.5605C17.8667 12.5605 17.8 12.6272 17.8667 12.7605C18.0667 13.2939 18.2667 13.6939 18.2667 13.7605C18.2667 13.7605 18 13.3605 17.7333 12.8939C17.6667 12.8272 17.5333 12.8272 17.4667 12.8939C17.0667 13.9605 16.6667 14.8939 16.6 14.8939C16.5333 14.8939 16.8 13.8939 17.1333 12.7605C17.1333 12.6272 17.0667 12.5605 16.9333 12.6272C16.4 12.8272 16 13.0272 15.9333 13.0272C15.9333 13.0272 16.3333 12.7605 16.8 12.4939C16.8667 12.4272 16.8667 12.2939 16.8 12.2272C15.7333 11.8272 14.8 11.4272 14.8 11.3605C14.8 11.2939 15.8 11.5605 16.9333 11.8939C17.0667 11.8939 17.1333 11.8272 17.0667 11.6939C16.8667 11.1605 16.6667 10.7605 16.6667 10.6939C16.7333 10.6939 16.9333 11.0939 17.2 11.5605C17.2667 11.6272 17.4 11.6272 17.4667 11.5605C17.8667 10.4939 18.2667 9.56055 18.3333 9.56055C18.4 9.56055 18.1333 10.5605 17.8 11.6939C17.8 11.8272 17.8667 11.8939 18 11.8272C18.5333 11.6272 18.9333 11.4272 19 11.4272C19 11.4939 18.6 11.6939 18.1333 11.9605C18.0667 12.0272 18.0667 12.1605 18.1333 12.2272C19.2 12.6272 20.1333 13.0272 20.1333 13.0939C20.0667 13.2272 19.0667 12.8939 18 12.5605Z" fill="white"/>
</svg>
