<svg width="21" height="20" viewBox="0 0 21 20" fill="none" xmlns="http://www.w3.org/2000/svg">
<path d="M13.6677 1.8417C13.326 1.50003 12.7344 1.73337 12.7344 2.20837V5.1167C12.7344 6.33337 13.7677 7.3417 15.026 7.3417C15.8177 7.35003 16.9177 7.35003 17.8594 7.35003C18.3344 7.35003 18.5844 6.7917 18.251 6.45837C17.051 5.25003 14.901 3.07503 13.6677 1.8417Z" fill="#E20B18"/>
<path d="M17.582 8.49163H15.1737C13.1987 8.49163 11.5904 6.88329 11.5904 4.90829V2.49996C11.5904 2.04163 11.2154 1.66663 10.757 1.66663H7.2237C4.65703 1.66663 2.58203 3.33329 2.58203 6.30829V13.6916C2.58203 16.6666 4.65703 18.3333 7.2237 18.3333H13.7737C16.3404 18.3333 18.4154 16.6666 18.4154 13.6916V9.32496C18.4154 8.86663 18.0404 8.49163 17.582 8.49163ZM10.082 14.7916H6.7487C6.40703 14.7916 6.1237 14.5083 6.1237 14.1666C6.1237 13.825 6.40703 13.5416 6.7487 13.5416H10.082C10.4237 13.5416 10.707 13.825 10.707 14.1666C10.707 14.5083 10.4237 14.7916 10.082 14.7916ZM11.7487 11.4583H6.7487C6.40703 11.4583 6.1237 11.175 6.1237 10.8333C6.1237 10.4916 6.40703 10.2083 6.7487 10.2083H11.7487C12.0904 10.2083 12.3737 10.4916 12.3737 10.8333C12.3737 11.175 12.0904 11.4583 11.7487 11.4583Z" fill="#E20B18"/>
</svg>
