<svg width="20" height="21" viewBox="0 0 20 21" fill="none" xmlns="http://www.w3.org/2000/svg">
<path d="M16.2714 5.06143C14.6547 3.44476 13.0714 3.40309 11.413 5.06143L10.4047 6.06976C10.3214 6.15309 10.288 6.28643 10.3214 6.40309C10.9547 8.61143 12.7214 10.3781 14.9297 11.0114C14.963 11.0198 14.9964 11.0281 15.0297 11.0281C15.1214 11.0281 15.2047 10.9948 15.2714 10.9281L16.2714 9.91976C17.0964 9.10309 17.4964 8.31143 17.4964 7.51143C17.5047 6.68643 17.1047 5.88643 16.2714 5.06143Z" fill="#E20B18"/>
<path d="M13.4298 11.7698C13.1882 11.6531 12.9548 11.5365 12.7298 11.4031C12.5465 11.2948 12.3715 11.1781 12.1965 11.0531C12.0548 10.9615 11.8882 10.8281 11.7298 10.6948C11.7132 10.6865 11.6548 10.6365 11.5882 10.5698C11.3132 10.3365 11.0048 10.0365 10.7298 9.70312C10.7048 9.68646 10.6632 9.62812 10.6048 9.55312C10.5215 9.45312 10.3798 9.28646 10.2548 9.09479C10.1548 8.96979 10.0382 8.78646 9.92982 8.60312C9.79649 8.37812 9.67982 8.15312 9.56316 7.91979C9.41019 7.59201 8.97998 7.49464 8.72421 7.75041L4.03816 12.4365C3.92982 12.5448 3.82982 12.7531 3.80482 12.8948L3.35482 16.0865C3.27149 16.6531 3.42982 17.1865 3.77982 17.5448C4.07982 17.8365 4.49649 17.9948 4.94649 17.9948C5.04649 17.9948 5.14649 17.9865 5.24649 17.9698L8.44649 17.5198C8.59649 17.4948 8.80482 17.3948 8.90482 17.2865L13.5986 12.5927C13.8493 12.342 13.7551 11.9107 13.4298 11.7698Z" fill="#E20B18"/>
</svg>
