<svg width="66" height="66" viewBox="0 0 66 66" fill="none" xmlns="http://www.w3.org/2000/svg">
<path d="M0.000795411 35.4992L35.5008 -0.000797998L65.6851 -0.000798031L0.000264024 65.7034L0.000795411 35.4992Z" fill="#D9D9D9"/>
<path d="M0.000795411 35.4992L35.5008 -0.000797998L65.6851 -0.000798031L0.000264024 65.7034L0.000795411 35.4992Z" fill="url(#paint0_linear_16145_106264)"/>
<path d="M0.000795411 35.4992L35.5008 -0.000797998L65.6851 -0.000798031L0.000264024 65.7034L0.000795411 35.4992Z" fill="url(#paint1_radial_16145_106264)"/>
<path d="M9.09396 46.7672L2.92284 40.5961L6.93648 36.5825L7.87359 37.5196L4.97787 40.4153L6.65323 42.0907L9.34104 39.4029L10.2782 40.34L7.59035 43.0278L9.27475 44.7122L12.1946 41.7924L13.1317 42.7295L9.09396 46.7672ZM10.4635 36.141L13.1061 36.9154L12.3467 34.2578L13.5008 33.1037L14.4199 36.813L18.1533 37.7079L17.0052 38.856L14.3596 38.169L15.0556 40.8055L13.8986 41.9626L12.9946 38.2383L9.30639 37.2981L10.4635 36.141ZM20.9081 35.1339C20.4461 35.5959 19.9479 35.8912 19.4135 36.0198C18.8812 36.1463 18.3469 36.1202 17.8105 35.9414C17.2741 35.7586 16.7719 35.4332 16.3039 34.9651C15.8338 34.4951 15.5094 33.9898 15.3306 33.4495C15.1498 32.9071 15.1237 32.3707 15.2523 31.8404C15.3808 31.3061 15.6711 30.8129 16.1231 30.3609C16.4987 29.9852 16.9005 29.7221 17.3284 29.5714C17.7563 29.4168 18.1821 29.3786 18.606 29.4569C19.0279 29.5333 19.4176 29.7261 19.7751 30.0355L18.7326 31.078C18.4674 30.8973 18.1811 30.8119 17.8738 30.8219C17.5664 30.828 17.2812 30.9625 17.018 31.2257C16.795 31.4487 16.6594 31.7048 16.6112 31.9941C16.561 32.2813 16.6002 32.5837 16.7288 32.9011C16.8593 33.2164 17.0803 33.5298 17.3917 33.8412C17.707 34.1566 18.0244 34.3816 18.3438 34.5162C18.6612 34.6487 18.9646 34.6929 19.2538 34.6487C19.5431 34.6005 19.8012 34.4629 20.0282 34.2359C20.189 34.0752 20.3025 33.9015 20.3687 33.7146C20.435 33.5238 20.4531 33.3269 20.423 33.124C20.3928 32.9211 20.3105 32.7203 20.1759 32.5214L21.2185 31.4788C21.5198 31.8324 21.7137 32.2191 21.8 32.6389C21.8844 33.0567 21.8543 33.4806 21.7096 33.9105C21.563 34.3384 21.2958 34.7462 20.9081 35.1339ZM18.6158 24.9032L24.7869 31.0743L23.6961 32.1651L17.525 25.994L18.6158 24.9032ZM26.912 25.0561L24.2302 22.3743L25.321 21.2835L29.9493 25.9119L28.8917 26.9695L28.0691 26.1469L28.0209 26.1951C28.1755 26.5587 28.2157 26.9424 28.1414 27.3462C28.0691 27.7479 27.8592 28.1226 27.5116 28.4701C27.2083 28.7734 26.8728 28.9743 26.5052 29.0727C26.1376 29.1672 25.7589 29.1501 25.3692 29.0215C24.9775 28.8909 24.5968 28.6408 24.2272 28.2712L21.2802 25.3243L22.371 24.2335L25.1492 27.0117C25.4425 27.305 25.7559 27.4576 26.0894 27.4697C26.4228 27.4817 26.7201 27.3572 26.9813 27.0961C27.142 26.9353 27.2585 26.7405 27.3308 26.5115C27.4031 26.2825 27.4102 26.0424 27.3519 25.7913C27.2937 25.5362 27.147 25.2911 26.912 25.0561ZM31.3241 17.7271L30.4382 18.83C30.3097 18.7577 30.166 18.7125 30.0073 18.6944C29.8507 18.6743 29.6869 18.6954 29.5162 18.7577C29.3454 18.8199 29.1757 18.9354 29.0069 19.1042C28.7799 19.3312 28.6383 19.5712 28.5821 19.8244C28.5278 20.0755 28.5801 20.2783 28.7388 20.433C28.8714 20.5696 29.03 20.6299 29.2149 20.6138C29.4017 20.5957 29.6397 20.4963 29.929 20.3155L30.8872 19.6948C31.4195 19.3513 31.8946 19.1755 32.3125 19.1675C32.7323 19.1574 33.109 19.3171 33.4424 19.6466C33.7317 19.9399 33.9035 20.2824 33.9577 20.6741C34.0119 21.0618 33.9527 21.4666 33.7799 21.8884C33.6072 22.3103 33.3279 22.7141 32.9422 23.0997C32.3757 23.6662 31.8012 24.0037 31.2187 24.1122C30.6341 24.2187 30.0957 24.0921 29.6036 23.7325L30.5648 22.5664C30.8219 22.7271 31.0821 22.7824 31.3452 22.7321C31.6084 22.6819 31.8655 22.5312 32.1166 22.2801C32.3757 22.021 32.5304 21.7599 32.5806 21.4967C32.6329 21.2315 32.5806 21.0206 32.424 20.8639C32.2914 20.7313 32.1307 20.6731 31.9418 20.6892C31.755 20.7032 31.532 20.7936 31.2729 20.9603L30.3177 21.5841C29.7813 21.9356 29.2972 22.1084 28.8653 22.1024C28.4314 22.0943 28.0467 21.9206 27.7113 21.5811C27.424 21.2978 27.2542 20.9734 27.202 20.6078C27.1498 20.2382 27.207 19.8555 27.3738 19.4598C27.5405 19.06 27.8087 18.6753 28.1783 18.3057C28.7207 17.7633 29.2631 17.4519 29.8055 17.3716C30.3498 17.2892 30.8561 17.4077 31.3241 17.7271ZM35.728 20.1332L31.0996 15.5049L32.1904 14.4141L36.8188 19.0424L35.728 20.1332ZM30.9912 14.2996C30.8184 14.4723 30.6125 14.5637 30.3734 14.5738C30.1324 14.5818 29.9305 14.5045 29.7678 14.3418C29.6031 14.177 29.5257 13.9752 29.5358 13.7361C29.5438 13.495 29.6342 13.2881 29.807 13.1154C29.9817 12.9406 30.1886 12.8502 30.4277 12.8442C30.6667 12.8341 30.8686 12.9115 31.0333 13.0762C31.1961 13.2389 31.2734 13.4408 31.2654 13.6819C31.2573 13.9189 31.1659 14.1248 30.9912 14.2996ZM37.4463 9.15824L40.4264 15.4348L39.2211 16.6401L32.9445 13.66L34.1076 12.4969L38.6094 14.8713L38.6576 14.8231L36.2862 10.3183L37.4463 9.15824ZM44.8114 11.2306C44.3473 11.6946 43.8502 11.999 43.3198 12.1436C42.7895 12.2842 42.2562 12.2672 41.7198 12.0924C41.1814 11.9156 40.6702 11.5852 40.1861 11.101C39.71 10.6249 39.3825 10.1167 39.2037 9.57633C39.025 9.03194 38.9988 8.49558 39.1254 7.96726C39.2499 7.43693 39.5332 6.95079 39.9751 6.50885C40.2604 6.2236 40.5758 6.00062 40.9213 5.83991C41.2668 5.67519 41.6324 5.59082 42.0181 5.5868C42.4058 5.58077 42.8036 5.66916 43.2114 5.85196C43.6171 6.03276 44.0229 6.32605 44.4287 6.73183L44.7632 7.0663L40.9695 10.86L40.2343 10.1247L42.9823 7.37666C42.7714 7.16975 42.5404 7.02914 42.2893 6.95481C42.0362 6.87848 41.7831 6.87245 41.53 6.93673C41.2789 6.999 41.0489 7.1346 40.8399 7.34352C40.617 7.5665 40.4753 7.8166 40.4151 8.09381C40.3528 8.36902 40.3618 8.64122 40.4422 8.9104C40.5225 9.17557 40.6652 9.41261 40.8701 9.62153L41.5119 10.2633C41.7811 10.5325 42.0613 10.7143 42.3526 10.8087C42.6419 10.9011 42.9261 10.9102 43.2053 10.8359C43.4825 10.7595 43.7397 10.6028 43.9767 10.3658C44.1354 10.2071 44.2569 10.0414 44.3413 9.86861C44.4237 9.69384 44.4679 9.51506 44.4739 9.33226C44.4799 9.14945 44.4418 8.96866 44.3594 8.78987L45.4924 7.8859C45.6973 8.21937 45.8098 8.57694 45.8299 8.95861C45.8499 9.33627 45.7756 9.71996 45.6069 10.1097C45.4361 10.4974 45.171 10.871 44.8114 11.2306Z" fill="white"/>
<defs>
<linearGradient id="paint0_linear_16145_106264" x1="-15.1016" y1="50.6016" x2="70.8051" y2="17.0227" gradientUnits="userSpaceOnUse">
<stop stop-color="#D7B04D"/>
<stop offset="1" stop-color="#B3931E"/>
</linearGradient>
<radialGradient id="paint1_radial_16145_106264" cx="0" cy="0" r="1" gradientUnits="userSpaceOnUse" gradientTransform="translate(59.8816 3.26247) rotate(147.735) scale(88.6761 38.1384)">
<stop stop-color="#E26A0B"/>
<stop offset="0.924325" stop-color="#E20B18"/>
</radialGradient>
</defs>
</svg>
