<svg width="20" height="20" viewBox="0 0 20 20" fill="none" xmlns="http://www.w3.org/2000/svg">
<path d="M12.9833 9.99896C12.9833 11.649 11.6499 12.9823 9.99993 12.9823C8.34993 12.9823 7.0166 11.649 7.0166 9.99896C7.0166 8.34896 8.34993 7.01562 9.99993 7.01562C11.6499 7.01562 12.9833 8.34896 12.9833 9.99896Z" stroke="white" stroke-width="1.5" stroke-linecap="round" stroke-linejoin="round"/>
<path d="M10.0001 16.8932C12.9418 16.8932 15.6834 15.1599 17.5918 12.1599C18.3418 10.9849 18.3418 9.0099 17.5918 7.8349C15.6834 4.8349 12.9418 3.10156 10.0001 3.10156C7.05845 3.10156 4.31678 4.8349 2.40845 7.8349C1.65845 9.0099 1.65845 10.9849 2.40845 12.1599C4.31678 15.1599 7.05845 16.8932 10.0001 16.8932Z" stroke="white" stroke-width="1.5" stroke-linecap="round" stroke-linejoin="round"/>
</svg>
