<svg width="30" height="26" viewBox="0 0 30 26" fill="none" xmlns="http://www.w3.org/2000/svg">
<path d="M14.9997 25.2935C14.6691 25.2935 14.3327 25.2345 13.9903 25.1164C13.6479 24.9984 13.3469 24.8095 13.0872 24.5497L10.6434 22.3185C8.14065 20.0282 5.87988 17.7556 3.86113 15.5008C1.84238 13.2459 0.833008 10.7609 0.833008 8.04557C0.833008 5.82613 1.57676 3.97266 3.06426 2.48516C4.55176 0.997656 6.40523 0.253906 8.62467 0.253906C9.87606 0.253906 11.0566 0.519531 12.1663 1.05078C13.2761 1.58203 14.2205 2.30807 14.9997 3.22891C15.7788 2.30807 16.7233 1.58203 17.833 1.05078C18.9427 0.519531 20.1233 0.253906 21.3747 0.253906C23.5941 0.253906 25.4476 0.997656 26.9351 2.48516C28.4226 3.97266 29.1663 5.82613 29.1663 8.04557C29.1663 10.7609 28.1629 13.2518 26.1559 15.5185C24.149 17.7852 21.8705 20.0636 19.3205 22.3539L16.9122 24.5497C16.6525 24.8095 16.3514 24.9984 16.0091 25.1164C15.6667 25.2345 15.3302 25.2935 14.9997 25.2935Z" fill="#E20B18"/>
</svg>
