<svg width="20" height="17" viewBox="0 0 20 17" fill="none" xmlns="http://www.w3.org/2000/svg">
<g style="mix-blend-mode:luminosity">
<path d="M17.1623 3.40572H12.0064C11.3348 3.4024 11.253 3.3791 11.1416 3.16948C11.0499 2.99978 10.9778 2.81012 10.8992 2.6138C10.6207 1.89508 10.2702 1 8.92393 1H2.83767C1.82548 1 1 1.83851 1 2.86668V14.1333C1 15.1615 1.82548 16 2.83767 16H17.1623C18.1745 16 19 15.1615 19 14.1333V5.2724C19 4.24423 18.1745 3.40572 17.1623 3.40572ZM2.83767 1.66548H8.92721C9.82803 1.66548 10.0246 2.1646 10.2932 2.86003C10.3751 3.06965 10.457 3.28261 10.5651 3.48891C10.873 4.06788 11.348 4.07121 12.0031 4.07121H17.1591C17.8109 4.07121 18.3416 4.61025 18.3416 5.2724V5.29902H1.65514V2.86668C1.65514 2.20453 2.18581 1.66548 2.83767 1.66548ZM17.1623 15.3345H2.83767C2.18581 15.3345 1.65514 14.7955 1.65514 14.1333V5.96451H18.3449V14.1333C18.3449 14.7955 17.8142 15.3345 17.1623 15.3345Z" fill="white"/>
<path d="M17.1623 3.40572H12.0064C11.3348 3.4024 11.253 3.3791 11.1416 3.16948C11.0499 2.99978 10.9778 2.81012 10.8992 2.6138C10.6207 1.89508 10.2702 1 8.92393 1H2.83767C1.82548 1 1 1.83851 1 2.86668V14.1333C1 15.1615 1.82548 16 2.83767 16H17.1623C18.1745 16 19 15.1615 19 14.1333V5.2724C19 4.24423 18.1745 3.40572 17.1623 3.40572ZM2.83767 1.66548H8.92721C9.82803 1.66548 10.0246 2.1646 10.2932 2.86003C10.3751 3.06965 10.457 3.28261 10.5651 3.48891C10.873 4.06788 11.348 4.07121 12.0031 4.07121H17.1591C17.8109 4.07121 18.3416 4.61025 18.3416 5.2724V5.29902H1.65514V2.86668C1.65514 2.20453 2.18581 1.66548 2.83767 1.66548ZM17.1623 15.3345H2.83767C2.18581 15.3345 1.65514 14.7955 1.65514 14.1333V5.96451H18.3449V14.1333C18.3449 14.7955 17.8142 15.3345 17.1623 15.3345Z" stroke="white"/>
</g>
</svg>
