<svg width="18" height="18" viewBox="0 0 18 18" fill="none" xmlns="http://www.w3.org/2000/svg">
<g clip-path="url(#clip0_17361_3225)">
<path d="M17.7491 4.71135C17.6546 3.92318 16.9118 3.16739 16.1347 3.06614C11.3967 2.4773 6.60398 2.4773 1.86599 3.06614C1.08818 3.16717 0.345406 3.92318 0.250922 4.71135C-0.0836405 7.59998 -0.0836405 10.4008 0.250922 13.2888C0.345406 14.0769 1.08818 14.8334 1.86599 14.934C6.60398 15.5228 11.3967 15.5228 16.1347 14.934C16.9118 14.8336 17.6546 14.0769 17.7491 13.2888C18.0837 10.4011 18.0837 7.59998 17.7491 4.71135ZM7.49989 12.0006V6.00042L12 9.00063L7.49989 12.0006Z" fill="white"/>
</g>
<defs>
<clipPath id="clip0_17361_3225">
<rect width="18" height="18" fill="white"/>
</clipPath>
</defs>
</svg>
