<svg width="74" height="48" viewBox="0 0 74 48" fill="none" xmlns="http://www.w3.org/2000/svg">
<path d="M73.448 30.4714C73.448 30.3541 73.448 30.2368 73.448 30.1194C72.1578 22.9624 68.7561 16.1574 63.2432 10.7604C57.7302 5.24595 50.927 1.84345 43.7718 0.552843C43.6545 0.552843 43.5372 0.552843 43.4199 0.552843C31.9248 -1.44173 19.6086 1.96078 10.8113 10.7604C1.89672 19.6773 -1.5049 31.9967 0.606452 43.6121C0.606452 43.6121 0.606452 43.6121 0.606452 43.7295C1.89672 50.8864 5.29834 57.6914 10.8113 63.2058C18.0837 70.4802 27.4675 74 36.9686 74C46.4697 74 55.9707 70.3628 63.1259 63.2058C72.0405 54.2889 75.4421 41.9695 73.448 30.4714ZM44.0064 2.8994C50.1059 4.19 55.8535 7.00587 60.6626 11.5816L47.1735 25.0743C41.7778 18.9733 40.6048 10.291 44.0064 2.8994ZM62.3048 13.1069C66.8794 17.9173 69.6945 23.6664 70.9848 29.7674C63.5951 33.2873 54.9151 31.9967 48.8156 26.5996L62.3048 13.1069ZM41.7778 2.54741C38.1416 10.643 39.6664 20.0292 45.7659 26.7169L37.0859 35.3992L13.1573 11.5816C19.8432 5.36328 28.4059 2.19543 36.9686 2.19543C38.6108 2.19543 40.1356 2.31276 41.7778 2.54741ZM11.6324 13.1069L35.4437 36.9244L26.5291 45.8413C19.9605 39.8576 10.694 38.3324 2.7178 41.7349C1.07564 31.762 4.12537 21.0852 11.6324 13.1069ZM29.8135 70.9495C23.8313 69.6589 18.0837 66.843 13.2745 62.2672L26.5291 49.0092C31.8075 55.1102 33.0978 63.5578 29.8135 70.9495ZM2.9524 44.0814C10.2248 40.6789 18.6702 41.9695 24.7697 47.4839L11.6324 60.742C7.0578 55.9315 4.24267 50.1825 2.9524 44.0814ZM32.0421 71.3015C35.4437 63.2059 33.9189 53.937 27.9367 47.4839L36.8513 38.567L60.6626 62.3846C52.8037 69.7762 42.1297 72.8267 32.0421 71.3015ZM62.3048 60.742L38.4935 36.9244L47.1735 28.2422C51.3962 32.114 56.7918 34.1086 62.1875 34.1086C65.2372 34.1086 68.287 33.5219 71.2194 32.2313C72.7443 42.2042 69.8118 52.7637 62.3048 60.742Z" fill="white" fill-opacity="0.6"/>
</svg>
