<svg width="32" height="31" viewBox="0 0 32 31" fill="none" xmlns="http://www.w3.org/2000/svg">
<path d="M21.6663 13.5833C19.7066 13.5833 17.8885 13.1111 16.2121 12.1667C14.5357 11.2222 13.2135 9.90001 12.2455 8.20001C12.151 8.03473 12.0861 7.87536 12.0507 7.72189C12.0152 7.56841 11.9975 7.39723 11.9975 7.20834C11.9975 7.01945 12.0152 6.84827 12.0507 6.6948C12.0861 6.54133 12.151 6.38195 12.2455 6.21668C13.1899 4.51668 14.5062 3.19445 16.1944 2.25001C17.8826 1.30557 19.7066 0.833344 21.6663 0.833344C23.626 0.833344 25.4441 1.30557 27.1205 2.25001C28.7968 3.19445 30.1191 4.51668 31.0871 6.21668C31.1816 6.38195 31.2465 6.54133 31.2819 6.6948C31.3173 6.84827 31.335 7.01945 31.335 7.20834C31.335 7.39723 31.3173 7.56841 31.2819 7.72189C31.2465 7.87536 31.1816 8.03473 31.0871 8.20001C30.1427 9.90001 28.8264 11.2222 27.1382 12.1667C25.45 13.1111 23.626 13.5833 21.6663 13.5833ZM21.6663 10.75C22.658 10.75 23.4962 10.4076 24.1809 9.72293C24.8656 9.0382 25.208 8.20001 25.208 7.20834C25.208 6.21668 24.8656 5.37848 24.1809 4.69376C23.4962 4.00904 22.658 3.66668 21.6663 3.66668C20.6746 3.66668 19.8364 4.00904 19.1517 4.69376C18.467 5.37848 18.1246 6.21668 18.1246 7.20834C18.1246 8.20001 18.467 9.0382 19.1517 9.72293C19.8364 10.4076 20.6746 10.75 21.6663 10.75ZM21.6663 9.33334C21.076 9.33334 20.5743 9.12675 20.1611 8.71355C19.7479 8.30036 19.5413 7.79862 19.5413 7.20834C19.5413 6.61807 19.7479 6.11633 20.1611 5.70314C20.5743 5.28994 21.076 5.08334 21.6663 5.08334C22.2566 5.08334 22.7583 5.28994 23.1715 5.70314C23.5847 6.11633 23.7913 6.61807 23.7913 7.20834C23.7913 7.79862 23.5847 8.30036 23.1715 8.71355C22.7583 9.12675 22.2566 9.33334 21.6663 9.33334ZM10.085 30.5833C9.51837 30.5833 8.97532 30.4771 8.45587 30.2646C7.93643 30.0521 7.47601 29.7451 7.07462 29.3438L0.841289 23.075C0.581567 22.8153 0.445803 22.4906 0.433997 22.1011C0.422192 21.7115 0.54615 21.375 0.805872 21.0917L1.01837 20.8792C1.34893 20.5486 1.75032 20.3243 2.22254 20.2063C2.69476 20.0882 3.16698 20.0882 3.63921 20.2063L6.08296 20.9146V9.33334C6.08296 8.93195 6.21872 8.5955 6.49025 8.32397C6.76178 8.05244 7.09823 7.91668 7.49962 7.91668C7.90101 7.91668 8.23747 8.05244 8.509 8.32397C8.78053 8.5955 8.91629 8.93195 8.91629 9.33334V19.25H10.333V15C10.333 14.5986 10.4687 14.2622 10.7402 13.9906C11.0118 13.7191 11.3482 13.5833 11.7496 13.5833C12.151 13.5833 12.4875 13.7191 12.759 13.9906C13.0305 14.2622 13.1663 14.5986 13.1663 15V19.25H14.583V16.4167C14.583 16.0153 14.7187 15.6788 14.9902 15.4073C15.2618 15.1358 15.5982 15 15.9996 15C16.401 15 16.7375 15.1358 17.009 15.4073C17.2805 15.6788 17.4163 16.0153 17.4163 16.4167V19.25H18.833C18.833 18.8486 18.9687 18.5122 19.2402 18.2406C19.5118 17.9691 19.8482 17.8333 20.2496 17.8333C20.651 17.8333 20.9875 17.9691 21.259 18.2406C21.5305 18.5122 21.6663 18.8486 21.6663 19.25V24.9167C21.6663 26.475 21.1114 27.809 20.0017 28.9188C18.892 30.0285 17.558 30.5833 15.9996 30.5833H10.085Z" fill="#E20B18"/>
</svg>
