<svg width="20" height="20" viewBox="0 0 20 20" fill="none" xmlns="http://www.w3.org/2000/svg">
<path d="M7.4974 18.3346H12.4974C16.6641 18.3346 18.3307 16.668 18.3307 12.5013V7.5013C18.3307 3.33464 16.6641 1.66797 12.4974 1.66797H7.4974C3.33073 1.66797 1.66406 3.33464 1.66406 7.5013V12.5013C1.66406 16.668 3.33073 18.3346 7.4974 18.3346Z" stroke="#4F4F4F" stroke-width="1.5" stroke-linecap="round" stroke-linejoin="round"/>
<path d="M10.0026 12.9154C11.6134 12.9154 12.9193 11.6095 12.9193 9.9987C12.9193 8.38787 11.6134 7.08203 10.0026 7.08203C8.39177 7.08203 7.08594 8.38787 7.08594 9.9987C7.08594 11.6095 8.39177 12.9154 10.0026 12.9154Z" stroke="#4F4F4F" stroke-width="1.5" stroke-linecap="round" stroke-linejoin="round"/>
<path d="M14.6942 5.83464H14.7038" stroke="#4F4F4F" stroke-width="2" stroke-linecap="round" stroke-linejoin="round"/>
</svg>
