<svg width="32" height="32" viewBox="0 0 32 32" fill="none" xmlns="http://www.w3.org/2000/svg">
<rect x="0.5" y="0.5" width="31" height="31" rx="15.5" stroke="black"/>
<rect x="0.5" y="0.5" width="31" height="31" rx="15.5" stroke="#FF0000"/>
<path d="M12.2031 10.7508C12.2029 11.1486 12.0447 11.53 11.7633 11.8112C11.4818 12.0924 11.1002 12.2502 10.7024 12.25C10.3046 12.2498 9.9231 12.0916 9.64193 11.8101C9.36077 11.5287 9.20293 11.1471 9.20313 10.7493C9.20332 10.3514 9.36155 9.96997 9.643 9.68881C9.92444 9.40765 10.3061 9.2498 10.7039 9.25C11.1017 9.2502 11.4832 9.40843 11.7643 9.68987C12.0455 9.97132 12.2033 10.3529 12.2031 10.7508ZM12.2481 13.3608H9.24813V22.7507H12.2481V13.3608ZM16.9881 13.3608H14.0031V22.7507H16.9581V17.8233C16.9581 15.0783 20.5356 14.8233 20.5356 17.8233V22.7507H23.4981V16.8033C23.4981 12.1758 18.2031 12.3483 16.9581 14.6208L16.9881 13.3608Z" fill="#F2F2F2"/>
<path d="M12.2031 10.7508C12.2029 11.1486 12.0447 11.53 11.7633 11.8112C11.4818 12.0924 11.1002 12.2502 10.7024 12.25C10.3046 12.2498 9.9231 12.0916 9.64193 11.8101C9.36077 11.5287 9.20293 11.1471 9.20313 10.7493C9.20332 10.3514 9.36155 9.96997 9.643 9.68881C9.92444 9.40765 10.3061 9.2498 10.7039 9.25C11.1017 9.2502 11.4832 9.40843 11.7643 9.68987C12.0455 9.97132 12.2033 10.3529 12.2031 10.7508ZM12.2481 13.3608H9.24813V22.7507H12.2481V13.3608ZM16.9881 13.3608H14.0031V22.7507H16.9581V17.8233C16.9581 15.0783 20.5356 14.8233 20.5356 17.8233V22.7507H23.4981V16.8033C23.4981 12.1758 18.2031 12.3483 16.9581 14.6208L16.9881 13.3608Z" fill="#FF0000"/>
</svg>
