<svg width="21" height="20" viewBox="0 0 21 20" fill="none" xmlns="http://www.w3.org/2000/svg">
<path d="M14.25 18.4583H6.75C5.46162 18.4583 4.86247 18.1098 4.55495 17.7034C4.22362 17.2656 4.125 16.6317 4.125 15.8333V8.5166C4.125 8.48645 4.13728 8.45517 4.16293 8.42953C4.18857 8.40389 4.21985 8.3916 4.25 8.3916C4.28015 8.3916 4.31143 8.40389 4.33707 8.42953C4.36272 8.45517 4.375 8.48645 4.375 8.5166V15.8333C4.375 16.2035 4.39032 16.5423 4.44919 16.8362C4.50905 17.135 4.62018 17.4204 4.83588 17.6538C5.26322 18.1164 5.94443 18.2083 6.75 18.2083H14.25C15.0556 18.2083 15.7368 18.1164 16.1641 17.6538C16.3798 17.4204 16.491 17.135 16.5508 16.8362C16.6097 16.5423 16.625 16.2035 16.625 15.8333V8.5166C16.625 8.48645 16.6373 8.45517 16.6629 8.42953C16.6886 8.40389 16.7199 8.3916 16.75 8.3916C16.7801 8.3916 16.8114 8.40389 16.8371 8.42953C16.8627 8.45517 16.875 8.48645 16.875 8.5166V15.8333C16.875 16.6317 16.7764 17.2656 16.445 17.7034C16.1375 18.1098 15.5384 18.4583 14.25 18.4583Z" fill="white" stroke="white"/>
<path d="M16.3334 8.45841H4.66675C3.74749 8.45841 3.1101 8.20716 2.70155 7.79861C2.293 7.39006 2.04175 6.75267 2.04175 5.83341V4.16675C2.04175 3.24749 2.293 2.6101 2.70155 2.20155C3.1101 1.793 3.74749 1.54175 4.66675 1.54175H16.3334C17.2527 1.54175 17.8901 1.793 18.2986 2.20155C18.7072 2.6101 18.9584 3.24749 18.9584 4.16675V5.83341C18.9584 6.75267 18.7072 7.39006 18.2986 7.79861C17.8901 8.20716 17.2527 8.45841 16.3334 8.45841ZM4.66675 1.79175C3.95195 1.79175 3.32265 1.94124 2.88194 2.38194C2.44124 2.82265 2.29175 3.45195 2.29175 4.16675V5.83341C2.29175 6.54821 2.44124 7.17751 2.88194 7.61822C3.32265 8.05893 3.95195 8.20841 4.66675 8.20841H16.3334C17.0482 8.20841 17.6775 8.05893 18.1182 7.61822C18.5589 7.17751 18.7084 6.54821 18.7084 5.83341V4.16675C18.7084 3.45195 18.5589 2.82265 18.1182 2.38194C17.6775 1.94124 17.0482 1.79175 16.3334 1.79175H4.66675Z" fill="white" stroke="white"/>
<path d="M12.0167 11.7917H8.9834C8.95325 11.7917 8.92197 11.7795 8.89633 11.7538C8.87068 11.7282 8.8584 11.6969 8.8584 11.6667C8.8584 11.6366 8.87068 11.6053 8.89633 11.5797C8.92197 11.554 8.95325 11.5417 8.9834 11.5417H12.0167C12.0469 11.5417 12.0782 11.554 12.1038 11.5797C12.1294 11.6053 12.1417 11.6366 12.1417 11.6667C12.1417 11.6969 12.1294 11.7282 12.1038 11.7538C12.0782 11.7795 12.0469 11.7917 12.0167 11.7917Z" fill="#292D32" stroke="white"/>
</svg>
