<svg width="18" height="18" viewBox="0 0 18 18" fill="none" xmlns="http://www.w3.org/2000/svg">
<path d="M6.25615 5.4867L6.25615 5.4867C6.41191 4.8325 6.59482 4.29417 6.80939 3.84845C7.10471 3.23296 7.4916 2.74368 8.01186 2.41303C8.53269 2.08201 9.14383 1.93751 9.84005 1.93751C10.3694 1.93751 10.9643 2.01982 11.613 2.17601C11.6135 2.17615 11.6141 2.17628 11.6147 2.17642L12.863 2.46794C12.8632 2.46798 12.8633 2.46801 12.8635 2.46804C14.3583 2.81485 15.4084 3.35165 15.9653 4.25198C16.5221 5.15216 16.5308 6.33098 16.1845 7.81605L16.1844 7.81664L15.4496 10.9507C15.4495 10.9508 15.4495 10.951 15.4495 10.9511C15.1566 12.211 14.7299 13.173 14.0309 13.7815C13.3113 14.4079 12.3917 14.5864 11.2937 14.4779C11.2927 14.4778 11.2917 14.4777 11.2907 14.4776L11.3401 13.98C10.9951 13.95 10.6126 13.89 10.2076 13.7925L6.25615 5.4867ZM6.25615 5.4867L6.25569 5.48864L5.52086 8.63042C5.52083 8.63054 5.5208 8.63066 5.52078 8.63079C5.17903 10.0824 5.16666 11.2693 5.73922 12.1923C6.31139 13.1147 7.38089 13.6335 8.83174 13.9789L10.0905 14.2786C10.0908 14.2787 10.0911 14.2788 10.0913 14.2788L6.25615 5.4867ZM11.294 14.6077L11.294 14.6075L11.2809 14.6065C10.9235 14.579 10.5085 14.5093 10.072 14.402L10.0684 14.4011L8.80836 14.1011L8.8076 14.1009C7.135 13.7055 6.14025 13.0904 5.62725 12.2626C5.11439 11.4349 5.00758 10.2728 5.39932 8.60429L5.39941 8.60388L6.13442 5.46138L6.13466 5.46032C6.2939 4.77272 6.47765 4.23535 6.69477 3.80112L6.6948 3.80114L6.69752 3.79552C7.27476 2.60412 8.08686 2.09624 8.9377 1.90752C9.82153 1.71149 10.7862 1.85224 11.6456 2.05425L11.6463 2.05441L12.8982 2.34675C12.8983 2.34677 12.8984 2.3468 12.8985 2.34683C14.5926 2.74506 15.5525 3.34943 16.0751 4.18602C16.591 5.02349 16.7111 6.15082 16.3133 7.84311L16.3133 7.84338L15.5783 10.9781C15.5783 10.9782 15.5783 10.9783 15.5783 10.9784C15.2676 12.3002 14.8033 13.2074 14.2053 13.7828C13.6202 14.3458 12.8616 14.635 11.8576 14.635C11.6757 14.635 11.4908 14.628 11.294 14.6077Z" fill="white" stroke="white"/>
<path d="M2.77819 12.9409L2.77832 12.9413C3.15809 14.1168 3.62699 14.9245 4.18555 15.4369C4.73026 15.9366 5.3948 16.1875 6.24754 16.1875C6.85599 16.1875 7.55275 16.0658 8.38225 15.8064L9.56373 15.4176L9.56601 15.4168C10.1716 15.2207 10.6598 15.0113 11.0574 14.7813L9.65315 15.2494C9.638 15.2544 9.62347 15.2597 9.60216 15.2674L9.6003 15.2681C9.58057 15.2753 9.55458 15.2847 9.52565 15.2944L9.52385 15.295L8.33885 15.6849L8.33585 15.6859L8.33584 15.6859C6.9634 16.128 5.81439 16.2343 4.8732 15.7526C3.93217 15.2711 3.34539 14.2767 2.89951 12.9045L2.89939 12.9041L1.93939 9.94164L1.939 9.94043C1.49727 8.56532 1.38891 7.41462 1.86824 6.47342C2.34801 5.53134 3.34131 4.94644 4.71349 4.50433C4.71374 4.50425 4.71398 4.50417 4.71423 4.50409L5.68025 4.18957L6.61039 3.88673L6.31105 4.81801C6.2497 5.0089 6.1936 5.22528 6.14349 5.45436L6.14195 5.46139L6.1419 5.46138L5.4069 8.60388L5.4068 8.60429C5.01506 10.2728 5.12187 11.4349 5.63474 12.2626C6.14771 13.0904 7.14237 13.7054 8.81481 14.1009C8.81491 14.1009 8.815 14.1009 8.81509 14.1009L9.60981 14.2884L11.237 14.6721C11.2733 14.6489 11.3087 14.6255 11.3434 14.6019L11.625 15.015M2.77819 12.9409L10.215 13.8C10.62 13.8975 11.0025 13.9575 11.3475 13.9875L11.3009 14.4853C11.3012 14.4854 11.3015 14.4854 11.3018 14.4854C11.3193 14.4872 11.3322 14.4935 11.3422 14.5019C11.3514 14.5096 11.3608 14.5215 11.3674 14.5393C11.3696 14.5526 11.368 14.5641 11.3645 14.5736C11.3603 14.5848 11.3527 14.5954 11.3404 14.6039L11.625 15.015M2.77819 12.9409L1.81837 9.97894C1.81834 9.97883 1.8183 9.97872 1.81826 9.97861C1.30343 8.38318 1.31469 7.24846 1.74292 6.40912C2.17104 5.57001 3.08131 4.89799 4.66896 4.38322C4.66906 4.3832 4.66915 4.38317 4.66924 4.38314L5.85035 4.00189C6.23842 3.88253 6.50265 3.80921 6.72952 3.77032L6.73796 3.76887L6.74634 3.76714C6.76311 3.76367 6.77278 3.76608 6.77772 3.76797C6.7829 3.76995 6.79016 3.77416 6.79795 3.7847C6.81567 3.80868 6.81979 3.83812 6.8074 3.86744C6.59283 4.30676 6.41052 4.84515 6.26277 5.4979L5.52835 8.63792C5.5283 8.63813 5.52825 8.63834 5.5282 8.63856C5.52819 8.63858 5.52818 8.63861 5.52818 8.63864C5.18651 10.0901 5.17419 11.2769 5.74671 12.1998C6.31887 13.1222 7.38838 13.641 8.83923 13.9864L10.098 14.2861C10.0983 14.2862 10.0986 14.2863 10.0989 14.2863L2.77819 12.9409ZM11.625 15.015C11.82 14.88 11.91 14.64 11.85 14.4075L2.30254 13.095C3.09004 15.5325 4.32004 16.6875 6.24754 16.6875C6.92254 16.6875 7.67254 16.5525 8.53504 16.2825L9.72004 15.8925C10.5075 15.6375 11.13 15.3525 11.625 15.015Z" fill="white" stroke="white"/>
<path d="M9.46044 6.4603L9.46044 6.4603L9.4588 6.45988C9.43281 6.45339 9.40803 6.42198 9.4176 6.38372C9.42407 6.35784 9.45526 6.33315 9.49332 6.34242C9.49347 6.34245 9.49361 6.34249 9.49376 6.34253L13.1296 7.26461L13.1313 7.26503C13.1572 7.27152 13.182 7.30292 13.1724 7.34118L13.1716 7.34465C13.1705 7.34903 13.1666 7.35853 13.1535 7.36853C13.1406 7.37845 13.1274 7.38202 13.1191 7.38242C13.1175 7.38229 13.1142 7.38199 13.1087 7.38133L13.0838 7.37799L13.0725 7.37635L9.46044 6.4603Z" fill="white" stroke="white"/>
<path d="M10.9201 10.4175C10.8751 10.4175 10.8301 10.41 10.7776 10.4025L8.5951 9.84754C8.2951 9.77254 8.1151 9.46504 8.1901 9.16504C8.2651 8.86504 8.5726 8.68504 8.8726 8.76004L11.0551 9.31504C11.3551 9.39004 11.5351 9.69754 11.4601 9.99754C11.4001 10.2525 11.1751 10.4175 10.9201 10.4175Z" fill="white"/>
</svg>
