<svg width="30" height="31" viewBox="0 0 30 31" fill="none" xmlns="http://www.w3.org/2000/svg">
<path d="M21.8062 17.1314L13.3687 8.69385C11.9625 7.23135 9.65624 7.23135 8.19374 8.6376C6.73124 10.0439 6.73124 12.4064 8.19374 13.8126L8.24999 13.8689L9.82499 15.5001L10.6125 14.7126L8.98124 13.0814C8.02499 12.1251 8.02499 10.4939 8.98124 9.5376C9.93749 8.58135 11.5687 8.5251 12.525 9.48135C12.525 9.48135 12.525 9.48135 12.5812 9.5376L20.9625 17.9189C21.975 18.8751 21.975 20.5064 21.0187 21.4626C20.0625 22.4751 18.4312 22.4751 17.475 21.5189C17.475 21.5189 17.475 21.5189 17.4187 21.4626L13.2562 17.3001C12.6937 16.7376 12.75 15.8376 13.2562 15.3314C13.8187 14.8251 14.6625 14.8251 15.225 15.3314L17.5312 17.6376L18.3187 16.8501L15.9562 14.4876C14.9437 13.5314 13.3687 13.5876 12.4125 14.6001C11.5125 15.5564 11.5125 17.0751 12.4125 18.0876L16.6312 22.3064C18.0375 23.7689 20.3437 23.7689 21.8062 22.3626C23.2687 20.9564 23.2687 18.5939 21.8062 17.1314C21.8062 17.1876 21.8062 17.1314 21.8062 17.1314Z" fill="#121F24"/>
</svg>
