<svg width="19" height="18" viewBox="0 0 19 18" fill="none" xmlns="http://www.w3.org/2000/svg">
<path d="M16.2425 5.85613V5.8575V12.1425C16.2425 13.4081 15.8672 14.3582 15.2339 14.9914C14.6007 15.6247 13.6506 16 12.385 16H6.1075C4.84195 16 3.89196 15.6247 3.25877 14.9907C2.62552 14.3567 2.25 13.4047 2.25 12.135V5.8575C2.25 4.59194 2.6253 3.6418 3.25855 3.00855C3.8918 2.3753 4.84194 2 6.1075 2H12.3925C13.6582 2 14.6081 2.37535 15.2403 3.00833C15.8724 3.64121 16.246 4.59088 16.2425 5.85613ZM14.1515 5.35231L13.69 5.16L14.1515 5.35231C14.2103 5.21116 14.25 5.04835 14.25 4.875C14.25 4.70422 14.2115 4.54366 14.1541 4.40398C14.0888 4.2368 13.9981 4.11237 13.9041 4.00802L13.8768 3.97762L13.8448 3.95206C13.8428 3.95045 13.839 3.94731 13.8309 3.94032L13.8001 3.91372C13.7795 3.89619 13.7395 3.86259 13.6891 3.83103C13.624 3.78838 13.5533 3.75123 13.4771 3.72268C13.4023 3.68836 13.3217 3.66248 13.232 3.6479C12.8234 3.56496 12.3974 3.70547 12.1139 3.98895L12.1046 3.99824L12.0959 4.00802C12.0019 4.11237 11.9112 4.2368 11.8459 4.40398C11.7885 4.54366 11.75 4.70422 11.75 4.875C11.75 5.04835 11.7897 5.21116 11.8485 5.35231L12.31 5.16L11.8485 5.35231C11.9084 5.49625 11.9919 5.62649 12.0959 5.74198L12.1046 5.75176L12.1139 5.76105C12.3537 6.00077 12.6699 6.125 13 6.125C13.1734 6.125 13.3362 6.08535 13.4773 6.02654C13.6212 5.96656 13.7515 5.88309 13.867 5.77915L13.8865 5.76154L13.9041 5.74198C14.0081 5.62649 14.0916 5.49625 14.1515 5.35231ZM5.84 9C5.84 10.8811 7.36886 12.41 9.25 12.41C11.1311 12.41 12.66 10.8811 12.66 9C12.66 7.11886 11.1311 5.59 9.25 5.59C7.36886 5.59 5.84 7.11886 5.84 9Z" fill="#4F4F4F" stroke="#4F4F4F"/>
</svg>
