<svg width="280" height="206" viewBox="0 0 280 206" fill="none" xmlns="http://www.w3.org/2000/svg">
<path d="M62.2344 56.8489L10.0625 91.7485L61.4515 168.571L113.623 133.671L62.2344 56.8489Z" fill="#F5F5F5"/>
<path d="M86.6603 130.037L86.0698 133.701L60.1328 129.963L60.7233 126.299L86.6603 130.037Z" fill="#E0E0E0"/>
<path d="M73.6056 116.967L77.3255 117.502L73.2011 143.039L69.4766 142.5L73.6056 116.967Z" fill="#E0E0E0"/>
<path d="M49.7445 84.5119C49.7817 84.563 44.5552 88.1295 38.0687 92.4632C31.5821 96.7968 26.2952 100.275 26.258 100.219C26.2208 100.163 31.4473 96.6015 37.9338 92.2632C44.4204 87.9249 49.684 84.4561 49.7445 84.5119Z" fill="#E0E0E0"/>
<path d="M68.9049 79.6947C68.9421 79.7505 60.2469 85.628 49.4871 92.826C38.7273 100.024 29.9577 105.813 29.9298 105.762C29.9019 105.711 38.5785 99.824 49.3522 92.626C60.126 85.428 68.8677 79.6389 68.9049 79.6947Z" fill="#E0E0E0"/>
<path d="M72.7487 85.4413C72.7859 85.4971 64.0906 91.3792 53.3308 98.5772C42.571 105.775 33.8014 111.564 33.7735 111.508C33.7456 111.453 42.4316 105.575 53.196 98.3726C63.9604 91.17 72.7115 85.3855 72.7487 85.4413Z" fill="#E0E0E0"/>
<path d="M76.5957 91.1928C76.6329 91.2486 67.9377 97.1307 57.1779 104.324C46.4181 111.517 37.6484 117.316 37.6484 117.26C37.6484 117.204 46.3018 111.322 57.0663 104.124C67.8307 96.9261 76.5585 91.137 76.5957 91.1928Z" fill="#E0E0E0"/>
<path d="M80.4315 96.9452C80.4687 97.001 71.7735 102.878 61.0137 110.076C50.2539 117.274 41.4842 123.064 41.461 123.008C41.4377 122.952 50.1283 117.074 60.9021 109.876C71.6758 102.679 80.4315 96.8894 80.4315 96.9452Z" fill="#E0E0E0"/>
<path d="M236.691 108.327L192.875 137.637L236.032 202.153L279.848 172.843L236.691 108.327Z" fill="#F5F5F5"/>
<path d="M257.22 169.803L256.722 172.881L234.938 169.742L235.44 166.664L257.22 169.803Z" fill="#E0E0E0"/>
<path d="M246.227 158.825L249.351 159.276L245.887 180.721L242.758 180.27L246.227 158.825Z" fill="#E0E0E0"/>
<path d="M226.183 131.591C226.22 131.647 221.835 134.646 216.385 138.287C210.936 141.928 206.491 144.839 206.453 144.797C206.416 144.755 210.806 141.747 216.251 138.101C221.696 134.456 226.146 131.512 226.183 131.591Z" fill="#E0E0E0"/>
<path d="M242.293 127.523C242.33 127.579 235.035 132.527 226.019 138.567C217.003 144.607 209.623 149.471 209.586 149.415C209.549 149.359 216.845 144.412 225.861 138.367C234.877 132.322 242.242 127.468 242.293 127.523Z" fill="#E0E0E0"/>
<path d="M245.52 132.349C245.557 132.404 238.261 137.352 229.245 143.397C220.229 149.441 212.85 154.296 212.813 154.24C212.775 154.184 220.048 149.26 229.087 143.215C238.127 137.17 245.492 132.297 245.52 132.349Z" fill="#E0E0E0"/>
<path d="M248.746 137.171C248.784 137.227 241.483 142.174 232.472 148.219C223.46 154.264 216.076 159.118 216.039 159.062C216.002 159.007 223.298 154.064 232.314 148.014C241.33 141.965 248.714 137.124 248.746 137.171Z" fill="#E0E0E0"/>
<path d="M252.004 142.012C252.041 142.068 244.746 147.01 235.73 153.055C226.714 159.1 219.334 163.954 219.297 163.903C219.26 163.852 226.555 158.9 235.572 152.855C244.588 146.81 251.944 141.956 252.004 142.012Z" fill="#E0E0E0"/>
<path d="M167.379 59.6759L119.57 34.1055L81.9186 104.503L129.727 130.073L167.379 59.6759Z" fill="#F5F5F5"/>
<path d="M121.529 108.049L118.497 109.086L110.797 87.8033L113.833 86.7617L121.529 108.049Z" fill="#E0E0E0"/>
<path d="M126.185 92.7783L127.292 95.8333L106.154 103.073L105.047 100.018L126.185 92.7783Z" fill="#E0E0E0"/>
<path d="M141.204 61.3775C141.167 61.4473 136.322 58.927 130.375 55.7512C124.427 52.5753 119.643 49.9388 119.68 49.8691C119.717 49.7993 124.567 52.3196 130.514 55.4954C136.461 58.6713 141.241 61.3031 141.204 61.3775Z" fill="#E0E0E0"/>
<path d="M152.688 74.0395C152.65 74.1093 144.625 69.8872 134.762 64.6142C124.9 59.3413 116.939 55.0076 116.977 54.9379C117.014 54.8681 125.035 59.0855 134.897 64.3631C144.76 69.6407 152.725 73.9698 152.688 74.0395Z" fill="#E0E0E0"/>
<path d="M149.86 79.309C149.822 79.3788 141.797 75.1614 131.934 69.8838C122.072 64.6062 114.111 60.2771 114.149 60.2074C114.186 60.1376 122.207 64.3597 132.069 69.6327C141.932 74.9056 149.897 79.2393 149.86 79.309Z" fill="#E0E0E0"/>
<path d="M147.047 84.5767C147.01 84.6465 138.984 80.4291 129.122 75.1561C119.259 69.8832 111.299 65.5634 111.336 65.4797C111.373 65.396 119.394 69.6274 129.257 74.9004C139.119 80.1733 147.084 84.507 147.047 84.5767Z" fill="#E0E0E0"/>
<path d="M144.227 89.8449C144.19 89.9147 136.164 85.6972 126.302 80.4243C116.439 75.1514 108.474 70.8177 108.516 70.7479C108.558 70.6782 116.574 74.8956 126.436 80.1686C136.299 85.4415 144.264 89.7752 144.227 89.8449Z" fill="#E0E0E0"/>
<path opacity="0.2" d="M144.473 0H143.273V20.4501H144.473V0Z" fill="black"/>
<path d="M115.859 45.1906H171.872C171.872 45.1906 166.701 20.458 143.442 20.458C122.755 20.458 115.859 45.1906 115.859 45.1906Z" fill="#E20B18"/>
<path d="M144.465 0H143.266V20.4501H144.465V0Z" fill="#E20B18"/>
<path d="M268.604 204.516C268.604 204.581 208.504 204.637 134.381 204.637C60.2572 204.637 0.148438 204.595 0.148438 204.516C0.148438 204.437 60.2386 204.395 134.381 204.395C208.523 204.395 268.604 204.446 268.604 204.516Z" fill="#263238"/>
<path d="M15.0117 175.393C15.7979 175.45 16.5645 175.664 17.266 176.024C17.9674 176.383 18.5892 176.88 19.0943 177.485C20.0986 178.703 20.8097 180.134 21.1728 181.67C21.9586 184.609 21.475 188.082 20.6381 191.007C17.4575 189.868 15.4907 186.473 14.5932 184.688C13.1983 181.87 12.3659 175.918 14.9978 175.388" fill="#FF725E"/>
<path d="M25.2188 194.573C24.7412 193.832 24.4681 192.978 24.4272 192.098C24.3864 191.217 24.5793 190.342 24.9863 189.56C25.406 188.786 25.9758 188.103 26.6624 187.551C27.349 187 28.1386 186.59 28.9852 186.347C29.7617 186.105 30.6638 186.008 31.338 186.459C31.6419 186.689 31.8786 186.996 32.0234 187.348C32.1682 187.701 32.2157 188.086 32.161 188.463C32.039 189.218 31.718 189.928 31.231 190.518C29.6826 192.615 27.8041 194.359 25.1862 194.573" fill="#FF725E"/>
<path d="M25.5785 204.398C25.5095 204.201 25.4612 203.997 25.4343 203.789C25.3506 203.352 25.239 202.789 25.1042 202.115C24.6868 200.269 24.5706 198.367 24.7601 196.484C24.9794 194.592 25.7001 192.792 26.8479 191.272C27.1986 190.817 27.603 190.406 28.0522 190.049C28.1743 189.952 28.3016 189.862 28.4335 189.779C28.4755 189.744 28.5225 189.716 28.573 189.695C27.9848 190.198 27.4475 190.757 26.9688 191.365C25.8815 192.887 25.1969 194.659 24.9787 196.517C24.6811 198.684 25.0484 200.669 25.2623 202.097C25.3739 202.808 25.4669 203.385 25.518 203.784C25.5547 203.987 25.5749 204.192 25.5785 204.398Z" fill="#263238"/>
<path d="M16.0234 179.872C16.0765 179.945 16.1203 180.025 16.1536 180.109C16.2373 180.295 16.3489 180.528 16.4791 180.821C16.7628 181.439 17.158 182.336 17.6369 183.448C18.5948 185.675 19.8782 188.772 21.2173 192.222C22.5565 195.672 23.6957 198.82 24.4722 201.113C24.8721 202.257 25.1837 203.186 25.4022 203.833C25.4999 204.14 25.5743 204.386 25.6347 204.577C25.6679 204.662 25.6913 204.751 25.7045 204.842C25.6573 204.763 25.6198 204.679 25.5929 204.591C25.5231 204.405 25.4348 204.163 25.3185 203.861L24.3374 201.164C23.5051 198.89 22.3426 195.747 21.0081 192.301C19.6736 188.856 18.4088 185.75 17.4881 183.508C17.0232 182.406 16.6651 181.509 16.4001 180.853C16.2792 180.556 16.1815 180.318 16.1071 180.128C16.0722 180.045 16.0442 179.959 16.0234 179.872Z" fill="#263238"/>
<path d="M21.7919 197.898C20.8351 196.305 19.5129 194.963 17.9347 193.982C16.3564 193.001 14.5673 192.41 12.7154 192.258C11.7854 192.193 10.6415 192.351 10.223 193.188C9.80456 194.025 10.3625 195.048 11.0042 195.726C12.3676 197.153 14.1227 198.143 16.0482 198.574C17.9738 199.004 19.9837 198.855 21.8245 198.144" fill="#FF725E"/>
<path d="M14.1485 194.778C14.3456 194.768 14.5432 194.776 14.739 194.801C14.9682 194.814 15.1965 194.84 15.4225 194.88C15.6876 194.931 15.9991 194.959 16.3246 195.052C16.6884 195.129 17.0471 195.229 17.3987 195.35C17.806 195.481 18.2051 195.636 18.5937 195.815C19.4876 196.215 20.3331 196.716 21.114 197.308C21.8857 197.913 22.5848 198.606 23.1971 199.372C23.4615 199.706 23.7053 200.055 23.9271 200.418C24.1276 200.732 24.3108 201.056 24.4758 201.39C24.6155 201.662 24.7397 201.941 24.8478 202.227C24.941 202.439 25.0202 202.656 25.0849 202.878C25.1538 203.064 25.2052 203.255 25.2384 203.45C25.1872 203.45 24.964 202.65 24.3363 201.46C24.1654 201.14 23.9776 200.83 23.7737 200.53C23.5471 200.178 23.3018 199.838 23.039 199.512C21.8228 198.009 20.2718 196.811 18.51 196.015C18.1055 195.838 17.7196 195.671 17.3429 195.55C16.9971 195.424 16.6448 195.317 16.2874 195.229C14.9854 194.871 14.1438 194.829 14.1485 194.778Z" fill="#263238"/>
<path d="M225.224 49.0482C223.857 49.3598 223.192 50.9361 223.062 52.331C222.932 53.726 223.108 55.2046 222.523 56.4787C221.862 57.9109 220.286 58.971 220.235 60.5473C220.202 61.5099 220.774 62.4073 220.746 63.3791C220.7 64.9601 219.091 66.169 219.003 67.7314C218.942 68.8706 219.7 69.9587 219.519 71.0839C219.379 71.9581 218.696 72.6463 218.407 73.4833C217.836 75.1572 218.984 76.9939 220.477 77.9332C221.313 78.4589 222.254 78.7957 223.234 78.9201C224.214 79.0444 225.209 78.9533 226.15 78.653C227.091 78.3528 227.955 77.8507 228.682 77.1818C229.408 76.513 229.98 75.6935 230.358 74.7806C231.185 72.7718 231.004 70.5073 230.823 68.3452C230.265 61.5998 229.849 54.8451 229.576 48.0811" fill="#263238"/>
<path d="M221.258 72.8461C221.539 72.6713 221.759 72.4127 221.886 72.1068C222.02 71.7429 222.074 71.3542 222.044 70.9675C221.993 70.4549 221.879 69.9504 221.704 69.4656C221.482 68.8563 221.399 68.2048 221.462 67.5592C221.579 66.8338 222.099 66.2386 222.569 65.6528C222.822 65.366 223.033 65.0451 223.197 64.6995C223.361 64.35 223.387 63.9517 223.271 63.5836C223.029 62.8256 222.285 62.2677 221.946 61.3888C221.786 60.9538 221.761 60.481 221.872 60.0311C221.977 59.6093 222.133 59.2017 222.337 58.8175C222.729 58.1253 223.041 57.3905 223.267 56.6274C223.592 55.1534 223.439 53.7444 223.662 52.5866C223.786 51.6593 224.197 50.7942 224.838 50.1129C225.02 49.9294 225.226 49.7728 225.452 49.6479C225.53 49.6074 225.613 49.5777 225.698 49.5596C225.407 49.72 225.139 49.9203 224.903 50.1548C224.309 50.8428 223.935 51.6931 223.829 52.5959C223.748 53.2127 223.704 53.8338 223.699 54.4559C223.698 55.188 223.626 55.9182 223.485 56.6367C223.263 57.4173 222.951 58.1695 222.555 58.8779C222.206 59.6079 221.886 60.4635 222.192 61.2633C222.499 62.0631 223.239 62.6164 223.522 63.472C223.65 63.8946 223.619 64.3496 223.434 64.7507C223.253 65.131 223.018 65.4834 222.736 65.7969C222.271 66.3828 221.765 66.9408 221.653 67.5917C221.588 68.2092 221.661 68.8334 221.867 69.4191C222.033 69.919 222.136 70.4376 222.174 70.9629C222.197 71.3675 222.125 71.7719 221.965 72.144C221.865 72.3772 221.704 72.5795 221.5 72.7299C221.427 72.7831 221.345 72.8225 221.258 72.8461Z" fill="#455A64"/>
<path d="M217.615 83.8706L213.43 95.9603L195.928 96.8902L193.008 103.4L211.282 105.26C212.145 105.614 213.071 105.79 214.005 105.777C214.938 105.763 215.859 105.56 216.711 105.181C217.564 104.802 218.331 104.253 218.966 103.569C219.601 102.885 220.09 102.079 220.405 101.201L225.283 87.5858L217.615 83.8706Z" fill="#B78876"/>
<path d="M253.802 197.945C253.802 197.945 240.978 157.203 240.704 155.883C240.457 154.683 245.354 125.366 245.977 117.754L228.647 118.4V118.572L221.281 118.981L227.875 202.27H235.849L235.059 174.626C239.978 187.827 247.028 201.284 247.028 201.284L253.802 197.945Z" fill="#B78876"/>
<path d="M235.389 184.545C235.389 184.294 235.291 175.282 235.291 175.282C235.193 175.822 232.236 167.461 232.306 166.955C232.343 166.69 235.389 184.545 235.389 184.545Z" fill="#A36957"/>
<path d="M231.961 162.993C231.92 163.158 231.903 163.329 231.91 163.5C231.884 163.964 231.884 164.43 231.91 164.894C231.91 165.187 231.952 165.504 231.989 165.848C232.026 166.192 232.077 166.554 232.156 166.931C232.322 167.754 232.541 168.564 232.812 169.358C233.389 171.046 234.03 172.52 234.481 173.59C234.695 174.055 234.881 174.496 235.039 174.85C235.096 175.014 235.174 175.171 235.272 175.315C235.247 175.154 235.2 174.998 235.132 174.85C235.025 174.543 234.863 174.101 234.667 173.557C234.258 172.469 233.644 170.981 233.072 169.312C232.802 168.53 232.58 167.731 232.407 166.922C232.324 166.55 232.268 166.192 232.217 165.857C232.166 165.522 232.128 165.206 232.105 164.927C232.049 164.35 232.026 163.885 232.012 163.56C232.021 163.369 232.004 163.179 231.961 162.993Z" fill="#A36957"/>
<path d="M227.712 202.693V201.944L235.881 201.586L235.905 204.679L235.402 204.711C233.157 204.841 223.987 205.223 222.49 204.772C220.811 204.269 227.712 202.693 227.712 202.693Z" fill="#455A64"/>
<path d="M236.018 204.493C235.972 204.496 235.925 204.496 235.879 204.493L235.479 204.521L234 204.586C232.754 204.637 231.029 204.684 229.127 204.693C227.225 204.702 225.495 204.67 224.245 204.633L222.771 204.572H222.366H222.227C222.273 204.568 222.32 204.568 222.366 204.572H222.771L224.249 204.6C225.495 204.6 227.221 204.637 229.122 204.628C231.024 204.619 232.754 204.586 234 204.554L235.479 204.516H236.018V204.493Z" fill="#263238"/>
<path d="M225.051 204.754C224.984 204.51 224.89 204.275 224.772 204.051C224.625 203.845 224.455 203.657 224.266 203.489C224.519 203.579 224.73 203.762 224.856 204C225.01 204.22 225.079 204.487 225.051 204.754Z" fill="#263238"/>
<path d="M227.455 203.53C227.455 203.53 227.321 203.405 227.2 203.219C227.079 203.033 227.004 202.87 227.028 202.856C227.051 202.842 227.163 202.977 227.283 203.163C227.404 203.349 227.479 203.516 227.455 203.53Z" fill="#263238"/>
<path d="M228.115 203.202C228.115 203.225 227.966 203.137 227.827 203.011C227.687 202.885 227.585 202.769 227.604 202.751C227.622 202.732 227.753 202.816 227.892 202.941C228.032 203.067 228.134 203.16 228.115 203.202Z" fill="#263238"/>
<path d="M228.538 202.41C228.402 202.46 228.256 202.479 228.111 202.466C227.968 202.485 227.823 202.471 227.688 202.424C227.823 202.374 227.967 202.355 228.111 202.368C228.255 202.349 228.401 202.363 228.538 202.41Z" fill="#263238"/>
<path d="M228.688 201.869C228.549 201.959 228.388 202.008 228.223 202.009C228.065 202.03 227.904 202.007 227.758 201.944C227.911 201.918 228.067 201.906 228.223 201.907C228.376 201.879 228.532 201.867 228.688 201.869Z" fill="#263238"/>
<path d="M227.191 202.819C227.017 202.852 226.839 202.852 226.665 202.819C226.478 202.797 226.292 202.756 226.112 202.699C226 202.668 225.893 202.624 225.791 202.568C225.729 202.532 225.683 202.474 225.661 202.406C225.652 202.367 225.655 202.326 225.669 202.289C225.683 202.252 225.708 202.22 225.74 202.196C225.869 202.134 226.01 202.101 226.153 202.1C226.296 202.098 226.438 202.129 226.568 202.189C226.697 202.249 226.812 202.337 226.904 202.447C226.996 202.557 227.062 202.686 227.098 202.824C227.107 202.87 227.107 202.918 227.098 202.964C227.045 202.796 226.963 202.638 226.856 202.499C226.732 202.359 226.571 202.259 226.391 202.21C226.185 202.144 225.962 202.16 225.768 202.257C225.689 202.317 225.722 202.415 225.81 202.471C225.905 202.522 226.004 202.564 226.107 202.596C226.282 202.654 226.461 202.699 226.642 202.731C226.991 202.805 227.191 202.805 227.191 202.819Z" fill="#263238"/>
<path d="M227.052 202.847C226.984 202.739 226.961 202.609 226.987 202.484C227.004 202.347 227.053 202.217 227.131 202.103C227.175 202.025 227.237 201.96 227.313 201.912C227.388 201.865 227.475 201.838 227.564 201.833C227.616 201.845 227.662 201.877 227.692 201.922C227.723 201.967 227.735 202.021 227.726 202.075C227.715 202.158 227.685 202.237 227.638 202.307C227.567 202.423 227.485 202.53 227.391 202.628C227.311 202.721 227.209 202.793 227.094 202.837C227.094 202.837 227.196 202.744 227.34 202.577C227.424 202.481 227.497 202.377 227.559 202.265C227.629 202.154 227.68 201.954 227.559 201.931C227.438 201.907 227.298 202.052 227.219 202.154C227.145 202.255 227.095 202.371 227.071 202.493C227.052 202.61 227.045 202.729 227.052 202.847Z" fill="#263238"/>
<path d="M235.843 202.27C235.843 202.27 235.61 202.27 235.243 202.293C234.765 202.351 234.312 202.541 233.936 202.843C233.561 203.144 233.277 203.545 233.118 204C232.997 204.349 232.988 204.586 232.969 204.581C232.951 204.576 232.969 204.521 232.969 204.418C232.981 204.269 233.009 204.12 233.053 203.977C233.201 203.501 233.485 203.079 233.871 202.763C234.262 202.453 234.736 202.267 235.234 202.228C235.388 202.21 235.544 202.21 235.699 202.228C235.748 202.236 235.797 202.25 235.843 202.27Z" fill="#263238"/>
<path d="M231.939 203.842C231.549 203.933 231.148 203.972 230.748 203.958C230.35 203.978 229.951 203.944 229.562 203.856C229.562 203.828 230.093 203.856 230.748 203.856C231.404 203.856 231.934 203.814 231.939 203.842Z" fill="#263238"/>
<path d="M233.522 203.828C233.522 203.828 233.48 203.94 233.424 204.061C233.368 204.182 233.34 204.293 233.312 204.288C233.285 204.284 233.271 204.163 233.336 204.019C233.401 203.875 233.503 203.805 233.522 203.828Z" fill="#263238"/>
<path d="M234.133 203.08C234.133 203.08 234.101 203.182 234.017 203.266C233.933 203.35 233.849 203.406 233.826 203.388C233.802 203.369 233.858 203.285 233.942 203.196C234.026 203.108 234.11 203.057 234.133 203.08Z" fill="#263238"/>
<path d="M234.988 202.736C234.988 202.764 234.877 202.764 234.756 202.806C234.635 202.848 234.551 202.913 234.528 202.894C234.505 202.876 234.574 202.764 234.723 202.713C234.872 202.662 234.997 202.708 234.988 202.736Z" fill="#263238"/>
<path d="M235.595 202.568C235.595 202.596 235.563 202.638 235.493 202.661C235.423 202.684 235.362 202.689 235.353 202.661C235.343 202.633 235.39 202.591 235.455 202.568C235.521 202.544 235.586 202.544 235.595 202.568Z" fill="#263238"/>
<path d="M246.86 201.972L246.553 201.289L253.858 197.62L255.146 200.41L254.681 200.647C252.686 201.684 244.479 205.785 242.926 205.99C241.21 206.236 246.86 201.972 246.86 201.972Z" fill="#455A64"/>
<path d="M255.176 200.209L255.056 200.284L254.698 200.47L253.377 201.139C252.261 201.693 250.708 202.441 248.974 203.232C247.239 204.022 245.649 204.697 244.496 205.176L243.124 205.729L242.752 205.873C242.709 205.893 242.664 205.907 242.617 205.915L242.743 205.854L243.11 205.692L244.468 205.11C245.616 204.618 247.197 203.929 248.932 203.139C250.666 202.348 252.224 201.614 253.349 201.074L254.679 200.437L255.046 200.265L255.176 200.209Z" fill="#263238"/>
<path d="M245.299 204.939C245.138 204.743 244.956 204.565 244.755 204.409C244.537 204.28 244.305 204.177 244.062 204.102C244.329 204.099 244.591 204.177 244.812 204.327C245.033 204.476 245.203 204.69 245.299 204.939Z" fill="#263238"/>
<path d="M246.967 202.837C246.967 202.837 246.791 202.781 246.605 202.66C246.419 202.54 246.284 202.423 246.298 202.4C246.312 202.377 246.475 202.456 246.661 202.577C246.847 202.698 246.981 202.814 246.967 202.837Z" fill="#263238"/>
<path d="M247.425 202.27C247.425 202.294 247.266 202.27 247.085 202.215C246.904 202.159 246.769 202.089 246.774 202.061C246.891 202.05 247.01 202.069 247.118 202.117C247.294 202.159 247.434 202.224 247.425 202.27Z" fill="#263238"/>
<path d="M247.491 201.377C247.491 201.405 247.337 201.503 247.123 201.605C247 201.679 246.862 201.725 246.719 201.74C246.719 201.712 246.872 201.615 247.081 201.512C247.207 201.439 247.346 201.393 247.491 201.377Z" fill="#263238"/>
<path d="M247.404 200.829C247.404 200.829 247.269 201.015 247.027 201.15C246.89 201.243 246.728 201.291 246.562 201.289C246.696 201.2 246.837 201.123 246.986 201.061C247.213 200.936 247.381 200.806 247.404 200.829Z" fill="#263238"/>
<path d="M246.446 202.308C246.304 202.405 246.147 202.477 245.981 202.522C245.798 202.575 245.611 202.614 245.423 202.638C245.308 202.652 245.193 202.652 245.078 202.638C245.007 202.633 244.94 202.599 244.892 202.545C244.871 202.512 244.859 202.473 244.859 202.433C244.859 202.394 244.871 202.355 244.892 202.322C245.034 202.15 245.23 202.034 245.448 201.991C245.666 201.949 245.892 201.983 246.087 202.089C246.203 202.15 246.304 202.234 246.385 202.336C246.441 202.41 246.464 202.457 246.459 202.461C246.345 202.333 246.208 202.228 246.055 202.15C245.891 202.073 245.709 202.045 245.53 202.071C245.423 202.082 245.32 202.114 245.226 202.165C245.131 202.216 245.048 202.285 244.981 202.368C244.93 202.457 244.981 202.531 245.106 202.545C245.213 202.554 245.32 202.554 245.427 202.545C245.612 202.526 245.796 202.494 245.976 202.447C246.241 202.373 246.446 202.294 246.446 202.308Z" fill="#263238"/>
<path d="M246.315 202.387C246.211 202.313 246.138 202.204 246.11 202.08C246.069 201.949 246.06 201.811 246.082 201.676C246.09 201.586 246.121 201.501 246.171 201.427C246.222 201.352 246.29 201.293 246.371 201.252C246.487 201.215 246.756 201.452 246.775 201.541C246.794 201.629 246.64 201.583 246.631 201.657C246.616 201.789 246.585 201.919 246.538 202.043C246.504 202.163 246.44 202.271 246.352 202.359C246.352 202.359 246.408 202.234 246.473 202.024C246.506 201.901 246.529 201.775 246.543 201.648C246.543 201.518 246.543 201.318 246.394 201.35C246.245 201.383 246.203 201.564 246.171 201.694C246.142 201.815 246.142 201.941 246.171 202.062C246.209 202.174 246.257 202.283 246.315 202.387Z" fill="#263238"/>
<path d="M254.102 198.253C254.102 198.253 253.879 198.332 253.563 198.523C253.149 198.77 252.813 199.127 252.591 199.555C252.376 199.987 252.284 200.469 252.326 200.95C252.354 201.322 252.442 201.536 252.424 201.545C252.394 201.499 252.37 201.449 252.354 201.396C252.308 201.254 252.275 201.108 252.256 200.959C252.19 200.464 252.276 199.96 252.502 199.515C252.729 199.07 253.086 198.704 253.526 198.467C253.657 198.394 253.796 198.335 253.94 198.29C253.992 198.27 254.047 198.257 254.102 198.253Z" fill="#263238"/>
<path d="M251.178 201.293C250.522 201.749 249.79 202.083 249.016 202.279C249.016 202.251 249.504 202.065 250.099 201.814C250.694 201.563 251.164 201.27 251.178 201.293Z" fill="#263238"/>
<path d="M252.624 200.628C252.647 200.628 252.624 200.744 252.624 200.879C252.624 201.014 252.624 201.126 252.624 201.135C252.624 201.144 252.531 201.033 252.531 200.879C252.531 200.726 252.601 200.614 252.624 200.628Z" fill="#263238"/>
<path d="M252.861 199.7C252.885 199.7 252.861 199.807 252.834 199.918C252.806 200.03 252.736 200.114 252.713 200.104C252.689 200.095 252.713 199.998 252.741 199.886C252.768 199.774 252.834 199.691 252.861 199.7Z" fill="#263238"/>
<path d="M253.511 199.014C253.511 199.042 253.418 199.084 253.325 199.172C253.231 199.261 253.18 199.354 253.157 199.345C253.133 199.336 253.157 199.205 253.259 199.098C253.362 198.991 253.507 199.014 253.511 199.014Z" fill="#263238"/>
<path d="M253.994 198.634C253.994 198.634 253.994 198.709 253.938 198.76C253.882 198.811 253.83 198.839 253.812 198.821C253.793 198.802 253.812 198.746 253.868 198.695C253.924 198.644 253.975 198.616 253.994 198.634Z" fill="#263238"/>
<path d="M244.835 103.992L243.477 87.3922L250.452 87.5178C250.452 87.5178 250.772 85.0673 249.745 79.7013C249.112 76.4092 246.922 74.3912 244.463 73.1915V73.145L244.249 73.0892C242.224 72.1801 240.061 71.6159 237.85 71.4199L229.271 71.5176C229.271 71.5176 222.72 70.6806 219.107 75.3723C217.712 77.1718 213.383 89.4893 213.383 89.4893L223.682 94.4461L222.72 87.6154C222.72 87.6154 222.915 92.5675 223.547 94.1252C223.896 94.9994 224.942 97.7149 224.942 97.7149L224.808 105.908L244.835 103.992Z" fill="#E20B18"/>
<path d="M240.11 84.981L238.836 90.4028H250.847L250.056 81.3076L240.11 84.981Z" fill="#E20B18"/>
<path d="M250.857 90.4038C250.332 90.3071 249.801 90.2542 249.267 90.2457C248.281 90.1899 246.942 90.1388 245.417 90.1481C243.892 90.1574 242.548 90.2225 241.562 90.2969C241.029 90.3154 240.498 90.3808 239.977 90.4922C240.509 90.5346 241.044 90.5346 241.576 90.4922C242.557 90.4596 243.901 90.4224 245.417 90.4178C246.933 90.4131 248.277 90.4178 249.262 90.441C249.794 90.4708 250.327 90.4584 250.857 90.4038Z" fill="#263238"/>
<path d="M239.602 81.2666C239.544 81.7293 239.532 82.1965 239.565 82.6616C239.565 83.5125 239.602 84.6843 239.653 85.9816C239.704 87.2789 239.764 88.4553 239.82 89.3016C239.823 89.7704 239.872 90.2378 239.969 90.6965C240.026 90.2338 240.039 89.7667 240.006 89.3016C240.006 88.4506 239.969 87.2742 239.918 85.9769C239.867 84.6796 239.806 83.5078 239.751 82.6569C239.749 82.1896 239.699 81.7237 239.602 81.2666Z" fill="#263238"/>
<g opacity="0.3">
<path d="M228.664 85.9629C228.664 85.9629 231.333 105.757 238.838 105.232C238.838 105.232 242.218 105.195 243.302 102.949V102.065L228.664 85.9629Z" fill="black"/>
</g>
<g opacity="0.3">
<path d="M239.601 82.4351L238.164 92.1393L239.094 93.8412L240.628 90.5119L239.978 90.4933L239.601 82.4351Z" fill="black"/>
</g>
<path d="M224.902 97.7224C224.813 97.5775 224.744 97.421 224.698 97.2574C224.581 96.9551 224.428 96.5134 224.233 95.9601C223.767 94.5183 223.384 93.0512 223.084 91.566C222.786 90.0798 222.596 88.5739 222.517 87.0602C222.489 86.479 222.48 86.0094 222.489 85.6653C222.477 85.4972 222.488 85.3282 222.522 85.1631C222.559 85.1631 222.587 85.8792 222.684 87.023C222.815 88.523 223.028 90.0147 223.321 91.4916C223.665 93.2213 224.079 94.7697 224.395 95.881C224.544 96.3972 224.67 96.8389 224.772 97.2016C224.836 97.3694 224.88 97.5442 224.902 97.7224Z" fill="#263238"/>
<path d="M227.943 103.41C227.878 103.41 227.692 103.005 227.529 102.48C227.389 102.158 227.327 101.808 227.348 101.457C227.553 101.741 227.694 102.066 227.762 102.41C227.895 102.726 227.957 103.067 227.943 103.41Z" fill="#263238"/>
<path d="M228.978 103.335C228.626 102.402 228.612 101.376 228.936 100.433C228.972 100.916 228.972 101.401 228.936 101.884C228.987 102.366 229.001 102.851 228.978 103.335Z" fill="#263238"/>
<path d="M223.894 94.672C223.862 94.7278 221.467 93.5933 218.542 92.1332C215.617 90.6731 213.269 89.4363 213.297 89.3758C213.325 89.3154 215.724 90.4546 218.649 91.9147C221.574 93.3747 223.922 94.6116 223.894 94.672Z" fill="#263238"/>
<path d="M228.126 73.1212C228.177 70.7684 228.191 68.2946 228.191 68.2946C228.191 68.2946 225.173 67.7134 224.648 63.7424C224.145 59.9574 225.55 51.0715 225.55 51.0715C229.958 49.4069 234.538 50.9181 237.556 54.4892L236.807 73.5862C236.719 75.8042 234.742 77.4967 232.371 77.3851C229.972 77.2689 228.074 75.3624 228.126 73.1212Z" fill="#B78876"/>
<path d="M225.321 58.1707C225.316 58.301 225.362 58.428 225.449 58.5257C225.535 58.6234 225.656 58.6843 225.786 58.6961C225.852 58.7025 225.918 58.6954 225.981 58.6751C226.044 58.6549 226.103 58.6221 226.153 58.5786C226.203 58.5351 226.244 58.4818 226.272 58.4221C226.301 58.3623 226.317 58.2974 226.32 58.2311C226.324 58.1013 226.278 57.9748 226.192 57.8779C226.105 57.781 225.985 57.721 225.855 57.7103C225.789 57.7003 225.721 57.7047 225.657 57.7232C225.593 57.7417 225.533 57.774 225.482 57.8177C225.431 57.8614 225.391 57.9156 225.363 57.9765C225.335 58.0374 225.32 58.1037 225.321 58.1707Z" fill="#263238"/>
<path d="M225.126 57.5049C225.186 57.57 225.591 57.2956 226.125 57.3142C226.66 57.3328 227.055 57.6118 227.12 57.5467C227.186 57.4816 227.093 57.3979 226.921 57.2631C226.688 57.0944 226.408 57.0018 226.121 56.998C225.837 56.9872 225.558 57.0688 225.326 57.2305C225.154 57.3561 225.093 57.4723 225.126 57.5049Z" fill="#263238"/>
<path d="M230.844 58.5149C230.839 58.6456 230.884 58.7732 230.971 58.8711C231.058 58.969 231.179 59.0297 231.309 59.0404C231.376 59.0505 231.444 59.046 231.509 59.0272C231.573 59.0084 231.633 58.9757 231.684 58.9315C231.735 58.8873 231.776 58.8325 231.803 58.771C231.831 58.7095 231.845 58.6428 231.844 58.5754C231.849 58.4452 231.803 58.3181 231.717 58.221C231.63 58.1238 231.509 58.0641 231.379 58.0546C231.313 58.0445 231.245 58.0489 231.181 58.0674C231.116 58.086 231.057 58.1182 231.006 58.1619C230.955 58.2056 230.914 58.2598 230.886 58.3207C230.858 58.3817 230.844 58.4479 230.844 58.5149Z" fill="#263238"/>
<path d="M230.819 57.8497C230.879 57.9195 231.284 57.6451 231.819 57.6591C232.353 57.673 232.749 57.9567 232.818 57.8916C232.888 57.8265 232.786 57.7428 232.614 57.6126C232.385 57.4395 232.106 57.3449 231.819 57.3429C231.534 57.3344 231.254 57.4157 231.019 57.5754C230.852 57.7009 230.791 57.8172 230.819 57.8497Z" fill="#263238"/>
<path d="M228.732 61.8439C228.447 61.7458 228.15 61.6849 227.849 61.6626C227.709 61.6626 227.579 61.6114 227.56 61.5184C227.549 61.3731 227.585 61.228 227.663 61.1046L228.1 60.0584C228.506 59.1692 228.841 58.2486 229.099 57.3057C228.623 58.16 228.216 59.051 227.881 59.97C227.737 60.3374 227.593 60.6908 227.458 61.0256C227.368 61.1917 227.338 61.384 227.374 61.5696C227.393 61.62 227.422 61.6655 227.461 61.7026C227.5 61.7397 227.546 61.7674 227.598 61.7835C227.675 61.8058 227.754 61.8183 227.835 61.8207C228.132 61.8664 228.433 61.8742 228.732 61.8439Z" fill="#263238"/>
<path d="M228.188 68.2929C230.048 68.3674 231.892 67.9247 233.516 67.0142C233.516 67.0142 232.163 69.6971 228.215 69.2275L228.188 68.2929Z" fill="#A36957"/>
<path d="M232.562 56.2642C232.451 56.4362 232.032 56.3618 231.567 56.2642C231.102 56.1665 230.693 56.0875 230.637 55.8876C230.581 55.6876 231.07 55.4226 231.693 55.5481C232.316 55.6737 232.674 56.1154 232.562 56.2642Z" fill="#263238"/>
<path d="M227.145 55.4743C227.104 55.6742 226.657 55.7486 226.146 55.7718C225.634 55.7951 225.183 55.7718 225.123 55.5673C225.062 55.3627 225.495 55.0744 226.113 55.0465C226.732 55.0186 227.187 55.2836 227.145 55.4743Z" fill="#263238"/>
<path d="M228.748 63.1503C228.689 63.1364 228.628 63.1425 228.573 63.1678C228.518 63.1931 228.473 63.2361 228.446 63.2898C228.419 63.3372 228.406 63.3907 228.406 63.445C228.407 63.4993 228.422 63.5525 228.449 63.5994C228.477 63.6462 228.516 63.685 228.563 63.712C228.61 63.739 228.663 63.7532 228.718 63.7532C228.772 63.7532 228.825 63.739 228.873 63.712C228.92 63.685 228.959 63.6462 228.986 63.5994C229.014 63.5525 229.029 63.4993 229.029 63.445C229.03 63.3907 229.016 63.3372 228.99 63.2898C228.956 63.2273 228.903 63.1781 228.838 63.1502C228.773 63.1223 228.7 63.1174 228.632 63.1363" fill="#A36957"/>
<path d="M228.867 63.2068C228.867 63.1836 228.779 63.0487 228.541 63.0999C228.47 63.1184 228.406 63.1552 228.353 63.2066C228.301 63.258 228.263 63.3222 228.244 63.3928C228.219 63.4818 228.221 63.5763 228.25 63.6641C228.279 63.7519 228.334 63.829 228.407 63.8857C228.484 63.9387 228.576 63.967 228.669 63.967C228.763 63.967 228.855 63.9387 228.932 63.8857C228.994 63.844 229.042 63.7856 229.072 63.7172C229.102 63.6488 229.111 63.5734 229.099 63.4998C229.053 63.2533 228.872 63.2161 228.862 63.2487C228.853 63.2812 228.927 63.3649 228.913 63.5091C228.91 63.5447 228.898 63.579 228.879 63.609C228.86 63.639 228.833 63.6637 228.802 63.6811C228.766 63.7019 228.725 63.7129 228.683 63.7129C228.642 63.7129 228.601 63.7019 228.565 63.6811C228.532 63.6536 228.507 63.6181 228.493 63.5782C228.478 63.5383 228.474 63.4952 228.481 63.4533C228.486 63.4165 228.501 63.3817 228.522 63.3517C228.544 63.3217 228.573 63.2975 228.607 63.2812C228.737 63.2022 228.853 63.2394 228.867 63.2068Z" fill="#263238"/>
<path d="M235.758 59.1511C235.293 60.2392 234.14 61.0808 234.298 62.2572C234.4 63.0152 234.889 63.7219 234.796 64.4845C234.675 65.4145 233.684 66.1027 233.54 67.0559C233.368 68.223 234.507 69.1297 234.958 70.2178C235.623 71.8081 234.777 73.5936 234.754 75.3327C234.781 76.653 235.286 77.9186 236.175 78.895C237.065 79.8714 238.278 80.4924 239.59 80.6428C240.65 80.7312 241.845 80.4103 242.38 79.4989C242.845 78.7457 242.742 77.7878 243.012 76.9555C243.421 75.7093 244.607 74.7979 244.872 73.5146C245.337 71.1896 242.5 69.2367 242.686 66.856C242.766 65.8376 243.393 64.9542 243.658 63.9684C243.827 63.3206 243.84 62.642 243.696 61.9881C243.552 61.3343 243.256 60.7238 242.831 60.2066C242.128 59.3743 241.115 58.8117 240.506 57.9189C239.831 56.8913 239.808 55.594 239.576 54.3804C239.263 52.9052 238.582 51.5334 237.596 50.3929C236.61 49.2525 235.35 48.3808 233.936 47.8592C232.521 47.3376 230.997 47.1832 229.506 47.4105C228.016 47.6377 226.607 48.2391 225.412 49.1586C225.412 49.1586 224.738 52.2228 227.886 52.739C231.034 53.2551 232.489 52.6599 232.843 53.92C232.759 54.4391 232.8 54.9706 232.962 55.4709C233.124 55.9712 233.401 56.426 233.773 56.7983C235.056 58.184 236.279 57.8864 235.758 59.1511Z" fill="#263238"/>
<path d="M240.752 80.4062C240.655 80.4096 240.558 80.4002 240.463 80.3783C240.191 80.33 239.923 80.2568 239.663 80.1598C238.703 79.7917 237.861 79.1697 237.227 78.3603C236.782 77.8018 236.433 77.1732 236.195 76.5004C235.923 75.734 235.78 74.928 235.772 74.115C235.762 73.2188 235.875 72.3256 236.106 71.4599C236.233 71.0027 236.388 70.5539 236.571 70.1161C236.763 69.6803 236.932 69.2349 237.078 68.7816C237.206 68.3349 237.206 67.8612 237.078 67.4145C236.942 66.9748 236.766 66.5483 236.553 66.1405C236.337 65.736 236.155 65.3146 236.009 64.8803C235.866 64.4506 235.832 63.9919 235.911 63.5458C236.097 62.6717 236.627 62.0207 236.943 61.3557C237.244 60.7402 237.388 60.0596 237.362 59.3749C237.32 58.3729 236.956 57.411 236.325 56.6315C236.08 56.3584 235.818 56.1021 235.539 55.8643C235.865 56.0474 236.156 56.2867 236.399 56.571C237.077 57.3494 237.476 58.3309 237.534 59.361C237.572 60.0755 237.432 60.7884 237.125 61.4348C236.804 62.123 236.288 62.7786 236.13 63.5784C235.972 64.3782 236.348 65.2198 236.762 66.0289C236.988 66.4484 237.171 66.8892 237.311 67.3448C237.448 67.8313 237.448 68.3462 237.311 68.8327C237.156 69.3018 236.977 69.7628 236.776 70.2137C236.593 70.642 236.438 71.0816 236.311 71.5297C236.08 72.3734 235.966 73.2449 235.971 74.1196C235.957 75.6094 236.438 77.0618 237.339 78.2487C237.941 79.048 238.743 79.675 239.663 80.0668C240.356 80.3365 240.756 80.3783 240.752 80.4062Z" fill="#455A64"/>
<path d="M240.283 56.9434C240.056 57.0021 239.824 57.0364 239.59 57.0457C238.952 57.114 238.308 57.0968 237.675 56.9946C237.194 56.9234 236.733 56.7573 236.318 56.5058C235.903 56.2543 235.542 55.9225 235.257 55.5298C234.991 55.0331 234.779 54.5093 234.624 53.9675C234.426 53.4263 234.053 52.9666 233.564 52.6609C232.546 52.0145 231.351 51.9355 230.309 51.81C229.348 51.7621 228.416 51.4709 227.598 50.9637C227.051 50.601 226.655 50.05 226.487 49.4153C226.446 49.2432 226.435 49.0656 226.454 48.8898C226.454 48.7689 226.482 48.7085 226.492 48.7085C226.497 48.9388 226.527 49.1679 226.58 49.392C226.772 49.9855 227.167 50.4925 227.696 50.8242C228.498 51.2923 229.404 51.5543 230.332 51.5868C231.374 51.7077 232.611 51.7681 233.699 52.4563C234.231 52.7907 234.637 53.293 234.852 53.8838C234.998 54.4119 235.199 54.9231 235.452 55.409C235.993 56.1519 236.805 56.6528 237.712 56.8039C238.325 56.9179 238.949 56.96 239.572 56.9295C239.809 56.9161 240.047 56.9208 240.283 56.9434Z" fill="#455A64"/>
<path d="M239.134 53.1588C238.959 53.2174 238.775 53.2442 238.59 53.2379C237.723 53.2437 236.889 52.9099 236.265 52.3079C235.981 52.0227 235.738 51.6986 235.545 51.3454C235.126 50.6386 234.722 49.7691 233.852 49.4064C233.014 49.1253 232.122 49.0473 231.248 49.1785C230.511 49.2821 229.763 49.2821 229.025 49.1785C228.513 49.1074 228.03 48.8949 227.631 48.5648C227.527 48.4749 227.437 48.3717 227.361 48.2579C227.305 48.1773 227.282 48.1354 227.291 48.1323C227.291 48.1323 227.421 48.2811 227.691 48.4904C228.089 48.7732 228.55 48.9522 229.035 49.0111C229.759 49.0928 230.49 49.0803 231.211 48.9739C232.123 48.825 233.058 48.9049 233.931 49.2064C234.38 49.4082 234.765 49.73 235.042 50.1364C235.288 50.4989 235.513 50.8746 235.717 51.2617C235.9 51.5996 236.127 51.9123 236.391 52.1917C236.624 52.4279 236.892 52.6271 237.186 52.7822C237.618 53.008 238.094 53.1396 238.581 53.1681C238.939 53.1635 239.13 53.1356 239.134 53.1588Z" fill="#455A64"/>
<path d="M242.134 79.4026C242.111 79.4026 242.26 79.0957 242.432 78.5192C242.665 77.7097 242.768 76.8686 242.739 76.0268C242.705 74.7808 242.365 73.5623 241.748 72.479C241.409 71.8698 240.893 71.3258 240.47 70.6562C240.246 70.3151 240.088 69.935 240.005 69.5356C239.931 69.1152 239.967 68.6831 240.107 68.2801C240.367 67.4757 240.832 66.8015 240.935 66.0622C241.037 65.3228 240.684 64.6672 240.33 64.0488C240.148 63.7478 239.982 63.4374 239.833 63.1188C239.697 62.8098 239.607 62.4823 239.568 62.147C239.524 61.5561 239.543 60.9623 239.623 60.3754C239.772 59.5457 239.695 58.6913 239.4 57.9016C239.269 57.625 239.082 57.3782 238.852 57.1763C238.852 57.1763 238.875 57.1763 238.907 57.2042C238.962 57.2315 239.013 57.2676 239.056 57.3111C239.238 57.4626 239.386 57.6513 239.489 57.8645C239.825 58.6609 239.93 59.536 239.791 60.3893C239.727 60.9653 239.719 61.5462 239.768 62.1237C239.882 62.7734 240.14 63.3895 240.521 63.9279C240.719 64.2421 240.889 64.5736 241.028 64.9183C241.174 65.2904 241.222 65.694 241.167 66.0901C241.056 66.9038 240.577 67.592 240.335 68.3499C240.208 68.7156 240.174 69.1072 240.237 69.4891C240.318 69.8585 240.467 70.21 240.674 70.526C241.07 71.1724 241.604 71.7257 241.944 72.3627C242.567 73.4826 242.899 74.7407 242.911 76.0222C242.926 76.8799 242.794 77.7338 242.52 78.5471C242.446 78.7671 242.356 78.9816 242.251 79.1887C242.222 79.2652 242.183 79.3372 242.134 79.4026Z" fill="#455A64"/>
<path d="M223.187 166.044C223.187 166.044 220.053 136.359 219.872 125.39C219.691 114.421 224.805 103.596 224.805 103.596L244.837 102.764C244.837 102.764 248.799 113.891 248.868 118.573C249.008 127.659 246.455 136.629 246.748 143.836L247.418 166.062" fill="#263238"/>
<path d="M248.09 129.547C247.985 129.638 247.875 129.722 247.76 129.798L247.578 129.924L247.383 130.114C247.211 130.263 247.055 130.43 246.918 130.612C246.272 131.402 245.802 132.82 245.351 134.583C245.121 135.56 244.781 136.509 244.337 137.41C244.203 137.657 244.047 137.892 243.872 138.112C243.789 138.224 243.71 138.344 243.612 138.451L243.305 138.758C242.865 139.169 242.355 139.497 241.799 139.725C240.678 140.218 239.408 140.451 238.255 141.032C237.074 141.668 236.161 142.708 235.684 143.961C235.117 145.222 234.754 146.542 234.289 147.779C233.824 149.016 233.196 150.197 232.197 150.95C231.241 151.614 230.106 151.973 228.942 151.978C227.863 152.043 226.863 152.01 225.966 152.145C225.158 152.229 224.386 152.521 223.724 152.991C223.241 153.369 222.879 153.88 222.683 154.461C222.558 154.827 222.531 155.22 222.604 155.6C222.66 155.86 222.729 155.986 222.715 155.991C222.641 155.874 222.587 155.745 222.557 155.609C222.459 155.221 222.472 154.814 222.595 154.433C222.779 153.823 223.144 153.283 223.641 152.885C224.319 152.373 225.122 152.052 225.966 151.955C226.896 151.806 227.886 151.824 228.951 151.755C230.081 151.747 231.182 151.397 232.108 150.75C233.048 149.929 233.742 148.864 234.112 147.672C234.577 146.449 234.917 145.124 235.507 143.841C236.008 142.535 236.962 141.454 238.195 140.795C239.395 140.2 240.664 139.972 241.757 139.498C242.292 139.276 242.783 138.961 243.207 138.568L243.5 138.275C243.593 138.172 243.672 138.056 243.756 137.949C243.92 137.738 244.065 137.512 244.189 137.275C244.634 136.386 244.979 135.45 245.216 134.485C245.681 132.727 246.188 131.291 246.871 130.495C247.008 130.314 247.164 130.149 247.336 130.003C247.411 129.937 247.476 129.872 247.541 129.821L247.732 129.7C247.848 129.642 247.967 129.591 248.09 129.547Z" fill="#FAFAFA"/>
<path d="M248.231 115.812C248.253 115.942 248.262 116.074 248.259 116.207C248.258 116.591 248.211 116.973 248.12 117.346C247.719 118.706 246.933 119.921 245.855 120.843C245.144 121.496 244.365 122.072 243.53 122.558C242.633 123.089 241.642 123.595 240.624 124.172C239.554 124.745 238.558 125.446 237.657 126.26C236.733 127.177 235.972 128.244 235.407 129.417C234.837 130.606 234.186 131.754 233.459 132.853C233.089 133.366 232.661 133.834 232.185 134.248C231.714 134.648 231.198 134.99 230.645 135.267C229.646 135.757 228.605 136.157 227.535 136.462C226.54 136.768 225.61 137.043 224.801 137.392C224.066 137.684 223.367 138.058 222.717 138.508C222.228 138.847 221.789 139.252 221.411 139.712C221.095 140.111 220.83 140.548 220.625 141.014C220.658 140.885 220.702 140.759 220.755 140.637C220.908 140.286 221.103 139.955 221.336 139.651C221.707 139.172 222.146 138.749 222.638 138.396C223.291 137.93 223.995 137.541 224.735 137.233C225.631 136.868 226.545 136.55 227.474 136.28C228.53 135.969 229.556 135.567 230.543 135.081C231.067 134.808 231.558 134.477 232.008 134.095C232.467 133.686 232.878 133.228 233.235 132.728C233.953 131.633 234.597 130.493 235.165 129.315C235.748 128.116 236.535 127.027 237.49 126.097C238.407 125.272 239.422 124.563 240.512 123.986C241.535 123.414 242.526 122.917 243.423 122.391C244.255 121.921 245.035 121.363 245.748 120.726C246.817 119.832 247.61 118.654 248.036 117.327C248.155 116.831 248.221 116.322 248.231 115.812Z" fill="#FAFAFA"/>
<path d="M219.977 126.942C219.959 126.913 219.944 126.882 219.935 126.849C219.9 126.76 219.871 126.668 219.847 126.575C219.767 126.205 219.783 125.821 219.893 125.459C220.154 124.529 221.181 123.334 222.837 122.743C223.664 122.46 224.599 122.278 225.575 122.037C226.386 121.902 227.153 121.576 227.813 121.085C228.472 120.594 229.004 119.953 229.365 119.214C229.629 118.672 229.861 118.115 230.058 117.545C230.421 116.307 230.916 115.112 231.532 113.978C232.238 112.864 233.31 112.031 234.564 111.621C235.704 111.251 236.867 110.956 238.046 110.737C239.098 110.535 240.117 110.188 241.073 109.705C241.883 109.242 242.582 108.607 243.119 107.845C243.913 106.745 244.366 105.435 244.421 104.079C244.423 103.581 244.391 103.084 244.324 102.591C244.464 103.074 244.528 103.576 244.514 104.079C244.496 105.464 244.059 106.811 243.259 107.943C242.714 108.73 242.001 109.386 241.171 109.863C240.202 110.364 239.167 110.726 238.098 110.937C236.93 111.159 235.777 111.456 234.647 111.825C233.444 112.22 232.415 113.02 231.737 114.09C231.13 115.208 230.642 116.386 230.281 117.605C230.08 118.185 229.843 118.752 229.57 119.302C229.294 119.831 228.943 120.316 228.528 120.744C227.711 121.489 226.706 121.995 225.622 122.209C224.636 122.46 223.706 122.618 222.892 122.887C221.279 123.436 220.256 124.566 219.982 125.468C219.869 125.816 219.839 126.185 219.893 126.547C219.933 126.676 219.961 126.808 219.977 126.942Z" fill="#FAFAFA"/>
<path d="M246.504 152.053C246.523 152.149 246.533 152.247 246.536 152.346C246.545 152.627 246.515 152.909 246.448 153.183C246.156 154.191 245.538 155.074 244.69 155.694C244.124 156.144 243.498 156.514 242.83 156.791C242.119 157.093 241.333 157.335 240.505 157.591C239.646 157.842 238.806 158.152 237.99 158.521C237.142 158.926 236.382 159.493 235.753 160.19C235.074 160.897 234.488 161.673 233.837 162.361C233.215 163.028 232.491 163.593 231.694 164.035C230.336 164.776 228.818 165.172 227.272 165.189C226.236 165.2 225.207 165.028 224.231 164.682C223.966 164.591 223.708 164.48 223.459 164.352C223.368 164.314 223.282 164.266 223.203 164.207C223.297 164.233 223.389 164.266 223.477 164.305C223.733 164.414 223.994 164.511 224.259 164.593C225.233 164.899 226.251 165.042 227.272 165.017C228.784 164.977 230.264 164.574 231.587 163.84C232.359 163.402 233.06 162.849 233.665 162.199C234.302 161.52 234.884 160.748 235.576 160.023C236.243 159.299 237.046 158.714 237.939 158.302C238.767 157.932 239.62 157.622 240.491 157.372C241.31 157.121 242.091 156.907 242.816 156.6C243.465 156.335 244.075 155.983 244.63 155.554C245.463 154.966 246.084 154.124 246.401 153.155C246.47 152.791 246.504 152.422 246.504 152.053Z" fill="#FAFAFA"/>
<path d="M244.219 90.4235L240.341 90.5165C240.192 91.2984 239.896 92.0448 239.467 92.7158C236.212 87.0895 233.715 79.5567 233.092 76.5297C233.185 76.2274 233.292 75.8926 233.427 75.5206C233.524 74.9556 233.506 74.377 233.376 73.8188C233.264 73.1446 233.078 72.2378 233.023 71.8193C232.85 70.536 232.641 70.336 232.195 70.4802C231.59 70.6801 232.446 74.0745 231.948 74.1489C231.679 74.1861 231.353 73.0237 231.26 72.0704C231.167 71.1172 230.73 68.1785 230.419 67.9832C229.954 67.6949 229.549 68.1506 229.67 69.0992C229.791 70.0477 229.935 72.9307 229.433 72.9725C228.931 73.0144 228.503 68.1413 228.503 68.1413C228.503 68.1413 228.582 67.0811 227.996 67.1044C226.945 67.1509 227.768 72.2843 227.857 72.7726C227.922 73.1074 227.392 73.1725 227.326 72.8051C227.261 72.4378 227.02 67.9367 225.931 67.9739C225.104 67.9739 226.569 72.2006 226.104 73.1771C225.639 74.1536 225.322 69.8664 224.537 69.9222C224.244 69.9454 224.025 70.0012 224.564 72.4238C225.081 74.3486 225.702 76.2439 226.424 78.1013C227.671 84.8204 233.139 106.317 241.708 102.383C246.507 100.179 248.451 90.4235 248.451 90.4235H244.219Z" fill="#B78876"/>
<path d="M227.682 73.0971C227.719 73.1063 227.757 73.1063 227.794 73.0971C227.85 73.08 227.898 73.0434 227.929 72.994C227.961 72.9445 227.974 72.8855 227.966 72.8274C227.966 72.5391 227.91 72.1206 227.845 71.5766C227.736 70.9209 227.664 70.2596 227.631 69.5958C227.631 69.2052 227.631 68.7867 227.654 68.3449C227.661 68.1203 227.684 67.8965 227.724 67.6754C227.761 67.4661 227.9 67.2104 228.063 67.2522H228.091C228.254 67.2522 228.384 67.3731 228.435 67.5684C228.493 67.7708 228.515 67.9816 228.5 68.1915C228.596 69.4937 228.762 70.7898 228.998 72.0741C229.035 72.2462 229.072 72.4229 229.128 72.5996C229.153 72.69 229.184 72.7785 229.221 72.8646C229.245 72.9125 229.271 72.9591 229.3 73.0041C229.321 73.0381 229.349 73.0667 229.383 73.0877C229.417 73.1087 229.456 73.1215 229.495 73.125C229.563 73.1175 229.627 73.0902 229.679 73.0463C229.731 73.0024 229.769 72.944 229.788 72.8786C229.828 72.7876 229.858 72.6925 229.877 72.5949C229.913 72.4075 229.938 72.218 229.951 72.0276C229.993 71.2528 229.983 70.476 229.918 69.7027C229.86 69.3166 229.844 68.9251 229.872 68.5356C229.889 68.3673 229.971 68.2122 230.1 68.1031C230.13 68.0854 230.163 68.0742 230.197 68.0702C230.232 68.0662 230.267 68.0695 230.3 68.0799C230.339 68.0894 230.377 68.1051 230.411 68.1264C230.435 68.1441 230.453 68.1683 230.463 68.1961C230.609 68.5732 230.717 68.9643 230.783 69.3633C230.867 69.7724 230.937 70.1956 231.002 70.6187C231.067 71.0419 231.127 71.4696 231.179 71.9021C231.218 72.3483 231.29 72.7912 231.393 73.2273C231.447 73.4503 231.517 73.6693 231.602 73.8829C231.649 74.0025 231.715 74.1139 231.797 74.2131C231.828 74.2543 231.871 74.2858 231.919 74.3039C231.968 74.322 232.021 74.326 232.071 74.3154C232.118 74.2998 232.161 74.2724 232.194 74.2358C232.228 74.1991 232.251 74.1544 232.262 74.1061C232.317 73.8685 232.334 73.6237 232.313 73.3807C232.313 73.1482 232.285 72.9158 232.262 72.6926C232.229 72.302 232.192 71.916 232.178 71.5347C232.167 71.3474 232.167 71.1595 232.178 70.9721C232.188 70.8892 232.208 70.8078 232.239 70.7303C232.248 70.7047 232.263 70.6811 232.281 70.6606H232.341C232.648 70.535 232.75 70.9628 232.834 71.3069C232.918 71.651 232.95 72.0416 233.025 72.4089C233.146 73.1389 233.304 73.869 233.383 74.5665C233.436 74.9004 233.424 75.2417 233.345 75.5708C233.234 75.9056 233.122 76.2358 233.015 76.5659V76.5984V76.6263C233.56 78.9107 234.254 81.1568 235.094 83.3501C235.828 85.3355 236.568 87.0699 237.214 88.4649C237.86 89.8599 238.446 90.9526 238.846 91.6873L239.311 92.5196C239.362 92.6188 239.422 92.7123 239.493 92.7986C239.453 92.6953 239.405 92.5957 239.348 92.501L238.883 91.6501C238.502 90.9014 237.953 89.7901 237.321 88.3952C236.689 87.0002 235.973 85.2658 235.257 83.2803C234.437 81.0904 233.757 78.8509 233.22 76.5752V76.6403C233.327 76.3148 233.434 75.9847 233.545 75.6545C233.642 75.2922 233.661 74.9134 233.601 74.5432C233.518 73.8132 233.364 73.1064 233.243 72.3717C233.173 72.009 233.127 71.637 233.053 71.2558C233.048 71.0599 233.015 70.8657 232.955 70.6792C232.902 70.5657 232.812 70.4738 232.699 70.4188C232.58 70.3797 232.451 70.3797 232.332 70.4188H232.257C232.218 70.4314 232.182 70.452 232.15 70.4792C232.099 70.523 232.059 70.5789 232.034 70.642C231.992 70.7426 231.965 70.8493 231.955 70.9582C231.941 71.1594 231.941 71.3614 231.955 71.5626C231.955 71.9532 232.011 72.3438 232.043 72.7344C232.043 72.9623 232.081 73.1994 232.09 73.4086C232.108 73.6184 232.097 73.8297 232.057 74.0364C232.057 74.0829 232.02 74.0736 232.057 74.0968L232.03 74.0689C231.97 73.9929 231.923 73.9082 231.89 73.8178C231.809 73.6167 231.742 73.41 231.69 73.1994C231.588 72.7759 231.518 72.3454 231.481 71.9114C231.431 71.4743 231.371 71.0419 231.3 70.6141C231.234 70.1863 231.16 69.7678 231.076 69.3493C231.006 68.9234 230.888 68.5068 230.723 68.1078C230.691 68.0411 230.641 67.9848 230.579 67.945C230.525 67.9136 230.467 67.8887 230.407 67.8707C230.34 67.8533 230.271 67.8492 230.204 67.8588C230.136 67.8684 230.07 67.8914 230.011 67.9265C229.916 67.9981 229.836 68.0888 229.776 68.1928C229.717 68.2968 229.68 68.4119 229.667 68.5309C229.637 68.7422 229.637 68.9567 229.667 69.168C229.667 69.3679 229.714 69.5632 229.728 69.7585C229.793 70.5193 229.807 71.2836 229.77 72.0462C229.759 72.2274 229.736 72.4076 229.7 72.5856C229.687 72.6687 229.663 72.7499 229.63 72.8274C229.618 72.8581 229.601 72.8864 229.579 72.9111C229.579 72.953 229.547 72.9111 229.551 72.9669C229.551 72.9204 229.551 72.9669 229.551 72.9065C229.531 72.8751 229.512 72.8425 229.495 72.8088C229.463 72.7344 229.435 72.6507 229.407 72.5717C229.356 72.4043 229.319 72.2322 229.281 72.0648C229.039 70.7916 228.864 69.5064 228.756 68.2147C228.77 67.981 228.743 67.7465 228.677 67.5219C228.646 67.4047 228.583 67.2985 228.496 67.215C228.45 67.1711 228.396 67.1368 228.337 67.1144C228.278 67.0921 228.215 67.082 228.152 67.0848H228.179C228.101 67.0733 228.02 67.0853 227.948 67.1192C227.877 67.1531 227.816 67.2074 227.775 67.2755C227.706 67.3864 227.658 67.5095 227.635 67.6382C227.596 67.8687 227.575 68.1019 227.57 68.3356C227.57 68.8006 227.57 69.2052 227.57 69.6004C227.614 70.2684 227.7 70.9331 227.826 71.5905C227.905 72.1299 227.966 72.5484 227.993 72.8321C228.002 72.8817 227.994 72.933 227.969 72.977C227.945 73.0211 227.906 73.0553 227.859 73.0738C227.719 73.0878 227.677 73.0924 227.682 73.0971Z" fill="#A36957"/>
<path d="M197.404 96.8265C196.496 96.8071 195.59 96.9119 194.711 97.138C192.307 97.7704 188.164 100.281 187.992 103.383H191.005C191.005 103.383 189.317 106.972 189.81 106.638C191.098 105.773 193.656 103.174 193.656 103.174L197.404 96.8265Z" fill="#B78876"/>
<path d="M99.0057 109.058L82.5452 193.593L80.4062 204.66L190.143 204.13C195.072 204.106 199.443 199.731 201.019 193.23L220.483 113.425C221.688 108.491 219.047 103.358 215.308 103.362L104.214 103.479C101.796 103.474 99.6288 105.762 99.0057 109.058Z" fill="#FF725E"/>
<g opacity="0.5">
<path d="M98.9979 109.057L82.5374 193.592L80.3984 204.659L190.135 204.129C195.064 204.105 199.435 199.73 201.011 193.229L220.476 113.424C221.68 108.49 219.039 103.357 215.3 103.361L104.206 103.478C101.788 103.473 99.621 105.761 98.9979 109.057Z" fill="#E20B18"/>
</g>
<path d="M179.638 187.855L168.013 94.2017C167.548 90.3655 164.484 87.5012 160.871 87.5152L135.39 87.5942C134.443 87.6049 133.508 87.8083 132.642 88.192C131.777 88.5758 130.998 89.1318 130.354 89.8262L118.264 102.692L47.4005 103.074C43.0715 103.097 39.7421 107.198 40.3141 111.801L51.1064 198.359C51.5714 202.19 54.6357 205.05 58.2393 205.045L181.763 204.799C195.517 205.082 196.833 201.023 196.833 201.023C181.042 204.515 179.638 187.878 179.638 187.855Z" fill="#E20B18"/>
<g opacity="0.5">
<path d="M126.375 169.125L122.209 173.598L90.125 144.731L94.2913 140.258L126.375 169.125Z" fill="white"/>
<path d="M120.463 139.269L125.067 143.412L96.0377 174.589L91.4297 170.446L120.463 139.269Z" fill="white"/>
</g>
</svg>
