<svg width="24" height="25" viewBox="0 0 24 25" fill="none" xmlns="http://www.w3.org/2000/svg">
<path d="M9 23.5L8 22.5V16.5H3V14.5L5 12.5V5.5H4V3.5H11.125C10.825 3.78333 10.5542 4.09167 10.3125 4.425C10.0708 4.75833 9.85833 5.11667 9.675 5.5H7V13.35L5.85 14.5H12.425C12.825 14.7333 13.2375 14.9292 13.6625 15.0875C14.0875 15.2458 14.5333 15.3583 15 15.425V16.5H10V22.5L9 23.5ZM16 8.5C16.4167 8.5 16.7708 8.35417 17.0625 8.0625C17.3542 7.77083 17.5 7.41667 17.5 7C17.5 6.58333 17.3542 6.22917 17.0625 5.9375C16.7708 5.64583 16.4167 5.5 16 5.5C15.5833 5.5 15.2292 5.64583 14.9375 5.9375C14.6458 6.22917 14.5 6.58333 14.5 7C14.5 7.41667 14.6458 7.77083 14.9375 8.0625C15.2292 8.35417 15.5833 8.5 16 8.5ZM16 11.5C16.5167 11.5 16.9875 11.3792 17.4125 11.1375C17.8375 10.8958 18.1917 10.575 18.475 10.175C18.1083 9.95833 17.7167 9.79167 17.3 9.675C16.8833 9.55833 16.45 9.5 16 9.5C15.55 9.5 15.1167 9.55833 14.7 9.675C14.2833 9.79167 13.8917 9.95833 13.525 10.175C13.8083 10.575 14.1625 10.8958 14.5875 11.1375C15.0125 11.3792 15.4833 11.5 16 11.5ZM16 13.5C14.6167 13.5 13.4375 13.0125 12.4625 12.0375C11.4875 11.0625 11 9.88333 11 8.5C11 7.11667 11.4875 5.9375 12.4625 4.9625C13.4375 3.9875 14.6167 3.5 16 3.5C17.3833 3.5 18.5625 3.9875 19.5375 4.9625C20.5125 5.9375 21 7.11667 21 8.5C21 9.88333 20.5125 11.0625 19.5375 12.0375C18.5625 13.0125 17.3833 13.5 16 13.5Z" fill="#4F4F4F"/>
</svg>
