<svg width="23" height="30" viewBox="0 0 23 30" fill="none" xmlns="http://www.w3.org/2000/svg">
<path d="M7.08309 15H15.5831C15.9845 15 16.3209 14.8642 16.5925 14.5927C16.864 14.3212 16.9998 13.9847 16.9998 13.5833C16.9998 13.1819 16.864 12.8455 16.5925 12.5739C16.3209 12.3024 15.9845 12.1666 15.5831 12.1666H7.08309C6.6817 12.1666 6.34524 12.3024 6.07371 12.5739C5.80219 12.8455 5.66642 13.1819 5.66642 13.5833C5.66642 13.9847 5.80219 14.3212 6.07371 14.5927C6.34524 14.8642 6.6817 15 7.08309 15ZM7.08309 9.33331H15.5831C15.9845 9.33331 16.3209 9.19755 16.5925 8.92602C16.864 8.65449 16.9998 8.31804 16.9998 7.91665C16.9998 7.51526 16.864 7.1788 16.5925 6.90727C16.3209 6.63574 15.9845 6.49998 15.5831 6.49998H7.08309C6.6817 6.49998 6.34524 6.63574 6.07371 6.90727C5.80219 7.1788 5.66642 7.51526 5.66642 7.91665C5.66642 8.31804 5.80219 8.65449 6.07371 8.92602C6.34524 9.19755 6.6817 9.33331 7.08309 9.33331ZM22.5956 27.0062L16.8581 19.5333C16.4567 18.9903 15.9609 18.5712 15.3706 18.276C14.7803 17.9809 14.1428 17.8333 13.4581 17.8333H-0.000244141V3.66665C-0.000244141 2.88748 0.277186 2.22047 0.832048 1.6656C1.38691 1.11074 2.05392 0.833313 2.83309 0.833313H19.8331C20.6123 0.833313 21.2793 1.11074 21.8341 1.6656C22.389 2.22047 22.6664 2.88748 22.6664 3.66665V26.3333C22.6664 26.4514 22.6605 26.5635 22.6487 26.6698C22.6369 26.776 22.6192 26.8882 22.5956 27.0062ZM2.83309 29.1666C2.05392 29.1666 1.38691 28.8892 0.832048 28.3344C0.277186 27.7795 -0.000244141 27.1125 -0.000244141 26.3333V20.6666H13.4581C13.6942 20.6666 13.9126 20.7198 14.1133 20.826C14.314 20.9323 14.4852 21.0798 14.6268 21.2687L20.5768 29.0604C20.4588 29.1076 20.3348 29.1371 20.205 29.1489C20.0751 29.1607 19.9511 29.1666 19.8331 29.1666H2.83309Z" fill="#E20B18"/>
</svg>
