<svg width="30" height="31" viewBox="0 0 30 31" fill="none" xmlns="http://www.w3.org/2000/svg">
<path d="M0 12.5C0 5.87258 5.37258 0.5 12 0.5H18C24.6274 0.5 30 5.87258 30 12.5V18.5C30 25.1274 24.6274 30.5 18 30.5H12C5.37258 30.5 0 25.1274 0 18.5V12.5Z" fill="#E20B18"/>
<path d="M25.75 21.5C25.7172 21.4999 25.6846 21.5063 25.6542 21.5188C25.6239 21.5313 25.5963 21.5498 25.573 21.573L21.0734 26.073C21.0384 26.108 21.0145 26.1526 21.0048 26.2011C20.9951 26.2497 21.0001 26.3 21.0191 26.3457C21.038 26.3915 21.0701 26.4305 21.1113 26.458C21.1525 26.4855 21.2009 26.5001 21.2504 26.5H25.75C25.8163 26.5 25.8799 26.4737 25.9268 26.4268C25.9737 26.3799 26 26.3163 26 26.25V21.75C26 21.7172 25.9935 21.6847 25.981 21.6543C25.9684 21.624 25.95 21.5964 25.9268 21.5732C25.9036 21.55 25.876 21.5316 25.8457 21.519C25.8154 21.5065 25.7828 21.5 25.75 21.5Z" fill="white"/>
<path d="M17.5796 14.6079L19.5967 16.625H9.375V11H8.25V16.625C8.25036 16.9233 8.369 17.2092 8.5799 17.4201C8.7908 17.631 9.07674 17.7496 9.375 17.75H19.5967L17.5796 19.7671L18.375 20.5625L21.75 17.1875L18.375 13.8125L17.5796 14.6079Z" fill="white"/>
</svg>
