<svg width="21" height="20" viewBox="0 0 21 20" fill="none" xmlns="http://www.w3.org/2000/svg">
<path d="M10.5 12.625C9.05114 12.625 7.875 11.4489 7.875 10C7.875 8.55114 9.05114 7.375 10.5 7.375C11.9489 7.375 13.125 8.55114 13.125 10C13.125 11.4489 11.9489 12.625 10.5 12.625ZM10.5 7.625C9.19052 7.625 8.125 8.69052 8.125 10C8.125 11.3095 9.19052 12.375 10.5 12.375C11.8095 12.375 12.875 11.3095 12.875 10C12.875 8.69052 11.8095 7.625 10.5 7.625Z" fill="white" stroke="white"/>
<path d="M16.6584 16.0584C16.8167 15.4917 16.7334 14.8917 16.4417 14.3834C16.1917 13.9584 16.1334 13.5751 16.2751 13.3334C16.4167 13.0917 16.7751 12.9501 17.2667 12.9501C18.4834 12.9501 19.4751 11.9584 19.4751 10.7417V9.27508C19.4751 8.05841 18.4834 7.06674 17.2667 7.06674C16.7751 7.06674 16.4167 6.92508 16.2751 6.68341C16.1334 6.44174 16.2001 6.05841 16.4417 5.63341C16.7334 5.12508 16.8084 4.53341 16.6584 3.95841L16.1746 4.08462C16.1749 4.08572 16.1752 4.08682 16.1755 4.08792M16.6584 16.0584L16.1755 4.08792M16.6584 16.0584C16.5084 16.6334 16.1417 17.1084 15.6251 17.4001L14.1834 18.2251L16.6584 16.0584ZM16.1755 4.08792C16.0512 3.63965 15.7676 3.27495 15.3762 3.05043L15.3757 3.05009L13.9423 2.22509L13.9356 2.2212L13.9356 2.22115C13.2287 1.7995 12.2945 2.03784 11.8654 2.76849C11.8652 2.76886 11.865 2.76923 11.8648 2.7696L11.7746 2.92543C11.7745 2.92548 11.7745 2.92554 11.7745 2.9256C11.4928 3.41244 11.0686 3.81258 10.5126 3.81258C9.95789 3.81258 9.53437 3.41434 9.25272 2.92907L9.15467 2.76566L9.15302 2.76291L9.15303 2.7629C8.72394 2.03723 7.78716 1.79919 7.08842 2.21349L7.08178 2.21743L7.08175 2.21738L5.64009 3.04238L5.63755 3.04383L5.63755 3.04382C5.23847 3.26911 4.95794 3.63272 4.84222 4.07629L4.84177 4.07802C4.725 4.51916 4.78366 4.98264 5.00757 5.37416C5.28013 5.83861 5.45827 6.44147 5.1731 6.92794C4.89141 7.40846 4.2899 7.55841 3.75008 7.55841C2.80956 7.55841 2.04175 8.32622 2.04175 9.26674V10.7334C2.04175 11.6739 2.80956 12.4417 3.75008 12.4417C4.2899 12.4417 4.89141 12.5917 5.1731 13.0722C5.32127 13.325 5.33669 13.6097 5.29567 13.8617C5.25434 14.1155 5.15066 14.3744 5.00973 14.6222L5.00877 14.6239C4.78458 15.0146 4.72468 15.47 4.84137 15.9206C4.96569 16.3688 5.24927 16.7335 5.64058 16.9581L5.64117 16.9584L7.07451 17.7834L7.08237 17.7879L7.08233 17.788C7.42284 17.9923 7.82443 18.049 8.21982 17.9423L8.22514 17.9409L8.22514 17.9409C8.60802 17.8421 8.93316 17.5953 9.14337 17.2395L9.23394 17.0831C9.23397 17.083 9.234 17.0829 9.23403 17.0829C9.51568 16.596 9.9399 16.1959 10.4959 16.1959C11.0506 16.1959 11.4741 16.5942 11.7558 17.0794L11.8538 17.2428C12.0601 17.5866 12.3832 17.8313 12.7743 17.9407C12.9173 17.9742 13.05 17.9917 13.1751 17.9917C13.4346 17.9917 13.6925 17.9245 13.9385 17.7892L15.3767 16.9661L15.3793 16.9647L15.3793 16.9647C15.7784 16.7394 16.0589 16.3758 16.1746 15.9322L16.1768 15.9238L16.1769 15.9239C16.2976 15.4918 16.2358 15.0303 16.0093 14.6343C15.7367 14.1699 15.5586 13.567 15.8437 13.0806C16.1254 12.6 16.7269 12.4501 17.2667 12.4501C18.2073 12.4501 18.9751 11.6823 18.9751 10.7417V9.27508C18.9751 8.33455 18.2073 7.56674 17.2667 7.56674C16.7269 7.56674 16.1254 7.4168 15.8437 6.93627C15.6956 6.6835 15.6801 6.39881 15.7212 6.14682C15.7625 5.89295 15.8662 5.6341 16.0071 5.38626L16.0081 5.38457C16.2322 4.99385 16.2921 4.53852 16.1755 4.08792ZM11.9751 16.9496L11.9757 16.9506L12.066 17.1065C12.0662 17.107 12.0665 17.1074 12.0668 17.1079C12.2362 17.4035 12.5172 17.6114 12.8455 17.6935C13.1598 17.7721 13.4963 17.7372 13.7867 17.5645L15.2249 16.7332C15.225 16.7332 15.225 16.7331 15.225 16.7331C15.5519 16.5445 15.8059 16.2293 15.9082 15.8456C16.0081 15.4711 15.9594 15.0762 15.7665 14.7419L15.7656 14.7404C15.3526 14.0303 15.347 13.3841 15.6009 12.9398C15.852 12.5003 16.4105 12.1834 17.2417 12.1834C18.0512 12.1834 18.7001 11.5346 18.7001 10.7251V9.25841C18.7001 8.4601 18.0541 7.80008 17.2417 7.80008C16.4105 7.80008 15.852 7.48322 15.6009 7.04367C15.347 6.59943 15.3526 5.95319 15.7656 5.24313L15.7665 5.2416C15.9594 4.90726 16.0081 4.51235 15.9082 4.13791C15.8061 3.75489 15.5625 3.45271 15.2455 3.25758L15.2387 3.2534L15.2318 3.24944L13.7947 2.42705C13.1912 2.06653 12.4135 2.28296 12.0613 2.87904L12.0613 2.87903L12.059 2.88289L11.9674 3.04122L11.9668 3.04226C11.5523 3.7621 11.0037 4.08341 10.4917 4.08341C9.98079 4.08341 9.43325 3.76331 9.01908 3.04634L8.92986 2.88412L8.92575 2.87665L8.92139 2.86933C8.57383 2.28543 7.80445 2.07935 7.20778 2.42576C7.20756 2.42589 7.20733 2.42602 7.20711 2.42616L5.76689 3.25865C5.76681 3.2587 5.76673 3.25874 5.76665 3.25879C5.76661 3.25881 5.76657 3.25883 5.76653 3.25886C5.43981 3.44747 5.18592 3.76267 5.08363 4.14625C4.98378 4.52069 5.03243 4.91559 5.22532 5.24994L5.22532 5.24994L5.22621 5.25146C5.6392 5.96153 5.64481 6.60777 5.39096 7.05201C5.13979 7.49156 4.58128 7.80841 3.75008 7.80841C2.94061 7.80841 2.29175 8.45727 2.29175 9.26674V10.7334C2.29175 11.5317 2.93778 12.1917 3.75008 12.1917C4.58128 12.1917 5.13979 12.5086 5.39096 12.9481C5.64481 13.3924 5.6392 14.0386 5.2262 14.7487L5.22532 14.7502C5.03243 15.0846 4.98378 15.4795 5.08363 15.8539C5.18577 16.2369 5.42928 16.5391 5.74637 16.7342L5.75316 16.7384L5.76008 16.7424L7.19523 17.5637C7.49132 17.7437 7.83705 17.7819 8.14889 17.7012C8.48965 17.6152 8.75775 17.3921 8.92521 17.1216L8.9291 17.1153L8.93279 17.1089L9.02396 16.9515C9.02403 16.9513 9.02411 16.9512 9.02419 16.9511C9.44043 16.2357 9.99033 15.9084 10.5001 15.9084C11.012 15.9084 11.5607 16.2297 11.9751 16.9496Z" fill="none" stroke="white"/>
</svg>
