<svg width="24" height="25" viewBox="0 0 24 25" fill="none" xmlns="http://www.w3.org/2000/svg">
<g clip-path="url(#clip0_55_58964)">
<path d="M12 2C9.9233 2 7.89323 2.61581 6.16652 3.76957C4.4398 4.92332 3.09399 6.5632 2.29927 8.48182C1.50455 10.4004 1.29661 12.5116 1.70176 14.5484C2.1069 16.5852 3.10693 18.4562 4.57538 19.9246C6.04383 21.3931 7.91476 22.3931 9.95156 22.7982C11.9884 23.2034 14.0996 22.9955 16.0182 22.2007C17.9368 21.406 19.5767 20.0602 20.7304 18.3335C21.8842 16.6068 22.5 14.5767 22.5 12.5C22.5 9.71523 21.3938 7.04451 19.4246 5.07538C17.4555 3.10625 14.7848 2 12 2ZM12 21.5C10.22 21.5 8.47992 20.9722 6.99987 19.9832C5.51983 18.9943 4.36628 17.5887 3.68509 15.9442C3.0039 14.2996 2.82567 12.49 3.17294 10.7442C3.5202 8.99836 4.37737 7.39471 5.63604 6.13604C6.89472 4.87737 8.49836 4.0202 10.2442 3.67293C11.99 3.32567 13.7996 3.5039 15.4442 4.18508C17.0887 4.86627 18.4943 6.01983 19.4832 7.49987C20.4722 8.97991 21 10.72 21 12.5C21 14.8869 20.0518 17.1761 18.364 18.864C16.6761 20.5518 14.387 21.5 12 21.5Z" fill="#121F24"/>
<path d="M8.625 8.75C8.25417 8.75 7.89165 8.85997 7.58331 9.06599C7.27497 9.27202 7.03465 9.56486 6.89273 9.90747C6.75082 10.2501 6.71369 10.6271 6.78603 10.9908C6.85838 11.3545 7.03696 11.6886 7.29918 11.9508C7.5614 12.213 7.8955 12.3916 8.25921 12.464C8.62292 12.5363 8.99993 12.4992 9.34254 12.3573C9.68515 12.2154 9.97798 11.975 10.184 11.6667C10.39 11.3584 10.5 10.9958 10.5 10.625C10.502 10.3782 10.4549 10.1335 10.3614 9.90511C10.2678 9.67672 10.1298 9.46923 9.95529 9.29472C9.78078 9.12021 9.57328 8.98217 9.34489 8.88866C9.11651 8.79514 8.87179 8.748 8.625 8.75Z" fill="#121F24"/>
<path d="M15.375 8.75C15.0042 8.75 14.6417 8.85997 14.3333 9.06599C14.025 9.27202 13.7846 9.56486 13.6427 9.90747C13.5008 10.2501 13.4637 10.6271 13.536 10.9908C13.6084 11.3545 13.787 11.6886 14.0492 11.9508C14.3114 12.213 14.6455 12.3916 15.0092 12.464C15.3729 12.5363 15.7499 12.4992 16.0925 12.3573C16.4351 12.2154 16.728 11.975 16.934 11.6667C17.14 11.3584 17.25 10.9958 17.25 10.625C17.252 10.3782 17.2049 10.1335 17.1113 9.90511C17.0178 9.67672 16.8798 9.46923 16.7053 9.29472C16.5308 9.12021 16.3233 8.98217 16.0949 8.88866C15.8665 8.79514 15.6218 8.748 15.375 8.75Z" fill="#121F24"/>
<path d="M12 18.5C13.0353 18.4982 14.0525 18.2287 14.9527 17.7174C15.853 17.2062 16.6056 16.4707 17.1375 15.5825L15.855 14.8325C15.4548 15.4972 14.8895 16.047 14.214 16.4288C13.5385 16.8105 12.7759 17.0111 12 17.0111C11.2241 17.0111 10.4615 16.8105 9.786 16.4288C9.11054 16.047 8.54525 15.4972 8.145 14.8325L6.8625 15.5825C7.39438 16.4707 8.14703 17.2062 9.04727 17.7174C9.94752 18.2287 10.9647 18.4982 12 18.5Z" fill="#121F24"/>
</g>
<defs>
<clipPath id="clip0_55_58964">
<rect width="22" height="22" fill="white" transform="translate(1 1.5)"/>
</clipPath>
</defs>
</svg>
