<svg width="25" height="24" viewBox="0 0 25 24" fill="none" xmlns="http://www.w3.org/2000/svg">
<path d="M19.6246 4.87678C18.5859 3.84324 17.3334 3.0498 15.9552 2.55224C14.5769 2.05468 13.1064 1.86508 11.647 1.99678C11.3302 1.99678 11.0134 2.06398 10.687 2.12158C8.67348 2.4918 6.81979 3.46468 5.37126 4.9115C3.92273 6.35831 2.94765 8.21085 2.57505 10.224C2.51745 10.5408 2.47905 10.8672 2.45025 11.184C2.33896 12.572 2.51617 13.9679 2.97072 15.2841C3.42527 16.6002 4.14732 17.808 5.09144 18.8315C6.03556 19.855 7.18131 20.672 8.45657 21.231C9.73184 21.7901 11.109 22.0791 12.5014 22.08C12.7861 22.0943 13.0712 22.0943 13.3558 22.08C13.6726 22.08 13.9894 22.0128 14.3158 21.9552C14.996 21.8308 15.6618 21.6378 16.303 21.3792C17.8718 20.7368 19.2545 19.7112 20.3245 18.3964C21.3944 17.0815 22.1176 15.5194 22.4278 13.8528C22.4854 13.536 22.5238 13.2096 22.5526 12.8928C22.6839 11.4236 22.4896 9.94345 21.9835 8.55791C21.4774 7.17237 20.672 5.91548 19.6246 4.87678ZM6.05025 18.4512C5.10593 17.5092 4.37805 16.3729 3.91717 15.1213C3.4563 13.8696 3.27349 12.5326 3.38145 11.2032C5.92478 11.4558 8.30078 12.5861 10.1014 14.4C11.9101 16.2011 13.0309 18.5787 13.2694 21.12C11.9447 21.2237 10.6132 21.0388 9.3669 20.578C8.12055 20.1173 6.98898 19.3916 6.05025 18.4512ZM18.9526 18.4512C17.6656 19.7314 16.0292 20.6031 14.2486 20.9568C13.9811 18.2098 12.762 15.6426 10.8022 13.6992C8.85461 11.7454 6.28971 10.5274 3.54465 10.2528C3.89833 8.47223 4.76999 6.83579 6.05025 5.54878C7.33343 4.26335 8.97154 3.3908 10.7542 3.04318C11.0218 5.7902 12.2408 8.35737 14.2006 10.3008C16.1492 12.2533 18.7136 13.471 21.4582 13.7472C21.1046 15.5277 20.2329 17.1642 18.9526 18.4512ZM14.9014 9.59998C13.0928 7.79885 11.972 5.42129 11.7334 2.87998H12.5302C13.7969 2.87756 15.0501 3.13929 16.2099 3.64847C17.3697 4.15765 18.4106 4.90309 19.2661 5.83718C20.1216 6.77128 20.7729 7.8735 21.1785 9.07348C21.584 10.2735 21.7349 11.5448 21.6214 12.8064C19.0784 12.5457 16.704 11.4127 14.9014 9.59998Z" fill="#fff"/>
</svg>
