<svg width="81" height="52" viewBox="0 0 81 52" fill="none" xmlns="http://www.w3.org/2000/svg">
<path d="M69.2889 22.9522C71.6316 21.306 73.1828 18.5675 73.1828 15.4809C73.1828 10.4314 69.0989 6.34751 64.0494 6.34751C59 6.34751 54.9161 10.4314 54.9161 15.4809C54.9161 18.5675 56.4515 21.306 58.81 22.9522C56.7997 23.6487 54.9636 24.725 53.4123 26.118C51.2754 24.2976 48.7586 22.9047 46.0043 22.0816C49.3443 20.0555 51.592 16.3673 51.592 12.1726C51.592 5.77766 46.4159 0.601562 40.021 0.601562C33.626 0.601562 28.4499 5.79349 28.4499 12.1726C28.4499 16.3673 30.6818 20.0555 34.0376 22.0816C31.315 22.9047 28.8298 24.2818 26.7087 26.0705C25.1575 24.7092 23.353 23.6487 21.3743 22.968C23.717 21.3218 25.2683 18.5834 25.2683 15.4967C25.2683 10.4472 21.1844 6.36333 16.1349 6.36333C11.0855 6.36333 7.00156 10.4472 7.00156 15.4967C7.00156 18.5834 8.53698 21.3218 10.8955 22.968C4.61138 25.1366 0.100098 31.1041 0.100098 38.1164V39.1611C0.100098 39.1928 0.131756 39.2244 0.163414 39.2244H19.5223C19.4115 40.095 19.3482 40.9973 19.3482 41.8995V42.9759C19.3482 47.6297 23.1155 51.397 27.7693 51.397H52.3043C56.958 51.397 60.7253 47.6297 60.7253 42.9759V41.8995C60.7253 40.9973 60.662 40.095 60.5512 39.2244H80.0368C80.0684 39.2244 80.1001 39.1928 80.1001 39.1611V38.1164C80.0684 31.0883 75.573 25.1208 69.2889 22.9522ZM57.4487 15.465C57.4487 11.8244 60.4088 8.86432 64.0494 8.86432C67.6901 8.86432 70.6502 11.8244 70.6502 15.465C70.6502 19.0582 67.7534 21.9866 64.1761 22.0658H63.9228C60.3296 22.0024 57.4487 19.0741 57.4487 15.465ZM30.9509 12.1726C30.9509 7.18645 35.0031 3.13421 39.9893 3.13421C44.9754 3.13421 49.0277 7.18645 49.0277 12.1726C49.0277 16.9846 45.2445 20.9261 40.5117 21.1952H39.4669C34.7341 20.9261 30.9509 16.9846 30.9509 12.1726ZM9.48672 15.465C9.48672 11.8244 12.4468 8.86432 16.0874 8.86432C19.7281 8.86432 22.6881 11.8244 22.6881 15.465C22.6881 19.0582 19.7914 21.9866 16.2141 22.0658H15.9608C12.3834 22.0024 9.48672 19.0741 9.48672 15.465ZM19.9656 36.676H2.6644C3.37671 29.9328 9.07517 24.6459 15.9925 24.5984H16.1824C19.4748 24.6142 22.4824 25.8331 24.8092 27.8117C22.5299 30.281 20.8361 33.3202 19.9656 36.676ZM58.161 42.9759C58.161 46.2209 55.5176 48.8643 52.2726 48.8643H27.7376C24.4927 48.8643 21.8492 46.2209 21.8492 42.9759V41.8995C21.8492 32.0697 29.7004 24.0286 39.4669 23.7436C39.6411 23.7595 39.831 23.7595 40.0051 23.7595C40.1792 23.7595 40.3692 23.7595 40.5433 23.7436C50.3098 24.0286 58.161 32.0697 58.161 41.8995V42.9759ZM60.0447 36.676C59.1741 33.336 57.512 30.3443 55.2485 27.875C57.5912 25.8489 60.6304 24.6301 63.9545 24.5984H64.1444C71.0617 24.6459 76.7602 29.9328 77.4725 36.676H60.0447Z" fill="black"/>
</svg>
