<svg width="76" height="76" viewBox="0 0 76 76" fill="none" xmlns="http://www.w3.org/2000/svg">
<path d="M45.2213 23.61C45.4108 23.6101 45.5977 23.5672 45.7682 23.4845C45.9386 23.4018 46.088 23.2814 46.2051 23.1325C47.2998 21.7085 48.2151 20.1552 48.9301 18.5075C49.0023 18.3568 49.0437 18.1932 49.0516 18.0263C49.0596 17.8594 49.034 17.6926 48.9764 17.5357C48.9188 17.3789 48.8303 17.2352 48.7162 17.1131C48.602 16.9911 48.4646 16.8931 48.312 16.8251C48.1594 16.7571 47.9947 16.7203 47.8276 16.717C47.6605 16.7138 47.4945 16.744 47.3393 16.806C47.1842 16.868 47.043 16.9604 46.9242 17.0779C46.8054 17.1954 46.7113 17.3355 46.6476 17.49C46.0152 18.9485 45.2067 20.3241 44.2401 21.5862C44.0952 21.7705 44.0051 21.9918 43.98 22.2249C43.9549 22.458 43.9958 22.6934 44.0982 22.9044C44.2005 23.1153 44.3601 23.2932 44.5587 23.4177C44.7573 23.5423 44.9869 23.6084 45.2213 23.6087V23.61ZM72.0501 65.6775V60.5C72.0501 60.1685 71.9184 59.8505 71.6839 59.6161C71.4495 59.3817 71.1316 59.25 70.8001 59.25H60.8001V54.25C60.8001 53.9185 60.6684 53.6005 60.4339 53.3661C60.1995 53.1317 59.8816 53 59.5501 53H39.5501V50.5C39.5501 50.1685 39.4184 49.8505 39.1839 49.6161C38.9495 49.3817 38.6316 49.25 38.3001 49.25C37.9685 49.25 37.6506 49.3817 37.4162 49.6161C37.1818 49.8505 37.0501 50.1685 37.0501 50.5V53H17.0501C16.7185 53 16.4006 53.1317 16.1662 53.3661C15.9318 53.6005 15.8001 53.9185 15.8001 54.25V60.5H5.80006C5.46854 60.5 5.1506 60.6317 4.91618 60.8661C4.68176 61.1005 4.55006 61.4185 4.55006 61.75V65.6775C3.37174 65.9817 2.34482 66.7053 1.66181 67.7125C0.978793 68.7197 0.686569 69.9415 0.839913 71.1487C0.993256 72.356 1.58164 73.4659 2.49477 74.2704C3.4079 75.0749 4.58309 75.5187 5.80006 75.5187C7.01703 75.5187 8.19222 75.0749 9.10535 74.2704C10.0185 73.4659 10.6069 72.356 10.7602 71.1487C10.9136 69.9415 10.6213 68.7197 9.93831 67.7125C9.2553 66.7053 8.22838 65.9817 7.05006 65.6775V63H27.0501V65.6775C25.8717 65.9817 24.8448 66.7053 24.1618 67.7125C23.4788 68.7197 23.1866 69.9415 23.3399 71.1487C23.4933 72.356 24.0816 73.4659 24.9948 74.2704C25.9079 75.0749 27.0831 75.5187 28.3001 75.5187C29.517 75.5187 30.6922 75.0749 31.6054 74.2704C32.5185 73.4659 33.1069 72.356 33.2602 71.1487C33.4136 69.9415 33.1213 68.7197 32.4383 67.7125C31.7553 66.7053 30.7284 65.9817 29.5501 65.6775V61.75C29.5501 61.4185 29.4184 61.1005 29.1839 60.8661C28.9495 60.6317 28.6316 60.5 28.3001 60.5H18.3001V55.5H58.3001V59.25H48.3001C47.9685 59.25 47.6506 59.3817 47.4162 59.6161C47.1818 59.8505 47.0501 60.1685 47.0501 60.5V65.6775C45.8717 65.9817 44.8448 66.7053 44.1618 67.7125C43.4788 68.7197 43.1866 69.9415 43.3399 71.1487C43.4933 72.356 44.0816 73.4659 44.9948 74.2704C45.9079 75.0749 47.0831 75.5187 48.3001 75.5187C49.517 75.5187 50.6922 75.0749 51.6054 74.2704C52.5185 73.4659 53.1069 72.356 53.2602 71.1487C53.4136 69.9415 53.1213 68.7197 52.4383 67.7125C51.7553 66.7053 50.7284 65.9817 49.5501 65.6775V61.75H69.5501V65.6775C68.3717 65.9817 67.3448 66.7053 66.6618 67.7125C65.9788 68.7197 65.6866 69.9415 65.8399 71.1487C65.9933 72.356 66.5816 73.4659 67.4948 74.2704C68.4079 75.0749 69.5831 75.5187 70.8001 75.5187C72.017 75.5187 73.1922 75.0749 74.1054 74.2704C75.0185 73.4659 75.6069 72.356 75.7602 71.1487C75.9136 69.9415 75.6213 68.7197 74.9383 67.7125C74.2553 66.7053 73.2284 65.9817 72.0501 65.6775ZM8.30006 70.5C8.30006 70.9944 8.15344 71.4778 7.87873 71.8889C7.60403 72.3 7.21358 72.6205 6.75677 72.8097C6.29995 72.9989 5.79729 73.0484 5.31234 72.9519C4.82738 72.8555 4.38192 72.6174 4.03229 72.2677C3.68266 71.9181 3.44456 71.4727 3.3481 70.9877C3.25163 70.5028 3.30114 70.0001 3.49036 69.5433C3.67958 69.0865 4.00001 68.696 4.41114 68.4213C4.82226 68.1466 5.30561 68 5.80006 68C6.4631 68 7.09899 68.2634 7.56783 68.7322C8.03667 69.201 8.30006 69.8369 8.30006 70.5ZM30.8001 70.5C30.8001 70.9944 30.6534 71.4778 30.3787 71.8889C30.104 72.3 29.7136 72.6205 29.2568 72.8097C28.8 72.9989 28.2973 73.0484 27.8123 72.9519C27.3274 72.8555 26.8819 72.6174 26.5323 72.2677C26.1827 71.9181 25.9446 71.4727 25.8481 70.9877C25.7516 70.5028 25.8011 70.0001 25.9904 69.5433C26.1796 69.0865 26.5 68.696 26.9111 68.4213C27.3223 68.1466 27.8056 68 28.3001 68C28.9631 68 29.599 68.2634 30.0678 68.7322C30.5367 69.201 30.8001 69.8369 30.8001 70.5ZM50.8001 70.5C50.8001 70.9944 50.6534 71.4778 50.3787 71.8889C50.104 72.3 49.7136 72.6205 49.2568 72.8097C48.8 72.9989 48.2973 73.0484 47.8123 72.9519C47.3274 72.8555 46.8819 72.6174 46.5323 72.2677C46.1827 71.9181 45.9446 71.4727 45.8481 70.9877C45.7516 70.5028 45.8011 70.0001 45.9904 69.5433C46.1796 69.0865 46.5 68.696 46.9111 68.4213C47.3223 68.1466 47.8056 68 48.3001 68C48.9631 68 49.599 68.2634 50.0678 68.7322C50.5367 69.201 50.8001 69.8369 50.8001 70.5ZM70.8001 73C70.3056 73 69.8223 72.8534 69.4111 72.5787C69 72.3039 68.6796 71.9135 68.4904 71.4567C68.3011 70.9999 68.2516 70.4972 68.3481 70.0122C68.4446 69.5273 68.6827 69.0818 69.0323 68.7322C69.3819 68.3826 69.8274 68.1445 70.3123 68.048C70.7973 67.9515 71.3 68.0011 71.7568 68.1903C72.2136 68.3795 72.604 68.6999 72.8787 69.111C73.1534 69.5222 73.3001 70.0055 73.3001 70.5C73.3001 71.163 73.0367 71.7989 72.5678 72.2677C72.099 72.7366 71.4631 73 70.8001 73Z" fill="black"/>
<path d="M41.425 26.75C42.1154 26.75 42.675 26.1904 42.675 25.5C42.675 24.8096 42.1154 24.25 41.425 24.25C40.7347 24.25 40.175 24.8096 40.175 25.5C40.175 26.1904 40.7347 26.75 41.425 26.75Z" fill="black"/>
<path d="M13.1013 6.6775C12.7525 7.04829 12.4829 7.48621 12.3088 7.96459C12.1347 8.44296 12.0599 8.95176 12.0888 9.46C12.3938 15.5 14.9638 29.4713 29.4638 29.2975C30.4927 30.141 31.6273 30.8466 32.8388 31.3962C32.2626 36.6262 30.4463 38.695 29.8388 39.25C29.3464 39.231 28.855 39.3093 28.3928 39.4802C27.9305 39.6511 27.5065 39.9114 27.1449 40.2463C26.7833 40.5811 26.4911 40.9838 26.2852 41.4316C26.0792 41.8793 25.9634 42.3632 25.9444 42.8556C25.9255 43.3481 26.0037 43.8395 26.1747 44.3017C26.3456 44.7639 26.6059 45.1879 26.9407 45.5496C27.2755 45.9112 27.6783 46.2033 28.126 46.4093C28.5737 46.6153 29.0576 46.731 29.5501 46.75H47.0501C47.5425 46.7311 48.0264 46.6154 48.4742 46.4095C48.9219 46.2036 49.3248 45.9116 49.6596 45.55C49.9945 45.1884 50.2549 44.7645 50.4259 44.3023C50.5969 43.8401 50.6752 43.3487 50.6563 42.8562C50.6374 42.3638 50.5218 41.8799 50.3159 41.4321C50.11 40.9844 49.8179 40.5816 49.4563 40.2467C49.0948 39.9118 48.6708 39.6515 48.2086 39.4804C47.7464 39.3094 47.255 39.2311 46.7626 39.25C46.1513 38.695 44.3351 36.625 43.7626 31.3962C44.9741 30.8466 46.1087 30.141 47.1376 29.2975C61.6376 29.4713 64.2101 15.5 64.5126 9.46C64.5412 8.95016 64.4653 8.43986 64.2897 7.96037C64.1141 7.48087 63.8424 7.0423 63.4913 6.67153C63.1402 6.30075 62.7171 6.00559 62.2479 5.80414C61.7786 5.60269 61.2732 5.4992 60.7626 5.5H56.9651C56.9888 5.14125 57.0276 4.7925 57.0438 4.42875C57.0664 3.92185 56.9862 3.41562 56.8081 2.94052C56.6299 2.46543 56.3574 2.03129 56.0071 1.66425C55.6567 1.29721 55.2358 1.00485 54.7695 0.804766C54.3032 0.604683 53.8012 0.501014 53.2938 0.5H23.3101C22.8027 0.501014 22.3007 0.604683 21.8344 0.804766C21.3681 1.00485 20.9472 1.29721 20.5968 1.66425C20.2465 2.03129 19.974 2.46543 19.7958 2.94052C19.6177 3.41562 19.5375 3.92185 19.5601 4.42875C19.5763 4.7925 19.6151 5.14125 19.6388 5.5H15.8338C15.3223 5.5007 14.8163 5.60545 14.3465 5.80788C13.8768 6.0103 13.4531 6.30618 13.1013 6.6775ZM47.0501 41.75C47.3816 41.75 47.6995 41.8817 47.934 42.1161C48.1684 42.3505 48.3001 42.6685 48.3001 43C48.3001 43.3315 48.1684 43.6495 47.934 43.8839C47.6995 44.1183 47.3816 44.25 47.0501 44.25H29.5501C29.2186 44.25 28.9006 44.1183 28.6662 43.8839C28.4318 43.6495 28.3001 43.3315 28.3001 43C28.3001 42.6685 28.4318 42.3505 28.6662 42.1161C28.9006 41.8817 29.2186 41.75 29.5501 41.75H47.0501ZM33.0263 39.25C34.2725 37.0832 35.0397 34.6746 35.2763 32.1863C37.2648 32.6912 39.3479 32.6912 41.3363 32.1863C41.5691 34.6736 42.3321 37.0822 43.5738 39.25H33.0263ZM56.7526 8H60.7663C60.9376 7.99906 61.1071 8.03355 61.2644 8.10131C61.4216 8.16908 61.5632 8.26864 61.6801 8.39375C61.7965 8.51567 61.8864 8.66033 61.9443 8.81864C62.0021 8.97695 62.0267 9.14551 62.0163 9.31375C61.6626 15.3775 59.4951 25.105 49.8451 26.5812C53.4113 22.25 55.8826 15.7887 56.7526 8ZM22.4013 3.39C22.5183 3.2666 22.6592 3.16837 22.8155 3.10131C22.9717 3.03425 23.14 2.99978 23.3101 3H53.2901C53.4603 2.99984 53.6287 3.03416 53.7853 3.10089C53.9419 3.16762 54.0833 3.26538 54.2011 3.38827C54.3188 3.51116 54.4104 3.65664 54.4704 3.81591C54.5304 3.97519 54.5575 4.14496 54.5501 4.315C53.3863 17.6987 49.9151 28.7625 38.3001 30.065C26.6888 28.7625 23.2176 17.6987 22.0501 4.315C22.0426 4.14503 22.0699 3.97532 22.1303 3.81627C22.1907 3.65721 22.2829 3.51216 22.4013 3.39ZM19.8476 8C20.7226 15.7887 23.1888 22.25 26.7551 26.5812C17.1051 25.105 14.9376 15.3775 14.5838 9.31375C14.5735 9.14551 14.598 8.97695 14.6559 8.81864C14.7137 8.66033 14.8037 8.51567 14.9201 8.39375C15.037 8.26864 15.1785 8.16908 15.3358 8.10131C15.493 8.03355 15.6626 7.99906 15.8338 8H19.8476Z" fill="black"/>
</svg>
