<svg width="20" height="21" viewBox="0 0 20 21" fill="none" xmlns="http://www.w3.org/2000/svg">
<path d="M17.5584 4.85842C16.2167 4.72508 14.875 4.62508 13.525 4.55008V4.54175L13.3417 3.45841C13.2167 2.69175 13.0334 1.54175 11.0834 1.54175H8.90005C6.95838 1.54175 6.77505 2.64175 6.64172 3.45008L6.46672 4.51675C5.69172 4.56675 4.91672 4.61675 4.14172 4.69175L2.44172 4.85842C2.09172 4.89175 1.84172 5.20008 1.87505 5.54175C1.90838 5.88342 2.20838 6.13342 2.55838 6.10008L4.25838 5.93342C8.62505 5.50008 13.0251 5.66675 17.4417 6.10842C17.4667 6.10842 17.4834 6.10842 17.5084 6.10842C17.8251 6.10842 18.1 5.86675 18.1334 5.54175C18.1584 5.20008 17.9084 4.89175 17.5584 4.85842Z" fill="#E20B18"/>
<path d="M16.0254 7.28325C15.8254 7.07492 15.5504 6.95825 15.2671 6.95825H4.73378C4.45044 6.95825 4.16711 7.07492 3.97544 7.28325C3.78378 7.49159 3.67544 7.77492 3.69211 8.06659L4.20878 16.6166C4.30044 17.8833 4.41711 19.4666 7.32544 19.4666H12.6754C15.5838 19.4666 15.7004 17.8916 15.7921 16.6166L16.3088 8.07492C16.3254 7.77492 16.2171 7.49159 16.0254 7.28325ZM11.3838 15.2916H8.60878C8.26711 15.2916 7.98378 15.0083 7.98378 14.6666C7.98378 14.3249 8.26711 14.0416 8.60878 14.0416H11.3838C11.7254 14.0416 12.0088 14.3249 12.0088 14.6666C12.0088 15.0083 11.7254 15.2916 11.3838 15.2916ZM12.0838 11.9583H7.91711C7.57544 11.9583 7.29211 11.6749 7.29211 11.3333C7.29211 10.9916 7.57544 10.7083 7.91711 10.7083H12.0838C12.4254 10.7083 12.7088 10.9916 12.7088 11.3333C12.7088 11.6749 12.4254 11.9583 12.0838 11.9583Z" fill="#E20B18"/>
</svg>
