<svg width="32" height="32" viewBox="0 0 32 32" fill="none" xmlns="http://www.w3.org/2000/svg">
<rect x="0.5" y="0.5" width="31" height="31" rx="15.5" stroke="#F2F2F2"/>
<g clip-path="url(#clip0_4889_60847)">
<path d="M12.4693 19.6334C11.3562 19.6093 10.3809 19.0113 9.82254 18.1243C10.161 18.1163 10.494 18.0724 10.8084 17.9864L10.7767 17.0143C9.56599 16.7666 8.59534 15.8274 8.30734 14.6226C8.64952 14.7248 9.01064 14.7852 9.37776 14.7922L11.083 14.8245L9.66515 13.8766C8.81671 13.3093 8.24813 12.3292 8.24813 11.2255C8.24813 10.8955 8.2989 10.5781 8.39272 10.2779C10.2799 12.2824 12.9032 13.5765 15.835 13.7195L16.4927 13.7516L16.347 13.1095C16.2964 12.8864 16.2739 12.6436 16.2739 12.3786C16.2739 10.6204 17.6963 9.1875 19.4616 9.1875C20.3716 9.1875 21.2064 9.57333 21.7927 10.1975L21.9828 10.4L22.2551 10.3456C22.5936 10.2779 22.9247 10.1899 23.247 10.0819C23.0595 10.2697 22.8481 10.4346 22.6174 10.5723L22.9368 11.4976C23.1278 11.4734 23.317 11.4428 23.5044 11.4061C23.3016 11.5926 23.0872 11.7666 22.8611 11.927L22.6373 12.0858L22.6511 12.3599C22.6588 12.5115 22.664 12.66 22.664 12.8117C22.664 17.4725 19.118 22.8125 12.661 22.8125C11.3687 22.8125 10.1387 22.5711 9.00934 22.1275C10.4152 21.9271 11.7044 21.358 12.7666 20.5271L13.8703 19.6637L12.4693 19.6334Z" fill="#F2F2F2" stroke="#F2F2F2"/>
</g>
<defs>
<clipPath id="clip0_4889_60847">
<rect width="18" height="18" fill="white" transform="translate(7 7)"/>
</clipPath>
</defs>
</svg>
