<svg width="40" height="40" viewBox="0 0 40 40" fill="none" xmlns="http://www.w3.org/2000/svg">
<path d="M18.332 26.666C18.332 27.1382 18.492 27.5338 18.812 27.8527C19.1309 28.1727 19.5265 28.3327 19.9987 28.3327C20.4709 28.3327 20.867 28.1799 21.187 27.8743C21.5059 27.5688 21.6654 27.1799 21.6654 26.7077V21.666H24.6654C25.0543 21.666 25.3109 21.4927 25.4354 21.146C25.5609 20.7982 25.4987 20.4993 25.2487 20.2493L20.582 15.5827C20.4154 15.416 20.2209 15.3327 19.9987 15.3327C19.7765 15.3327 19.582 15.416 19.4154 15.5827L14.7487 20.2493C14.4987 20.4993 14.4365 20.7982 14.562 21.146C14.6865 21.4927 14.9431 21.666 15.332 21.666H18.332V26.666ZM6.66537 33.3327C5.7487 33.3327 4.96425 33.0066 4.31203 32.3543C3.6587 31.701 3.33203 30.916 3.33203 29.9993V9.99935C3.33203 9.08268 3.6587 8.29824 4.31203 7.64602C4.96425 6.99268 5.7487 6.66602 6.66537 6.66602H15.2904C15.7348 6.66602 16.1587 6.74935 16.562 6.91602C16.9643 7.08268 17.3181 7.31879 17.6237 7.62435L19.9987 9.99935H33.332C34.2487 9.99935 35.0337 10.326 35.687 10.9793C36.3393 11.6316 36.6654 12.416 36.6654 13.3327V29.9993C36.6654 30.916 36.3393 31.701 35.687 32.3543C35.0337 33.0066 34.2487 33.3327 33.332 33.3327H6.66537Z" fill="#E20B18"/>
</svg>
