<svg width="20" height="21" viewBox="0 0 20 21" fill="none" xmlns="http://www.w3.org/2000/svg">
<path d="M15 2.16675H5C3.61667 2.16675 2.5 3.27508 2.5 4.64175V13.7334C2.5 15.1001 3.61667 16.2167 5 16.2167H5.63333C6.29167 16.2167 6.93333 16.4751 7.4 16.9417L8.825 18.3501C9.475 18.9917 10.525 18.9917 11.175 18.3501L12.6 16.9417C13.0667 16.4751 13.7083 16.2167 14.3667 16.2167H15C16.3833 16.2167 17.5 15.1001 17.5 13.7334V4.64175C17.5 3.27508 16.3833 2.16675 15 2.16675ZM10 5.12508C10.9 5.12508 11.625 5.85841 11.625 6.75008C11.625 7.63341 10.925 8.34175 10.0583 8.37508C10.025 8.37508 9.975 8.37508 9.93333 8.37508C9.05833 8.34175 8.36667 7.63341 8.36667 6.75008C8.375 5.85841 9.1 5.12508 10 5.12508ZM12.2917 12.7417C11.0333 13.5834 8.96667 13.5834 7.70833 12.7417C6.6 12.0084 6.6 10.7917 7.70833 10.0501C8.975 9.20842 11.0417 9.20842 12.2917 10.0501C13.4 10.7917 13.4 12.0001 12.2917 12.7417Z" fill="#E20B18"/>
</svg>
