<svg width="31" height="30" viewBox="0 0 31 30" fill="none" xmlns="http://www.w3.org/2000/svg">
<rect x="0.5" width="30" height="30" rx="10" fill="#E20B18"/>
<path d="M17.8866 14.9999C17.8866 16.3199 16.8199 17.3866 15.4999 17.3866C14.1799 17.3866 13.1133 16.3199 13.1133 14.9999C13.1133 13.6799 14.1799 12.6133 15.4999 12.6133C16.8199 12.6133 17.8866 13.6799 17.8866 14.9999Z" stroke="white" stroke-width="1.5" stroke-linecap="round" stroke-linejoin="round"/>
<path d="M15.4999 20.5138C17.8532 20.5138 20.0466 19.1271 21.5732 16.7271C22.1732 15.7871 22.1732 14.2071 21.5732 13.2671C20.0466 10.8671 17.8532 9.48047 15.4999 9.48047C13.1466 9.48047 10.9532 10.8671 9.42656 13.2671C8.82656 14.2071 8.82656 15.7871 9.42656 16.7271C10.9532 19.1271 13.1466 20.5138 15.4999 20.5138Z" stroke="white" stroke-width="1.5" stroke-linecap="round" stroke-linejoin="round"/>
</svg>
