<svg width="27" height="27" viewBox="0 0 27 27" fill="none" xmlns="http://www.w3.org/2000/svg">
<g id="Frame" clip-path="url(#clip0_6095_37533)">
<g id="Group">
<path id="Vector" d="M14.901 9.16075C14.7918 9.17719 14.6805 9.14957 14.5916 9.08398C14.5027 9.01838 14.4435 8.92018 14.427 8.81095C14.3823 8.53135 14.3036 8.25827 14.1926 7.99778C13.3545 5.98262 11.0329 5.02488 9.01775 5.86298C7.00259 6.70108 6.04485 9.0227 6.88295 11.0379C7.28344 12.0008 8.03121 12.7539 8.9888 13.1575C9.06423 13.1897 9.12852 13.2434 9.17364 13.3119C9.21875 13.3804 9.2427 13.4606 9.24249 13.5426C9.24227 13.6246 9.21792 13.7048 9.17245 13.773C9.12698 13.8413 9.06242 13.8946 8.98682 13.9264C8.88757 13.9677 8.77192 13.9707 8.66484 13.9259C7.50864 13.4404 6.59146 12.5172 6.11351 11.3579C5.09892 8.91836 6.25823 6.10812 8.69774 5.09354C11.1373 4.07895 13.9475 5.23826 14.9621 7.67777C15.1046 8.02056 15.2015 8.35979 15.2508 8.68674C15.2673 8.79598 15.2397 8.90728 15.1741 8.99616C15.1085 9.08505 15.0103 9.14425 14.901 9.16075Z" fill="#FDC101"/>
<path id="Vector_2" d="M7.65316 10.7184C6.99138 9.12721 7.74732 7.29475 9.33853 6.63298C10.9297 5.9712 12.7622 6.72714 13.424 8.31835C13.4664 8.42038 13.4666 8.53509 13.4244 8.63725C13.3823 8.73941 13.3013 8.82064 13.1992 8.86307C13.0972 8.90551 12.9825 8.90567 12.8803 8.86353C12.7782 8.82139 12.697 8.74039 12.6545 8.63836C12.1692 7.4715 10.8254 6.91712 9.65854 7.40242C8.49168 7.88771 7.9373 9.23155 8.4226 10.3984C8.46503 10.5004 8.4652 10.6151 8.42306 10.7173C8.38091 10.8195 8.29992 10.9007 8.19788 10.9431C8.09585 10.9856 7.98113 10.9857 7.87898 10.9436C7.77682 10.9014 7.69559 10.8204 7.65316 10.7184Z" fill="#FDC101"/>
<path id="Vector_3" d="M8.39135 18.4928L11.1076 20.4299C11.7606 20.896 12.4881 21.2476 13.259 21.4698L14.3418 21.7816C14.4637 21.8167 14.5622 21.9048 14.6108 22.0217L14.9371 22.8062C15.2017 23.4425 15.9349 23.745 16.5713 23.4803L20.8032 21.7203C21.4395 21.4556 21.742 20.7224 21.4773 20.0861L21.1053 19.1916C21.0364 19.0258 21.0043 18.851 21.0102 18.6721L21.0884 16.2104C21.1162 15.358 20.9617 14.5094 20.6354 13.7214C20.632 13.7134 20.629 13.7061 20.625 13.6987L20.616 13.6749L19.376 10.6933C19.0671 9.9508 18.2119 9.598 17.4694 9.90681C17.1786 10.0278 16.9474 10.2327 16.7924 10.4817C16.6304 10.3662 16.4463 10.2851 16.2518 10.2434C16.0572 10.2017 15.8561 10.2003 15.6609 10.2392C15.4657 10.2781 15.2806 10.3565 15.1169 10.4696C14.9531 10.5828 14.8143 10.7282 14.7088 10.897C14.4174 10.6892 14.0597 10.5959 13.7039 10.6347C13.3481 10.6735 13.019 10.8418 12.7792 11.1075L11.8851 8.95763C11.5763 8.21512 10.7211 7.86232 9.97857 8.17113C9.23606 8.47993 8.88326 9.33515 9.19207 10.0777L12.199 17.3077L10.1218 16.2551C9.7974 16.0944 9.42884 16.046 9.07394 16.1174C8.71905 16.1888 8.39789 16.376 8.16086 16.6496C8.04661 16.7821 7.96139 16.9371 7.91072 17.1046C7.86004 17.2721 7.84502 17.4483 7.86664 17.6219C7.88825 17.7955 7.94602 17.9627 8.03621 18.1126C8.1264 18.2626 8.24701 18.3919 8.39027 18.4924L8.39135 18.4928ZM8.69372 17.5196C8.68622 17.4617 8.69112 17.4028 8.70808 17.3469C8.72505 17.291 8.7537 17.2393 8.79214 17.1953C8.90786 17.0617 9.06458 16.9701 9.23782 16.935C9.41106 16.8998 9.59106 16.9231 9.7497 17.001L12.8288 18.5616C12.9048 18.5999 12.9906 18.6141 13.0749 18.6022C13.1591 18.5903 13.2377 18.5529 13.3001 18.4951C13.3624 18.4372 13.4056 18.3616 13.4237 18.2785C13.4419 18.1954 13.4341 18.1087 13.4015 18.0301L9.96144 9.75858C9.82912 9.44042 9.98035 9.07382 10.2985 8.9415C10.6167 8.80917 10.9833 8.96041 11.1156 9.27857L13.4357 14.857C13.4781 14.959 13.5593 15.04 13.6615 15.0822C13.7636 15.1243 13.8784 15.1242 13.9804 15.0817C14.0824 15.0393 14.1634 14.9581 14.2056 14.8559C14.2477 14.7538 14.2475 14.639 14.2051 14.537L13.2851 12.3249C13.1528 12.0067 13.304 11.6401 13.6222 11.5078C13.9403 11.3755 14.3069 11.5267 14.4392 11.8449L15.3593 14.057C15.4017 14.159 15.4829 14.24 15.5851 14.2822C15.6872 14.3243 15.802 14.3241 15.904 14.2817C16.006 14.2393 16.087 14.158 16.1292 14.0559C16.1713 13.9537 16.1711 13.839 16.1287 13.737L15.3687 11.9096C15.2364 11.5914 15.3876 11.2248 15.7058 11.0925C16.0239 10.9602 16.3905 11.1114 16.5228 11.4296L17.2829 13.257C17.3253 13.359 17.4065 13.44 17.5087 13.4821C17.6108 13.5243 17.7256 13.5241 17.8276 13.4817C17.9296 13.4393 18.0106 13.358 18.0528 13.2559C18.0949 13.1537 18.0947 13.039 18.0523 12.937L17.4523 11.4943C17.32 11.1761 17.4712 10.8095 17.7894 10.6772C18.1075 10.5449 18.4741 10.6961 18.6065 11.0143L19.8465 13.9958C19.8498 14.0039 19.8529 14.0112 19.857 14.019L19.8658 14.0424C20.1459 14.7156 20.2805 15.4561 20.2555 16.1836L20.1772 18.6462C20.1674 18.9429 20.2214 19.2382 20.3357 19.5122L20.7077 20.4067C20.796 20.619 20.6949 20.8632 20.483 20.9514L16.251 22.7114C16.039 22.7996 15.7946 22.6991 15.7063 22.4867L15.3801 21.7023C15.2336 21.3502 14.9393 21.0873 14.5725 20.9813L13.4892 20.6692C12.809 20.4734 12.1671 20.1632 11.591 19.7519L8.87151 17.8126C8.82266 17.7793 8.78149 17.7359 8.75076 17.6854C8.72003 17.6349 8.70045 17.5785 8.69334 17.5198L8.69372 17.5196Z" fill="#FDC101"/>
</g>
</g>
<defs>
<clipPath id="clip0_6095_37533">
<rect width="20" height="20" fill="white" transform="translate(0.425781 8.53418) rotate(-22.5823)"/>
</clipPath>
</defs>
</svg>
