<svg xmlns="http://www.w3.org/2000/svg" width="32" height="32" viewBox="0 0 32 32" fill="none">
<rect x="0.5" y="0.5" width="31" height="31" rx="15.5" stroke="#e20b18" fill="#000000"/>
<g clip-path="url(#clip0_10628_51555)">
<path d="M24.7491 11.7109C24.6546 10.9227 23.9118 10.1669 23.1347 10.0656C18.3967 9.47681 13.604 9.47681 8.86599 10.0656C8.08818 10.1667 7.34541 10.9227 7.25092 11.7109C6.91636 14.5995 6.91636 17.4003 7.25092 20.2883C7.34541 21.0765 8.08818 21.8329 8.86599 21.9335C13.604 22.5223 18.3967 22.5223 23.1347 21.9335C23.9118 21.8331 24.6546 21.0765 24.7491 20.2883C25.0837 17.4006 25.0837 14.5995 24.7491 11.7109ZM14.4999 19.0001V12.9999L19 16.0001L14.4999 19.0001Z" fill="#e20b18"/>
</g>
<defs fill="#000000">
<clipPath id="clip0_10628_51555" fill="#000000">
<rect width="18" height="18" fill="#e20b18" transform="translate(7 7)"/>
</clipPath>
</defs>
</svg>