<svg width="110" height="43" viewBox="0 0 110 43" fill="none" xmlns="http://www.w3.org/2000/svg">
<path d="M28.149 26.9109C28.4241 27.2286 28.6184 27.5926 28.7319 28.0043C28.8453 28.4161 28.8609 28.8279 28.7801 29.2397L28.756 29.383L20.6893 39.5777H26.9095L26.3025 42.9999H19.1591C18.7223 42.9999 18.3082 42.9085 17.9196 42.7272C17.531 42.5459 17.1991 42.2958 16.924 41.9782C16.6489 41.6619 16.4546 41.2965 16.3411 40.8848C16.2277 40.473 16.2121 40.0612 16.2929 39.6494V39.5777L24.3837 29.3128H18.1394C18.2202 28.7112 18.1876 28.1168 18.0415 27.5307C17.8955 26.9447 17.6529 26.398 17.3126 25.8906H25.9125C26.3337 25.8906 26.7421 25.982 27.1392 26.1647C27.5363 26.3474 27.8724 26.5961 28.1476 26.9138L28.149 26.9109Z" fill="white"/>
<path d="M42.5571 25.8896L39.4711 42.9989H32.3276C31.8908 42.9989 31.4767 42.9075 31.0881 42.7263C30.6996 42.545 30.3677 42.2948 30.0926 41.9772C29.8174 41.661 29.6231 41.2956 29.5097 40.8838C29.3962 40.472 29.3792 40.0602 29.4615 39.6484L31.2597 29.5971C31.3732 28.9478 31.3604 28.3055 31.2229 27.6717C31.0853 27.0379 30.83 26.4448 30.457 25.8896H35.4859L33.0084 39.5768H36.5312L39.0087 25.8896H42.5556H42.5571Z" fill="white"/>
<path d="M54.6065 26.9115C54.8817 27.2445 55.0759 27.6128 55.1894 28.0161C55.3029 28.4194 55.3185 28.8284 55.2376 29.2402L54.5087 33.351C54.4278 33.7627 54.286 34.1394 54.0832 34.4795C53.8804 34.821 53.6251 35.1133 53.3174 35.3593C53.0096 35.6052 52.6608 35.8034 52.2722 35.9538C51.8836 36.1041 51.478 36.18 51.0568 36.18H46.927L45.6875 43.0004H42.1406L44.5459 29.6449C44.6749 28.9802 44.6678 28.3295 44.5218 27.6971C44.3757 27.0632 44.1162 26.4702 43.7446 25.915H52.37C52.7912 25.915 53.1997 26.0022 53.5968 26.1764C53.9939 26.3507 54.33 26.5967 54.6051 26.9129L54.6065 26.9115ZM51.6666 29.3344H48.1679L47.5368 32.7565H51.0596L51.6666 29.3344Z" fill="white"/>
<path d="M67.8734 26.9109C68.1485 27.244 68.3471 27.6122 68.4691 28.0156C68.591 28.4189 68.6109 28.8279 68.53 29.2396L66.0283 42.9984H58.8849C58.4637 42.9984 58.0595 42.9113 57.6695 42.737C57.2795 42.5628 56.9491 42.3168 56.674 42.0006C56.3988 41.6675 56.2003 41.2993 56.0783 40.896C55.9563 40.4926 55.9365 40.0837 56.0173 39.6719L57.8397 29.5966C57.9532 28.9473 57.9404 28.3051 57.8028 27.6712C57.6653 27.0374 57.41 26.4514 57.037 25.9131H65.6383C66.5446 25.9131 67.2905 26.2462 67.8734 26.9109ZM64.9576 29.3338H61.4348L59.5883 39.5763H63.1111L64.9576 29.3338Z" fill="white"/>
<path d="M83.9069 25.8896L83.2999 29.3118H78.5618L76.0842 42.9989H72.5373L75.0149 29.3118H70.2767C70.3419 28.7103 70.3008 28.1158 70.1547 27.5297C70.0087 26.9437 69.7661 26.397 69.4258 25.8896H83.9055H83.9069Z" fill="white"/>
<path d="M89.0337 29.3112L88.7912 30.5466L93.6017 36.1555C93.925 36.5518 94.152 36.9917 94.2824 37.4738C94.4115 37.9572 94.4356 38.4449 94.3548 38.9354L94.1364 40.1707C94.0555 40.5825 93.9137 40.9633 93.7109 41.3119C93.5081 41.6604 93.2528 41.9584 92.9451 42.2029C92.6373 42.4488 92.2885 42.6428 91.8999 42.7847C91.5113 42.9267 91.1057 42.9984 90.6845 42.9984H83.0078L83.6148 39.5762H90.6845L90.9029 38.3409L86.1165 32.732C85.7435 32.3047 85.4967 31.8128 85.3748 31.2591C85.2528 30.7054 85.2741 30.1502 85.4358 29.5951C85.5492 28.9458 85.5365 28.3036 85.3989 27.6697C85.2613 27.0359 85.006 26.4428 84.6331 25.8877H96.7075L96.0764 29.3098H89.0309L89.0337 29.3112Z" fill="white"/>
<path d="M109.998 25.8896L106.912 42.9989H99.769C99.3322 42.9989 98.9181 42.9075 98.5295 42.7263C98.141 42.545 97.8091 42.2948 97.534 41.9772C97.2588 41.661 97.0646 41.2956 96.9511 40.8838C96.8376 40.472 96.8206 40.0602 96.9029 39.6484L98.7011 29.5971C98.8146 28.9478 98.8018 28.3055 98.6643 27.6717C98.5267 27.0379 98.2714 26.4448 97.8984 25.8896H102.927L100.45 39.5768H103.973L106.45 25.8896H109.997H109.998Z" fill="white"/>
<path d="M19.6641 8.70312C19.6641 8.70312 19.6953 8.71577 19.7492 8.73545C19.7208 8.72421 19.6924 8.71296 19.6641 8.70312Z" fill="white"/>
<path d="M53.9035 17.4036C49.283 14.7811 36.152 11.1707 36.152 11.1707L44.6469 9.66689C46.8324 9.28041 49.8389 7.31567 49.3256 5.20196C48.5526 2.02015 44.43 -2.14965 38.4792 1.29357C29.9545 6.22649 25.0589 4.7171 13.7261 1.64632C13.7261 1.64632 10.7763 5.31158 19.6655 8.70139C19.6939 8.71263 19.7222 8.72388 19.7506 8.73371C19.752 8.73371 19.7534 8.73371 19.7563 8.73512C19.7662 8.73933 19.7761 8.74215 19.786 8.74636C20.098 8.8602 21.0043 9.17079 22.2977 9.42095C23.9371 9.73716 26.192 9.95359 28.6327 9.54322C7.86189 17.1717 1.70694 28.1239 0.0490718 35.4362C-0.403331 37.4332 2.39334 38.5997 3.46975 36.8472C19.6045 10.5916 41.1057 18.4155 52.6342 20.6332C54.6253 21.0154 55.6606 18.4 53.9063 17.4036H53.9035ZM43.2259 3.40868C44.1194 3.32014 44.9178 3.95678 45.0086 4.83094C45.0993 5.70509 44.4484 6.48509 43.5535 6.57363C42.6586 6.66217 41.8616 6.02552 41.7708 5.15137C41.6801 4.27721 42.331 3.49722 43.2259 3.40868Z" fill="white"/>
</svg>
