<svg width="137" height="56" viewBox="0 0 137 56" fill="none" xmlns="http://www.w3.org/2000/svg">
<path d="M35.2345 34.7571C35.5689 35.1523 35.8051 35.6053 35.943 36.1178C36.0809 36.6302 36.0999 37.1426 36.0016 37.6551L35.9723 37.8335L26.1672 50.5205H33.7279L32.9901 54.7793H24.3072C23.7763 54.7793 23.2729 54.6656 22.8006 54.44C22.3283 54.2143 21.9249 53.903 21.5905 53.5078C21.256 53.1142 21.0199 52.6595 20.882 52.1471C20.7441 51.6346 20.7251 51.1222 20.8234 50.6097V50.5205L30.6578 37.746H23.0678C23.166 36.9975 23.1264 36.2577 22.9488 35.5284C22.7713 34.799 22.4765 34.1187 22.0628 33.4873H32.516C33.028 33.4873 33.5245 33.601 34.0071 33.8284C34.4898 34.0557 34.8984 34.3653 35.2328 34.7606L35.2345 34.7571Z" fill="#010202"/>
<path d="M52.7458 33.4854L48.9947 54.7773H40.3118C39.7809 54.7773 39.2776 54.6636 38.8052 54.438C38.3329 54.2124 37.9295 53.9011 37.5951 53.5058C37.2607 53.1123 37.0245 52.6576 36.8866 52.1451C36.7487 51.6327 36.728 51.1202 36.828 50.6078L39.0138 38.0991C39.1517 37.2911 39.1362 36.4918 38.969 35.703C38.8018 34.9143 38.4915 34.1762 38.0381 33.4854H44.1508L41.1393 50.5186H45.4213L48.4328 33.4854H52.744H52.7458Z" fill="#010202"/>
<path d="M67.3946 34.7566C67.729 35.1711 67.9652 35.6294 68.1031 36.1313C68.241 36.6333 68.2599 37.1422 68.1617 37.6547L67.2756 42.7704C67.1774 43.2828 67.005 43.7516 66.7585 44.1748C66.512 44.5998 66.2017 44.9636 65.8276 45.2697C65.4536 45.5757 65.0295 45.8224 64.5572 46.0095C64.0848 46.1966 63.5918 46.2911 63.0798 46.2911H58.0601L56.5535 54.7788H52.2422L55.1658 38.1584C55.3227 37.3311 55.314 36.5213 55.1365 35.7343C54.9589 34.9455 54.6435 34.2074 54.1918 33.5166H64.6761C65.1881 33.5166 65.6845 33.625 66.1672 33.8419C66.6499 34.0588 67.0584 34.3648 67.3928 34.7584L67.3946 34.7566ZM63.8211 37.7718H59.5684L58.8013 42.0306H63.0833L63.8211 37.7718Z" fill="#010202"/>
<path d="M83.5171 34.7574C83.8515 35.1719 84.0928 35.6301 84.2411 36.1321C84.3893 36.634 84.4135 37.143 84.3152 37.6554L81.2744 54.7778H72.5915C72.0795 54.7778 71.5882 54.6694 71.1142 54.4525C70.6401 54.2357 70.2385 53.9296 69.9041 53.5361C69.5696 53.1216 69.3283 52.6633 69.18 52.1614C69.0318 51.6594 69.0077 51.1505 69.1059 50.638L71.321 38.0997C71.4589 37.2916 71.4434 36.4924 71.2762 35.7036C71.109 34.9148 70.7987 34.1855 70.3454 33.5156H80.8003C81.9018 33.5156 82.8086 33.9301 83.5171 34.7574ZM79.9729 37.7726H75.6909L73.4465 50.5191H77.7285L79.9729 37.7726Z" fill="#E30613"/>
<path d="M103.008 33.4854L102.27 37.7441H96.5111L93.4996 54.7773H89.1883L92.1998 37.7441H86.4405C86.5198 36.9955 86.4698 36.2557 86.2923 35.5264C86.1147 34.7971 85.82 34.1167 85.4062 33.4854H103.006H103.008Z" fill="#010202"/>
<path d="M109.239 37.7449L108.944 39.2822L114.791 46.2623C115.184 46.7556 115.46 47.303 115.618 47.9029C115.775 48.5045 115.805 49.1114 115.706 49.7218L115.441 51.2591C115.343 51.7716 115.17 52.2456 114.924 52.6793C114.677 53.1131 114.367 53.4838 113.993 53.7882C113.619 54.0942 113.195 54.3356 112.722 54.5122C112.25 54.6889 111.757 54.7781 111.245 54.7781H101.914L102.652 50.5193H111.245L111.511 48.982L105.693 42.0019C105.239 41.4702 104.939 40.858 104.791 40.1689C104.643 39.4798 104.669 38.789 104.865 38.0982C105.003 37.2901 104.988 36.4909 104.82 35.7021C104.653 34.9133 104.343 34.1752 103.89 33.4844H118.566L117.799 37.7431H109.235L109.239 37.7449Z" fill="#010202"/>
<path d="M134.722 33.4854L130.971 54.7773H122.288C121.757 54.7773 121.254 54.6636 120.782 54.438C120.309 54.2124 119.906 53.9011 119.572 53.5058C119.237 53.1123 119.001 52.6576 118.863 52.1451C118.725 51.6327 118.705 51.1202 118.805 50.6078L120.99 38.0991C121.128 37.2911 121.113 36.4918 120.946 35.703C120.778 34.9143 120.468 34.1762 120.015 33.4854H126.127L123.116 50.5186H127.398L130.409 33.4854H134.721H134.722Z" fill="#010202"/>
<path d="M25.0251 12.1388C25.0251 12.1388 25.0223 12.1388 25.0195 12.1377C25.0209 12.1377 25.0223 12.1377 25.0251 12.1388Z" fill="#E30613"/>
<path d="M25.0676 12.1535C25.0555 12.1483 25.0434 12.1449 25.0312 12.1396C25.0434 12.1431 25.0537 12.1483 25.0676 12.1535Z" fill="#E30613"/>
<path d="M24.9219 12.0967C24.9219 12.0967 24.9598 12.1123 25.0253 12.1366C24.9908 12.1227 24.9564 12.1088 24.9219 12.0967Z" fill="#E30613"/>
<path d="M66.5396 22.9258C60.9233 19.6622 44.9625 15.1691 44.9625 15.1691L55.2882 13.2977C57.9446 12.8168 61.5991 10.3717 60.9751 7.74127C60.0356 3.7816 55.0244 -1.40759 47.7913 2.87738C37.4294 9.01626 31.4788 7.13787 17.7037 3.31637C17.7037 3.31637 14.1182 7.87769 24.9231 12.0962C24.9575 12.1102 24.992 12.1242 25.0265 12.1364C25.0282 12.1364 25.0299 12.1364 25.0334 12.1382C25.0455 12.1434 25.0575 12.1469 25.0696 12.1522C25.4488 12.2938 26.5504 12.6804 28.1225 12.9917C30.1152 13.3852 32.8561 13.6545 35.8228 13.1438C10.5757 22.6372 3.09432 36.267 1.07918 45.3669C0.529279 47.8521 3.92865 49.3038 5.23703 47.1228C24.8489 14.4486 50.9838 24.1851 64.9967 26.945C67.417 27.4207 68.6754 24.1658 66.543 22.9258H66.5396ZM53.5609 5.50958C54.6469 5.3994 55.6174 6.19168 55.7277 7.27954C55.8381 8.3674 55.0468 9.33808 53.9591 9.44826C52.8731 9.55845 51.9026 8.76616 51.7923 7.6783C51.6819 6.59044 52.4732 5.61977 53.5609 5.50958Z" fill="#E30613"/>
</svg>
