<svg width="184" height="115" viewBox="0 0 184 115" fill="none" xmlns="http://www.w3.org/2000/svg">
            <path d="M50.6712 56.0664C51.0952 56.5676 51.3946 57.1419 51.5695 57.7916C51.7443 58.4413 51.7684 59.091 51.6438 59.7407L51.6066 59.9669L39.1752 76.0522H48.761L47.8256 81.4517H36.817C36.1438 81.4517 35.5056 81.3076 34.9068 81.0215C34.3079 80.7355 33.7965 80.3408 33.3725 79.8396C32.9485 79.3407 32.6491 78.7642 32.4742 78.1145C32.2994 77.4647 32.2754 76.815 32.3999 76.1653V76.0522L44.8685 59.856H35.2455C35.3701 58.907 35.3198 57.969 35.0947 57.0443C34.8696 56.1196 34.4959 55.257 33.9714 54.4565H47.2246C47.8737 54.4565 48.5031 54.6007 49.1151 54.8889C49.727 55.1772 50.245 55.5697 50.669 56.0708L50.6712 56.0664Z" fill="#010202" />
            <path d="M72.876 54.4551L68.1202 81.4502H57.1116C56.4384 81.4502 55.8002 81.3061 55.2014 81.0201C54.6026 80.734 54.0911 80.3393 53.6671 79.8382C53.2431 79.3392 52.9437 78.7627 52.7689 78.113C52.594 77.4633 52.5678 76.8136 52.6946 76.1639L55.4659 60.3047C55.6407 59.2802 55.621 58.2669 55.409 57.2668C55.197 56.2667 54.8036 55.331 54.2288 54.4551H61.9788L58.1606 76.0508H63.5896L67.4077 54.4551H72.8738H72.876Z" fill="#010202" />
            <path d="M91.4454 56.0673C91.8694 56.5928 92.1689 57.1738 92.3437 57.8102C92.5185 58.4466 92.5426 59.0919 92.418 59.7416L91.2946 66.2276C91.1701 66.8773 90.9515 67.4716 90.639 68.0082C90.3264 68.5471 89.933 69.0083 89.4588 69.3963C88.9845 69.7844 88.4468 70.0971 87.848 70.3343C87.2492 70.5716 86.6241 70.6913 85.975 70.6913H79.6106L77.7005 81.4526H72.2344L75.9411 60.3802C76.14 59.3314 76.129 58.3047 75.9039 57.3068C75.6788 56.3068 75.2789 55.371 74.7062 54.4951H87.9988C88.6479 54.4951 89.2774 54.6326 89.8893 54.9076C90.5013 55.1825 91.0192 55.5706 91.4432 56.0695L91.4454 56.0673ZM86.9148 59.8902H81.523L80.5504 65.2896H85.9794L86.9148 59.8902Z" fill="#010202" />
            <path d="M111.886 56.0676C112.31 56.5931 112.616 57.1741 112.804 57.8105C112.992 58.4469 113.023 59.0921 112.898 59.7418L109.043 81.4506H98.0341C97.385 81.4506 96.7621 81.3131 96.1611 81.0382C95.5601 80.7632 95.0508 80.3752 94.6268 79.8762C94.2028 79.3507 93.8968 78.7697 93.7089 78.1333C93.5209 77.4969 93.4903 76.8516 93.6149 76.2019L96.4234 60.3051C96.5982 59.2806 96.5785 58.2673 96.3665 57.2672C96.1545 56.2671 95.7611 55.3424 95.1863 54.4932H108.442C109.838 54.4932 110.988 55.0187 111.886 56.0676ZM107.393 59.8904H101.964L99.1181 76.0512H104.547L107.393 59.8904Z" fill="#E30613" />
            <path d="M136.598 54.4551L135.663 59.8546H128.361L124.542 81.4502H119.076L122.895 59.8546H115.593C115.693 58.9055 115.63 57.9675 115.405 57.0428C115.18 56.1182 114.806 55.2556 114.281 54.4551H136.596H136.598Z" fill="#010202" />
            <path d="M144.499 59.8548L144.126 61.804L151.539 70.6538C152.037 71.2791 152.387 71.9732 152.588 72.7337C152.787 73.4965 152.824 74.266 152.7 75.0399L152.363 76.989C152.238 77.6387 152.02 78.2396 151.707 78.7896C151.395 79.3395 151.001 79.8096 150.527 80.1954C150.053 80.5835 149.515 80.8895 148.916 81.1134C148.318 81.3374 147.692 81.4505 147.043 81.4505H135.213L136.148 76.051H147.043L147.38 74.1019L140.004 65.2521C139.429 64.578 139.049 63.8019 138.861 62.9282C138.673 62.0545 138.705 61.1786 138.955 60.3027C139.129 59.2783 139.11 58.2649 138.898 57.2648C138.686 56.2648 138.292 55.329 137.718 54.4531H156.325L155.353 59.8526H144.495L144.499 59.8548Z" fill="#010202" />
            <path d="M176.809 54.4551L172.053 81.4502H161.044C160.371 81.4502 159.733 81.3061 159.134 81.0201C158.535 80.734 158.024 80.3393 157.6 79.8382C157.176 79.3392 156.877 78.7627 156.702 78.113C156.527 77.4633 156.501 76.8136 156.627 76.1639L159.399 60.3047C159.574 59.2802 159.554 58.2669 159.342 57.2668C159.13 56.2667 158.736 55.331 158.162 54.4551H165.912L162.094 76.0508H167.522L171.341 54.4551H176.807H176.809Z" fill="#010202" />
            <path d="M37.7316 27.3903C37.7316 27.3903 37.7275 27.3903 37.7234 27.3887C37.7254 27.3887 37.7275 27.3887 37.7316 27.3903Z" fill="#E30613" />
            <path d="M37.7804 27.4087C37.7651 27.4021 37.7497 27.3977 37.7344 27.3911C37.7497 27.3955 37.7629 27.4021 37.7804 27.4087Z" fill="#E30613" />
            <path d="M37.595 27.3374C37.595 27.3374 37.6431 27.3572 37.7261 27.3881C37.6824 27.3704 37.6387 27.3528 37.595 27.3374Z" fill="#E30613" />
            <path d="M90.3603 41.066C83.2398 36.9283 63.0037 31.2316 63.0037 31.2316L76.0952 28.859C79.4631 28.2492 84.0965 25.1492 83.3053 21.8142C82.1142 16.7939 75.7608 10.2147 66.5902 15.6474C53.4528 23.4307 45.9082 21.0491 28.4434 16.204C28.4434 16.204 23.8975 21.9871 37.5966 27.3356C37.6403 27.3533 37.684 27.3711 37.7277 27.3866C37.7299 27.3866 37.7321 27.3866 37.7364 27.3888C37.7517 27.3955 37.767 27.3999 37.7823 27.4065C38.2631 27.5862 39.6597 28.0762 41.653 28.4709C44.1795 28.9698 47.6545 29.3113 51.4158 28.6638C19.4061 40.7001 9.92083 57.9807 7.36591 69.518C6.66871 72.669 10.9786 74.5095 12.6375 71.7443C37.5026 30.3181 70.6378 42.6626 88.4042 46.1617C91.4728 46.7648 93.0682 42.6382 90.3647 41.066H90.3603ZM73.9052 18.9847C75.2821 18.845 76.5126 19.8495 76.6525 21.2288C76.7924 22.608 75.7892 23.8387 74.4101 23.9784C73.0332 24.1181 71.8027 23.1136 71.6629 21.7343C71.523 20.3551 72.5262 19.1244 73.9052 18.9847Z" fill="#E30613" />
          </svg>