<svg width="95" height="69" viewBox="0 0 95 69" fill="none" xmlns="http://www.w3.org/2000/svg">
<path d="M26.1614 38.1941C26.3803 38.456 26.5349 38.7562 26.6252 39.0959C26.7154 39.4355 26.7279 39.7751 26.6635 40.1147L26.6444 40.2329L20.2259 48.6412H25.1752L24.6922 51.4636H19.0084C18.6608 51.4636 18.3313 51.3883 18.0221 51.2388C17.713 51.0892 17.4489 50.8829 17.23 50.621C17.0111 50.3602 16.8565 50.0588 16.7662 49.7192C16.6759 49.3795 16.6635 49.0399 16.7279 48.7003V48.6412L23.1655 40.175H18.197C18.2614 39.6789 18.2354 39.1886 18.1192 38.7052C18.003 38.2219 17.81 37.771 17.5392 37.3525H24.3819C24.717 37.3525 25.042 37.4279 25.358 37.5786C25.6739 37.7293 25.9413 37.9344 26.1603 38.1964L26.1614 38.1941Z" fill="#010202"/>
<path d="M37.6247 37.3516L35.1692 51.4627H29.4854C29.1379 51.4627 28.8084 51.3873 28.4992 51.2378C28.19 51.0883 27.926 50.882 27.707 50.62C27.4881 50.3592 27.3335 50.0578 27.2433 49.7182C27.153 49.3786 27.1394 49.039 27.2049 48.6993L28.6357 40.4093C28.726 39.8738 28.7158 39.3441 28.6064 38.8213C28.4969 38.2986 28.2938 37.8094 27.997 37.3516H31.9984L30.0271 48.6402H32.83L34.8014 37.3516H37.6235H37.6247Z" fill="#010202"/>
<path d="M47.2156 38.1939C47.4345 38.4686 47.5891 38.7723 47.6794 39.105C47.7697 39.4376 47.7821 39.7749 47.7178 40.1145L47.1378 43.505C47.0734 43.8446 46.9606 44.1552 46.7992 44.4357C46.6379 44.7174 46.4348 44.9585 46.1899 45.1613C45.945 45.3642 45.6674 45.5276 45.3583 45.6517C45.0491 45.7757 44.7263 45.8383 44.3912 45.8383H41.1053L40.119 51.4635H37.2969L39.2107 40.4484C39.3133 39.9001 39.3077 39.3634 39.1915 38.8418C39.0753 38.3191 38.8688 37.8299 38.5731 37.3721H45.4361C45.7713 37.3721 46.0962 37.4439 46.4122 37.5877C46.7282 37.7314 46.9956 37.9342 47.2145 38.195L47.2156 38.1939ZM44.8764 40.1922H42.0926L41.5905 43.0147H44.3935L44.8764 40.1922Z" fill="#010202"/>
<path d="M57.7691 38.1941C57.988 38.4688 58.146 38.7725 58.243 39.1051C58.34 39.4378 58.3558 39.7751 58.2915 40.1147L56.301 51.4625H50.6172C50.282 51.4625 49.9604 51.3906 49.6501 51.2469C49.3398 51.1032 49.0769 50.9003 48.858 50.6395C48.6391 50.3648 48.4811 50.0611 48.3841 49.7285C48.287 49.3958 48.2712 49.0585 48.3355 48.7189L49.7855 40.4091C49.8758 39.8736 49.8657 39.3439 49.7562 38.8212C49.6467 38.2984 49.4436 37.815 49.1469 37.3711H55.9907C56.7117 37.3711 57.3053 37.6458 57.7691 38.1941ZM55.449 40.1924H52.6461L51.1769 48.64H53.9799L55.449 40.1924Z" fill="#E30613"/>
<path d="M70.5222 37.3516L70.0393 40.174H66.2692L64.2979 51.4627H61.4757L63.4471 40.174H59.677C59.729 39.6779 59.6962 39.1876 59.58 38.7043C59.4638 38.2209 59.2708 37.77 59 37.3516H70.5211H70.5222Z" fill="#010202"/>
<path d="M74.6071 40.1742L74.4142 41.1931L78.2417 45.8191C78.499 46.146 78.6796 46.5088 78.7834 46.9064C78.8861 47.3051 78.9053 47.7073 78.8409 48.1118L78.6672 49.1307C78.6028 49.4703 78.49 49.7844 78.3286 50.0719C78.1673 50.3594 77.9642 50.6051 77.7193 50.8068C77.4744 51.0096 77.1968 51.1696 76.8877 51.2867C76.5785 51.4037 76.2557 51.4629 75.9206 51.4629H69.8125L70.2955 48.6404H75.9206L76.0944 47.6215L72.286 42.9955C71.9892 42.6431 71.7929 42.2374 71.6958 41.7807C71.5988 41.324 71.6157 40.8662 71.7444 40.4083C71.8346 39.8728 71.8245 39.3431 71.715 38.8203C71.6056 38.2976 71.4024 37.8084 71.1057 37.3506H80.713L80.2108 40.173H74.6049L74.6071 40.1742Z" fill="#010202"/>
<path d="M91.2887 37.3516L88.8333 51.4627H83.1495C82.8019 51.4627 82.4724 51.3873 82.1632 51.2378C81.8541 51.0883 81.59 50.882 81.3711 50.62C81.1522 50.3592 80.9976 50.0578 80.9073 49.7182C80.817 49.3786 80.8035 49.039 80.869 48.6993L82.2998 40.4093C82.3901 39.8738 82.3799 39.3441 82.2704 38.8213C82.161 38.2986 81.9579 37.8094 81.6611 37.3516H85.6625L83.6911 48.6402H86.4941L88.4654 37.3516H91.2876H91.2887Z" fill="#010202"/>
<path d="M19.5077 23.2132C19.4999 23.2098 19.4921 23.2075 19.4844 23.2041C19.4921 23.2064 19.4988 23.2098 19.5077 23.2132Z" fill="#E30613"/>
<path d="M19.4141 23.1768C19.4141 23.1768 19.4389 23.1871 19.4818 23.2032C19.4592 23.194 19.4366 23.1848 19.4141 23.1768Z" fill="#E30613"/>
<path d="M46.655 30.3529C42.9787 28.19 32.5307 25.2122 32.5307 25.2122L39.2899 23.9719C41.0288 23.6532 43.421 22.0327 43.0125 20.2894C42.3975 17.6652 39.1172 14.2261 34.3824 17.0659C27.5995 21.1344 23.7042 19.8895 14.6871 17.3569C14.6871 17.3569 12.34 20.3798 19.4129 23.1756C19.4355 23.1849 19.458 23.1942 19.4806 23.2023C19.4817 23.2023 19.4828 23.2023 19.4851 23.2034C19.493 23.2069 19.5009 23.2092 19.5088 23.2127C19.757 23.3066 20.4781 23.5628 21.5072 23.7691C22.8117 24.0299 24.6058 24.2084 26.5478 23.8699C10.0211 30.1616 5.12379 39.1946 3.80467 45.2255C3.44471 46.8726 5.66994 47.8347 6.5264 46.3893C19.3644 24.7346 36.4722 31.1874 45.6451 33.0165C47.2294 33.3318 48.0531 31.1747 46.6573 30.3529H46.655ZM38.1592 18.8104C38.8701 18.7374 39.5054 19.2624 39.5776 19.9834C39.6498 20.7044 39.1319 21.3477 38.4199 21.4207C37.709 21.4937 37.0737 20.9687 37.0015 20.2477C36.9292 19.5267 37.4472 18.8834 38.1592 18.8104Z" fill="#E30613"/>
</svg>
